<?xml version="1.0" encoding="UTF-8"?>
<svg width="260px" height="120px" viewBox="0 0 260 120" version="1.1" xmlns="http://www.w3.org/2000/svg">
    <title>chessbord pieces and markers sprite</title>

    <g id="Sprite" stroke="none" stroke-width="1" fill="none">
        <g id="wk" fill="none" stroke-width="1.5" stroke-linecap="round" transform="translate(0, 0)" stroke-linejoin="round">
            <path fill-rule="evenodd" clip-rule="evenodd" d="M20.6681 13.793C15.465 10.8194 6.17104 15.5374 8.31581 22.5551L13.9558 35.163H11.533V40H33.497V35.2026H31.0345L36.6744 22.5947C38.8589 15.5374 29.5252 10.8194 24.3618 13.8326V10.7401H27.0627V7.01322H24.3618V4H20.6681V7.01322H17.9673V10.7004H20.6681V13.793Z" fill="white"/>
            <path fill-rule="evenodd" clip-rule="evenodd" d="M24.8618 3.5H20.1681V6.51322H17.4672V11.2004H20.1681V12.99C17.4596 11.8513 14.0448 12.4008 11.4722 14.0029C8.63521 15.7696 6.6801 18.9138 7.83763 22.7012L7.8467 22.7309L13.1843 34.663H11.0329V40.5H33.997V34.7026H31.8059L37.1431 22.7714L37.152 22.7426C38.3304 18.9357 36.3762 15.7803 33.5379 14.0128C30.9678 12.4123 27.5553 11.8698 24.8618 13.0227V11.2401H27.5627V6.51322H24.8618V3.5ZM21.1681 7.51322V4.5H23.8618V7.51322H26.5627V10.2401H23.8618V14.3594C23.4057 21.1315 23.0707 24.7827 22.7937 26.7417C22.6959 27.4335 22.6077 27.8954 22.5298 28.2011C22.4499 27.8961 22.3593 27.4341 22.2596 26.7405C21.9702 24.7281 21.6241 20.9273 21.1681 13.7863V10.2004H18.4672V7.51322H21.1681ZM20.1861 14.1006C17.8015 12.8812 14.5134 13.2871 12.0008 14.8517C9.43399 16.4502 7.81651 19.1623 8.7851 22.3797L14.7272 35.663H12.0329V39.5H32.997V35.7026H30.263L36.2055 22.4185C37.1934 19.1806 35.575 16.4595 33.0092 14.8617C30.5091 13.3047 27.2428 12.9052 24.8803 14.1185C24.4138 21.0856 24.0708 24.8521 23.7839 26.8816C23.6398 27.9009 23.5048 28.5232 23.359 28.8988C23.2863 29.086 23.1925 29.2623 23.052 29.3926C22.8872 29.5452 22.7011 29.5964 22.5342 29.5964C22.3678 29.5964 22.1827 29.5456 22.0179 29.3954C21.8762 29.2663 21.7802 29.0909 21.7053 28.9027C21.5555 28.5261 21.4164 27.9029 21.2697 26.8828C20.9775 24.8505 20.6341 21.0786 20.1861 14.1006Z" fill="#2D2E37"/>
        </g>
        <g id="wq" fill="none" stroke-linecap="round" stroke-linejoin="round" transform="translate(45.000000, 0)" >
            <path fill-rule="evenodd" clip-rule="evenodd" d="M11.7007 35.1377H13.7883L8.4489 13.5761C8.28832 13.6159 8.12774 13.6558 7.96715 13.6558C6.88321 13.6558 6 12.779 6 11.7029C6 10.6268 6.88321 9.75 7.96715 9.75C9.0511 9.75 9.93431 10.6268 9.93431 11.7029C9.93431 12.3007 9.65328 12.8587 9.21168 13.2174L16.2774 21.4674L17.1606 10.9058C16.0766 10.9058 15.1934 10.029 15.1934 8.9529C15.1934 7.87681 16.0766 7 17.1606 7C18.2445 7 19.1277 7.87681 19.1277 8.9529C19.1277 9.78986 18.6058 10.5072 17.8431 10.7862L22.5 19.1558L27.1569 10.7862C26.3942 10.5072 25.8723 9.78986 25.8723 8.9529C25.8723 7.87681 26.7555 7 27.8394 7C28.9234 7 29.8066 7.87681 29.8066 8.9529C29.8066 10.029 28.9234 10.9058 27.8394 10.9058L28.7226 21.4674L35.7883 13.2174C35.3467 12.8587 35.0657 12.3007 35.0657 11.7029C35.0657 10.6268 35.9489 9.75 37.0329 9.75C38.1168 9.75 39 10.6268 39 11.7029C39 12.779 38.1168 13.6558 37.0329 13.6558C36.8723 13.6558 36.7117 13.6159 36.5511 13.5761L31.0912 35.1377H33.9015V40H11.7007V35.1377Z" fill="white"/>
            <path fill-rule="evenodd" clip-rule="evenodd" d="M17.1606 7.5C16.3494 7.5 15.6934 8.15638 15.6934 8.9529C15.6934 9.74942 16.3494 10.4058 17.1606 10.4058H17.4276L17.6713 10.3167C18.2417 10.108 18.6277 9.57495 18.6277 8.9529C18.6277 8.15638 17.9718 7.5 17.1606 7.5ZM17.6199 11.4135L16.6759 22.7014L9.00608 13.746L14.4272 35.6377H12.2007V39.5H33.4015V35.6377H30.4489L35.9916 13.7487L28.3241 22.7014L27.3801 11.4135L22.5 20.1841L17.6199 11.4135ZM27.5724 10.4058H27.8394C28.6507 10.4058 29.3066 9.74942 29.3066 8.9529C29.3066 8.15638 28.6507 7.5 27.8394 7.5C27.0282 7.5 26.3723 8.15638 26.3723 8.9529C26.3723 9.57495 26.7583 10.108 27.3287 10.3167L27.5724 10.4058ZM36.3173 13.0029L36.6715 13.0908C36.8437 13.1335 36.944 13.1558 37.0329 13.1558C37.8441 13.1558 38.5 12.4994 38.5 11.7029C38.5 10.9064 37.8441 10.25 37.0329 10.25C36.2216 10.25 35.5657 10.9064 35.5657 11.7029C35.5657 12.1452 35.775 12.5624 36.1036 12.8293L36.3173 13.0029ZM8.68271 13.0029L8.89644 12.8293C9.22501 12.5624 9.43431 12.1452 9.43431 11.7029C9.43431 10.9064 8.77839 10.25 7.96715 10.25C7.15592 10.25 6.5 10.9064 6.5 11.7029C6.5 12.4994 7.15592 13.1558 7.96715 13.1558C8.05595 13.1558 8.15626 13.1335 8.32846 13.0908L8.68271 13.0029ZM14.6934 8.9529C14.6934 7.59725 15.8039 6.5 17.1606 6.5C18.5172 6.5 19.6277 7.59725 19.6277 8.9529C19.6277 9.80199 19.1991 10.5532 18.5315 10.9951L22.5 18.1274L26.4685 10.9951C25.8009 10.5532 25.3723 9.80199 25.3723 8.9529C25.3723 7.59725 26.4828 6.5 27.8394 6.5C29.1961 6.5 30.3066 7.59725 30.3066 8.9529C30.3066 10.1238 29.4781 11.102 28.378 11.3468L29.1212 20.2334L35.1103 13.2404C34.7693 12.816 34.5657 12.2752 34.5657 11.7029C34.5657 10.3472 35.6762 9.25 37.0329 9.25C38.3895 9.25 39.5 10.3472 39.5 11.7029C39.5 13.0585 38.3895 14.1558 37.0329 14.1558C36.9952 14.1558 36.9579 14.1543 36.9211 14.1516L31.7336 34.6377H34.4015V40.5H11.2007V34.6377H13.1494L8.07637 14.1518C8.04041 14.1544 8.00393 14.1558 7.96715 14.1558C6.6105 14.1558 5.5 13.0585 5.5 11.7029C5.5 10.3472 6.6105 9.25 7.96715 9.25C9.3238 9.25 10.4343 10.3472 10.4343 11.7029C10.4343 12.2752 10.2307 12.816 9.8897 13.2404L15.8788 20.2334L16.622 11.3468C15.5219 11.102 14.6934 10.1238 14.6934 8.9529Z" fill="#2D2E37"/>
        </g>
        <g id="wb" fill="none" stroke-linecap="round" stroke-linejoin="round" transform="translate(90.000000, 0)" stroke-width="1.5">
            <path fill-rule="evenodd" clip-rule="evenodd" d="M11.5 35.0955H17.6155C14.5975 33.005 12.4531 29.0653 12.4531 24.5628C12.4531 18.4121 16.5433 12.3417 21.3087 11.4171C20.8718 11.0553 20.5939 10.5327 20.5939 9.92965C20.5939 8.88442 21.4278 8 22.5 8C23.5325 8 24.4061 8.84422 24.4061 9.92965C24.4061 10.5327 24.1282 11.0553 23.6913 11.4171C25.6769 11.7789 27.5433 13.0653 29.0523 14.8744L23.0162 21.9095L24.7238 23.397L30.4025 16.804C31.713 19.0553 32.5469 21.8291 32.5469 24.5628C32.5469 29.0653 30.4025 33.005 27.3845 35.0955H33.5V40H11.5V35.0955Z" fill="white"/>
            <path fill-rule="evenodd" clip-rule="evenodd" d="M22.5 8.5C21.7164 8.5 21.0939 9.14792 21.0939 9.92965C21.0939 10.3699 21.2943 10.756 21.6276 11.032L22.4419 11.7065L21.4039 11.9079C19.192 12.3371 17.0793 13.9779 15.5085 16.3095C13.9421 18.6347 12.9531 21.5937 12.9531 24.5628C12.9531 28.9127 15.0261 32.6937 17.9002 34.6844L19.2155 35.5955H12V39.5H33V35.5955H25.7845L27.0998 34.6844C29.9739 32.6937 32.0469 28.9127 32.0469 24.5628C32.0469 22.1703 31.3834 19.7361 30.3117 17.6756L24.7745 24.1043L22.3136 21.9606L28.3929 14.8751C26.9884 13.2988 25.3239 12.2228 23.6017 11.909L22.5459 11.7166L23.3724 11.032C23.7057 10.756 23.9061 10.3699 23.9061 9.92965C23.9061 9.12137 23.2574 8.5 22.5 8.5ZM20.0939 9.92965C20.0939 8.62092 21.1392 7.5 22.5 7.5C23.8076 7.5 24.9061 8.56708 24.9061 9.92965C24.9061 10.3683 24.7895 10.7719 24.5883 11.1208C26.4095 11.6719 28.0767 12.9241 29.4363 14.5541L29.7073 14.8789L23.7189 21.8585L24.6731 22.6897L30.4816 15.946L30.8346 16.5525C32.1853 18.8728 33.0469 21.7327 33.0469 24.5628C33.0469 28.6343 31.3519 32.28 28.8113 34.5955H34V40.5H11V34.5955H16.1887C13.6481 32.28 11.9531 28.6343 11.9531 24.5628C11.9531 21.3812 13.0092 18.2296 14.6792 15.7508C16.1695 13.5387 18.1797 11.8195 20.4153 11.1271C20.2119 10.7768 20.0939 10.3709 20.0939 9.92965Z" fill="#2D2E37"/>
        </g>
        <g id="wn" fill="none" stroke-linecap="round" stroke-linejoin="round" transform="translate(135.000000, 0)" >
            <path fill-rule="evenodd" clip-rule="evenodd" d="M11.0194 35.0358H12.5388C11.1015 30.3157 14.3868 26.1245 20.7108 22.0148C18.6165 21.0789 15.4134 21.2824 12.4567 22.5845L9.5 19.4513L10.8962 16.1147L23.0105 10.3773C22.5177 9.23798 22.3534 8.13933 22.6819 7C37.219 14.4871 38.0403 24.2121 31.8395 35.0358H33.7285V40H11.0194V35.0358Z" fill="white"/>
            <path fill-rule="evenodd" clip-rule="evenodd" d="M22.3701 6.27695L22.9109 6.55549C30.247 10.3338 34.2235 14.7293 35.5209 19.6389C36.757 24.3166 35.5277 29.3374 32.692 34.5358H34.2285V40.5H10.5194V34.5358H11.8908C11.3852 32.2479 11.9262 30.0803 13.2981 28.0193C14.6508 25.9873 16.8145 24.0501 19.591 22.1591C17.6926 21.6838 15.1134 21.9608 12.6582 23.042L12.3353 23.1843L8.91333 19.5581L10.509 15.7448L22.3728 10.1261C21.9872 9.05976 21.878 7.98355 22.2015 6.86147L22.3701 6.27695ZM23.0378 7.75083C22.9433 8.54139 23.1033 9.33241 23.4694 10.1788L23.6612 10.6223L11.2835 16.4845L10.0867 19.3445L12.5813 21.988C15.529 20.7742 18.7295 20.5817 20.9148 21.5583L21.7539 21.9332L20.9833 22.434C17.8442 24.474 15.5075 26.5048 14.1306 28.5734C12.7666 30.6226 12.3493 32.6968 13.0172 34.8901L13.2138 35.5358H11.5194V39.5H33.2285V35.5358H30.9768L31.4057 34.7872C34.4757 29.4285 35.7534 24.4327 34.5541 19.8944C33.3896 15.4881 29.8553 11.3845 23.0378 7.75083Z" fill="#2D2E37"/>
        </g>
        <g id="wr" fill="none" stroke-linecap="round" stroke-linejoin="round" transform="translate(180.000000, 0)" stroke-width="1.5">
            <path fill-rule="evenodd" clip-rule="evenodd" d="M11.5 35.1016H14.2848L16.7116 17.9573L13.4096 16.8733V8H17.189V11.2923H20.5307V8H22.5199H24.4693V11.2923H27.811V8H31.5904V16.8733L28.3282 17.9573L30.755 35.1016H33.5V40H11.5V35.1016Z" fill="white"/>
            <path fill-rule="evenodd" clip-rule="evenodd" d="M12.9096 7.5H17.689V10.7923H20.0307V7.5H24.9693V10.7923H27.311V7.5H32.0904V17.234L28.8817 18.3003L31.1892 34.6016H34V40.5H11V34.6016H13.8506L16.1578 18.3018L12.9096 17.2354V7.5ZM13.9096 8.5V16.5112L17.2653 17.6129L14.719 35.6016H12V39.5H33V35.6016H30.3208L27.7747 17.6144L31.0904 16.5125V8.5H28.311V11.7923H23.9693V8.5H21.0307V11.7923H16.689V8.5H13.9096Z" fill="#2D2E37"/>
        </g>
        <g id="wp" transform="translate(225.000000, 0)" fill="#FFFFFF" stroke-linecap="round" stroke-width="1.5">
            <path fill-rule="evenodd" clip-rule="evenodd" d="M31.1926 35.1563L26.2993 21.2605C32.3065 21.2605 28.5669 18.6005 25.3047 16.6551C26.4982 15.7816 27.2939 14.3921 27.2939 12.7643C27.2939 10.1439 25.1456 8 22.5199 8C19.8942 8 17.7459 10.1439 17.7459 12.7643C17.7459 14.3524 18.5416 15.7816 19.7351 16.6551C16.4729 18.6005 12.6935 21.2605 18.7007 21.2605L13.8472 35.1563H11.5V40H33.5V35.1563H31.1926Z" fill="white"/>
            <path fill-rule="evenodd" clip-rule="evenodd" d="M17.2459 12.7643C17.2459 9.86682 19.619 7.5 22.5199 7.5C25.4208 7.5 27.7938 9.86682 27.7938 12.7643C27.7938 14.2932 27.1571 15.6315 26.1602 16.5884C26.7898 16.9757 27.4194 17.3848 27.9762 17.7917C28.6958 18.3178 29.3474 18.8779 29.6969 19.4144C29.8721 19.6831 30.0138 20.0096 29.9827 20.3605C29.9487 20.743 29.7223 21.0363 29.4038 21.2373C29.1006 21.4287 28.6912 21.5546 28.1961 21.6358C27.8564 21.6916 27.4594 21.729 27.0008 21.7473L31.5466 34.6563H34V40.5H11V34.6563H13.4922L18.0011 21.7474C17.542 21.7291 17.1448 21.6917 16.8055 21.6358C16.3115 21.5545 15.9028 21.4286 15.6008 21.2363C15.2827 21.0338 15.0587 20.7382 15.0294 20.3544C15.0026 20.0039 15.1478 19.6787 15.325 19.4112C15.6795 18.8763 16.3351 18.3169 17.0584 17.791C17.6181 17.384 18.2502 16.9748 18.8809 16.5874C17.8821 15.6215 17.2459 14.2585 17.2459 12.7643ZM22.5199 8.5C20.1694 8.5 18.2459 10.421 18.2459 12.7643C18.2459 14.1835 18.9578 15.4666 20.0304 16.2516L20.6399 16.6977L19.9912 17.0845C19.1801 17.5682 18.3474 18.0902 17.6465 18.5998C16.9314 19.1198 16.406 19.5902 16.1587 19.9635C16.0351 20.1501 16.0242 20.2485 16.0265 20.2782C16.0272 20.2871 16.0288 20.2936 16.0365 20.3051C16.0463 20.3196 16.0728 20.3513 16.1378 20.3927C16.2753 20.4803 16.5314 20.5773 16.9678 20.6491C17.3969 20.7197 17.9657 20.7605 18.7007 20.7605H19.405L14.2022 35.6563H12V39.5H33V35.6563H30.8386L25.5931 20.7605H26.2993C27.0343 20.7605 27.6037 20.7197 28.0341 20.6491C28.4715 20.5772 28.73 20.4801 28.87 20.3917C28.9364 20.3498 28.9644 20.3172 28.9752 20.3015C28.9839 20.2887 28.9858 20.2812 28.9866 20.2721C28.9892 20.2429 28.9799 20.1456 28.8591 19.9603C28.6169 19.5886 28.0973 19.1189 27.3861 18.5991C26.6892 18.0897 25.8593 17.568 25.0486 17.0845L24.3999 16.6977L25.0094 16.2516C26.0839 15.4652 26.7939 14.221 26.7939 12.7643C26.7939 10.421 24.8704 8.5 22.5199 8.5Z" fill="#2D2E37"/>
        </g>
        <g id="bk" fill="none" stroke-linecap="round" stroke-linejoin="round" transform="translate(0, 45.000000)" stroke-width="1.5">
            <path fill-rule="evenodd" clip-rule="evenodd" d="M20.6681 13.793C15.465 10.8194 6.17104 15.5374 8.31581 22.5551L13.9558 35.163H11.533V40H33.497V35.2026H31.0345L36.6744 22.5947C38.8589 15.5374 29.5252 10.8194 24.3618 13.8326V10.7401H27.0627V7.01322H24.3618V4H20.6681V7.01322H17.9673V10.7004H20.6681V13.793Z" fill="#2D2E37"/>
            <path fill-rule="evenodd" clip-rule="evenodd" d="M24.8618 3.5H20.1681V6.51322H17.4672V11.2004H20.1681V12.99C17.4596 11.8513 14.0448 12.4008 11.4722 14.0029C8.63521 15.7696 6.6801 18.9138 7.83763 22.7012L7.8467 22.7309L13.1843 34.663H11.0329V40.5H33.997V34.7026H31.8059L37.1431 22.7714L37.152 22.7426C38.3304 18.9357 36.3762 15.7803 33.5379 14.0128C30.9678 12.4123 27.5553 11.8698 24.8618 13.0227V11.2401H27.5627V6.51322H24.8618V3.5ZM21.1681 7.51322V4.5H23.8618V7.51322H26.5627V10.2401H23.8618V14.3594C23.4057 21.1315 23.0707 24.7827 22.7937 26.7417C22.6959 27.4335 22.6077 27.8954 22.5298 28.2011C22.4499 27.8961 22.3593 27.4341 22.2596 26.7405C21.9702 24.7281 21.6241 20.9273 21.1681 13.7863V10.2004H18.4672V7.51322H21.1681ZM20.1861 14.1006C17.8015 12.8812 14.5134 13.2871 12.0008 14.8517C9.43399 16.4502 7.81651 19.1623 8.7851 22.3797L14.7272 35.663H12.0329V39.5H32.997V35.7026H30.263L36.2055 22.4185C37.1934 19.1806 35.575 16.4595 33.0092 14.8617C30.5091 13.3047 27.2428 12.9052 24.8803 14.1185C24.4138 21.0856 24.0708 24.8521 23.7839 26.8816C23.6398 27.9009 23.5048 28.5232 23.359 28.8988C23.2863 29.086 23.1925 29.2623 23.052 29.3926C22.8872 29.5452 22.7011 29.5964 22.5342 29.5964C22.3678 29.5964 22.1827 29.5456 22.0179 29.3954C21.8762 29.2663 21.7802 29.0909 21.7053 28.9027C21.5555 28.5261 21.4164 27.9029 21.2697 26.8828C20.9775 24.8505 20.6341 21.0786 20.1861 14.1006Z" fill="#FCFCFC"/>
        </g>
        <g id="bq" fill="none" stroke-linecap="round" stroke-linejoin="round" transform="translate(45.000000, 45.000000)">
            <path fill-rule="evenodd" clip-rule="evenodd" d="M11.7007 35.1377H13.7883L8.4489 13.5761C8.28832 13.6159 8.12774 13.6558 7.96715 13.6558C6.88321 13.6558 6 12.779 6 11.7029C6 10.6268 6.88321 9.75 7.96715 9.75C9.0511 9.75 9.93431 10.6268 9.93431 11.7029C9.93431 12.3007 9.65328 12.8587 9.21168 13.2174L16.2774 21.4674L17.1606 10.9058C16.0766 10.9058 15.1934 10.029 15.1934 8.9529C15.1934 7.87681 16.0766 7 17.1606 7C18.2445 7 19.1277 7.87681 19.1277 8.9529C19.1277 9.78986 18.6058 10.5072 17.8431 10.7862L22.5 19.1558L27.1569 10.7862C26.3942 10.5072 25.8723 9.78986 25.8723 8.9529C25.8723 7.87681 26.7555 7 27.8394 7C28.9234 7 29.8066 7.87681 29.8066 8.9529C29.8066 10.029 28.9234 10.9058 27.8394 10.9058L28.7226 21.4674L35.7883 13.2174C35.3467 12.8587 35.0657 12.3007 35.0657 11.7029C35.0657 10.6268 35.9489 9.75 37.0329 9.75C38.1168 9.75 39 10.6268 39 11.7029C39 12.779 38.1168 13.6558 37.0329 13.6558C36.8723 13.6558 36.7117 13.6159 36.5511 13.5761L31.0912 35.1377H33.9015V40H11.7007V35.1377Z" fill="#2D2E37"/>
            <path fill-rule="evenodd" clip-rule="evenodd" d="M17.1606 7.5C16.3494 7.5 15.6934 8.15638 15.6934 8.9529C15.6934 9.74942 16.3494 10.4058 17.1606 10.4058H17.4276L17.6713 10.3167C18.2417 10.108 18.6277 9.57495 18.6277 8.9529C18.6277 8.15638 17.9718 7.5 17.1606 7.5ZM17.6199 11.4135L16.6759 22.7014L9.00608 13.746L14.4272 35.6377H12.2007V39.5H33.4015V35.6377H30.4489L35.9916 13.7487L28.3241 22.7014L27.3801 11.4135L22.5 20.1841L17.6199 11.4135ZM27.5724 10.4058H27.8394C28.6507 10.4058 29.3066 9.74942 29.3066 8.9529C29.3066 8.15638 28.6507 7.5 27.8394 7.5C27.0282 7.5 26.3723 8.15638 26.3723 8.9529C26.3723 9.57495 26.7583 10.108 27.3287 10.3167L27.5724 10.4058ZM36.3173 13.0029L36.6715 13.0908C36.8437 13.1335 36.944 13.1558 37.0329 13.1558C37.8441 13.1558 38.5 12.4994 38.5 11.7029C38.5 10.9064 37.8441 10.25 37.0329 10.25C36.2216 10.25 35.5657 10.9064 35.5657 11.7029C35.5657 12.1452 35.775 12.5624 36.1036 12.8293L36.3173 13.0029ZM8.68271 13.0029L8.89644 12.8293C9.22501 12.5624 9.43431 12.1452 9.43431 11.7029C9.43431 10.9064 8.77839 10.25 7.96715 10.25C7.15592 10.25 6.5 10.9064 6.5 11.7029C6.5 12.4994 7.15592 13.1558 7.96715 13.1558C8.05595 13.1558 8.15626 13.1335 8.32846 13.0908L8.68271 13.0029ZM14.6934 8.9529C14.6934 7.59725 15.8039 6.5 17.1606 6.5C18.5172 6.5 19.6277 7.59725 19.6277 8.9529C19.6277 9.80199 19.1991 10.5532 18.5315 10.9951L22.5 18.1274L26.4685 10.9951C25.8009 10.5532 25.3723 9.80199 25.3723 8.9529C25.3723 7.59725 26.4828 6.5 27.8394 6.5C29.1961 6.5 30.3066 7.59725 30.3066 8.9529C30.3066 10.1238 29.4781 11.102 28.378 11.3468L29.1212 20.2334L35.1103 13.2404C34.7693 12.816 34.5657 12.2752 34.5657 11.7029C34.5657 10.3472 35.6762 9.25 37.0329 9.25C38.3895 9.25 39.5 10.3472 39.5 11.7029C39.5 13.0585 38.3895 14.1558 37.0329 14.1558C36.9952 14.1558 36.9579 14.1543 36.9211 14.1516L31.7336 34.6377H34.4015V40.5H11.2007V34.6377H13.1494L8.07637 14.1518C8.04041 14.1544 8.00393 14.1558 7.96715 14.1558C6.6105 14.1558 5.5 13.0585 5.5 11.7029C5.5 10.3472 6.6105 9.25 7.96715 9.25C9.3238 9.25 10.4343 10.3472 10.4343 11.7029C10.4343 12.2752 10.2307 12.816 9.8897 13.2404L15.8788 20.2334L16.622 11.3468C15.5219 11.102 14.6934 10.1238 14.6934 8.9529Z" fill="#FCFCFC"/>
        </g>
        <g id="bb" fill="none" stroke-linecap="round" stroke-linejoin="round" transform="translate(90.000000, 45)" stroke-width="1.5">
            <path fill-rule="evenodd" clip-rule="evenodd" d="M11.5 35.0955H17.6155C14.5975 33.005 12.4531 29.0653 12.4531 24.5628C12.4531 18.4121 16.5433 12.3417 21.3087 11.4171C20.8718 11.0553 20.5939 10.5327 20.5939 9.92965C20.5939 8.88442 21.4278 8 22.5 8C23.5325 8 24.4061 8.84422 24.4061 9.92965C24.4061 10.5327 24.1282 11.0553 23.6913 11.4171C25.6769 11.7789 27.5433 13.0653 29.0523 14.8744L23.0162 21.9095L24.7238 23.397L30.4025 16.804C31.713 19.0553 32.5469 21.8291 32.5469 24.5628C32.5469 29.0653 30.4025 33.005 27.3845 35.0955H33.5V40H11.5V35.0955Z" fill="#2D2E37"/>
            <path fill-rule="evenodd" clip-rule="evenodd" d="M22.5 8.5C21.7164 8.5 21.0939 9.14792 21.0939 9.92965C21.0939 10.3699 21.2943 10.756 21.6276 11.032L22.4419 11.7065L21.4039 11.9079C19.192 12.3371 17.0793 13.9779 15.5085 16.3095C13.9421 18.6347 12.9531 21.5937 12.9531 24.5628C12.9531 28.9127 15.0261 32.6937 17.9002 34.6844L19.2155 35.5955H12V39.5H33V35.5955H25.7845L27.0998 34.6844C29.9739 32.6937 32.0469 28.9127 32.0469 24.5628C32.0469 22.1703 31.3834 19.7361 30.3117 17.6756L24.7745 24.1043L22.3136 21.9606L28.3929 14.8751C26.9884 13.2988 25.3239 12.2228 23.6017 11.909L22.5459 11.7166L23.3724 11.032C23.7057 10.756 23.9061 10.3699 23.9061 9.92965C23.9061 9.12137 23.2574 8.5 22.5 8.5ZM20.0939 9.92965C20.0939 8.62092 21.1392 7.5 22.5 7.5C23.8076 7.5 24.9061 8.56708 24.9061 9.92965C24.9061 10.3683 24.7895 10.7719 24.5883 11.1208C26.4095 11.6719 28.0767 12.9241 29.4363 14.5541L29.7073 14.8789L23.7189 21.8585L24.6731 22.6897L30.4816 15.946L30.8346 16.5525C32.1853 18.8728 33.0469 21.7327 33.0469 24.5628C33.0469 28.6343 31.3519 32.28 28.8113 34.5955H34V40.5H11V34.5955H16.1887C13.6481 32.28 11.9531 28.6343 11.9531 24.5628C11.9531 21.3812 13.0092 18.2296 14.6792 15.7508C16.1695 13.5387 18.1797 11.8195 20.4153 11.1271C20.2119 10.7768 20.0939 10.3709 20.0939 9.92965Z" fill="#FCFCFC"/>
        </g>
        <g id="bn" fill="none" stroke-linecap="round" stroke-linejoin="round" transform="translate(135.000000, 45)" >
            <path fill-rule="evenodd" clip-rule="evenodd" d="M11.0194 35.0358H12.5388C11.1015 30.3157 14.3868 26.1245 20.7108 22.0148C18.6165 21.0789 15.4134 21.2824 12.4567 22.5845L9.5 19.4513L10.8962 16.1147L23.0105 10.3773C22.5177 9.23798 22.3534 8.13933 22.6819 7C37.219 14.4871 38.0403 24.2121 31.8395 35.0358H33.7285V40H11.0194V35.0358Z" fill="#2D2E37"/>
            <path fill-rule="evenodd" clip-rule="evenodd" d="M22.3701 6.27695L22.9109 6.55549C30.247 10.3338 34.2235 14.7293 35.5209 19.6389C36.757 24.3166 35.5277 29.3374 32.692 34.5358H34.2285V40.5H10.5194V34.5358H11.8908C11.3852 32.2479 11.9262 30.0803 13.2981 28.0193C14.6508 25.9873 16.8145 24.0501 19.591 22.1591C17.6926 21.6838 15.1134 21.9608 12.6582 23.042L12.3353 23.1843L8.91333 19.5581L10.509 15.7448L22.3728 10.1261C21.9872 9.05976 21.878 7.98355 22.2015 6.86147L22.3701 6.27695ZM23.0378 7.75083C22.9433 8.54139 23.1033 9.33241 23.4694 10.1788L23.6612 10.6223L11.2835 16.4845L10.0867 19.3445L12.5813 21.988C15.529 20.7742 18.7295 20.5817 20.9148 21.5583L21.7539 21.9332L20.9833 22.434C17.8442 24.474 15.5075 26.5048 14.1306 28.5734C12.7666 30.6226 12.3493 32.6968 13.0172 34.8901L13.2138 35.5358H11.5194V39.5H33.2285V35.5358H30.9768L31.4057 34.7872C34.4757 29.4285 35.7534 24.4327 34.5541 19.8944C33.3896 15.4881 29.8553 11.3845 23.0378 7.75083Z" fill="#FCFCFC"/>
        </g>
        <g id="br" fill="none" stroke-linecap="round" stroke-linejoin="round" transform="translate(180.000000, 45)">
            <path fill-rule="evenodd" clip-rule="evenodd" d="M11.5 35.1016H14.2848L16.7116 17.9573L13.4096 16.8733V8H17.189V11.2923H20.5307V8H22.5199H24.4693V11.2923H27.811V8H31.5904V16.8733L28.3282 17.9573L30.755 35.1016H33.5V40H11.5V35.1016Z" fill="#2D2E37"/>
            <path fill-rule="evenodd" clip-rule="evenodd" d="M12.9096 7.5H17.689V10.7923H20.0307V7.5H24.9693V10.7923H27.311V7.5H32.0904V17.234L28.8817 18.3003L31.1892 34.6016H34V40.5H11V34.6016H13.8506L16.1578 18.3018L12.9096 17.2354V7.5ZM13.9096 8.5V16.5112L17.2653 17.6129L14.719 35.6016H12V39.5H33V35.6016H30.3208L27.7747 17.6144L31.0904 16.5125V8.5H28.311V11.7923H23.9693V8.5H21.0307V11.7923H16.689V8.5H13.9096Z" fill="#FCFCFC"/>
        </g>
        <g id="bp" transform="translate(225.000000, 45)" fill="#000000"  stroke-linecap="round" stroke-width="1.5">
            <path fill-rule="evenodd" clip-rule="evenodd" d="M31.1926 35.1563L26.2993 21.2605C32.3065 21.2605 28.5669 18.6005 25.3047 16.6551C26.4982 15.7816 27.2939 14.3921 27.2939 12.7643C27.2939 10.1439 25.1456 8 22.5199 8C19.8942 8 17.7459 10.1439 17.7459 12.7643C17.7459 14.3524 18.5416 15.7816 19.7351 16.6551C16.4729 18.6005 12.6935 21.2605 18.7007 21.2605L13.8472 35.1563H11.5V40H33.5V35.1563H31.1926Z" fill="#2D2E37"/>
            <path fill-rule="evenodd" clip-rule="evenodd" d="M17.2459 12.7643C17.2459 9.86682 19.619 7.5 22.5199 7.5C25.4208 7.5 27.7938 9.86682 27.7938 12.7643C27.7938 14.2932 27.1571 15.6315 26.1602 16.5884C26.7898 16.9757 27.4194 17.3848 27.9762 17.7917C28.6958 18.3178 29.3474 18.8779 29.6969 19.4144C29.8721 19.6831 30.0138 20.0096 29.9827 20.3605C29.9487 20.743 29.7223 21.0363 29.4038 21.2373C29.1006 21.4287 28.6912 21.5546 28.1961 21.6358C27.8564 21.6916 27.4594 21.729 27.0008 21.7473L31.5466 34.6563H34V40.5H11V34.6563H13.4922L18.0011 21.7474C17.542 21.7291 17.1448 21.6917 16.8055 21.6358C16.3115 21.5545 15.9028 21.4286 15.6008 21.2363C15.2827 21.0338 15.0587 20.7382 15.0294 20.3544C15.0026 20.0039 15.1478 19.6787 15.325 19.4112C15.6795 18.8763 16.3351 18.3169 17.0584 17.791C17.6181 17.384 18.2502 16.9748 18.8809 16.5874C17.8821 15.6215 17.2459 14.2585 17.2459 12.7643ZM22.5199 8.5C20.1694 8.5 18.2459 10.421 18.2459 12.7643C18.2459 14.1835 18.9578 15.4666 20.0304 16.2516L20.6399 16.6977L19.9912 17.0845C19.1801 17.5682 18.3474 18.0902 17.6465 18.5998C16.9314 19.1198 16.406 19.5902 16.1587 19.9635C16.0351 20.1501 16.0242 20.2485 16.0265 20.2782C16.0272 20.2871 16.0288 20.2936 16.0365 20.3051C16.0463 20.3196 16.0728 20.3513 16.1378 20.3927C16.2753 20.4803 16.5314 20.5773 16.9678 20.6491C17.3969 20.7197 17.9657 20.7605 18.7007 20.7605H19.405L14.2022 35.6563H12V39.5H33V35.6563H30.8386L25.5931 20.7605H26.2993C27.0343 20.7605 27.6037 20.7197 28.0341 20.6491C28.4715 20.5772 28.73 20.4801 28.87 20.3917C28.9364 20.3498 28.9644 20.3172 28.9752 20.3015C28.9839 20.2887 28.9858 20.2812 28.9866 20.2721C28.9892 20.2429 28.9799 20.1456 28.8591 19.9603C28.6169 19.5886 28.0973 19.1189 27.3861 18.5991C26.6892 18.0897 25.8593 17.568 25.0486 17.0845L24.3999 16.6977L25.0094 16.2516C26.0839 15.4652 26.7939 14.221 26.7939 12.7643C26.7939 10.421 24.8704 8.5 22.5199 8.5Z" fill="#FCFCFC"/>
        </g>
        <g id="pointer" transform="translate(0, 45)" fill="#000000" stroke-linecap="round" stroke-width="1.5">
            <path d="M23.1628 19.7828C23.1628 20.3006 22.743 20.7203 22.2253 20.7203C21.7075 20.7203 21.2878 20.3006 21.2878 19.7828V15.7662C21.2878 14.9032 20.5882 14.2037 19.7253 14.2037C18.8623 14.2037 18.1628 14.9033 18.1628 15.7662V20.7203C18.1628 21.2381 17.743 21.6578 17.2253 21.6578C16.7075 21.6578 16.2878 21.2381 16.2878 20.7203V17.7399C16.2878 16.8769 15.5882 16.1774 14.7253 16.1774C13.8623 16.1774 13.1628 16.8769 13.1628 17.7399V21.6578C13.1628 22.1756 12.743 22.5953 12.2253 22.5953C11.7075 22.5953 11.2878 22.1756 11.2878 21.6578V20.8026C11.2878 19.9396 10.5882 19.2401 9.72528 19.2401C8.86233 19.2401 8.16278 19.9396 8.16278 20.8026V29.2245C8.16278 32.5246 8.7636 35.7971 9.93585 38.8819L10.7686 41.0734C10.9525 41.5574 10.7093 42.0989 10.2253 42.2828C9.74128 42.4667 9.19982 42.2235 9.0159 41.7395L8.18313 39.548C6.93003 36.2504 6.28778 32.7521 6.28778 29.2245V20.8026C6.28778 18.9041 7.8268 17.3651 9.72528 17.3651C10.2879 17.3651 10.819 17.5002 11.2878 17.7399C11.2878 15.8414 12.8268 14.3024 14.7253 14.3024C15.3488 14.3024 15.9336 14.4684 16.4378 14.7587C16.8684 13.3518 18.1774 12.3287 19.7253 12.3287C21.6238 12.3287 23.1628 13.8677 23.1628 15.7662V19.7828Z" fill="#161622"/>
            <path d="M37.2067 23.8119C37.9064 22.3158 37.1412 20.5446 35.5723 20.0285C34.5912 19.7058 33.5121 19.959 32.7769 20.6845L28.1628 25.2379L28.1628 7.48019C28.1628 5.58172 26.6238 4.04269 24.7253 4.04269C22.8268 4.04269 21.3125 5.58176 21.3125 7.48024V12.7163C22.4121 13.2897 23.1628 14.4403 23.1628 15.7662L23.1875 7.48024C23.1875 6.61729 23.8623 5.91769 24.7253 5.91769C25.5882 5.91769 26.2878 6.61725 26.2878 7.48019V25.2379C26.2878 26.9024 28.2951 27.7416 29.4798 26.5725L34.0939 22.019C34.3287 21.7874 34.6732 21.7066 34.9864 21.8096C35.4873 21.9744 35.7316 22.5399 35.5082 23.0175L32.1543 30.1888C31.0003 32.6562 29.5873 34.994 27.9391 37.1627L25.0461 40.9692C24.7328 41.3814 24.8131 41.9695 25.2253 42.2828C25.6375 42.5961 26.2257 42.5159 26.5389 42.1037L29.4319 38.2972C31.1605 36.0227 32.6424 33.5709 33.8527 30.9831L37.2067 23.8119Z" fill="#161622"/>
        </g>
        <g id="trash" transform="translate(0, 45)" fill="#000000" stroke-linecap="round" stroke-width="1.5">
            <path fill-rule="evenodd" clip-rule="evenodd" d="M22.0625 6.125C21.3166 6.125 20.6012 6.42132 20.0738 6.94876C19.5463 7.47621 19.25 8.19158 19.25 8.9375V9.875H26.75V8.9375C26.75 8.19158 26.4537 7.47621 25.9262 6.94876C25.3988 6.42132 24.6834 6.125 23.9375 6.125H22.0625ZM28.625 9.875V8.9375C28.625 7.6943 28.1311 6.50201 27.2521 5.62294C26.373 4.74386 25.1807 4.25 23.9375 4.25H22.0625C20.8193 4.25 19.627 4.74386 18.7479 5.62294C17.8689 6.50201 17.375 7.6943 17.375 8.9375V9.875H8.9375C8.41973 9.875 8 10.2947 8 10.8125C8 11.3303 8.41973 11.75 8.9375 11.75H9.95878L12.5122 38.0681C12.6116 39.0931 13.4731 39.875 14.5028 39.875H31.3403C32.3656 39.875 33.2248 39.0997 33.3298 38.0799L36.0412 11.75H37.0625C37.5803 11.75 38 11.3303 38 10.8125C38 10.2947 37.5803 9.875 37.0625 9.875H28.625ZM34.158 11.75H11.842L14.3071 37.0968C14.3569 37.6092 14.7876 38 15.3024 38H30.5358C31.0482 38 31.4776 37.6127 31.5305 37.1031L34.158 11.75Z" fill="#161622"/>
        </g>
        <g id="marker1" transform="translate(0, 90)" >
        </g>
        <g id="marker2" transform="translate(0, 90)" fill="none" stroke-width="2">
            <rect x="2.5" y="2.5" width="40" height="40" rx="2" />
        </g>
    </g>
</svg>