<?xml version="1.0" encoding="UTF-8"?>
<svg width="260px" height="120px" viewBox="0 0 260 120" version="1.1" xmlns="http://www.w3.org/2000/svg" >
    <title>chessbord pieces and markers sprite</title>
    <g id="Sprite" stroke="none" stroke-width="1" fill="none">
        <g id="wk" fill="none" stroke-width="1.5" stroke-linecap="round" transform="translate(0, 0)" stroke-linejoin="round">
            <path fill-rule="evenodd" clip-rule="evenodd" d="M26.3695 15.776C23.2668 19.2014 22.4455 22.1876 22.5367 27.5013C22.4911 22.4072 21.1679 18.4109 18.7952 15.8199C19.2058 13.756 20.3009 12.4385 21.8523 11.8237C21.8523 10.9015 21.8523 9.9793 21.8523 9.101H19.9815V7.69573H21.8523V5.5H23.3124V7.69573H25.1832V9.05709H23.3124C23.3124 9.9793 23.3124 10.9015 23.3124 11.7798C24.8182 12.4385 25.9589 13.756 26.3695 15.776Z" fill="white"/>
            <path fill-rule="evenodd" clip-rule="evenodd" d="M22.5367 28.3795C22.3998 25.1738 22.5823 21.7923 23.9968 19.1135C26.2326 14.8977 29.9286 11.9555 35.3128 13.3607C40.0125 14.5903 42.7046 20.7384 40.9707 24.9103C39.2369 29.1261 35.4953 30.2679 34.2633 31.1901C33.9895 33.6054 34.1721 35.7572 35.2671 38.0847C33.7158 39.2265 26.2327 40.5 22.4911 40.5C18.7495 40.5 11.2664 39.2265 9.71504 38.0847C10.8101 35.7572 10.9927 33.6054 10.7189 31.1901C9.4869 30.2679 5.74534 29.1261 4.01145 24.9103C2.32318 20.7384 4.96965 14.5903 9.66941 13.3607C15.008 11.9555 18.8864 14.8099 20.8485 19.1575C22.2173 21.8363 22.5824 25.2177 22.5367 28.3795Z" fill="white"/>
            <path fill-rule="evenodd" clip-rule="evenodd" d="M34.3089 31.1901C30.4305 29.3457 26.5064 28.2917 22.5367 28.3795C18.6127 28.2917 14.6886 29.3457 10.7645 31.1901" fill="white"/>
            <path fill-rule="evenodd" clip-rule="evenodd" d="M21.3523 5H23.8124V7.19573H25.6832V9.55709H23.8124V11.463C25.1079 12.1198 26.1167 13.2482 26.6395 14.8412C27.1325 14.4078 27.6602 14.0229 28.2236 13.6966C30.2196 12.5405 32.6258 12.1427 35.439 12.8769C37.966 13.5381 39.9163 15.508 41.0066 17.8188C42.0953 20.1264 42.3656 22.8553 41.4332 25.1005C40.5209 27.3186 39.0784 28.7269 37.7183 29.6929C37.0409 30.1741 36.3828 30.5463 35.8279 30.8509C35.7519 30.8927 35.6786 30.9328 35.6079 30.9714C35.248 31.1682 34.958 31.3268 34.736 31.4706C34.5064 33.7252 34.7066 35.7188 35.7196 37.8718L35.8946 38.2437L35.5635 38.4874C35.0951 38.8322 34.2553 39.1454 33.2801 39.4245C32.2813 39.7104 31.0665 39.98 29.79 40.2124C27.242 40.6764 24.4034 41 22.4911 41C20.5788 41 17.7402 40.6764 15.1922 40.2124C13.9157 39.98 12.7009 39.7104 11.7021 39.4245C10.7269 39.1454 9.88713 38.8322 9.41867 38.4874L9.08763 38.2437L9.26262 37.8718C10.2756 35.7188 10.4758 33.7252 10.2462 31.4706C10.0242 31.3268 9.73418 31.1682 9.37425 30.9714C9.30362 30.9328 9.23031 30.8927 9.15428 30.8509C8.59938 30.5463 7.9413 30.1741 7.26385 29.6929C5.90375 28.7269 4.46132 27.3186 3.54903 25.1005L3.54796 25.0978C2.64024 22.8548 2.90935 20.1276 3.99227 17.8198C5.07641 15.5093 7.0147 13.5386 9.54249 12.8771C12.3302 12.1434 14.7706 12.5171 16.7742 13.6682C17.3955 14.0252 17.971 14.4547 18.4997 14.9448C19.0057 13.2931 19.9959 12.1342 21.3523 11.4956V9.601H19.4815V7.19573H21.3523V5ZM21.5211 22.5847C21.2662 21.4465 20.9035 20.364 20.4032 19.385L20.3977 19.3742L20.3927 19.3631C19.444 17.261 18.0465 15.5525 16.276 14.5353C14.5154 13.5237 12.3474 13.1728 9.79669 13.8443C7.62489 14.4125 5.88948 16.1307 4.89756 18.2445C3.9046 20.3607 3.69449 22.7928 4.47441 24.7214C5.29603 26.7183 6.59104 27.9885 7.84292 28.8776C8.47158 29.3242 9.08827 29.6739 9.63558 29.9744C9.70724 30.0137 9.77856 30.0527 9.84918 30.0912C10.1918 30.2782 10.5178 30.4561 10.7853 30.6288C14.5062 28.9093 18.2527 27.8859 22.0177 27.8746C22.0017 27.3585 21.9949 26.8368 22.0014 26.3133C21.9334 24.9789 21.7712 23.7344 21.5211 22.5847ZM23.0404 27.8745C26.8318 27.8821 30.5659 28.8955 34.2365 30.6034C34.4963 30.4388 34.8071 30.2691 35.133 30.0912C35.2036 30.0527 35.2749 30.0137 35.3466 29.9744C35.8939 29.6739 36.5106 29.3242 37.1393 28.8776C38.3914 27.9883 39.6867 26.7177 40.5083 24.7201L40.509 24.7184C41.3097 22.792 41.1007 20.3618 40.1022 18.2455C39.105 16.132 37.3592 14.4131 35.1865 13.8445C32.6156 13.1735 30.4817 13.5442 28.7248 14.5619C27.946 15.013 27.2339 15.5956 26.5878 16.2816C26.0247 16.9165 25.5446 17.534 25.1367 18.1535C24.9108 18.5039 24.6965 18.8684 24.4935 19.245C24.1836 19.84 23.9329 20.4467 23.7321 21.0813C23.2026 22.7551 23.0112 24.6526 23.0315 27.0914C23.0376 27.3536 23.0405 27.6148 23.0404 27.8745ZM24.3006 17.6048C24.0459 17.9918 23.816 18.3814 23.6094 18.7776C23.5912 18.8114 23.5731 18.8453 23.5551 18.8793C23.0317 19.8706 22.6711 20.9494 22.4302 22.0711C21.8282 19.4921 20.7864 17.3334 19.3376 15.6764C19.7534 13.8979 20.7229 12.8091 22.0365 12.2885L22.3523 12.1634V8.601H20.4815V8.19573H22.3523V6H22.8124V8.19573H24.6832V8.55709H22.8124V12.1068L23.112 12.2379C24.4018 12.8021 25.4075 13.9042 25.8255 15.6326C25.2663 16.2313 24.7587 16.895 24.3006 17.6048ZM33.731 31.4713C30.0229 29.7573 26.2975 28.7965 22.5478 28.8794L22.5367 28.8797L22.5255 28.8794C18.7912 28.7958 15.0371 29.7723 11.2552 31.5133C11.4623 33.7071 11.2779 35.7319 10.3545 37.882C10.7212 38.0619 11.2704 38.2608 11.9772 38.4631C12.9347 38.7371 14.1154 38.9999 15.3713 39.2286C17.8881 39.6869 20.6618 40 22.4911 40C24.3204 40 27.0941 39.6869 29.6109 39.2286C30.8668 38.9999 32.0475 38.7371 33.005 38.4631C33.7118 38.2608 34.261 38.0619 34.6277 37.882C33.6984 35.7182 33.5175 33.6813 33.731 31.4713Z" fill="#2D2E37"/>
        </g>
        <g id="wq" fill="none" stroke-linecap="round" stroke-linejoin="round" transform="translate(45.000000, 0)" >
            <path fill-rule="evenodd" clip-rule="evenodd" d="M38.6464 14.0692C38.3343 14.0249 38.0668 13.8921 37.7993 13.7592L31.1112 24.6984L31.3341 10.659C31.0666 10.659 30.7991 10.5704 30.5316 10.4819L25.3594 23.8126L22.7734 9.77324C22.6842 9.77324 22.5504 9.81753 22.4613 9.81753C22.3721 9.81753 22.2383 9.81753 22.1492 9.77324L19.5631 23.8126L14.4356 10.4376C14.1681 10.5261 13.9451 10.6147 13.633 10.6147L13.8559 24.6984L7.16787 13.7149C6.90035 13.8478 6.63282 13.9806 6.32071 14.0249L10.289 33.5118C9.93228 35.0619 9.57558 36.5234 8.90677 37.6749C17.4675 40.775 27.4996 40.775 36.105 37.6749C35.3916 36.5677 35.0794 35.1061 34.7227 33.5118L38.6464 14.0692Z" fill="white"/>
            <path fill-rule="evenodd" clip-rule="evenodd" d="M35.1686 30.8545C31.2004 28.7729 26.9646 27.8872 22.5059 27.7986C18.0471 27.8872 13.8114 28.7729 9.8431 30.8545" fill="white"/>
            <path fill-rule="evenodd" clip-rule="evenodd" d="M8.99595 37.542C12.9642 35.4604 18.0026 34.1761 22.4613 34.0875C26.92 34.1761 31.9583 35.4604 35.9266 37.542" fill="white"/>
            <path d="M39.0923 14.0692C40.422 14.0692 41.5 12.9985 41.5 11.6776C41.5 10.3568 40.422 9.28607 39.0923 9.28607C37.7626 9.28607 36.6846 10.3568 36.6846 11.6776C36.6846 12.9985 37.7626 14.0692 39.0923 14.0692Z" fill="white"/>
            <path d="M8.13288 12.5717C8.64177 11.3514 8.05838 9.95233 6.82983 9.44685C5.60128 8.94137 4.19281 9.52085 3.68392 10.7412C3.17503 11.9615 3.75842 13.3605 4.98697 13.866C6.21552 14.3715 7.62399 13.792 8.13288 12.5717Z" fill="white"/>
            <path d="M31.8965 10.5828C33.2091 10.3712 34.1004 9.1427 33.8874 7.83891C33.6744 6.53512 32.4376 5.64973 31.125 5.86132C29.8125 6.07292 28.9211 7.30138 29.1341 8.60517C29.3471 9.90896 30.5839 10.7944 31.8965 10.5828Z" fill="white"/>
            <path d="M13.4547 10.6147C14.7844 10.6147 15.8624 9.54398 15.8624 8.22315C15.8624 6.90233 14.7844 5.83159 13.4547 5.83159C12.1249 5.83159 11.047 6.90233 11.047 8.22315C11.047 9.54398 12.1249 10.6147 13.4547 10.6147Z" fill="white"/>
            <path d="M24.7372 8.30751C25.2461 7.08719 24.6627 5.68816 23.4341 5.18268C22.2056 4.6772 20.7971 5.25669 20.2882 6.477C19.7793 7.69731 20.3627 9.09634 21.5913 9.60182C22.8198 10.1073 24.2283 9.52782 24.7372 8.30751Z" fill="white"/>
            <path fill-rule="evenodd" clip-rule="evenodd" d="M23.2439 6.14513C22.2678 5.74352 21.1518 6.20525 20.7497 7.1695C20.3514 8.12463 20.8001 9.22162 21.7592 9.63014L21.7776 9.53048L22.2537 9.76694C23.094 9.88178 23.9375 9.42624 24.2757 8.61511C24.6771 7.65261 24.2183 6.54604 23.2439 6.14513ZM23.3531 10.6606C24.1576 10.4186 24.8511 9.83348 25.1987 9C25.8151 7.52188 25.1071 5.83039 23.6244 5.22035C22.1434 4.611 20.4424 5.30823 19.8267 6.78461C19.2103 8.26273 19.9183 9.95422 21.401 10.5643C21.4588 10.588 21.5168 10.6098 21.5751 10.6296L19.3935 22.4734L15.0492 11.1415C15.8395 10.6252 16.3624 9.73607 16.3624 8.72321C16.3624 7.12307 15.0574 5.83164 13.4547 5.83164C11.852 5.83164 10.547 7.12307 10.547 8.72321C10.547 10.2174 11.6849 11.4425 13.1406 11.5981L13.3269 23.3683L7.82471 14.3323C8.15035 14.0491 8.41726 13.6889 8.59436 13.2642C9.21076 11.786 8.50276 10.0946 7.02008 9.48451C5.53908 8.87516 3.83811 9.5724 3.22243 11.0488C2.60603 12.5269 3.31403 14.2184 4.79672 14.8284C5.16331 14.9793 5.54337 15.05 5.91711 15.0488L9.77737 34.0053C9.42618 35.5261 9.08467 36.8731 8.47441 37.9238L8.17385 38.4413L8.73652 38.645C17.4075 41.7852 27.5598 41.7849 36.2744 38.6453L36.8656 38.4323L36.5253 37.9041C35.8846 36.9098 35.5871 35.5859 35.2339 34.0065L39.0556 15.069C39.0678 15.0692 39.0801 15.0693 39.0923 15.0693C40.695 15.0693 42 13.7778 42 12.1777C42 10.5776 40.695 9.28613 39.0923 9.28613C37.4896 9.28613 36.1846 10.5776 36.1846 12.1777C36.1846 13.0396 36.5632 13.812 37.1631 14.3412L31.6402 23.3746L31.8272 11.5966C31.8767 11.5912 31.9263 11.5844 31.976 11.5764C33.5587 11.3213 34.639 9.83804 34.3809 8.25834C34.1229 6.67948 32.6273 5.61275 31.0455 5.86775C29.4628 6.12288 28.3825 7.60615 28.6407 9.18585C28.7779 10.026 29.2656 10.7211 29.9303 11.1493L25.5315 22.4868L23.3531 10.6606ZM22.4613 11.339L19.7327 26.1519L14.1402 11.5639L14.385 27.0286L6.97327 14.8568C6.95056 14.866 6.92749 14.8751 6.90408 14.884L10.1155 30.654C14.0185 28.7143 18.1629 27.8848 22.4959 27.7987L22.5059 27.7985L22.5158 27.7987C26.8468 27.8848 30.9894 28.7136 34.8908 30.6513L38.0638 14.9285C38.0399 14.9195 38.0163 14.9102 37.9931 14.9007L30.5822 27.0223L30.827 11.6027L25.1874 26.1385L22.4613 11.339ZM34.6857 31.6676C30.8741 29.7229 26.805 28.8853 22.5059 28.7987C18.2053 28.8853 14.135 29.7235 10.3223 31.6695L10.8006 34.0183L10.7762 34.1239C10.5499 35.1077 10.3166 36.0922 9.99071 36.9956C13.8064 35.2356 18.3639 34.1689 22.4513 34.0877L22.4613 34.0875L22.4712 34.0877C26.5838 34.1694 31.1723 35.2488 35.0022 37.0282C34.6942 36.1793 34.4859 35.2461 34.2765 34.3075C34.2626 34.2453 34.2487 34.1831 34.2348 34.121L34.2116 34.0172L34.6857 31.6676ZM34.8681 38.0706C31.1126 36.2712 26.5365 35.1703 22.4613 35.0877C18.3984 35.17 13.8376 36.2645 10.0886 38.0543C17.9549 40.643 26.9585 40.6488 34.8681 38.0706ZM13.4547 10.6148C14.5114 10.6148 15.3624 9.76473 15.3624 8.72321C15.3624 7.68169 14.5114 6.83164 13.4547 6.83164C12.3979 6.83164 11.547 7.68169 11.547 8.72321C11.547 9.76473 12.3979 10.6148 13.4547 10.6148ZM33.394 8.41959C33.2259 7.39087 32.248 6.68681 31.2046 6.855C30.1621 7.02307 29.4596 7.99672 29.6276 9.02459C29.7956 10.0533 30.7736 10.7574 31.8169 10.5892C32.8594 10.4211 33.5619 9.44746 33.394 8.41959ZM6.63958 10.4093C5.66348 10.0077 4.5475 10.4694 4.1454 11.4337C3.74402 12.3962 4.20281 13.5027 5.17722 13.9036C6.15331 14.3053 7.26929 13.8435 7.6714 12.8793C8.07278 11.9168 7.61399 10.8102 6.63958 10.4093ZM39.0923 10.2861C38.0355 10.2861 37.1846 11.1362 37.1846 12.1777C37.1846 13.2192 38.0355 14.0693 39.0923 14.0693C40.1491 14.0693 41 13.2192 41 12.1777C41 11.1362 40.1491 10.2861 39.0923 10.2861Z" fill="#2D2E37"/>
        </g>
        <g id="wb" fill="none" stroke-linecap="round" stroke-linejoin="round" transform="translate(90.000000, 0)" stroke-width="1.5">
            <path d="M30.8276 20.931C30.4483 19.3103 29.1035 17.3793 26.4483 15.2414C23.8621 13.1724 23.5173 12.6207 22.6897 10.8276C22.3793 10.9655 22.0345 11.0345 21.6552 11.0345C21.2759 11.0345 20.9311 10.9655 20.6207 10.8276C19.7587 12.6207 19.3793 13.1724 16.8621 15.2414C14.2069 17.3793 12.8276 19.3103 12.4828 20.931C11.5862 24.9655 14.7931 27.5172 16.5173 28.1034C16.1725 29.6897 16.0345 31.6552 15.6552 33.3103C16.2414 34.069 20.5862 34.6207 21.6552 34.5862C22.7242 34.6207 27 34.069 27.6552 33.3103C27.2759 31.6552 27.138 29.6897 26.7931 28.1034C28.5173 27.4828 31.7242 24.9655 30.8276 20.931Z" fill="white"/>
            <path d="M31.2414 35.1035C29.1035 35.931 26.7242 36.2414 24.138 34.5172C23.1035 34.6897 22.138 34.7586 21.6897 34.7241C21.2759 34.7586 20.2759 34.6897 19.2414 34.5172C16.6207 36.2759 14.3104 35.931 12.138 35.1035C9.86211 34.2414 6.96556 34.4828 5.62073 35.3103C6.20693 36.6207 7.24142 38.4828 8.03452 39.931C10.3449 39.4138 10.7931 39.2069 13.9656 40C16.8966 40.7241 19.6552 41.069 21.6897 37.8621C23.6552 41.069 26.4483 40.7586 29.4138 40C32.6207 39.1724 33 39.4138 35.3449 39.931C36.1035 38.5172 37.138 36.6552 37.7587 35.3103C36.3449 34.4828 33.4138 34.2414 31.2414 35.1035Z" fill="white"/>
            <path d="M15.7931 33.3448C19.4828 32.1379 23.8276 32.1379 27.5173 33.3448H15.7931Z" fill="white"/>
            <path d="M16.5173 28.2069C19.7931 27 23.5518 27 26.8276 28.2069H16.5173Z" fill="white"/>
            <path d="M22.3449 22.7241V20.069H24.1035V18.8276H22.3449V16.6897H20.9311V18.8276H19.1725V20.069H20.9311V22.7241H22.3449Z" fill="white"/>
            <path d="M21.6552 11.1724C22.9311 11.1724 24 10.1034 24 8.82759C24 7.55172 22.9311 6.48276 21.6552 6.48276C20.3793 6.48276 19.3104 7.55172 19.3104 8.82759C19.3104 10.1034 20.3449 11.1724 21.6552 11.1724Z" fill="white"/>
            <path d="M26.1724 41C24.5172 41 22.931 40.4828 21.6552 38.7241C19.4828 41.5862 16.5862 41.1724 13.8276 40.4828C11 39.7586 10.4828 39.8621 8.58621 40.3103L7.75862 40.4828L7 39.0345C6.34483 37.7931 5.65517 36.5172 5.17241 35.5172L5 35.1034L5.37931 34.8966C6.7931 34.0345 9.82759 33.6897 12.2759 34.6552C13.8621 35.2414 15.7241 35.6897 17.7931 34.7586C16.6552 34.5172 15.6207 34.1724 15.2759 33.7586L15.1379 33.5862L15.2069 33.3448C15.4138 32.4828 15.5517 31.5172 15.6552 30.5862C15.7586 29.8966 15.8621 29.1724 15.9655 28.5172C14.069 27.6552 11.1034 25 12 20.931C12.3793 19.1034 13.931 17.069 16.5517 14.9655C18.8621 13.1034 19.3448 12.4828 20 11.1379C19.2759 10.6207 18.8276 9.7931 18.8276 8.82759C18.8276 7.27586 20.1379 6 21.6897 6C23.2414 6 24.5517 7.31034 24.5517 8.82759C24.5517 9.75862 24.069 10.5862 23.3793 11.1034C24.069 12.5172 24.5172 13.1034 26.8276 14.931C29.3793 17 30.931 19 31.3793 20.8966C32.2414 24.7931 29.5517 27.5172 27.4138 28.4828C27.5517 29.1379 27.6207 29.8621 27.7241 30.5517C27.8621 31.4828 28 32.4483 28.1724 33.3103L28.2414 33.5517L28.069 33.7241C27.7241 34.1379 26.6897 34.4828 25.5517 34.7241C27.6552 35.6552 29.5172 35.2414 31.069 34.6207C33.4828 33.6897 36.5172 34.0345 37.9655 34.8621L38.3448 35.069L38.1724 35.4828C37.5517 36.8276 36.5172 38.7241 35.7586 40.1379L35.5862 40.4483L34.7241 40.2759C32.8966 39.8621 32.3793 39.7586 29.5172 40.4828C28.4138 40.7586 27.3103 41 26.1724 41ZM21.6552 36.931L22.069 37.5862C23.7586 40.3103 25.9655 40.3448 29.2414 39.5172C32.3448 38.7241 32.9655 38.8966 34.8966 39.3103L35.0345 39.3448C35.6897 38.1724 36.5172 36.6897 37.069 35.5172C35.7241 34.9655 33.2414 34.8276 31.4138 35.5172C29.4828 36.2414 26.8966 36.8276 24 34.9655C22.4483 35.3103 21.0345 35.2759 19.3448 34.9655C16.4828 36.7931 14 36.2759 11.931 35.5172C10.0345 34.8276 7.58621 34.9655 6.24138 35.5172C6.68966 36.4138 7.27586 37.5172 7.82759 38.5517L8.24138 39.3448L8.34483 39.3103C10.3103 38.8621 10.9655 38.7241 14.0345 39.5172C16.7586 40.2069 19.3448 40.5517 21.2069 37.5862L21.6552 36.931ZM19.5517 34.0345C21.2414 34.3793 22.5517 34.3103 24.0345 34L24.2069 33.9655C25 33.8276 25.7931 33.6897 26.3793 33.5172C23.3448 32.7241 19.931 32.7241 16.8966 33.5172C17.4828 33.6897 18.2759 33.8621 19.1034 34C19.1034 34 19.4828 34.0345 19.5517 34.0345ZM21.6552 31.9655C23.4828 31.9655 25.3103 32.2069 27.0345 32.6897C26.931 32.0345 26.8276 31.3793 26.7241 30.6897C26.6207 29.931 26.5172 29.2069 26.3793 28.5517C23.3448 27.5172 19.931 27.5172 16.931 28.5517C16.7931 29.2069 16.6897 29.931 16.5862 30.6897C16.4828 31.3448 16.4138 32 16.2759 32.6552C18 32.2069 19.8276 31.9655 21.6552 31.9655ZM20.8621 11.5517C20.069 13.1034 19.5172 13.7931 17.1724 15.6897C14.7586 17.6207 13.3103 19.5172 12.9655 21.1034C12.1724 24.7241 14.931 27.0345 16.5172 27.6552C19.7931 26.4828 23.5172 26.4828 26.7931 27.6552C28.1379 27.069 31.2069 24.8621 30.3448 21.1034C29.9655 19.4483 28.4828 17.5862 26.1379 15.6897C23.6897 13.7241 23.1724 13.069 22.4138 11.5172C21.931 11.7241 21.3793 11.7241 20.8621 11.5517ZM20.6897 10.4138L20.8276 10.4828C21.3793 10.7241 21.9655 10.7241 22.5172 10.4828L22.6207 10.4483C23.1724 10.1034 23.5517 9.51724 23.5517 8.82759C23.5517 7.82759 22.6897 6.96552 21.6897 6.96552C20.6897 6.96552 19.8276 7.82759 19.8276 8.82759C19.7931 9.51724 20.1379 10.1034 20.6897 10.4138ZM22.8276 23.2069H20.4483V20.5517H18.6897V18.3448H20.4483V16.2069H22.8276V18.3448H24.5862V20.5517H22.8276V23.2069ZM21.4138 22.2414H21.8621V19.5862H23.6207V19.3103H21.8621V17.1724H21.4138V19.3103H19.6552V19.5862H21.4138V22.2414Z" fill="#2D2E37"/>
        </g>
        <g id="wn" fill="none" stroke-linecap="round" stroke-linejoin="round" transform="translate(135.000000, 0)" >
            <path fill-rule="evenodd" clip-rule="evenodd" d="M21.2564 23.2039C21.4756 25.5716 19.5902 27.6763 19.0202 28.3339C17.1348 30.6139 14.241 31.7539 12.7941 40.567H40.1541C40.5049 32.0609 39.4526 21.5378 32.1302 13.9086C30.2887 12.0232 27.4387 10.5324 24.8518 9.78701C23.9748 9.52393 20.8179 9.04163 20.7302 9.04163C20.6864 8.95393 20.1602 8.20855 19.941 7.94547C19.1956 7.11239 18.0995 6.01624 17.2664 5.27086C16.9595 5.00778 15.9072 4.39393 15.9072 4.43778C15.8195 4.78855 15.6441 6.36701 15.8195 7.33163C15.8633 7.5947 16.0825 8.86624 16.2579 9.08547C16.2579 9.08547 15.4248 9.08547 15.2495 9.17316C14.9864 8.95393 14.3725 8.12086 14.0218 7.68239C13.4079 6.93701 12.0925 6.01624 11.6541 5.79701C11.5225 5.70932 11.1279 5.53393 10.9964 5.49009C10.9087 6.49855 11.1718 7.72624 11.5225 8.7347C11.6541 9.08547 12.1802 10.4009 12.1802 10.3132C10.6018 11.1462 9.85638 12.7686 9.46177 13.8647C9.02331 15.1801 9.15484 16.5393 8.49715 17.8109C7.00638 20.6609 4.11253 23.4232 4.4633 27.2378C4.59484 28.5532 4.90176 29.2547 5.38407 29.8247C5.77869 30.2632 6.30484 30.6139 6.96254 30.877C7.44484 31.0524 8.01484 30.9209 8.541 30.7016C8.541 30.8332 9.81254 31.7101 11.3472 30.877C13.4956 29.6932 13.5833 27.9832 14.8548 26.317C15.5125 25.5278 16.9595 25.4839 17.8802 25.3524C19.2395 25.1332 20.3795 24.3439 21.2564 23.2039ZM13.8464 16.3201C13.4956 16.6709 12.4872 17.1532 12.3995 17.0655C12.3118 16.9778 12.4433 16.5832 12.4872 16.5393C12.7064 15.7501 13.3641 15.1801 13.9779 14.6978C14.1533 14.5662 14.5918 14.3032 14.6356 14.3032C14.6356 14.3032 14.6356 15.0486 14.4164 15.5309C14.3287 15.7939 14.0656 16.1009 13.8464 16.3201ZM7.3133 26.317C7.92715 25.9663 8.84792 26.7993 7.53254 27.6763C6.831 28.2024 6.04177 27.0624 7.3133 26.317Z" fill="white"/>
            <path fill-rule="evenodd" clip-rule="evenodd" d="M21.785 21.3771L21.9483 23.1399C22.0763 24.5228 21.5885 25.7878 21.038 26.7541C20.5129 27.6758 19.8945 28.3873 19.5915 28.7358C19.5771 28.7524 19.5634 28.7682 19.5505 28.7831C19.1691 29.2434 18.7423 29.6671 18.3241 30.0824C18.198 30.2076 18.0726 30.3321 17.9495 30.4565C17.4038 31.0083 16.8529 31.6059 16.3168 32.3921C15.3174 33.8576 14.3269 36.041 13.6203 39.8722H39.4842C39.749 31.547 38.5616 21.6148 31.6311 14.392C29.8942 12.6148 27.1618 11.1757 24.6594 10.4547L24.6521 10.4526C24.2641 10.3362 23.3037 10.1567 22.3795 10.0008C21.9282 9.92471 21.5015 9.85675 21.1827 9.80792C21.0232 9.78348 20.8919 9.76402 20.7988 9.75079C20.7526 9.74422 20.7177 9.73947 20.6942 9.73646H20.3008L20.1184 9.37175C20.1163 9.3684 20.1135 9.364 20.1099 9.35846C20.095 9.33543 20.0733 9.30296 20.0453 9.26206C19.9899 9.1808 19.9161 9.07535 19.836 8.96318C19.6754 8.73835 19.5073 8.51173 19.4145 8.39908C18.6883 7.58847 17.6194 6.51971 16.8095 5.79446C16.7469 5.74173 16.6216 5.65464 16.4674 5.55481C16.4641 5.60065 16.4611 5.64753 16.4583 5.69531C16.4263 6.23872 16.4305 6.80809 16.5031 7.20733L16.504 7.21236L16.5048 7.2174C16.5261 7.3452 16.5897 7.71579 16.6683 8.07739C16.7079 8.25931 16.7488 8.42772 16.7875 8.55764C16.8057 8.6188 16.8209 8.66257 16.832 8.6908L17.7036 9.78031H16.2581L16.2567 9.78031L16.2509 9.78033L16.2269 9.78046C16.2057 9.78062 16.1747 9.78094 16.1368 9.78158C16.0605 9.78287 15.9583 9.78544 15.8525 9.79048C15.7446 9.79562 15.6428 9.80288 15.5638 9.81235C15.541 9.81509 15.5232 9.81765 15.5098 9.81983L15.1537 9.99787L14.8046 9.70695C14.6058 9.54126 14.3385 9.21229 14.1239 8.94154C13.9954 8.77941 13.8819 8.63269 13.777 8.49717C13.6722 8.36186 13.5761 8.2377 13.4824 8.1205C13.2265 7.81086 12.7964 7.4344 12.3511 7.09509C12.1212 6.91997 11.9048 6.76794 11.7267 6.65045C11.8067 7.26199 11.9714 7.9087 12.176 8.49849C12.236 8.65768 12.3778 9.0175 12.5137 9.35149L12.8751 9.16077V10.3132C12.8751 10.34 12.8749 10.4385 12.8326 10.5545C12.7966 10.6531 12.6825 10.8681 12.4369 10.9643C11.1519 11.6771 10.4971 13.0424 10.1184 14.0921C9.95752 14.5775 9.88417 15.0642 9.80106 15.6156C9.78409 15.7282 9.76671 15.8435 9.7481 15.962C9.642 16.6376 9.49752 17.3892 9.11432 18.1301L9.11285 18.1329C8.72149 18.8811 8.24226 19.6157 7.76828 20.3329C7.72983 20.391 7.6914 20.4491 7.65303 20.5071C7.21228 21.1732 6.77903 21.828 6.39374 22.5059C5.56019 23.9725 4.99907 25.4679 5.15497 27.1714C5.27639 28.3824 5.54532 28.9366 5.9076 29.3677C6.21542 29.707 6.64047 29.9981 7.20856 30.2271C7.4337 30.3047 7.78914 30.2622 8.27375 30.0603L9.23583 29.6594V30.368C9.31666 30.4066 9.42009 30.4467 9.54222 30.4783C9.90581 30.5721 10.4226 30.5877 11.0139 30.2673C11.9428 29.755 12.4199 29.1422 12.8271 28.4322C12.9638 28.1938 13.0824 27.9638 13.2102 27.7161C13.2879 27.5655 13.3689 27.4083 13.4595 27.2387C13.6881 26.8106 13.9522 26.3545 14.3025 25.8955L14.3115 25.8836L14.3211 25.8722C14.8006 25.2967 15.5159 25.0456 16.116 24.9103C16.5427 24.814 17.0156 24.758 17.3933 24.7133C17.5372 24.6962 17.6673 24.6808 17.7757 24.6654C18.9209 24.4789 19.9131 23.8106 20.7056 22.7803L21.785 21.3771ZM17.8802 25.3524C17.7406 25.3723 17.5889 25.3903 17.4297 25.4091C16.5389 25.5144 15.4128 25.6474 14.8548 26.317C14.4214 26.885 14.1255 27.4582 13.8386 28.0138C13.284 29.088 12.7632 30.0968 11.3472 30.877C9.90004 31.6626 8.68685 30.9276 8.55321 30.731C8.54513 30.7191 8.541 30.7091 8.541 30.7016C8.32432 30.7919 8.10021 30.8673 7.87785 30.9126C7.56025 30.9772 7.24623 30.9802 6.96254 30.877C6.30484 30.6139 5.77869 30.2632 5.38407 29.8247C4.90176 29.2547 4.59484 28.5532 4.4633 27.2378C4.20741 24.4549 5.67833 22.2321 7.07155 20.1267C7.58809 19.3461 8.09394 18.5817 8.49715 17.8109C8.87985 17.071 8.99533 16.3014 9.11137 15.5281C9.19476 14.9724 9.27844 14.4147 9.46177 13.8647C9.80343 12.9156 10.408 11.5721 11.5887 10.688C11.7703 10.5519 11.9657 10.4267 12.1758 10.3155C12.1787 10.3185 12.1802 10.3179 12.1802 10.3132C12.1788 10.3139 12.1773 10.3147 12.1758 10.3155C12.1752 10.3149 12.1746 10.3141 12.1738 10.3132C12.1621 10.2978 12.1349 10.2409 12.0977 10.1568C12.0454 10.0385 11.9734 9.86622 11.8974 9.68014C11.897 9.67922 11.8966 9.6783 11.8962 9.67739C11.7494 9.31824 11.5876 8.90832 11.5225 8.7347C11.2549 7.96514 11.0383 7.06792 10.9896 6.23787C10.9745 5.98019 10.9756 5.72899 10.9964 5.49009C11.1279 5.53393 11.5225 5.70932 11.6541 5.79701C11.6609 5.80041 11.6679 5.80398 11.6751 5.80771C12.1332 6.04475 13.4174 6.94857 14.0218 7.68239C14.1112 7.7942 14.2178 7.93166 14.3312 8.07807C14.6628 8.5058 15.0535 9.00984 15.2495 9.17316C15.2972 9.14929 15.3937 9.13191 15.5089 9.11927C15.8168 9.08547 16.2579 9.08547 16.2579 9.08547C16.1834 8.99229 16.1009 8.70902 16.0274 8.39387C15.9279 7.96754 15.8447 7.48289 15.8195 7.33163C15.7041 6.69707 15.7405 5.79688 15.8039 5.15529C15.805 5.14425 15.8061 5.1333 15.8072 5.12242C15.8395 4.80428 15.8781 4.55383 15.9072 4.43778C15.9072 4.43475 15.9122 4.43486 15.9216 4.43778C15.9283 4.43983 15.9371 4.44326 15.9479 4.44797C16.0388 4.48754 16.2698 4.61689 16.5186 4.76747C16.5286 4.77354 16.5386 4.77964 16.5487 4.78578C16.8292 4.95648 17.1259 5.15042 17.2664 5.27086C18.0995 6.01624 19.1956 7.11239 19.941 7.94547C20.1602 8.20855 20.6864 8.95393 20.7302 9.04163C20.8179 9.04163 23.9748 9.52393 24.8518 9.78701C27.4387 10.5324 30.2887 12.0232 32.1302 13.9086C39.4526 21.5378 40.5049 32.0609 40.1541 40.567H12.7941C12.833 40.3299 12.873 40.0984 12.914 39.8722C14.1061 33.2918 16.1443 31.2676 17.851 29.5727C18.266 29.1606 18.6614 28.7679 19.0202 28.3339C19.0341 28.3179 19.0488 28.301 19.0642 28.2833C19.5802 27.6894 20.9173 26.1504 21.2148 24.3105C21.2728 23.9515 21.2913 23.5811 21.2564 23.2039C21.0395 23.486 20.8064 23.7465 20.5579 23.9823C19.802 24.6995 18.9032 25.1874 17.8802 25.3524ZM20.6683 9.73339C20.668 9.73335 20.6694 9.73347 20.6729 9.73386C20.6702 9.73361 20.6686 9.73344 20.6683 9.73339ZM13.136 16.7997C13.4105 16.6542 13.6921 16.4744 13.8464 16.3201C14.0656 16.1009 14.3287 15.7939 14.4164 15.5309C14.4685 15.4162 14.5082 15.2867 14.5385 15.1559C14.6356 14.7363 14.6356 14.3032 14.6356 14.3032C15.3305 14.3032 15.3305 14.3033 15.3305 14.3034L15.3305 14.3053L15.3304 14.3086L15.3304 14.3183L15.3299 14.3501C15.3294 14.3765 15.3283 14.4131 15.3263 14.4579C15.3224 14.5471 15.3146 14.6711 15.2988 14.8129C15.27 15.0723 15.2087 15.4516 15.0629 15.787C14.9822 16.0095 14.8503 16.2092 14.7339 16.3624C14.6051 16.5318 14.4617 16.6874 14.3377 16.8114C14.0796 17.0695 13.6557 17.3183 13.335 17.4787C13.1652 17.5636 12.9897 17.641 12.8377 17.6929C12.7655 17.7176 12.6722 17.7457 12.5752 17.7602C12.5284 17.7672 12.4503 17.7759 12.3588 17.767C12.2848 17.7597 12.0819 17.7305 11.9081 17.5568C11.776 17.4246 11.7236 17.2758 11.7013 17.1845C11.678 17.0894 11.6744 17.0036 11.6752 16.9429C11.6769 16.8219 11.6983 16.7079 11.718 16.625C11.7389 16.5373 11.7659 16.4516 11.7941 16.3783C11.8077 16.343 11.8245 16.3028 11.8446 16.2624C12.1548 15.2775 12.9659 14.6093 13.5486 14.1514L13.5548 14.1466L13.561 14.1419C13.6778 14.0543 13.8558 13.941 13.9986 13.8553C14.0725 13.811 14.1477 13.7676 14.2116 13.7335C14.2424 13.717 14.2794 13.698 14.3164 13.6813C14.3342 13.6733 14.3624 13.661 14.3958 13.6495C14.3961 13.6494 14.3967 13.6492 14.3974 13.6489C14.4133 13.6432 14.5114 13.6083 14.6356 13.6083H15.3305V14.3034L14.6356 14.3032C14.5918 14.3032 14.1533 14.5662 13.9779 14.6978C13.9539 14.7166 13.9299 14.7356 13.9057 14.7548C13.376 15.1753 12.8277 15.6644 12.567 16.3054C12.5558 16.3331 12.5451 16.361 12.5349 16.3893C12.5173 16.4384 12.5013 16.4884 12.4872 16.5393C12.4433 16.5832 12.3118 16.9778 12.3995 17.0655C12.4361 17.1021 12.6333 17.0393 12.8761 16.9282C12.9317 16.9028 12.9897 16.8748 13.0488 16.8449C13.0777 16.8302 13.1068 16.8152 13.136 16.7997ZM6.96857 25.7137C7.60202 25.3518 8.42992 25.5754 8.76285 26.2157C8.94213 26.5604 8.94062 26.9614 8.77209 27.3321C8.61346 27.6811 8.31928 27.9842 7.9323 28.2448C7.60453 28.4834 7.2073 28.568 6.82907 28.4577C6.45736 28.3494 6.17553 28.0727 6.03866 27.7335C5.73914 26.9912 6.14475 26.1966 6.96191 25.7176L6.96857 25.7137ZM7.3133 26.317C7.92715 25.9663 8.84792 26.7993 7.53254 27.6763C6.831 28.2024 6.04177 27.0624 7.3133 26.317Z" fill="#2D2E37"/>
            <path fill-rule="evenodd" clip-rule="evenodd" d="M16.6953 4.36554C16.9931 4.5442 17.3638 4.78093 17.5492 4.93983L17.5562 4.94585C18.4013 5.70195 19.5087 6.80955 20.2648 7.6546C20.2682 7.6584 20.2716 7.66225 20.2748 7.66616C20.396 7.81158 20.5908 8.07582 20.755 8.30561C20.8385 8.42253 20.9171 8.53475 20.9781 8.62424C20.9807 8.62799 20.9833 8.63178 20.9859 8.63562C21.0815 8.64935 21.2068 8.66801 21.3539 8.69054C21.6779 8.74017 22.1103 8.80903 22.5675 8.88614C23.4667 9.03783 24.5033 9.22812 24.9744 9.36904C27.6129 10.1297 30.5347 11.652 32.4411 13.6038L32.4438 13.6065C39.8925 21.3675 41.0284 32.0442 40.588 40.5881C40.5761 40.8189 40.3855 41 40.1543 41H12.7943C12.6661 41 12.5444 40.9434 12.4619 40.8452C12.3794 40.7471 12.3445 40.6175 12.3664 40.4912C13.1409 36.0435 14.2432 33.4926 15.4159 31.7562C16.0011 30.8898 16.5967 30.2371 17.1574 29.6631C17.3027 29.5144 17.4438 29.3727 17.5809 29.235C17.9803 28.8339 18.3463 28.4664 18.6858 28.0559L18.6923 28.0482C18.7057 28.0327 18.7198 28.0165 18.7346 27.9995C19.0339 27.6549 19.5889 27.0159 20.0571 26.1939C20.3698 25.6451 20.6338 25.0316 20.7601 24.386C19.9699 25.1059 19.0278 25.6059 17.9496 25.7798L17.9419 25.7811C17.782 25.8039 17.6187 25.8231 17.4532 25.8426C17.0979 25.8845 16.7318 25.9276 16.3646 26.0104C15.8355 26.1297 15.4297 26.3093 15.1942 26.5871C14.8995 26.9745 14.6699 27.3682 14.4558 27.7692C14.3818 27.9078 14.3073 28.052 14.2318 28.198C14.0944 28.464 13.9538 28.7363 13.8068 28.9926C13.3311 29.8221 12.7212 30.6146 11.5569 31.2561L11.5545 31.2574C10.6777 31.7334 9.86111 31.7253 9.26029 31.5703C8.96311 31.4936 8.71641 31.3806 8.53705 31.2707C8.5023 31.2494 8.46884 31.2275 8.43712 31.2052C7.93911 31.3786 7.35583 31.4808 6.81433 31.2839C6.81236 31.2831 6.81038 31.2824 6.80842 31.2817C6.80609 31.2808 6.80377 31.2799 6.80146 31.2789C6.09427 30.9961 5.50866 30.6108 5.06149 30.1139L5.05276 30.1039C4.49779 29.4481 4.16886 28.6544 4.03139 27.2797L4.03106 27.2763C3.84403 25.2423 4.52636 23.5055 5.4123 21.9467C5.81749 21.2338 6.27153 20.5477 6.70847 19.8875C6.74798 19.8278 6.78735 19.7683 6.82654 19.709C7.30273 18.9885 7.75117 18.299 8.11213 17.6091C8.40664 17.0393 8.53001 16.4406 8.63286 15.7856C8.64898 15.6829 8.66465 15.5782 8.68057 15.4718C8.76371 14.9161 8.85364 14.3151 9.04999 13.7261L9.05337 13.7163C9.42522 12.6834 10.1338 11.0923 11.6178 10.1381C11.5807 10.0502 11.5403 9.95238 11.499 9.85149C11.3502 9.4879 11.184 9.06696 11.1161 8.88589L11.1126 8.87607C10.7527 7.84146 10.4687 6.54698 10.564 5.45117C10.5755 5.3187 10.647 5.19881 10.7582 5.12581C10.8693 5.05281 11.0078 5.03475 11.1339 5.0768C11.2232 5.10655 11.3724 5.16963 11.5064 5.23103C11.6253 5.28553 11.7714 5.35645 11.8705 5.41844C12.1302 5.55222 12.5812 5.84947 13.0355 6.19566C13.5042 6.55277 14.0182 6.99335 14.3572 7.40503L14.3611 7.40978C14.4473 7.51746 14.5602 7.66308 14.6785 7.81563C14.7898 7.95917 14.906 8.10888 15.0091 8.23898C15.1589 8.42805 15.2889 8.58557 15.3872 8.69538C15.4014 8.69346 15.4155 8.69167 15.4295 8.68999C15.4992 8.68163 15.574 8.67513 15.6483 8.67003C15.6189 8.55529 15.591 8.43445 15.5652 8.31595C15.4814 7.9303 15.4146 7.54142 15.3918 7.40475C15.2953 6.87103 15.2979 6.19536 15.3313 5.62771C15.3646 5.06187 15.4321 4.54687 15.4861 4.33115C15.5092 4.23819 15.5637 4.14828 15.6531 4.0834C15.7506 4.01269 15.8479 4.0029 15.8852 4.00073C15.9603 3.99636 16.0199 4.01296 16.0339 4.01685L16.035 4.01715C16.0758 4.02845 16.112 4.04422 16.1301 4.05229C16.1742 4.07199 16.2277 4.09942 16.2819 4.12847C16.3934 4.18831 16.5409 4.27291 16.6953 4.36554ZM16.2579 9.51845L16.2565 9.51845L16.2502 9.51847L16.2252 9.51861C16.2033 9.51877 16.1714 9.5191 16.1326 9.51976C16.0546 9.52108 15.9496 9.52371 15.8403 9.52892C15.7297 9.53418 15.6209 9.5418 15.533 9.55235C15.4889 9.55764 15.4558 9.563 15.4335 9.56774C15.4289 9.56871 15.4254 9.56953 15.4227 9.57019C15.2728 9.63532 15.0982 9.61093 14.9717 9.50549C14.7981 9.36082 14.5488 9.05656 14.3283 8.77841C14.2058 8.62373 14.0914 8.47606 13.9849 8.33854C13.8769 8.19913 13.777 8.07015 13.6848 7.95486C13.4099 7.62165 12.9602 7.23017 12.5092 6.88653C12.0559 6.54116 11.6428 6.27553 11.4601 6.18414C11.4465 6.17737 11.4334 6.1699 11.4206 6.16177C11.4599 6.9458 11.6652 7.8198 11.9312 8.58576C11.9961 8.75836 12.157 9.16613 12.3029 9.52263C12.3765 9.70267 12.4446 9.86539 12.4935 9.97627C12.5071 10.0071 12.5181 10.0314 12.5266 10.0497C12.5829 10.124 12.6147 10.2157 12.6147 10.3119C12.6147 10.3292 12.6146 10.3911 12.588 10.4639C12.565 10.5269 12.4912 10.6655 12.3312 10.7238C10.9431 11.4831 10.2564 12.94 9.87235 14.0056C9.70308 14.5152 9.62588 15.0282 9.54262 15.5815C9.52589 15.6927 9.50891 15.8056 9.49089 15.9203C9.38554 16.5913 9.24591 17.3076 8.88309 18.0091L8.88217 18.0108C8.49781 18.7456 8.02565 19.4699 7.55111 20.1879C7.51246 20.2464 7.47379 20.3048 7.43514 20.3632C6.99532 21.0279 6.55729 21.6899 6.16741 22.3759C5.3217 23.8639 4.7326 25.4151 4.8958 27.195C5.02106 28.4455 5.30435 29.0547 5.7115 29.5378C6.05189 29.9143 6.51503 30.228 7.11735 30.4698C7.43804 30.5835 7.87335 30.5082 8.37418 30.2995C8.50821 30.2436 8.66128 30.2585 8.7821 30.339C8.83683 30.3755 8.88166 30.4233 8.91432 30.4781C8.93098 30.491 8.9561 30.5089 8.99067 30.5301C9.09768 30.5956 9.26478 30.6744 9.47732 30.7293C9.89567 30.8372 10.4817 30.8511 11.139 30.4947C12.1224 29.9525 12.6303 29.2983 13.0533 28.5606C13.1924 28.318 13.3159 28.0787 13.446 27.8266C13.5233 27.6767 13.6029 27.5224 13.6896 27.3601C13.9152 26.9377 14.1717 26.4954 14.5098 26.0523C14.5136 26.0473 14.5175 26.0425 14.5214 26.0377C14.9445 25.5301 15.5888 25.295 16.1736 25.1631C16.5861 25.0701 17.0331 25.0172 17.4071 24.9729C17.5572 24.9552 17.6955 24.9388 17.8151 24.9218C19.0406 24.723 20.0882 24.0094 20.9124 22.9379C21.0213 22.7963 21.2057 22.7358 21.3773 22.7855C21.5489 22.8351 21.6726 22.9848 21.689 23.1626C21.8102 24.4709 21.3491 25.6808 20.8118 26.6239C20.2999 27.5225 19.6961 28.2172 19.394 28.5648C19.3792 28.5818 19.3652 28.598 19.3519 28.6133C18.9853 29.0561 18.5808 29.4622 18.1746 29.87C18.0423 30.0028 17.9099 30.1357 17.7786 30.2701C17.235 30.8265 16.6795 31.4371 16.1357 32.2423C15.0933 33.7857 14.0668 36.0843 13.3137 40.1315H39.7405C40.1185 31.7411 38.8969 21.5855 31.8183 14.2092C30.0422 12.3915 27.2658 10.9332 24.7317 10.203L24.7272 10.2017C24.3203 10.0796 23.3419 9.89758 22.423 9.74259C21.9704 9.66625 21.5423 9.59808 21.2223 9.54907C21.0623 9.52454 20.93 9.50493 20.8357 9.49152C20.7883 9.48479 20.7517 9.4798 20.7265 9.47658C20.7137 9.47494 20.7062 9.4741 20.7028 9.47372C20.5492 9.46395 20.4114 9.37338 20.342 9.23454C20.3444 9.23941 20.342 9.23574 20.3329 9.22178C20.3212 9.2039 20.2985 9.16916 20.2608 9.11387C20.204 9.03071 20.1291 8.9237 20.0482 8.81044C19.8861 8.58347 19.7112 8.34738 19.6123 8.22782C18.8788 7.4087 17.7995 6.32943 16.9808 5.59659C16.8571 5.49166 16.551 5.29181 16.2484 5.11031C16.2474 5.10969 16.2464 5.10907 16.2454 5.10845C16.2274 5.2763 16.2107 5.47019 16.1984 5.67871C16.1661 6.22798 16.1687 6.82225 16.2469 7.25264L16.2481 7.25893C16.2696 7.38813 16.334 7.76363 16.4139 8.13144C16.4541 8.31605 16.4966 8.4917 16.538 8.63071C16.5588 8.70044 16.5774 8.75463 16.5931 8.79316C16.6007 8.81199 16.6059 8.82262 16.6081 8.82709C16.7029 8.95602 16.7193 9.12723 16.6495 9.2723C16.5772 9.42275 16.4248 9.51844 16.2579 9.51845ZM14.5131 13.8991C14.522 13.8955 14.5921 13.8676 14.6797 13.8676C14.9195 13.8676 15.1139 14.062 15.1139 14.3019H14.6797C15.1139 14.3019 15.1139 14.3018 15.1139 14.3019L15.1139 14.3034L15.1139 14.3061L15.1139 14.3145L15.1134 14.3436C15.1129 14.368 15.112 14.4025 15.1101 14.4451C15.1063 14.5298 15.0989 14.6479 15.0839 14.7828C15.055 15.0425 14.9943 15.4045 14.8558 15.7093C14.8536 15.7141 14.8513 15.719 14.8489 15.7238C14.6853 16.0509 14.3819 16.3977 14.1537 16.6259C13.927 16.8525 13.5349 17.0861 13.227 17.2429C13.0669 17.3244 12.9084 17.3959 12.7795 17.4425C12.7183 17.4646 12.6452 17.488 12.5743 17.4999C12.5421 17.5054 12.4811 17.5138 12.4103 17.5052C12.3578 17.4988 12.1584 17.4651 12.0551 17.2584C12.0073 17.1629 12.0019 17.0717 12.0006 17.0317C11.9991 16.9818 12.0032 16.9349 12.0077 16.898C12.0169 16.8238 12.0336 16.7463 12.0485 16.6841C12.0611 16.631 12.0749 16.5785 12.0854 16.5387C12.0875 16.5308 12.0894 16.5233 12.0912 16.5165C12.0959 16.4985 12.0991 16.4861 12.1012 16.4775C12.1028 16.4662 12.1048 16.455 12.1073 16.4438C12.3215 15.4798 13.1116 14.8256 13.7652 14.3463C13.7704 14.3425 13.7757 14.3387 13.7811 14.3351C13.852 14.2879 14.01 14.1863 14.1561 14.0964C14.229 14.0516 14.3029 14.0071 14.3635 13.973C14.3931 13.9563 14.425 13.9389 14.4546 13.9246C14.4688 13.9177 14.4892 13.9081 14.5123 13.8994C14.5124 13.8993 14.5127 13.8992 14.5131 13.8991ZM14.1346 15.1542C13.6413 15.5287 13.2402 15.909 13.0464 16.3538C13.2591 16.2325 13.4458 16.1054 13.5395 16.0117C13.7473 15.804 13.9672 15.5408 14.0684 15.3425C14.0935 15.286 14.1155 15.2223 14.1346 15.1542ZM7.7613 26.7353C7.73794 26.6904 7.63289 26.6346 7.53053 26.6919C7.01093 26.9975 7.06833 27.266 7.08595 27.3097C7.10282 27.3515 7.1293 27.3678 7.14524 27.3724C7.15297 27.3747 7.19405 27.3861 7.27218 27.3275C7.27861 27.3227 7.28517 27.3181 7.29185 27.3136C7.57994 27.1216 7.70002 26.9612 7.74439 26.8636C7.78341 26.7777 7.76527 26.7429 7.7613 26.7353ZM7.78292 28.0301C8.14756 27.7853 8.40245 27.5148 8.53509 27.223C8.67382 26.9178 8.67065 26.6015 8.53188 26.3346C8.27036 25.8317 7.60905 25.6467 7.09805 25.9387L7.09389 25.9411C6.34475 26.3802 6.04603 27.0536 6.2805 27.6347C6.38968 27.9053 6.61258 28.1219 6.90219 28.2063C7.19624 28.292 7.51254 28.2285 7.78292 28.0301Z" fill="#2D2E37"/>
            <path fill-rule="evenodd" clip-rule="evenodd" d="M21.8044 11.1896C21.8762 10.9108 22.1603 10.7431 22.439 10.8148C28.438 12.3594 32.1042 15.2513 34.3517 19.8032C36.5742 24.3043 37.3864 30.3873 37.8248 38.2559C37.8408 38.5433 37.6208 38.7892 37.3334 38.8052C37.0461 38.8212 36.8001 38.6013 36.7841 38.3139C36.3456 30.4417 35.5355 24.5548 33.4172 20.2647C31.324 16.0254 27.9309 13.305 22.1791 11.8242C21.9004 11.7524 21.7326 11.4683 21.8044 11.1896Z" fill="#2D2E37"/>
            <path fill-rule="evenodd" clip-rule="evenodd" d="M22.2842 18.6542C22.5695 18.6161 22.8316 18.8166 22.8696 19.1018C22.9255 19.5209 22.8555 20.3368 22.6757 21.1567C22.4954 21.9793 22.1787 22.9303 21.6638 23.574C21.484 23.7987 21.1561 23.8351 20.9313 23.6553C20.7066 23.4756 20.6702 23.1476 20.85 22.9229C21.212 22.4703 21.4872 21.7113 21.6577 20.9336C21.8287 20.1531 21.8683 19.4782 21.8365 19.2396C21.7985 18.9543 21.9989 18.6922 22.2842 18.6542Z" fill="#2D2E37"/>
            <path fill-rule="evenodd" clip-rule="evenodd" d="M10.308 28.4616C10.552 28.6141 10.6262 28.9357 10.4737 29.1797C10.0296 29.8902 9.45683 30.6706 8.79377 31.1297C8.55714 31.2935 8.2325 31.2345 8.06868 30.9978C7.90485 30.7612 7.96388 30.4366 8.20051 30.2727C8.67745 29.9426 9.15698 29.3199 9.58984 28.6273C9.74238 28.3833 10.0639 28.3091 10.308 28.4616Z" fill="#2D2E37"/>
        </g>
        <g id="wr" fill="none" stroke-linecap="round" stroke-linejoin="round" transform="translate(180.000000, 0)" stroke-width="1.5">
            <path fill-rule="evenodd" clip-rule="evenodd" d="M33.1284 34.7331H11.8716V32.6086L15.4291 29.112V17.7372L11.2128 14.7718V8H15.5608V11.1867H20.0845V8H24.9155V11.1867H29.4392V8H33.7872V14.7718L29.5709 17.7372V29.112L33.1284 32.6086V34.7331Z" fill="white"/>
            <path fill-rule="evenodd" clip-rule="evenodd" d="M11.2128 14.7718H33.7872H11.2128Z" fill="white"/>
            <path fill-rule="evenodd" clip-rule="evenodd" d="M29.5709 17.7372H15.4291H29.5709Z" fill="white"/>
            <path fill-rule="evenodd" clip-rule="evenodd" d="M33.1284 32.6086H11.8716H33.1284Z" fill="white"/>
            <path d="M35.5 34.7331H9.5V40H35.5V34.7331Z" fill="white"/>
            <path fill-rule="evenodd" clip-rule="evenodd" d="M10.7128 8H16.0608V11.1867H19.5845V8H25.4155V11.1867H28.9392V8H34.2872V15.5314L30.0709 18.4968V29.4024L33.6284 32.8989V34.7331H36V41H9V34.7331H11.3716V32.8989L14.9291 29.4024V18.4968L10.7128 15.5314V8ZM15.9291 18.7372V29.8217L13.0936 32.6086H31.9064L29.0709 29.8217V18.7372H15.9291ZM29.4127 17.7372L32.2071 15.7718H12.7929L15.5873 17.7372H29.4127ZM11.7128 14.7718V9H15.0608V12.1867H20.5845V9H24.4155V12.1867H29.9392V9H33.2872V14.7718H11.7128ZM32.6284 33.6086H12.3716V34.7331H32.6284V33.6086ZM10 35.7331V40H35V35.7331H10Z" fill="#2D2E37"/>
        </g>
        <g id="wp" transform="translate(225.000000, 0)" fill="#FFFFFF" stroke-linecap="round" stroke-width="1.5">
            <path fill-rule="evenodd" clip-rule="evenodd" d="M25.1104 17.6817C26.0756 18.6899 28.1815 19.4789 28.2253 20.268C28.2253 20.8378 28.4008 21.583 27.3918 21.583C26.9969 21.583 26.1633 21.583 25.1104 21.583C24.9788 27.8515 27.6111 27.8077 31.0332 31.7529C32.9636 33.9885 34.543 36.0926 34.4991 41.0022H10.5009C10.457 36.0926 12.0364 33.9885 13.9668 31.7529C17.345 27.8515 20.0212 27.8954 19.8896 21.583C18.7928 21.583 18.0031 21.583 17.6082 21.583C16.5553 21.583 16.7308 20.8378 16.7746 20.268C16.8185 19.4351 18.9244 18.6899 19.8896 17.6817C18.6173 16.8488 17.7837 15.4022 17.7837 13.7365C17.7837 11.1063 19.8896 9.00223 22.5219 9.00223C25.1543 9.00223 27.2602 11.1063 27.2602 13.7365C27.2163 15.4022 26.3827 16.8488 25.1104 17.6817Z" fill="white"/>
            <path fill-rule="evenodd" clip-rule="evenodd" d="M22.5219 9.50223C20.1653 9.50223 18.2837 11.3829 18.2837 13.7365C18.2837 15.2309 19.03 16.5214 20.1634 17.2633L20.6668 17.5929L20.2508 18.0274C19.8023 18.4959 19.1373 18.9106 18.5743 19.2618C18.4633 19.3311 18.3562 19.3979 18.2556 19.4621C17.9299 19.6699 17.6666 19.8518 17.4841 20.0209C17.2883 20.2024 17.2742 20.2891 17.274 20.2943L17.2733 20.3064C17.2678 20.3784 17.2618 20.4386 17.2564 20.494C17.2484 20.5768 17.2414 20.649 17.2379 20.7344C17.2326 20.8638 17.2418 20.9413 17.2564 20.9871C17.2661 21.0175 17.2729 21.0217 17.2853 21.0293C17.3113 21.0449 17.3979 21.083 17.6082 21.083H20.3793L20.3895 21.5726C20.4571 24.8143 19.8003 26.5123 18.6255 27.8957C18.1134 28.4988 17.508 29.0351 16.8696 29.6007C16.8027 29.6599 16.7355 29.7195 16.668 29.7794C15.9481 30.4191 15.1675 31.1302 14.3452 32.0798C13.3843 33.1926 12.5491 34.2306 11.9504 35.5779C11.3961 36.8253 11.0333 38.3652 11.0022 40.5022H33.9978C33.9667 38.3652 33.6039 36.8253 33.0496 35.5779C32.4509 34.2307 31.6159 33.1928 30.6552 32.0802C29.8213 31.1188 29.0345 30.3991 28.3124 29.7538C28.2467 29.6951 28.1813 29.6368 28.1162 29.5788C27.4742 29.0067 26.8683 28.4668 26.3572 27.8619C25.1883 26.4783 24.5429 24.7915 24.6105 21.5726L24.6208 21.083H27.3918C27.5879 21.083 27.663 21.0461 27.6818 21.0343C27.6822 21.034 27.6826 21.0338 27.683 21.0336C27.6901 21.0291 27.699 21.0237 27.7107 20.9871C27.7274 20.9346 27.7376 20.8514 27.737 20.7162C27.7367 20.651 27.7342 20.5836 27.7313 20.507C27.7288 20.4418 27.726 20.3681 27.7255 20.2951C27.7211 20.2827 27.692 20.2011 27.5178 20.0412C27.3334 19.872 27.0681 19.6878 26.7419 19.4769C26.6449 19.4142 26.5421 19.349 26.4357 19.2816C25.869 18.9224 25.1999 18.4982 24.7492 18.0274L24.3332 17.5929L24.8366 17.2633C25.9679 16.5228 26.7185 15.2315 26.7602 13.7299C26.7567 11.3794 24.8763 9.50223 22.5219 9.50223ZM17.2837 13.7365C17.2837 10.8298 19.6138 8.50223 22.5219 8.50223C25.43 8.50223 27.7602 10.8298 27.7602 13.7365V13.7496C27.7182 15.3434 27.0158 16.7636 25.9003 17.7137C26.2054 17.9491 26.5663 18.1787 26.94 18.4165C27.0541 18.4892 27.1695 18.5626 27.2848 18.6371C27.6112 18.8481 27.9409 19.0722 28.1939 19.3044C28.4294 19.5205 28.702 19.8348 28.7246 20.2402L28.7253 20.2541V20.268C28.7253 20.3282 28.7277 20.3928 28.7306 20.4692L28.7308 20.4764C28.7335 20.5478 28.7366 20.6295 28.737 20.7116C28.7377 20.8763 28.7287 21.0863 28.6633 21.2913C28.5933 21.5103 28.4571 21.7282 28.2136 21.8812C27.9815 22.0269 27.7002 22.083 27.3918 22.083H25.6058C25.614 24.7993 26.2047 26.1318 27.1211 27.2165C27.5839 27.7643 28.1359 28.2565 28.7902 28.8399C28.8521 28.8951 28.9149 28.9512 28.9787 29.0081C29.7084 29.6601 30.5339 30.4142 31.4109 31.4253L31.4116 31.4261C32.3811 32.5489 33.3008 33.6808 33.9634 35.1718C34.6284 36.6683 35.0215 38.4949 34.9991 41.0067L34.9947 41.5022H10.0053L10.0009 41.0067C9.97847 38.4949 10.3716 36.6683 11.0366 35.1718C11.6992 33.6808 12.6189 32.5489 13.5884 31.4261C14.455 30.4253 15.2761 29.6785 16.0038 29.0319C16.0698 28.9733 16.1348 28.9156 16.1988 28.8589C16.8488 28.2826 17.3998 27.7942 17.8633 27.2484C18.7848 26.1632 19.3853 24.8205 19.3942 22.083H17.6082C17.2921 22.083 17.0057 22.028 16.7699 21.8862C16.5205 21.7361 16.3764 21.5185 16.3038 21.2913C16.2362 21.0795 16.2317 20.864 16.2387 20.6933C16.2432 20.5859 16.2552 20.4583 16.2649 20.3545C16.2693 20.3085 16.2732 20.2671 16.2758 20.2344C16.3002 19.8266 16.564 19.5103 16.8042 19.2876C17.0591 19.0513 17.3907 18.8277 17.7177 18.6191C17.8399 18.5411 17.962 18.4646 18.0824 18.3892C18.4486 18.1599 18.8002 17.9396 19.0984 17.7124C17.9837 16.7617 17.2837 15.3382 17.2837 13.7365Z" fill="#2D2E37"/>
        </g>
        <g id="bk" fill="none" stroke-linecap="round" stroke-linejoin="round" transform="translate(0, 45.000000)" stroke-width="1.5">
            <path fill-rule="evenodd" clip-rule="evenodd" d="M26.3695 15.776C23.2668 19.2014 22.4455 22.1876 22.5367 27.5013C22.4911 22.4072 21.1679 18.4109 18.7952 15.8199C19.2058 13.756 20.3009 12.4385 21.8523 11.8237C21.8523 10.9015 21.8523 9.9793 21.8523 9.101H19.9815V7.69573H21.8523V5.5H23.3124V7.69573H25.1832V9.05709H23.3124C23.3124 9.9793 23.3124 10.9015 23.3124 11.7798C24.8182 12.4385 25.9589 13.756 26.3695 15.776Z" fill="#2D2E37"/>
            <path fill-rule="evenodd" clip-rule="evenodd" d="M22.5367 28.3795C22.3998 25.1738 22.5823 21.7923 23.9968 19.1135C26.2326 14.8977 29.9286 11.9555 35.3128 13.3607C40.0125 14.5903 42.7046 20.7384 40.9707 24.9103C39.2369 29.1261 35.4953 30.2679 34.2633 31.1901C33.9895 33.6054 34.1721 35.7572 35.2671 38.0847C33.7158 39.2265 26.2327 40.5 22.4911 40.5C18.7495 40.5 11.2664 39.2265 9.71504 38.0847C10.8101 35.7572 10.9927 33.6054 10.7189 31.1901C9.4869 30.2679 5.74534 29.1261 4.01145 24.9103C2.32318 20.7384 4.96965 14.5903 9.66941 13.3607C15.008 11.9555 18.8864 14.8099 20.8485 19.1575C22.2173 21.8363 22.5824 25.2177 22.5367 28.3795Z" fill="#2D2E37"/>
            <path fill-rule="evenodd" clip-rule="evenodd" d="M34.3089 31.1901C30.4305 29.3457 26.5064 28.2917 22.5367 28.3795C18.6127 28.2917 14.6886 29.3457 10.7645 31.1901" fill="#2D2E37"/>
            <path fill-rule="evenodd" clip-rule="evenodd" d="M21.3523 5H23.8124V7.19573H25.6832V9.55709H23.8124V11.463C25.1079 12.1198 26.1167 13.2482 26.6395 14.8412C27.1325 14.4078 27.6602 14.0229 28.2236 13.6966C30.2196 12.5405 32.6258 12.1427 35.439 12.8769C37.966 13.5381 39.9163 15.508 41.0066 17.8188C42.0953 20.1264 42.3656 22.8553 41.4332 25.1005C40.5209 27.3186 39.0784 28.7269 37.7183 29.6929C37.0409 30.1741 36.3828 30.5463 35.8279 30.8509C35.7519 30.8927 35.6786 30.9328 35.6079 30.9714C35.248 31.1682 34.958 31.3268 34.736 31.4706C34.5064 33.7252 34.7066 35.7188 35.7196 37.8718L35.8946 38.2437L35.5635 38.4874C35.0951 38.8322 34.2553 39.1454 33.2801 39.4245C32.2813 39.7104 31.0665 39.98 29.79 40.2124C27.242 40.6764 24.4034 41 22.4911 41C20.5788 41 17.7402 40.6764 15.1922 40.2124C13.9157 39.98 12.7009 39.7104 11.7021 39.4245C10.7269 39.1454 9.88713 38.8322 9.41867 38.4874L9.08763 38.2437L9.26262 37.8718C10.2756 35.7188 10.4758 33.7252 10.2462 31.4706C10.0242 31.3268 9.73418 31.1682 9.37425 30.9714C9.30362 30.9328 9.23031 30.8927 9.15428 30.8509C8.59938 30.5463 7.9413 30.1741 7.26385 29.6929C5.90375 28.7269 4.46132 27.3186 3.54903 25.1005L3.54796 25.0978C2.64024 22.8548 2.90935 20.1276 3.99227 17.8198C5.07641 15.5093 7.0147 13.5386 9.54249 12.8771C12.3302 12.1434 14.7706 12.5171 16.7742 13.6682C17.3955 14.0252 17.971 14.4547 18.4997 14.9448C19.0057 13.2931 19.9959 12.1342 21.3523 11.4956V9.601H19.4815V7.19573H21.3523V5ZM21.5211 22.5847C21.2662 21.4465 20.9035 20.364 20.4032 19.385L20.3977 19.3742L20.3927 19.3631C19.444 17.261 18.0465 15.5525 16.276 14.5353C14.5154 13.5237 12.3474 13.1728 9.79669 13.8443C7.62489 14.4125 5.88948 16.1307 4.89756 18.2445C3.9046 20.3607 3.69449 22.7928 4.47441 24.7214C5.29603 26.7183 6.59104 27.9885 7.84292 28.8776C8.47158 29.3242 9.08827 29.6739 9.63558 29.9744C9.70724 30.0137 9.77856 30.0527 9.84918 30.0912C10.1918 30.2782 10.5178 30.4561 10.7853 30.6288C14.5062 28.9093 18.2527 27.8859 22.0177 27.8746C22.0017 27.3585 21.9949 26.8368 22.0014 26.3133C21.9334 24.9789 21.7712 23.7344 21.5211 22.5847ZM23.0404 27.8745C26.8318 27.8821 30.5659 28.8955 34.2365 30.6034C34.4963 30.4388 34.8071 30.2691 35.133 30.0912C35.2036 30.0527 35.2749 30.0137 35.3466 29.9744C35.8939 29.6739 36.5106 29.3242 37.1393 28.8776C38.3914 27.9883 39.6867 26.7177 40.5083 24.7201L40.509 24.7184C41.3097 22.792 41.1007 20.3618 40.1022 18.2455C39.105 16.132 37.3592 14.4131 35.1865 13.8445C32.6156 13.1735 30.4817 13.5442 28.7248 14.5619C27.946 15.013 27.2339 15.5956 26.5878 16.2816C26.0247 16.9165 25.5446 17.534 25.1367 18.1535C24.9108 18.5039 24.6965 18.8684 24.4935 19.245C24.1836 19.84 23.9329 20.4467 23.7321 21.0813C23.2026 22.7551 23.0112 24.6526 23.0315 27.0914C23.0376 27.3536 23.0405 27.6148 23.0404 27.8745ZM24.3006 17.6048C24.0459 17.9918 23.816 18.3814 23.6094 18.7776C23.5912 18.8114 23.5731 18.8453 23.5551 18.8793C23.0317 19.8706 22.6711 20.9494 22.4302 22.0711C21.8282 19.4921 20.7864 17.3334 19.3376 15.6764C19.7534 13.8979 20.7229 12.8091 22.0365 12.2885L22.3523 12.1634V8.601H20.4815V8.19573H22.3523V6H22.8124V8.19573H24.6832V8.55709H22.8124V12.1068L23.112 12.2379C24.4018 12.8021 25.4075 13.9042 25.8255 15.6326C25.2663 16.2313 24.7587 16.895 24.3006 17.6048ZM33.731 31.4713C30.0229 29.7573 26.2975 28.7965 22.5478 28.8794L22.5367 28.8797L22.5255 28.8794C18.7912 28.7958 15.0371 29.7723 11.2552 31.5133C11.4623 33.7071 11.2779 35.7319 10.3545 37.882C10.7212 38.0619 11.2704 38.2608 11.9772 38.4631C12.9347 38.7371 14.1154 38.9999 15.3713 39.2286C17.8881 39.6869 20.6618 40 22.4911 40C24.3204 40 27.0941 39.6869 29.6109 39.2286C30.8668 38.9999 32.0475 38.7371 33.005 38.4631C33.7118 38.2608 34.261 38.0619 34.6277 37.882C33.6984 35.7182 33.5175 33.6813 33.731 31.4713Z" fill="white"/>
        </g>
        <g id="bq" fill="none" stroke-linecap="round" stroke-linejoin="round" transform="translate(45.000000, 45.000000)">
            <path fill-rule="evenodd" clip-rule="evenodd" d="M38.6464 14.0692C38.3343 14.0249 38.0668 13.8921 37.7993 13.7592L31.1112 24.6984L31.3341 10.659C31.0666 10.659 30.7991 10.5704 30.5316 10.4819L25.3594 23.8126L22.7734 9.77324C22.6842 9.77324 22.5504 9.81753 22.4613 9.81753C22.3721 9.81753 22.2383 9.81753 22.1492 9.77324L19.5631 23.8126L14.4356 10.4376C14.1681 10.5261 13.9451 10.6147 13.633 10.6147L13.8559 24.6984L7.16787 13.7149C6.90035 13.8478 6.63282 13.9806 6.32071 14.0249L10.289 33.5118C9.93228 35.0619 9.57558 36.5234 8.90677 37.6749C17.4675 40.775 27.4996 40.775 36.105 37.6749C35.3916 36.5677 35.0794 35.1061 34.7227 33.5118L38.6464 14.0692Z" fill="#2D2E37"/>
            <path fill-rule="evenodd" clip-rule="evenodd" d="M35.1686 30.8545C31.2004 28.7729 26.9646 27.8872 22.5059 27.7986C18.0471 27.8872 13.8114 28.7729 9.8431 30.8545" fill="#2D2E37"/>
            <path fill-rule="evenodd" clip-rule="evenodd" d="M8.99595 37.542C12.9642 35.4604 18.0026 34.1761 22.4613 34.0875C26.92 34.1761 31.9583 35.4604 35.9266 37.542" fill="#2D2E37"/>
            <path d="M39.0923 14.0692C40.422 14.0692 41.5 12.9985 41.5 11.6776C41.5 10.3568 40.422 9.28607 39.0923 9.28607C37.7626 9.28607 36.6846 10.3568 36.6846 11.6776C36.6846 12.9985 37.7626 14.0692 39.0923 14.0692Z" fill="#2D2E37"/>
            <path d="M8.13288 12.5717C8.64177 11.3514 8.05838 9.95233 6.82983 9.44685C5.60128 8.94137 4.19281 9.52085 3.68392 10.7412C3.17503 11.9615 3.75842 13.3605 4.98697 13.866C6.21552 14.3715 7.62399 13.792 8.13288 12.5717Z" fill="#2D2E37"/>
            <path d="M31.8965 10.5828C33.2091 10.3712 34.1004 9.1427 33.8874 7.83891C33.6744 6.53512 32.4376 5.64973 31.125 5.86132C29.8125 6.07292 28.9211 7.30138 29.1341 8.60517C29.3471 9.90896 30.5839 10.7944 31.8965 10.5828Z" fill="#2D2E37"/>
            <path d="M13.4547 10.6147C14.7844 10.6147 15.8624 9.54398 15.8624 8.22315C15.8624 6.90233 14.7844 5.83159 13.4547 5.83159C12.1249 5.83159 11.047 6.90233 11.047 8.22315C11.047 9.54398 12.1249 10.6147 13.4547 10.6147Z" fill="#2D2E37"/>
            <path d="M24.7372 8.30751C25.2461 7.08719 24.6627 5.68816 23.4341 5.18268C22.2056 4.6772 20.7971 5.25669 20.2882 6.477C19.7793 7.69731 20.3627 9.09634 21.5913 9.60182C22.8198 10.1073 24.2283 9.52782 24.7372 8.30751Z" fill="#2D2E37"/>
            <path fill-rule="evenodd" clip-rule="evenodd" d="M23.2439 6.14513C22.2678 5.74352 21.1518 6.20525 20.7497 7.1695C20.3514 8.12463 20.8001 9.22162 21.7592 9.63014L21.7776 9.53048L22.2537 9.76694C23.094 9.88178 23.9375 9.42624 24.2757 8.61511C24.6771 7.65261 24.2183 6.54604 23.2439 6.14513ZM23.3531 10.6606C24.1576 10.4186 24.8511 9.83348 25.1987 9C25.8151 7.52188 25.1071 5.83039 23.6244 5.22035C22.1434 4.611 20.4424 5.30823 19.8267 6.78461C19.2103 8.26273 19.9183 9.95422 21.401 10.5643C21.4588 10.588 21.5168 10.6098 21.5751 10.6296L19.3935 22.4734L15.0492 11.1415C15.8395 10.6252 16.3624 9.73607 16.3624 8.72321C16.3624 7.12307 15.0574 5.83164 13.4547 5.83164C11.852 5.83164 10.547 7.12307 10.547 8.72321C10.547 10.2174 11.6849 11.4425 13.1406 11.5981L13.3269 23.3683L7.82471 14.3323C8.15035 14.0491 8.41726 13.6889 8.59436 13.2642C9.21076 11.786 8.50276 10.0946 7.02008 9.48451C5.53908 8.87516 3.83811 9.5724 3.22243 11.0488C2.60603 12.5269 3.31403 14.2184 4.79672 14.8284C5.16331 14.9793 5.54337 15.05 5.91711 15.0488L9.77737 34.0053C9.42618 35.5261 9.08467 36.8731 8.47441 37.9238L8.17385 38.4413L8.73652 38.645C17.4075 41.7852 27.5598 41.7849 36.2744 38.6453L36.8656 38.4323L36.5253 37.9041C35.8846 36.9098 35.5871 35.5859 35.2339 34.0065L39.0556 15.069C39.0678 15.0692 39.0801 15.0693 39.0923 15.0693C40.695 15.0693 42 13.7778 42 12.1777C42 10.5776 40.695 9.28613 39.0923 9.28613C37.4896 9.28613 36.1846 10.5776 36.1846 12.1777C36.1846 13.0396 36.5632 13.812 37.1631 14.3412L31.6402 23.3746L31.8272 11.5966C31.8767 11.5912 31.9263 11.5844 31.976 11.5764C33.5587 11.3213 34.639 9.83804 34.3809 8.25834C34.1229 6.67948 32.6273 5.61275 31.0455 5.86775C29.4628 6.12288 28.3825 7.60615 28.6407 9.18585C28.7779 10.026 29.2656 10.7211 29.9303 11.1493L25.5315 22.4868L23.3531 10.6606ZM22.4613 11.339L19.7327 26.1519L14.1402 11.5639L14.385 27.0286L6.97327 14.8568C6.95056 14.866 6.92749 14.8751 6.90408 14.884L10.1155 30.654C14.0185 28.7143 18.1629 27.8848 22.4959 27.7987L22.5059 27.7985L22.5158 27.7987C26.8468 27.8848 30.9894 28.7136 34.8908 30.6513L38.0638 14.9285C38.0399 14.9195 38.0163 14.9102 37.9931 14.9007L30.5822 27.0223L30.827 11.6027L25.1874 26.1385L22.4613 11.339ZM34.6857 31.6676C30.8741 29.7229 26.805 28.8853 22.5059 28.7987C18.2053 28.8853 14.135 29.7235 10.3223 31.6695L10.8006 34.0183L10.7762 34.1239C10.5499 35.1077 10.3166 36.0922 9.99071 36.9956C13.8064 35.2356 18.3639 34.1689 22.4513 34.0877L22.4613 34.0875L22.4712 34.0877C26.5838 34.1694 31.1723 35.2488 35.0022 37.0282C34.6942 36.1793 34.4859 35.2461 34.2765 34.3075C34.2626 34.2453 34.2487 34.1831 34.2348 34.121L34.2116 34.0172L34.6857 31.6676ZM34.8681 38.0706C31.1126 36.2712 26.5365 35.1703 22.4613 35.0877C18.3984 35.17 13.8376 36.2645 10.0886 38.0543C17.9549 40.643 26.9585 40.6488 34.8681 38.0706ZM13.4547 10.6148C14.5114 10.6148 15.3624 9.76473 15.3624 8.72321C15.3624 7.68169 14.5114 6.83164 13.4547 6.83164C12.3979 6.83164 11.547 7.68169 11.547 8.72321C11.547 9.76473 12.3979 10.6148 13.4547 10.6148ZM33.394 8.41959C33.2259 7.39087 32.248 6.68681 31.2046 6.855C30.1621 7.02307 29.4596 7.99672 29.6276 9.02459C29.7956 10.0533 30.7736 10.7574 31.8169 10.5892C32.8594 10.4211 33.5619 9.44746 33.394 8.41959ZM6.63958 10.4093C5.66348 10.0077 4.5475 10.4694 4.1454 11.4337C3.74402 12.3962 4.20281 13.5027 5.17722 13.9036C6.15331 14.3053 7.26929 13.8435 7.6714 12.8793C8.07278 11.9168 7.61399 10.8102 6.63958 10.4093ZM39.0923 10.2861C38.0355 10.2861 37.1846 11.1362 37.1846 12.1777C37.1846 13.2192 38.0355 14.0693 39.0923 14.0693C40.1491 14.0693 41 13.2192 41 12.1777C41 11.1362 40.1491 10.2861 39.0923 10.2861Z" fill="white"/>
        </g>
        <g id="bb" fill="none" stroke-linecap="round" stroke-linejoin="round" transform="translate(90.000000, 45)" stroke-width="1.5">
            <path d="M30.8276 20.931C30.4483 19.3103 29.1035 17.3793 26.4483 15.2414C23.8621 13.1724 23.5173 12.6207 22.6897 10.8276C22.3793 10.9655 22.0345 11.0345 21.6552 11.0345C21.2759 11.0345 20.9311 10.9655 20.6207 10.8276C19.7587 12.6207 19.3793 13.1724 16.8621 15.2414C14.2069 17.3793 12.8276 19.3103 12.4828 20.931C11.5862 24.9655 14.7931 27.5172 16.5173 28.1034C16.1725 29.6897 16.0345 31.6552 15.6552 33.3103C16.2414 34.069 20.5862 34.6207 21.6552 34.5862C22.7242 34.6207 27 34.069 27.6552 33.3103C27.2759 31.6552 27.138 29.6897 26.7931 28.1034C28.5173 27.4828 31.7242 24.9655 30.8276 20.931Z" fill="#2D2E37"/>
            <path d="M31.2414 35.1035C29.1035 35.931 26.7242 36.2414 24.138 34.5172C23.1035 34.6897 22.138 34.7586 21.6897 34.7241C21.2759 34.7586 20.2759 34.6897 19.2414 34.5172C16.6207 36.2759 14.3104 35.931 12.138 35.1035C9.86211 34.2414 6.96556 34.4828 5.62073 35.3103C6.20693 36.6207 7.24142 38.4828 8.03452 39.931C10.3449 39.4138 10.7931 39.2069 13.9656 40C16.8966 40.7241 19.6552 41.069 21.6897 37.8621C23.6552 41.069 26.4483 40.7586 29.4138 40C32.6207 39.1724 33 39.4138 35.3449 39.931C36.1035 38.5172 37.138 36.6552 37.7587 35.3103C36.3449 34.4828 33.4138 34.2414 31.2414 35.1035Z" fill="#2D2E37"/>
            <path d="M15.7931 33.3448C19.4828 32.1379 23.8276 32.1379 27.5173 33.3448H15.7931Z" fill="#2D2E37"/>
            <path d="M16.5173 28.2069C19.7931 27 23.5518 27 26.8276 28.2069H16.5173Z" fill="#2D2E37"/>
            <path d="M22.3449 22.7241V20.069H24.1035V18.8276H22.3449V16.6897H20.9311V18.8276H19.1725V20.069H20.9311V22.7241H22.3449Z" fill="#2D2E37"/>
            <path d="M21.6552 11.1724C22.9311 11.1724 24 10.1034 24 8.82759C24 7.55172 22.9311 6.48276 21.6552 6.48276C20.3793 6.48276 19.3104 7.55172 19.3104 8.82759C19.3104 10.1034 20.3449 11.1724 21.6552 11.1724Z" fill="#2D2E37"/>
            <path d="M26.1724 41C24.5172 41 22.931 40.4828 21.6552 38.7241C19.4828 41.5862 16.5862 41.1724 13.8276 40.4828C11 39.7586 10.4828 39.8621 8.58621 40.3103L7.75862 40.4828L7 39.0345C6.34483 37.7931 5.65517 36.5172 5.17241 35.5172L5 35.1034L5.37931 34.8966C6.7931 34.0345 9.82759 33.6897 12.2759 34.6552C13.8621 35.2414 15.7241 35.6897 17.7931 34.7586C16.6552 34.5172 15.6207 34.1724 15.2759 33.7586L15.1379 33.5862L15.2069 33.3448C15.4138 32.4828 15.5517 31.5172 15.6552 30.5862C15.7586 29.8966 15.8621 29.1724 15.9655 28.5172C14.069 27.6552 11.1034 25 12 20.931C12.3793 19.1034 13.931 17.069 16.5517 14.9655C18.8621 13.1034 19.3448 12.4828 20 11.1379C19.2759 10.6207 18.8276 9.7931 18.8276 8.82759C18.8276 7.27586 20.1379 6 21.6897 6C23.2414 6 24.5517 7.31034 24.5517 8.82759C24.5517 9.75862 24.069 10.5862 23.3793 11.1034C24.069 12.5172 24.5172 13.1034 26.8276 14.931C29.3793 17 30.931 19 31.3793 20.8966C32.2414 24.7931 29.5517 27.5172 27.4138 28.4828C27.5517 29.1379 27.6207 29.8621 27.7241 30.5517C27.8621 31.4828 28 32.4483 28.1724 33.3103L28.2414 33.5517L28.069 33.7241C27.7241 34.1379 26.6897 34.4828 25.5517 34.7241C27.6552 35.6552 29.5172 35.2414 31.069 34.6207C33.4828 33.6897 36.5172 34.0345 37.9655 34.8621L38.3448 35.069L38.1724 35.4828C37.5517 36.8276 36.5172 38.7241 35.7586 40.1379L35.5862 40.4483L34.7241 40.2759C32.8966 39.8621 32.3793 39.7586 29.5172 40.4828C28.4138 40.7586 27.3103 41 26.1724 41ZM21.6552 36.931L22.069 37.5862C23.7586 40.3103 25.9655 40.3448 29.2414 39.5172C32.3448 38.7241 32.9655 38.8966 34.8966 39.3103L35.0345 39.3448C35.6897 38.1724 36.5172 36.6897 37.069 35.5172C35.7241 34.9655 33.2414 34.8276 31.4138 35.5172C29.4828 36.2414 26.8966 36.8276 24 34.9655C22.4483 35.3103 21.0345 35.2759 19.3448 34.9655C16.4828 36.7931 14 36.2759 11.931 35.5172C10.0345 34.8276 7.58621 34.9655 6.24138 35.5172C6.68966 36.4138 7.27586 37.5172 7.82759 38.5517L8.24138 39.3448L8.34483 39.3103C10.3103 38.8621 10.9655 38.7241 14.0345 39.5172C16.7586 40.2069 19.3448 40.5517 21.2069 37.5862L21.6552 36.931ZM19.5517 34.0345C21.2414 34.3793 22.5517 34.3103 24.0345 34L24.2069 33.9655C25 33.8276 25.7931 33.6897 26.3793 33.5172C23.3448 32.7241 19.931 32.7241 16.8966 33.5172C17.4828 33.6897 18.2759 33.8621 19.1034 34C19.1034 34 19.4828 34.0345 19.5517 34.0345ZM21.6552 31.9655C23.4828 31.9655 25.3103 32.2069 27.0345 32.6897C26.931 32.0345 26.8276 31.3793 26.7241 30.6897C26.6207 29.931 26.5172 29.2069 26.3793 28.5517C23.3448 27.5172 19.931 27.5172 16.931 28.5517C16.7931 29.2069 16.6897 29.931 16.5862 30.6897C16.4828 31.3448 16.4138 32 16.2759 32.6552C18 32.2069 19.8276 31.9655 21.6552 31.9655ZM20.8621 11.5517C20.069 13.1034 19.5172 13.7931 17.1724 15.6897C14.7586 17.6207 13.3103 19.5172 12.9655 21.1034C12.1724 24.7241 14.931 27.0345 16.5172 27.6552C19.7931 26.4828 23.5172 26.4828 26.7931 27.6552C28.1379 27.069 31.2069 24.8621 30.3448 21.1034C29.9655 19.4483 28.4828 17.5862 26.1379 15.6897C23.6897 13.7241 23.1724 13.069 22.4138 11.5172C21.931 11.7241 21.3793 11.7241 20.8621 11.5517ZM20.6897 10.4138L20.8276 10.4828C21.3793 10.7241 21.9655 10.7241 22.5172 10.4828L22.6207 10.4483C23.1724 10.1034 23.5517 9.51724 23.5517 8.82759C23.5517 7.82759 22.6897 6.96552 21.6897 6.96552C20.6897 6.96552 19.8276 7.82759 19.8276 8.82759C19.7931 9.51724 20.1379 10.1034 20.6897 10.4138ZM22.8276 23.2069H20.4483V20.5517H18.6897V18.3448H20.4483V16.2069H22.8276V18.3448H24.5862V20.5517H22.8276V23.2069ZM21.4138 22.2414H21.8621V19.5862H23.6207V19.3103H21.8621V17.1724H21.4138V19.3103H19.6552V19.5862H21.4138V22.2414Z" fill="white"/>
        </g>
        <g id="bn" fill="none" stroke-linecap="round" stroke-linejoin="round" transform="translate(135.000000, 45)" >
            <path fill-rule="evenodd" clip-rule="evenodd" d="M21.5887 23.1995C21.8069 25.5561 19.9303 27.6509 19.363 28.3055C17.4864 30.5749 14.6061 31.7095 13.1659 40.4814H40.3981C40.7472 32.015 39.6998 21.5411 32.4117 13.9475C30.5788 12.071 27.7421 10.5872 25.1673 9.84526C24.2944 9.58341 21.1523 9.10335 21.065 9.10335C21.0213 9.01607 20.4976 8.27417 20.2794 8.01232C19.5375 7.18314 18.4465 6.09211 17.6173 5.3502C17.3118 5.08836 16.2644 4.47738 16.2644 4.52102C16.1772 4.87015 16.0026 6.44124 16.1772 7.40134C16.2208 7.66319 16.439 8.92879 16.6136 9.147C16.6136 9.147 15.7844 9.147 15.6098 9.23428C15.348 9.01607 14.737 8.18689 14.3879 7.75047C13.7769 7.00857 12.4676 6.09211 12.0312 5.8739C11.9003 5.78662 11.5075 5.61205 11.3766 5.56841C11.2893 6.57216 11.5512 7.79412 11.9003 8.79786C12.0312 9.147 12.5549 10.4562 12.5549 10.369C10.9838 11.1981 10.2419 12.8129 9.84916 13.9039C9.41275 15.2131 9.54367 16.566 8.88905 17.8316C7.40525 20.6683 4.52492 23.4177 4.87406 27.2145C5.00498 28.5237 5.31047 29.222 5.79052 29.7893C6.18329 30.2257 6.70699 30.5749 7.36161 30.8367C7.84166 31.0113 8.409 30.8804 8.9327 30.6621C8.9327 30.7931 10.1983 31.6659 11.7257 30.8367C13.8642 29.6584 13.9514 27.9564 15.217 26.298C15.8717 25.5125 17.3118 25.4688 18.2283 25.3379C19.5812 25.1197 20.7158 24.3342 21.5887 23.1995ZM14.2133 16.3478C13.8642 16.6969 12.8604 17.177 12.7731 17.0897C12.6858 17.0024 12.8168 16.6097 12.8604 16.566C13.0786 15.7805 13.7332 15.2131 14.3442 14.7331C14.5188 14.6022 14.9552 14.3403 14.9988 14.3403C14.9988 14.3403 14.9988 15.0822 14.7806 15.5623C14.6933 15.8241 14.4315 16.1296 14.2133 16.3478ZM7.71074 26.298C8.32172 25.9489 9.23818 26.7781 7.92895 27.6509C7.23069 28.1746 6.44514 27.0399 7.71074 26.298Z" fill="#2D2E37"/>
            <path fill-rule="evenodd" clip-rule="evenodd" d="M17.0936 4.37614C17.3892 4.55354 17.7644 4.79264 17.9553 4.95625L17.9636 4.96352C18.8071 5.71822 19.9117 6.82284 20.6664 7.66633C20.6704 7.67086 20.6744 7.67546 20.6783 7.68013C20.8012 7.82764 20.9968 8.09305 21.1601 8.32168C21.2374 8.42988 21.3106 8.53418 21.3696 8.62028C21.4594 8.63332 21.571 8.65 21.699 8.66961C22.0219 8.71908 22.4527 8.78768 22.9082 8.86451C23.8012 9.01513 24.8385 9.20532 25.3139 9.34745C27.9503 10.1076 30.8727 11.629 32.7832 13.585L32.7863 13.5882C40.2255 21.3392 41.3552 31.9965 40.9165 40.508C40.9023 40.7837 40.6745 41 40.3985 41H13.1663C13.0132 41 12.8679 40.9323 12.7693 40.8151C12.6708 40.6979 12.629 40.5432 12.6553 40.3923C13.4276 35.9572 14.5281 33.4057 15.7041 31.6646C16.2906 30.7961 16.8874 30.1422 17.4472 29.5692C17.5933 29.4197 17.7346 29.2778 17.8716 29.1402C18.2682 28.742 18.6285 28.3801 18.9636 27.9748L18.9714 27.9657C18.9847 27.9503 18.9986 27.9343 19.0131 27.9176C19.3108 27.5749 19.8584 26.9444 20.3201 26.1339C20.5865 25.6662 20.8155 25.1537 20.9524 24.6165C20.1976 25.2487 19.3132 25.6882 18.3113 25.8499L18.3021 25.8513L18.302 25.8513C18.1387 25.8746 17.974 25.894 17.8081 25.9135C17.4568 25.9549 17.1 25.9969 16.739 26.0783C16.2185 26.1957 15.8384 26.3687 15.6224 26.6222C15.3338 27.002 15.1081 27.3886 14.8963 27.7853C14.8238 27.921 14.7503 28.0634 14.6754 28.2083C14.538 28.4743 14.3962 28.7487 14.2491 29.0053C13.7704 29.84 13.1532 30.6425 11.9765 31.2909L11.9736 31.2924C11.079 31.7781 10.2434 31.7706 9.62722 31.6116C9.323 31.5331 9.06953 31.4172 8.88381 31.3035C8.86088 31.2894 8.83837 31.275 8.81642 31.2604C8.3204 31.4276 7.73485 31.5241 7.18475 31.3241C7.17959 31.3222 7.17447 31.3202 7.16937 31.3182C6.45563 31.0327 5.86093 30.6423 5.40538 30.1362C5.40185 30.1323 5.39838 30.1283 5.39496 30.1242C4.82812 29.4543 4.49634 28.646 4.35834 27.266L4.35793 27.2619L4.35794 27.2619C4.16947 25.2122 4.85787 23.4651 5.74366 21.9066C6.14848 21.1943 6.602 20.509 7.03664 19.8523C7.07604 19.7927 7.11528 19.7334 7.15432 19.6744C7.62841 18.9571 8.07236 18.2743 8.42928 17.5921C8.71563 17.0381 8.8368 16.4539 8.93892 15.8035C8.95479 15.7025 8.97025 15.5991 8.98601 15.4937C9.06871 14.9407 9.15946 14.3338 9.35749 13.7397L9.36153 13.7281C9.72772 12.7109 10.4267 11.1328 11.8877 10.1628C11.8586 10.0933 11.828 10.0191 11.797 9.94332C11.6488 9.58107 11.483 9.16121 11.415 8.97986L11.4108 8.96813C11.0508 7.93314 10.7639 6.63142 10.8603 5.52334C10.874 5.36512 10.9595 5.22193 11.0923 5.13474C11.225 5.04755 11.3904 5.02598 11.541 5.0762C11.6345 5.10736 11.7866 5.1718 11.9204 5.23313C12.037 5.28655 12.1852 5.35823 12.2895 5.42303C12.5554 5.56053 13.0072 5.85896 13.4588 6.20308C13.927 6.55978 14.4448 7.00309 14.7887 7.4206L14.7933 7.42628L14.7933 7.42632C14.8784 7.53267 14.9921 7.67926 15.1109 7.83235C15.2221 7.97576 15.3378 8.12486 15.4385 8.25192C15.5739 8.42279 15.6908 8.56482 15.7816 8.66837C15.8194 8.66386 15.8587 8.65989 15.8984 8.6564C15.8779 8.57175 15.8583 8.48543 15.8398 8.40059C15.756 8.01528 15.6894 7.62719 15.6665 7.49013C15.5687 6.94869 15.5719 6.26822 15.6052 5.70147C15.6384 5.13693 15.7059 4.61783 15.7616 4.39508L15.7617 4.39509C15.7893 4.28418 15.8543 4.1769 15.961 4.09948C16.0773 4.0151 16.1934 4.00345 16.2377 4.00087C16.3269 3.99567 16.3975 4.01535 16.4136 4.01983L16.4149 4.02019C16.4621 4.03325 16.5031 4.05121 16.5217 4.05954C16.5686 4.08046 16.6241 4.10896 16.6785 4.13813C16.7911 4.19856 16.9392 4.28351 17.0936 4.37614ZM16.614 9.66555H16.6138L16.6125 9.66556L16.6064 9.66557L16.5818 9.66571C16.5602 9.66587 16.5288 9.66619 16.4905 9.66684C16.4134 9.66815 16.3099 9.67075 16.2022 9.67588C16.0931 9.68108 15.987 9.68854 15.9025 9.69868C15.86 9.70378 15.8299 9.70875 15.8111 9.71274C15.8105 9.71287 15.8098 9.713 15.8093 9.71313C15.632 9.78684 15.4271 9.75677 15.2782 9.63261C15.097 9.48165 14.8429 9.17061 14.6254 8.89622C14.5015 8.7398 14.3879 8.59312 14.2824 8.4569C14.176 8.31951 14.0779 8.19276 13.9856 8.07735C13.7182 7.75353 13.2772 7.36886 12.8301 7.02825C12.4491 6.73795 12.0995 6.5066 11.8953 6.38956C11.9512 7.11709 12.1429 7.91388 12.3886 8.62142C12.453 8.79268 12.6125 9.19677 12.7572 9.55054C12.8304 9.72956 12.8978 9.89064 12.946 9.99989C12.9576 10.0261 12.9671 10.0472 12.9746 10.0635C13.0382 10.1508 13.074 10.2573 13.074 10.3688C13.074 10.3892 13.0739 10.4629 13.0422 10.5498C13.015 10.6243 12.9281 10.7878 12.7402 10.8584C11.3931 11.5987 10.7202 13.0182 10.3397 14.0736C10.174 14.5727 10.0985 15.0746 10.0156 15.6247C9.99891 15.7359 9.98188 15.849 9.96375 15.9644C9.85864 16.6338 9.71805 17.3585 9.35017 18.0698L9.34907 18.0719C8.96419 18.8077 8.49189 19.532 8.01975 20.2464C7.98134 20.3045 7.94293 20.3625 7.90455 20.4205C7.46648 21.0826 7.03209 21.7391 6.64555 22.4192C5.80783 23.8931 5.23077 25.4186 5.39078 27.1648C5.51419 28.3964 5.7914 28.9845 6.18172 29.448C6.50969 29.8104 6.95798 30.1151 7.54613 30.3516C7.83347 30.4527 8.24024 30.3888 8.7336 30.1832C8.89369 30.1165 9.07652 30.1342 9.22082 30.2304C9.28111 30.2706 9.33134 30.3223 9.36939 30.3815C9.38286 30.3913 9.40141 30.404 9.42561 30.4188C9.52492 30.4796 9.68332 30.5547 9.88644 30.6071C10.2847 30.7099 10.845 30.7243 11.4773 30.3815C12.438 29.8517 12.9334 29.2143 13.3491 28.4892C13.4868 28.2492 13.6081 28.0141 13.7368 27.7646C13.8139 27.6152 13.8936 27.4606 13.9812 27.2967C14.2067 26.8743 14.4645 26.4295 14.8051 25.9832C14.8096 25.9773 14.8142 25.9715 14.819 25.9658C15.2588 25.438 15.9236 25.1988 16.5108 25.0664C16.926 24.9727 17.3794 24.919 17.753 24.8748C17.9004 24.8573 18.0354 24.8414 18.1507 24.825C19.3438 24.6312 20.3681 23.936 21.1779 22.8831C21.308 22.714 21.5283 22.6418 21.7332 22.7011C21.9382 22.7604 22.0859 22.9391 22.1056 23.1515C22.2284 24.4785 21.7607 25.701 21.2215 26.6474C20.7076 27.5494 20.1018 28.2465 19.8008 28.5927C19.7862 28.6095 19.7723 28.6255 19.7592 28.6406C19.3918 29.0844 18.9853 29.4924 18.5806 29.8988C18.4495 30.0304 18.3186 30.1618 18.1892 30.2942C17.6498 30.8463 17.1009 31.4498 16.5637 32.2452C15.5433 33.756 14.5336 36.0062 13.7874 39.9626H39.9039C40.2681 31.6359 39.0367 21.6001 32.0395 14.3082C30.2847 12.5124 27.5358 11.0673 25.024 10.3435L25.0186 10.342L25.0186 10.3419C24.6199 10.2223 23.652 10.042 22.7357 9.88745C22.2856 9.81154 21.86 9.74376 21.5419 9.69503C21.3827 9.67065 21.2514 9.65118 21.1579 9.63789C21.111 9.63122 21.075 9.62632 21.0505 9.62319C21.0409 9.62196 21.0344 9.62119 21.0304 9.62073C20.8478 9.60842 20.6841 9.50041 20.6014 9.33519C20.6059 9.34415 20.6042 9.34151 20.5924 9.32353C20.581 9.30616 20.5602 9.27449 20.5265 9.22516C20.4704 9.14301 20.3963 9.03702 20.316 8.92465C20.1551 8.69943 19.9833 8.4676 19.8869 8.35092C19.1593 7.53841 18.0883 6.46759 17.2764 5.74068C17.1739 5.65395 16.9335 5.49415 16.6735 5.33468C16.6611 5.466 16.6498 5.61005 16.6408 5.76239C16.6088 6.30714 16.6119 6.89038 16.6879 7.30842L16.6892 7.31593L16.6892 7.31594C16.7105 7.44408 16.7744 7.81618 16.8535 8.18022C16.8933 8.36307 16.9351 8.5355 16.9754 8.67084C16.9956 8.73879 17.0133 8.78983 17.0274 8.82466C17.0315 8.83471 17.0347 8.84182 17.0368 8.84645C17.1457 8.99963 17.1635 9.20077 17.0815 9.37155C16.9951 9.55125 16.8134 9.66554 16.614 9.66555C16.614 9.66555 16.614 9.66555 16.614 9.66555ZM12.9931 10.102C12.9929 10.1017 12.9928 10.1014 12.9926 10.101C12.9966 10.1082 12.997 10.1096 12.9931 10.102ZM15.7985 9.71575C15.7986 9.71572 15.7995 9.71543 15.8015 9.71493C15.7996 9.71553 15.7985 9.71579 15.7985 9.71575ZM8.88944 17.8315L8.88946 17.8315L8.88944 17.8315C14.9385 13.8215 14.8554 13.8548 14.8463 13.8585C15.5616 14.0537 15.3293 13.8215 15.0429 13.8215L15.5616 14.3402C15.5616 14.3403 15.5616 14.3402 15.0429 14.3402L15.5616 14.3403V14.3405V14.3409L15.5616 14.3419L15.5616 14.3448L15.5615 14.3536C15.5596 14.4434 15.5605 14.4084 15.561 14.3834C15.5463 14.6919 15.5539 14.5724 15.5577 14.4865C15.4405 15.4607 15.5021 15.0895 15.5311 14.8284C15.2915 15.7884 15.2942 15.7826 15.2969 15.7768C14.8094 16.4855 15.1195 16.1324 15.2886 15.7941C13.944 17.1878 14.3447 16.9502 14.5805 16.7144C13.3138 17.4994 13.475 17.4266 13.6362 17.3445C13.0399 17.5953 13.1184 17.57 13.1809 17.5474C12.8562 17.6244 12.9265 17.6145 12.9618 17.6085C12.4761 17.5673 12.7129 17.607 12.7737 17.6144C12.2913 17.1039 12.2973 17.2097 12.3532 17.3215C12.2928 16.9526 12.2882 17.0042 12.29 17.0599C12.3249 16.7541 12.3073 16.8349 12.2976 16.9136C12.3668 16.5838 12.3527 16.6373 12.3399 16.6912C12.3811 16.5292 12.3792 16.5364 12.3772 16.5442C12.3896 16.4966 12.3869 16.5074 12.3829 16.5226C12.3955 16.4652 12.3933 16.4771 12.3915 16.489C13.4319 14.7911 12.6191 15.4591 12.3981 16.4534C14.0941 14.3057 14.0878 14.3101 14.0815 14.3147C14.3303 14.152 14.1722 14.2536 14.1005 14.3014C14.624 13.9723 14.5493 14.0173 14.4765 14.0621C14.7493 13.9023 14.7158 13.9206 14.6857 13.9375C14.8192 13.8688 14.7963 13.8795 14.7811 13.8869C14.8459 13.8586 14.8457 13.8587 14.8456 13.8588M14.2689 15.4833C14.0182 15.6942 13.8076 15.9073 13.6543 16.1334C13.7367 16.0767 13.8037 16.0242 13.8469 15.9809C14.0018 15.8261 14.16 15.6432 14.2689 15.4833ZM7.97015 26.7473C7.72427 26.8921 7.62284 27.0292 7.58412 27.1132C7.54643 27.1949 7.55921 27.241 7.56481 27.2548C7.56637 27.2587 7.5679 27.2616 7.56924 27.2638C7.57882 27.2607 7.59488 27.2533 7.61813 27.2358C7.62581 27.2301 7.63364 27.2245 7.64163 27.2192C7.92026 27.0334 8.02604 26.885 8.06131 26.8074C8.07394 26.7796 8.07738 26.7627 8.07797 26.7538C8.06786 26.7466 8.02346 26.718 7.97015 26.7473ZM8.07734 26.7462C8.07757 26.7461 8.07803 26.7475 8.07806 26.7507C8.07711 26.7479 8.0771 26.7463 8.07734 26.7462ZM7.55833 27.2655C7.55835 27.2653 7.55975 27.2651 7.56243 27.2655C7.55964 27.2659 7.5583 27.2658 7.55833 27.2655ZM7.57312 27.2688C7.57368 27.2691 7.57392 27.2694 7.57389 27.2694L7.57312 27.2688ZM8.22799 28.075C8.5983 27.8262 8.86506 27.5461 9.00571 27.2367C9.15368 26.9112 9.15208 26.5683 9.00052 26.2768C8.71653 25.7307 8.00304 25.5337 7.4538 25.8475L7.45378 25.8475L7.44883 25.8504C6.68062 26.3007 6.34783 27.0112 6.60279 27.643C6.72065 27.9351 6.96206 28.1707 7.27755 28.2626C7.59818 28.3561 7.93986 28.2859 8.22799 28.075Z" fill="white"/>
            <path fill-rule="evenodd" clip-rule="evenodd" d="M22.218 11.2644C22.2775 11.0332 22.5132 10.8941 22.7444 10.9536C28.6949 12.4856 32.3212 15.3499 34.5455 19.8545C36.7489 24.3171 37.5572 30.3554 37.9935 38.1875C38.0068 38.4259 37.8243 38.6299 37.586 38.6432C37.3476 38.6564 37.1436 38.474 37.1304 38.2356C36.6939 30.4005 35.8874 24.5248 33.7703 20.2373C31.6741 15.9919 28.2742 13.27 22.5288 11.7908C22.2977 11.7313 22.1585 11.4956 22.218 11.2644Z" fill="white"/>
            <path fill-rule="evenodd" clip-rule="evenodd" d="M22.6232 18.7566C22.8598 18.725 23.0772 18.8913 23.1087 19.1279C23.1624 19.53 23.0952 20.3304 22.917 21.1432C22.7384 21.9583 22.4266 22.8889 21.9268 23.5137C21.7777 23.7001 21.5056 23.7303 21.3192 23.5812C21.1328 23.4321 21.1026 23.1601 21.2517 22.9737C21.6247 22.5074 21.9021 21.736 22.0726 20.9582C22.2436 20.1781 22.2855 19.4947 22.2518 19.2422C22.2203 19.0055 22.3865 18.7881 22.6232 18.7566Z" fill="white"/>
            <path fill-rule="evenodd" clip-rule="evenodd" d="M10.646 28.5052C10.8484 28.6318 10.91 28.8984 10.7834 29.1009C10.3424 29.8066 9.78002 30.5703 9.1355 31.0165C8.93922 31.1523 8.66995 31.1034 8.53407 30.9071C8.39819 30.7108 8.44715 30.4416 8.64342 30.3057C9.13357 29.9664 9.61859 29.3335 10.0504 28.6427C10.1769 28.4403 10.4436 28.3787 10.646 28.5052Z" fill="white"/>
        </g>
        <g id="br" fill="none" stroke-linecap="round" stroke-linejoin="round" transform="translate(180.000000, 45)">
            <path fill-rule="evenodd" clip-rule="evenodd" d="M33.1284 35.7331H11.8716V33.6086L15.4291 30.112V18.7372L11.2128 15.7718V9H15.5608V12.1867H20.0845V9H24.9155V12.1867H29.4392V9H33.7872V15.7718L29.5709 18.7372V30.112L33.1284 33.6086V35.7331Z" fill="#2D2E37"/>
            <path fill-rule="evenodd" clip-rule="evenodd" d="M11.2128 15.7718H33.7872H11.2128Z" fill="#2D2E37"/>
            <path fill-rule="evenodd" clip-rule="evenodd" d="M29.5709 18.7372H15.4291H29.5709Z" fill="#2D2E37"/>
            <path fill-rule="evenodd" clip-rule="evenodd" d="M33.1284 33.6086H11.8716H33.1284Z" fill="#2D2E37"/>
            <path d="M35.5 35.7331H9.5V41H35.5V35.7331Z" fill="#2D2E37"/>
            <path fill-rule="evenodd" clip-rule="evenodd" d="M10.7128 8H16.0608V11.1867H19.5845V8H25.4155V11.1867H28.9392V8H34.2872V15.5314L30.0709 18.4968V29.4024L33.6284 32.8989V34.7331H36V41H9V34.7331H11.3716V32.8989L14.9291 29.4024V18.4968L10.7128 15.5314V8ZM15.9291 18.7372V29.8217L13.0936 32.6086H31.9064L29.0709 29.8217V18.7372H15.9291ZM29.4127 17.7372L32.2071 15.7718H12.7929L15.5873 17.7372H29.4127ZM11.7128 14.7718V9H15.0608V12.1867H20.5845V9H24.4155V12.1867H29.9392V9H33.2872V14.7718H11.7128ZM32.6284 33.6086H12.3716V34.7331H32.6284V33.6086ZM10 35.7331V40H35V35.7331H10Z" fill="white"/>
        </g>
        <g id="bp" transform="translate(225.000000, 45)" fill="#000000" stroke-linecap="round" stroke-width="1.5">
            <path fill-rule="evenodd" clip-rule="evenodd" d="M25.1104 17.6817C26.0756 18.6899 28.1815 19.4789 28.2253 20.268C28.2253 20.8378 28.4008 21.583 27.3918 21.583C26.9969 21.583 26.1633 21.583 25.1104 21.583C24.9788 27.8515 27.6111 27.8077 31.0332 31.7529C32.9636 33.9885 34.543 36.0926 34.4991 41.0022H10.5009C10.457 36.0926 12.0364 33.9885 13.9668 31.7529C17.345 27.8515 20.0212 27.8954 19.8896 21.583C18.7928 21.583 18.0031 21.583 17.6082 21.583C16.5553 21.583 16.7308 20.8378 16.7746 20.268C16.8185 19.4351 18.9244 18.6899 19.8896 17.6817C18.6173 16.8488 17.7837 15.4022 17.7837 13.7365C17.7837 11.1063 19.8896 9.00223 22.5219 9.00223C25.1543 9.00223 27.2602 11.1063 27.2602 13.7365C27.2163 15.4022 26.3827 16.8488 25.1104 17.6817Z" fill="#2D2E37"/>
            <path fill-rule="evenodd" clip-rule="evenodd" d="M22.5219 9.50223C20.1653 9.50223 18.2837 11.3829 18.2837 13.7365C18.2837 15.2309 19.03 16.5214 20.1634 17.2633L20.6668 17.5929L20.2508 18.0274C19.8023 18.4959 19.1373 18.9106 18.5743 19.2618C18.4633 19.3311 18.3562 19.3979 18.2556 19.4621C17.9299 19.6699 17.6666 19.8518 17.4841 20.0209C17.2883 20.2024 17.2742 20.2891 17.274 20.2943L17.2733 20.3064C17.2678 20.3784 17.2618 20.4386 17.2564 20.494C17.2484 20.5768 17.2414 20.649 17.2379 20.7344C17.2326 20.8638 17.2418 20.9413 17.2564 20.9871C17.2661 21.0175 17.2729 21.0217 17.2853 21.0293C17.3113 21.0449 17.3979 21.083 17.6082 21.083H20.3793L20.3895 21.5726C20.4571 24.8143 19.8003 26.5123 18.6255 27.8957C18.1134 28.4988 17.508 29.0351 16.8696 29.6007C16.8027 29.6599 16.7355 29.7195 16.668 29.7794C15.9481 30.4191 15.1675 31.1302 14.3452 32.0798C13.3843 33.1926 12.5491 34.2306 11.9504 35.5779C11.3961 36.8253 11.0333 38.3652 11.0022 40.5022H33.9978C33.9667 38.3652 33.6039 36.8253 33.0496 35.5779C32.4509 34.2307 31.6159 33.1928 30.6552 32.0802C29.8213 31.1188 29.0345 30.3991 28.3124 29.7538C28.2467 29.6951 28.1813 29.6368 28.1162 29.5788C27.4742 29.0067 26.8683 28.4668 26.3572 27.8619C25.1883 26.4783 24.5429 24.7915 24.6105 21.5726L24.6208 21.083H27.3918C27.5879 21.083 27.663 21.0461 27.6818 21.0343C27.6822 21.034 27.6826 21.0338 27.683 21.0336C27.6901 21.0291 27.699 21.0237 27.7107 20.9871C27.7274 20.9346 27.7376 20.8514 27.737 20.7162C27.7367 20.651 27.7342 20.5836 27.7313 20.507C27.7288 20.4418 27.726 20.3681 27.7255 20.2951C27.7211 20.2827 27.692 20.2011 27.5178 20.0412C27.3334 19.872 27.0681 19.6878 26.7419 19.4769C26.6449 19.4142 26.5421 19.349 26.4357 19.2816C25.869 18.9224 25.1999 18.4982 24.7492 18.0274L24.3332 17.5929L24.8366 17.2633C25.9679 16.5228 26.7185 15.2315 26.7602 13.7299C26.7567 11.3794 24.8763 9.50223 22.5219 9.50223ZM17.2837 13.7365C17.2837 10.8298 19.6138 8.50223 22.5219 8.50223C25.43 8.50223 27.7602 10.8298 27.7602 13.7365V13.7496C27.7182 15.3434 27.0158 16.7636 25.9003 17.7137C26.2054 17.9491 26.5663 18.1787 26.94 18.4165C27.0541 18.4892 27.1695 18.5626 27.2848 18.6371C27.6112 18.8481 27.9409 19.0722 28.1939 19.3044C28.4294 19.5205 28.702 19.8348 28.7246 20.2402L28.7253 20.2541V20.268C28.7253 20.3282 28.7277 20.3928 28.7306 20.4692L28.7308 20.4764C28.7335 20.5478 28.7366 20.6295 28.737 20.7116C28.7377 20.8763 28.7287 21.0863 28.6633 21.2913C28.5933 21.5103 28.4571 21.7282 28.2136 21.8812C27.9815 22.0269 27.7002 22.083 27.3918 22.083H25.6058C25.614 24.7993 26.2047 26.1318 27.1211 27.2165C27.5839 27.7643 28.1359 28.2565 28.7902 28.8399C28.8521 28.8951 28.9149 28.9512 28.9787 29.0081C29.7084 29.6601 30.5339 30.4142 31.4109 31.4253L31.4116 31.4261C32.3811 32.5489 33.3008 33.6808 33.9634 35.1718C34.6284 36.6683 35.0215 38.4949 34.9991 41.0067L34.9947 41.5022H10.0053L10.0009 41.0067C9.97847 38.4949 10.3716 36.6683 11.0366 35.1718C11.6992 33.6808 12.6189 32.5489 13.5884 31.4261C14.455 30.4253 15.2761 29.6785 16.0038 29.0319C16.0698 28.9733 16.1348 28.9156 16.1988 28.8589C16.8488 28.2826 17.3998 27.7942 17.8633 27.2484C18.7848 26.1632 19.3853 24.8205 19.3942 22.083H17.6082C17.2921 22.083 17.0057 22.028 16.7699 21.8862C16.5205 21.7361 16.3764 21.5185 16.3038 21.2913C16.2362 21.0795 16.2317 20.864 16.2387 20.6933C16.2432 20.5859 16.2552 20.4583 16.2649 20.3545C16.2693 20.3085 16.2732 20.2671 16.2758 20.2344C16.3002 19.8266 16.564 19.5103 16.8042 19.2876C17.0591 19.0513 17.3907 18.8277 17.7177 18.6191C17.8399 18.5411 17.962 18.4646 18.0824 18.3892C18.4486 18.1599 18.8002 17.9396 19.0984 17.7124C17.9837 16.7617 17.2837 15.3382 17.2837 13.7365Z" fill="white"/>
        </g>
        <g id="pointer" transform="translate(0, 45)" fill="#000000" stroke-linecap="round" stroke-width="1.5">
            <path d="M23.1628 19.7828C23.1628 20.3006 22.743 20.7203 22.2253 20.7203C21.7075 20.7203 21.2878 20.3006 21.2878 19.7828V15.7662C21.2878 14.9032 20.5882 14.2037 19.7253 14.2037C18.8623 14.2037 18.1628 14.9033 18.1628 15.7662V20.7203C18.1628 21.2381 17.743 21.6578 17.2253 21.6578C16.7075 21.6578 16.2878 21.2381 16.2878 20.7203V17.7399C16.2878 16.8769 15.5882 16.1774 14.7253 16.1774C13.8623 16.1774 13.1628 16.8769 13.1628 17.7399V21.6578C13.1628 22.1756 12.743 22.5953 12.2253 22.5953C11.7075 22.5953 11.2878 22.1756 11.2878 21.6578V20.8026C11.2878 19.9396 10.5882 19.2401 9.72528 19.2401C8.86233 19.2401 8.16278 19.9396 8.16278 20.8026V29.2245C8.16278 32.5246 8.7636 35.7971 9.93585 38.8819L10.7686 41.0734C10.9525 41.5574 10.7093 42.0989 10.2253 42.2828C9.74128 42.4667 9.19982 42.2235 9.0159 41.7395L8.18313 39.548C6.93003 36.2504 6.28778 32.7521 6.28778 29.2245V20.8026C6.28778 18.9041 7.8268 17.3651 9.72528 17.3651C10.2879 17.3651 10.819 17.5002 11.2878 17.7399C11.2878 15.8414 12.8268 14.3024 14.7253 14.3024C15.3488 14.3024 15.9336 14.4684 16.4378 14.7587C16.8684 13.3518 18.1774 12.3287 19.7253 12.3287C21.6238 12.3287 23.1628 13.8677 23.1628 15.7662V19.7828Z" fill="#161622"/>
            <path d="M37.2067 23.8119C37.9064 22.3158 37.1412 20.5446 35.5723 20.0285C34.5912 19.7058 33.5121 19.959 32.7769 20.6845L28.1628 25.2379L28.1628 7.48019C28.1628 5.58172 26.6238 4.04269 24.7253 4.04269C22.8268 4.04269 21.3125 5.58176 21.3125 7.48024V12.7163C22.4121 13.2897 23.1628 14.4403 23.1628 15.7662L23.1875 7.48024C23.1875 6.61729 23.8623 5.91769 24.7253 5.91769C25.5882 5.91769 26.2878 6.61725 26.2878 7.48019V25.2379C26.2878 26.9024 28.2951 27.7416 29.4798 26.5725L34.0939 22.019C34.3287 21.7874 34.6732 21.7066 34.9864 21.8096C35.4873 21.9744 35.7316 22.5399 35.5082 23.0175L32.1543 30.1888C31.0003 32.6562 29.5873 34.994 27.9391 37.1627L25.0461 40.9692C24.7328 41.3814 24.8131 41.9695 25.2253 42.2828C25.6375 42.5961 26.2257 42.5159 26.5389 42.1037L29.4319 38.2972C31.1605 36.0227 32.6424 33.5709 33.8527 30.9831L37.2067 23.8119Z" fill="#161622"/>
        </g>
        <g id="trash" transform="translate(0, 45)" fill="#000000" stroke-linecap="round" stroke-width="1.5">
            <path fill-rule="evenodd" clip-rule="evenodd" d="M22.0625 6.125C21.3166 6.125 20.6012 6.42132 20.0738 6.94876C19.5463 7.47621 19.25 8.19158 19.25 8.9375V9.875H26.75V8.9375C26.75 8.19158 26.4537 7.47621 25.9262 6.94876C25.3988 6.42132 24.6834 6.125 23.9375 6.125H22.0625ZM28.625 9.875V8.9375C28.625 7.6943 28.1311 6.50201 27.2521 5.62294C26.373 4.74386 25.1807 4.25 23.9375 4.25H22.0625C20.8193 4.25 19.627 4.74386 18.7479 5.62294C17.8689 6.50201 17.375 7.6943 17.375 8.9375V9.875H8.9375C8.41973 9.875 8 10.2947 8 10.8125C8 11.3303 8.41973 11.75 8.9375 11.75H9.95878L12.5122 38.0681C12.6116 39.0931 13.4731 39.875 14.5028 39.875H31.3403C32.3656 39.875 33.2248 39.0997 33.3298 38.0799L36.0412 11.75H37.0625C37.5803 11.75 38 11.3303 38 10.8125C38 10.2947 37.5803 9.875 37.0625 9.875H28.625ZM34.158 11.75H11.842L14.3071 37.0968C14.3569 37.6092 14.7876 38 15.3024 38H30.5358C31.0482 38 31.4776 37.6127 31.5305 37.1031L34.158 11.75Z" fill="#161622"/>
        </g>
        <g id="marker1" transform="translate(0, 90)" >
        </g>
        <g id="marker2" transform="translate(0, 90)" fill="none" stroke-width="2">
            <rect x="2.5" y="2.5" width="40" height="40" rx="2" />
        </g>
    </g>
</svg>