<?xml version="1.0" encoding="UTF-8"?>
<svg width="260px" height="120px" viewBox="0 0 260 120" version="1.1" xmlns="http://www.w3.org/2000/svg">
    <title>chessbord pieces and markers sprite</title>

    <g id="Sprite" stroke="none" stroke-width="1" fill="none">
        <g id="wk" fill="none" stroke-width="1.5" stroke-linecap="round" transform="translate(0, 0)" stroke-linejoin="round">
            <path fill-rule="evenodd" clip-rule="evenodd" d="M22.4809 12.6168H21.0839V8.77182H19.3471V6.14506H21.1972L20.6686 3.82286C21.1972 3.59445 21.8013 3.48024 22.4809 3.48024C23.1605 3.48024 23.7268 3.59445 24.2932 3.82286L23.7646 6.14506H25.6146V8.73375H23.8779V12.5787H22.4809V12.6168Z" fill="white"/>
            <path fill-rule="evenodd" clip-rule="evenodd" d="M31.5043 38.4656C31.8441 35.1916 32.8258 32.07 34.4871 29.1006C37.5076 27.0449 38.9045 23.771 39.0178 19.5834C37.6586 10.1042 29.8056 8.39113 22.4809 12.6168C15.194 8.39113 7.34042 10.1042 5.9812 19.5834C6.09447 23.771 7.45369 27.0449 10.5119 29.1006C12.1732 32.07 13.1549 35.1916 13.4947 38.4656C19.3469 41.2065 25.6521 41.2065 31.5043 38.4656Z" fill="white"/>
            <path fill-rule="evenodd" clip-rule="evenodd" d="M31.2399 14.5963L28.6348 26.1312C33.6186 24.913 35.3931 18.7839 31.2399 14.5963Z" fill="white"/>
            <path fill-rule="evenodd" clip-rule="evenodd" d="M13.7591 14.5963L16.3643 26.1312C11.3804 24.913 9.60591 18.7839 13.7591 14.5963Z" fill="white"/>
            <path fill-rule="evenodd" clip-rule="evenodd" d="M22.4809 26.8545C19.8002 23.7329 19.6492 17.147 22.4809 14.0634C25.3126 17.147 25.1993 23.7329 22.4809 26.8545Z" fill="white"/>
            <path fill-rule="evenodd" clip-rule="evenodd" d="M21.2319 4.12977L21.8002 6.62636H19.8284V8.29158H21.5652V12.1365H22.0006V12.0985H23.3976V8.25351H25.1344V6.62636H23.1626L23.7299 4.13424C23.3449 4.01921 22.9452 3.96154 22.4814 3.96154C22.0177 3.96154 21.6025 4.01924 21.2319 4.12977ZM22.9622 13.06V13.0981H20.6036V9.25312H18.8669V5.66482H20.5952L20.1116 3.54054L20.4784 3.38206C21.077 3.12337 21.7478 3 22.4814 3C23.2214 3 23.8488 3.12558 24.4735 3.37752L24.8534 3.53072L24.3676 5.66482H26.0959V9.21505H24.3591V13.06H22.9622Z" fill="#2D2E37"/>
            <path fill-rule="evenodd" clip-rule="evenodd" d="M22.4817 12.0641C26.1496 10.0149 29.9939 9.38593 33.1479 10.5084C36.4021 11.6664 38.7954 14.6422 39.4942 19.5157L39.5 19.5561L39.4989 19.5969C39.384 23.8455 37.9717 27.2621 34.8529 29.4333C33.2562 32.3168 32.3123 35.343 31.983 38.5157L31.955 38.7862L31.7088 38.9015C25.7273 41.703 19.2727 41.703 13.2912 38.9015L13.045 38.7862L13.017 38.5157C12.6877 35.3435 11.744 32.3176 10.1478 29.4346C6.98922 27.2618 5.61593 23.8419 5.5011 19.5969L5.5 19.5561L5.5058 19.5157C6.2046 14.6423 8.59777 11.6666 11.8471 10.5084C14.9965 9.38594 18.8316 10.0147 22.4817 12.0641ZM6.46344 19.6118C6.58166 23.6788 7.90087 26.7664 10.7806 28.7021L10.8759 28.7662L10.932 28.8664C12.5788 31.8099 13.5716 34.9034 13.9435 38.1435C19.5155 40.6736 25.4845 40.6736 31.0565 38.1435C31.4284 34.9034 32.4212 31.8099 34.068 28.8664L34.1233 28.7675L34.2171 28.7037C37.0635 26.7665 38.4182 23.6754 38.5366 19.6117C37.869 15.0312 35.6607 12.4232 32.8256 11.4143C29.9512 10.3914 26.3061 10.9657 22.7214 13.0337L22.4805 13.1727L22.2399 13.0332C18.6746 10.9657 15.0394 10.3914 12.1699 11.4142C9.3394 12.423 7.13098 15.0311 6.46344 19.6118Z" fill="#2D2E37"/>
            <path fill-rule="evenodd" clip-rule="evenodd" d="M13.2548 38.0302C19.2733 35.2294 25.6893 35.2294 31.7079 38.0302L31.3022 38.902C25.5409 36.2209 19.4218 36.2209 13.6605 38.902L13.2548 38.0302Z" fill="#2D2E37"/>
            <path fill-rule="evenodd" clip-rule="evenodd" d="M12.1585 32.7012C18.7822 29.5948 26.1806 29.5953 32.8408 32.7007L32.4345 33.5722C26.0311 30.5865 18.9311 30.587 12.5667 33.5717L12.1585 32.7012Z" fill="#2D2E37"/>
            <path fill-rule="evenodd" clip-rule="evenodd" d="M30.9646 13.636L31.5818 14.2583C35.9688 18.6817 34.1364 25.282 28.7494 26.5988L27.9953 26.7831L30.9646 13.636ZM29.2876 25.4258L31.5038 15.6129C34.4266 19.2666 33.0447 23.9862 29.2876 25.4258Z" fill="#2D2E37"/>
            <path fill-rule="evenodd" clip-rule="evenodd" d="M14.0354 13.636L17.0047 26.7831L16.2506 26.5988C10.8636 25.282 9.0312 18.6817 13.4182 14.2583L14.0354 13.636ZM13.4962 15.6129L15.7124 25.4258C11.9553 23.9862 10.5734 19.2666 13.4962 15.6129Z" fill="#2D2E37"/>
            <path fill-rule="evenodd" clip-rule="evenodd" d="M22.4814 13.3531L22.8355 13.7387C24.361 15.3999 25.0581 17.9525 25.0435 20.448C25.0289 22.9446 24.3018 25.4968 22.844 27.1708L22.4789 27.5901L22.1167 27.1683C20.6799 25.4952 19.953 22.9449 19.9335 20.449C19.9141 17.9543 20.601 15.4008 22.1273 13.7387L22.4814 13.3531ZM22.484 26.0743C23.512 24.6253 24.0696 22.5525 24.0819 20.4424C24.0944 18.3164 23.553 16.245 22.4815 14.8163C21.4122 16.2442 20.8784 18.3148 20.895 20.4415C20.9115 22.551 21.469 24.6244 22.484 26.0743Z" fill="#2D2E37"/>
        </g>
        <g id="wq" fill="none" stroke-linecap="round" stroke-linejoin="round" transform="translate(45.000000, 0)" >
            <path fill-rule="evenodd" clip-rule="evenodd" d="M31.8523 38.1719C30.6341 33.1828 33.2276 23.7378 37 12.9597C32.9133 13.988 29.9268 15.5495 27.8442 17.5299C26.1152 14.5212 24.3469 11.9695 22.5 10.2176C20.6531 11.9695 18.8848 14.5212 17.1558 17.5299C15.0732 15.5495 12.0867 13.988 8 12.9597C11.7724 23.7378 14.3659 33.1828 13.1477 38.1719C19.8672 40.6094 25.0149 40.6094 31.8523 38.1719Z" fill="white"/>
            <path fill-rule="evenodd" clip-rule="evenodd" d="M22.4609 10.1795C23.9542 10.1795 25.133 8.99891 25.133 7.58977C25.133 6.14255 23.9149 5 22.4609 5C20.9677 5 19.7888 6.18063 19.7888 7.58977C19.7495 9.037 20.9677 10.1795 22.4609 10.1795Z" fill="white"/>
            <path fill-rule="evenodd" clip-rule="evenodd" d="M22.4609 9.78125L22.8305 9.8692C24.619 11.5658 26.3172 13.9726 27.9608 16.7743C30.0891 14.9177 33.0187 13.4663 36.8828 12.494L37.748 12.2763L37.4532 13.1184C35.569 18.5017 33.9849 23.5367 33.0233 27.8414C32.0576 32.1652 31.738 35.6792 32.3188 38.058L32.4215 38.4788L32.0135 38.6243C28.5581 39.8561 25.5062 40.4802 22.4557 40.4802C19.4049 40.4802 16.3818 39.856 12.9839 38.6234L12.5789 38.4765L12.6811 38.058C13.2619 35.6792 12.9423 32.1652 11.9766 27.8414C11.015 23.5367 9.43087 18.5017 7.54668 13.1184L7.25195 12.2763L8.11714 12.494C11.9812 13.4663 14.9109 14.9177 17.0391 16.7743C18.6827 13.9727 20.3809 11.5658 22.1695 9.8692L22.4609 9.78125ZM22.5 10.8891C20.8203 12.5795 19.1877 14.958 17.5722 17.7692L17.2677 18.299L16.8249 17.8779C14.9652 16.1096 12.3348 14.6661 8.75119 13.6568C10.5092 18.7323 11.9918 23.5036 12.9139 27.632C13.8321 31.7425 14.2108 35.2813 13.7071 37.8618C16.8652 38.9718 19.6597 39.5198 22.4557 39.5198C25.2534 39.5198 28.0769 38.9712 31.2924 37.8595C30.7893 35.2793 31.1681 31.7413 32.086 27.632C33.0081 23.5036 34.4907 18.7323 36.2487 13.6568C32.6651 14.6661 30.0347 16.1096 28.1751 17.8779L27.7322 18.299L27.4277 17.7692C25.8122 14.958 24.1796 12.5795 22.5 10.8891Z" fill="#2D2E37"/>
            <path fill-rule="evenodd" clip-rule="evenodd" d="M31.6564 38.6103C25.6511 35.924 19.2707 35.924 13.2654 38.6103L12.8732 37.7336C19.1281 34.9356 25.7937 34.9356 32.0486 37.7336L31.6564 38.6103Z" fill="#2D2E37"/>
            <path fill-rule="evenodd" clip-rule="evenodd" d="M31.4582 33.1253C25.6901 30.5164 19.2322 30.5159 13.4234 33.1258L13.0297 32.2496C19.0881 29.5276 25.8335 29.5271 31.854 32.2501L31.4582 33.1253Z" fill="#2D2E37"/>
            <path fill-rule="evenodd" clip-rule="evenodd" d="M19.3086 7.58325C19.3122 5.90231 20.7143 4.51976 22.4609 4.51976C24.1611 4.51976 25.6132 5.85875 25.6132 7.58977C25.6132 9.27366 24.2097 10.6598 22.4609 10.6598C20.7315 10.6598 19.2649 9.32844 19.3086 7.58325ZM22.4609 5.48023C21.2233 5.48023 20.269 6.45538 20.269 7.58977V7.60281C20.2379 8.74887 21.206 9.6993 22.4609 9.6993C23.6985 9.6993 24.6527 8.72416 24.6527 7.58977C24.6527 6.42633 23.6685 5.48023 22.4609 5.48023Z" fill="#2D2E37"/>
        </g>
        <g id="wb" fill="none" stroke-linecap="round" stroke-linejoin="round" transform="translate(90.000000, 0)" stroke-width="1.5">
            <path fill-rule="evenodd" clip-rule="evenodd" d="M20.3661 33.2597H24.5759C27.221 37.2398 31.6917 33.2597 35.3054 34.0408C36.4231 35.9379 37.3545 37.6117 38.5094 39.546C36.0505 38.9136 33.5917 38.8392 31.3564 39.7319C28.2269 40.9594 25.2465 40.885 22.4896 38.6532C19.6955 40.885 16.7523 40.9594 13.6229 39.7319C11.3875 38.8392 8.9287 38.9508 6.46985 39.546C7.58751 37.6489 8.51889 35.9751 9.6738 34.0408C13.2503 33.2597 17.7209 37.2026 20.3661 33.2597Z" fill="white"/>
            <path fill-rule="evenodd" clip-rule="evenodd" d="M29.0091 33.1481C29.3816 31.2511 28.7483 29.3541 27.8169 27.4198C32.213 22.1379 32.1013 16.1493 28.8601 12.4296L24.0169 19.7945L22.3777 18.7158L27.3699 11.0905C26.4012 10.3838 25.2836 9.78862 23.9796 9.41666C24.0914 8.52394 24.2032 7.63122 24.3149 6.7385L22.4522 6.47812L20.5894 6.7385C20.7012 7.63122 20.8129 8.52394 20.9247 9.41666C13.4736 11.5741 11.0893 20.1665 17.0874 27.4198C16.156 29.3169 15.4854 31.2511 15.8952 33.1481C20.3659 34.4872 24.5757 34.4872 29.0091 33.1481Z" fill="white"/>
            <path d="M18.5623 34.2742C18.3714 34.3625 18.1764 34.4275 17.9778 34.4737C17.2307 34.6475 16.3924 34.5657 15.4637 34.372C15.0089 34.2772 14.5454 34.1586 14.0679 34.0365L14.0458 34.0308C13.5643 33.9077 13.0688 33.7812 12.5746 33.6796C11.5901 33.477 10.5642 33.3619 9.57524 33.5779L9.37796 33.621L9.27355 33.7958C8.62761 34.8776 8.04499 35.8894 7.46262 36.9008C7.00767 37.6908 6.55287 38.4806 6.06817 39.3033L5.5 40.2677L6.57871 40.0066C8.98822 39.4234 11.3396 39.3292 13.4513 40.1725L13.454 40.1736C15.0665 40.8061 16.6592 41.1143 18.227 40.9613C19.6955 40.8179 21.1163 40.2721 22.488 39.2501C25.3244 41.3874 28.3878 41.4043 31.5255 40.1736L31.5281 40.1725C33.643 39.3279 35.9949 39.388 38.3943 40.005L39.5 40.2894L38.9098 39.3009C38.2618 38.2156 37.6906 37.2235 37.1155 36.2246C36.662 35.4368 36.2055 34.6438 35.7073 33.7982L35.6027 33.6208L35.4032 33.5777C34.4051 33.3619 33.3725 33.4794 32.3825 33.685C31.8856 33.7881 31.3879 33.9162 30.9045 34.0409L30.881 34.0469C30.4021 34.1705 29.9378 34.2903 29.4823 34.3862C28.5513 34.5821 27.7125 34.6647 26.9658 34.4896C26.7577 34.4408 26.5535 34.3712 26.3539 34.2754C25.899 34.357 25.4454 34.4244 24.9925 34.4776C25.5285 34.9679 26.1208 35.2638 26.7546 35.4124C27.703 35.6348 28.7038 35.5175 29.6727 35.3136C30.1489 35.2134 30.6307 35.0891 31.1029 34.9672L31.1355 34.9588C31.6219 34.8333 32.0986 34.7109 32.5704 34.6129C33.4417 34.432 34.2571 34.3439 35.0117 34.4669C35.4563 35.2239 35.8771 35.9548 36.2982 36.686C36.708 37.3978 37.118 38.1098 37.5501 38.8462C35.3827 38.4349 33.2071 38.484 31.1861 39.2908C28.1727 40.4724 25.378 40.385 22.7818 38.2833L22.4917 38.0484L22.2 38.2814C20.8674 39.3457 19.5168 39.8837 18.1372 40.0184C16.7528 40.1535 15.3097 39.8854 13.7933 39.2908C11.7641 38.4808 9.58153 38.4632 7.41454 38.8606C7.71036 38.3516 7.99545 37.8564 8.27955 37.3629C8.8227 36.4194 9.36227 35.4822 9.96644 34.4667C10.7126 34.3436 11.5216 34.4296 12.3883 34.6079C12.8575 34.7044 13.332 34.8253 13.8167 34.9492L13.8478 34.9572C14.3187 35.0777 14.7995 35.2007 15.2749 35.2998C16.2415 35.5014 17.2404 35.6172 18.1873 35.3969C18.8169 35.2504 19.4062 34.9597 19.9401 34.4781C19.4822 34.4246 19.023 34.3567 18.5623 34.2742Z" fill="#2D2E37"/>
            <path fill-rule="evenodd" clip-rule="evenodd" d="M22.4521 6L24.8371 6.33338L24.4934 9.07903C25.6923 9.4701 26.7331 10.0422 27.6433 10.7063L28.0083 10.9725L23.0283 18.5792L23.8838 19.1421L28.808 11.654L29.2108 12.1163C32.5853 15.9889 32.687 22.1196 28.3683 27.4883C29.24 29.3539 29.853 31.2792 29.4679 33.2405L29.4129 33.5204L29.1428 33.602C24.6218 34.9675 20.3194 34.9672 15.7625 33.6023L15.4973 33.5229L15.4382 33.2493C15.0132 31.282 15.662 29.3181 16.5348 27.4854C13.6111 23.8275 12.7076 19.817 13.5074 16.3981C14.2984 13.0165 16.7439 10.274 20.4109 9.07969L20.0671 6.33338L22.4521 6ZM21.1116 7.14362L21.4392 9.76029L21.0533 9.87203C17.483 10.9058 15.1547 13.4662 14.4178 16.6164C13.6796 19.772 14.5254 23.5839 17.446 27.1158L17.6424 27.3533L17.5063 27.6307C16.6302 29.415 16.0432 31.1297 16.3014 32.7743C20.4904 33.9797 24.4439 33.9801 28.5972 32.7766C28.8289 31.1294 28.27 29.4417 27.3964 27.6274L27.263 27.3503L27.4591 27.1146C31.5466 22.2036 31.5737 16.7602 28.8998 13.2238L24.1498 20.4469L21.7269 18.8525L26.7265 11.2159C25.885 10.6517 24.9353 10.1814 23.8527 9.87254L23.4648 9.76189L23.7926 7.14362L22.4521 6.95625L21.1116 7.14362Z" fill="#2D2E37"/>
            <path fill-rule="evenodd" clip-rule="evenodd" d="M22.4709 31.2238C24.6416 31.2238 26.7978 31.7256 29.1856 32.7094L28.8329 33.5868C26.5265 32.6365 24.4915 32.1711 22.4709 32.1711C20.4504 32.1711 18.4154 32.6365 16.109 33.5868L15.7563 32.7094C18.144 31.7256 20.3003 31.2238 22.4709 31.2238Z" fill="#2D2E37"/>
            <path fill-rule="evenodd" clip-rule="evenodd" d="M17.0362 26.9636C21.0676 25.8245 23.9114 25.8245 27.9428 26.9636L27.6912 27.876C23.8244 26.7834 21.1545 26.7834 17.2877 27.876L17.0362 26.9636Z" fill="#2D2E37"/>
        </g>
        <g id="wn" fill="none" stroke-linecap="round" stroke-linejoin="round" transform="translate(135.000000, 0)" >
            <path fill-rule="evenodd" clip-rule="evenodd" d="M34.5643 37.6101H34.3693C34.7982 35.3359 34.5643 32.9846 34.4863 30.5947C36.5527 21.4978 34.7202 9.50991 28.0922 8.39207C27.0395 7.12004 25.207 5.19273 23.8034 5C23.9204 5.84802 24.5052 6.96586 24.6612 7.92952C24.7002 8.16079 24.7002 8.12225 24.5832 7.92952C23.8034 6.38767 22.4388 5.11564 21.1522 5C21.2692 5.88656 21.698 6.61894 21.815 7.73678C20.4114 7.73678 18.54 8.04515 17.1364 9.04736C16.8245 9.43282 16.8635 10.3194 17.2144 10.6663C15.6158 12.7863 14.2902 15.022 12.6917 17.1806C11.9119 17.8745 10.8982 18.1443 10.3914 19.1079C9.45564 21.1123 9.37766 22.8084 9.6116 24.8128C11.2881 26.1234 13.0426 26.8557 15.187 25.9306C16.1617 24.5815 17.3703 23.5793 18.8519 22.924C19.5537 23.1167 20.3335 23.1553 21.1912 23.0396C19.5537 26.7401 17.3703 28.5132 14.7971 30.0936C12.5747 31.4042 11.756 34.4108 11.756 37.6101H11.678C11.0932 37.6101 10.7423 38.0341 10.7423 38.5352V39.0749C10.7423 39.576 11.1321 40 11.678 40H34.5643C35.1491 40 35.5 39.576 35.5 39.0749V38.5352C35.461 38.0341 35.1491 37.6101 34.5643 37.6101Z" fill="white"/>
            <path fill-rule="evenodd" clip-rule="evenodd" d="M23.2411 4.43805L23.3277 5.06562C23.3531 5.24986 23.3973 5.44271 23.4519 5.63802C23.4262 5.61462 23.4003 5.59152 23.3742 5.56872C22.7296 5.00392 21.9745 4.59174 21.1952 4.52169L20.5976 4.46798L20.6761 5.06282C20.735 5.50961 20.8654 5.92069 20.9871 6.30446C21 6.34521 21.0129 6.38567 21.0255 6.42582C21.1122 6.70147 21.1945 6.97562 21.2564 7.27174C19.8801 7.34591 18.1887 7.70587 16.8573 8.65653L16.8041 8.69449L16.763 8.74527C16.5029 9.0668 16.4297 9.52191 16.4471 9.89368C16.4583 10.1339 16.5105 10.4074 16.627 10.6502C15.8973 11.6358 15.2223 12.6419 14.5537 13.6421L14.4721 13.7643C13.7767 14.8049 13.0861 15.8383 12.3362 16.8536C12.0978 17.0595 11.8483 17.2156 11.5697 17.39C11.4442 17.4685 11.3128 17.5507 11.1738 17.6428C10.7363 17.9329 10.2759 18.2958 9.96632 18.8844L9.96102 18.8945L9.9562 18.9048C8.97115 21.0148 8.89406 22.8076 9.13458 24.8685L9.15783 25.0676L9.31581 25.1911C10.1796 25.8664 11.0985 26.4213 12.1063 26.6757C13.127 26.9334 14.2098 26.8752 15.3772 26.3716L15.4987 26.3191L15.5762 26.2119C16.4707 24.9737 17.5651 24.0504 18.8964 23.4311C19.3737 23.545 19.8773 23.5947 20.4053 23.5834C18.8665 26.6683 16.8909 28.2437 14.5493 29.6822C12.2023 31.0691 11.3516 34.0983 11.2806 37.1802C11.0321 37.2458 10.8145 37.3738 10.6433 37.5533C10.3896 37.8194 10.262 38.1729 10.262 38.5352V39.0749C10.262 39.8332 10.859 40.4802 11.678 40.4802H34.5643C34.979 40.4802 35.3415 40.3268 35.599 40.0568C35.8527 39.7908 35.9802 39.4373 35.9802 39.0749V38.5166L35.9788 38.498C35.9527 38.1633 35.8333 37.8224 35.5894 37.5587C35.4145 37.3696 35.1901 37.2364 34.9292 37.1726C35.1823 35.4426 35.1015 33.6705 35.022 31.9281C35.0023 31.4967 34.9827 31.0671 34.9683 30.6404C36.0028 26.0421 36.0595 20.7234 35.0166 16.3889C33.9956 12.1458 31.8616 8.64573 28.3497 7.95106C27.8257 7.32762 27.1328 6.57053 26.3944 5.92881C25.6226 5.25811 24.7211 4.64128 23.8687 4.52423L23.2411 4.43805ZM22.7413 6.29115C23.2905 6.77234 23.79 7.42533 24.1546 8.14625L24.163 8.16281L24.1726 8.17867C24.1922 8.21082 24.2068 8.23614 24.2207 8.26014C24.2257 8.26873 24.2306 8.27715 24.2356 8.28566C24.2431 8.29852 24.2556 8.31992 24.2689 8.34C24.2753 8.3496 24.2883 8.36897 24.3062 8.39053L24.307 8.39155C24.3156 8.40216 24.3717 8.47153 24.4679 8.51903C24.526 8.54776 24.6483 8.59284 24.8003 8.55431C24.9621 8.51329 25.055 8.40434 25.0988 8.32892C25.1638 8.21682 25.1645 8.10752 25.1645 8.09582C25.1658 8.04694 25.1594 8.00132 25.1576 7.98868L25.1574 7.98708C25.1538 7.96125 25.1474 7.92412 25.141 7.88665C25.139 7.87475 25.1369 7.86282 25.135 7.8512C25.0496 7.32498 24.8516 6.76941 24.6767 6.27883L24.67 6.26016C24.6051 6.07797 24.5439 5.9057 24.4897 5.7431C24.883 5.95052 25.3164 6.26449 25.7644 6.65379C26.5021 7.29489 27.2047 8.0729 27.7222 8.69825L27.8361 8.83591L28.0123 8.86562C31.0226 9.37332 33.0641 12.3801 34.0827 16.6136C35.0919 20.8077 35.0367 26.0036 34.018 30.4883L34.0043 30.5486L34.0063 30.6104C34.0218 31.0865 34.043 31.5563 34.064 32.0204C34.1502 33.9307 34.2321 35.7462 33.8974 37.5211L33.7901 38.0904H34.5643C34.7304 38.0904 34.8242 38.146 34.8842 38.2108C34.95 38.2819 35.0045 38.398 35.0198 38.5559V39.0749C35.0198 39.2136 34.9719 39.3227 34.9039 39.3939C34.8397 39.4612 34.7343 39.5198 34.5643 39.5198H11.678C11.4053 39.5198 11.2225 39.3188 11.2225 39.0749V38.5352C11.2225 38.3965 11.2704 38.2875 11.3383 38.2162C11.4025 38.1489 11.5079 38.0904 11.678 38.0904H12.2362V37.6101C12.2362 34.4399 13.0554 31.6783 15.041 30.5073L15.0484 30.5029C17.6719 28.8916 19.9403 27.053 21.6303 23.234L21.9777 22.449L21.127 22.5637C20.3214 22.6723 19.608 22.6336 18.979 22.4609L18.8141 22.4156L18.6576 22.4848C17.1346 23.1584 15.8862 24.1802 14.8784 25.539C13.9496 25.9138 13.1202 25.9411 12.3414 25.7445C11.5704 25.5498 10.8241 25.1295 10.0661 24.5565C9.86804 22.702 9.9703 21.1504 10.8214 19.3219C11.0188 18.9521 11.3169 18.7003 11.7045 18.4434C11.799 18.3808 11.9035 18.3153 12.014 18.2461C12.3311 18.0477 12.6969 17.8188 13.0109 17.5394L13.048 17.5064L13.0776 17.4664C13.8535 16.4188 14.5649 15.3541 15.2665 14.3042C15.2951 14.2614 15.3237 14.2186 15.3523 14.1759C16.084 13.0811 16.8079 12.003 17.5978 10.9554L17.8507 10.6201L17.552 10.3248C17.4986 10.272 17.4185 10.1047 17.4065 9.84889C17.3966 9.63628 17.4391 9.47506 17.4835 9.39044C18.7658 8.50735 20.4849 8.21702 21.815 8.21702H22.3481L22.2926 7.68681C22.2289 7.07753 22.0799 6.57682 21.9417 6.13751C21.9295 6.09868 21.9174 6.06051 21.9055 6.02295C21.8662 5.89864 21.829 5.78083 21.7949 5.66665C22.1059 5.80498 22.4262 6.01511 22.7413 6.29115Z" fill="#2D2E37"/>
            <path fill-rule="evenodd" clip-rule="evenodd" d="M24.8445 19.0687C24.8445 20.9664 23.4136 22.4181 21.1234 22.5596L21.1826 23.5182C23.8829 23.3514 25.805 21.5652 25.805 19.0687H24.8445Z" fill="#2D2E37"/>
            <path fill-rule="evenodd" clip-rule="evenodd" d="M33.9853 30.1294C33.9941 30.3684 34.0004 30.54 34.0083 30.6343L34.9654 30.5537C34.9596 30.485 34.9547 30.3453 34.9475 30.1436C34.9117 29.139 34.8212 26.5954 34.302 23.6166C33.6781 20.0367 32.4222 15.7209 29.8323 12.4855L29.0824 13.0857C31.5221 16.1334 32.7419 20.2593 33.3558 23.7815C33.8576 26.6604 33.9461 29.0644 33.9853 30.1294Z" fill="#2D2E37"/>
            <path fill-rule="evenodd" clip-rule="evenodd" d="M20.3027 12.3136C20.1184 12.5282 19.8834 12.7326 19.612 12.9064C19.3259 13.0898 19.0248 13.2228 18.7355 13.2978C18.918 13.0771 19.1577 12.868 19.4392 12.6913C19.7193 12.5155 20.0161 12.3873 20.3027 12.3136ZM18.9286 11.8778C18.2525 12.3022 17.6495 12.9491 17.4521 13.7051L17.3178 14.2198L17.8435 14.301C18.6206 14.421 19.4601 14.1444 20.1302 13.7152C20.7995 13.2864 21.3932 12.6454 21.6124 11.9229L21.7731 11.3933L21.2262 11.3088C20.4541 11.1895 19.6066 11.4522 18.9286 11.8778Z" fill="#2D2E37"/>
        </g>
        <g id="wr" fill="none" stroke-linecap="round" stroke-linejoin="round" transform="translate(180.000000, 0)" stroke-width="1.5">
            <path fill-rule="evenodd" clip-rule="evenodd" d="M33.5173 37.6166C33.9331 35.1551 32.837 33.3187 30.5693 30.8181C27.4701 27.4188 27.2811 21.4017 27.2811 17.221C27.9614 17.1429 31.0228 17.0256 31.0228 15.9316C31.0228 15.6581 30.6827 15.4237 30.078 15.2283V8H26.2606V10.3834H25.089V8H22.5567H20.0244V10.3834H18.8528V8H14.9976V15.2283C14.3929 15.4237 14.0528 15.6581 14.0528 15.9316C14.0528 17.0256 17.1142 17.1429 17.7945 17.221C17.7945 21.4017 17.6055 27.4188 14.5063 30.779C12.2386 33.2796 11.1047 35.116 11.5583 37.5775H11.4071C10.8402 37.5775 10.5 38.0073 10.5 38.5153V39.0623C10.5 39.5702 10.8402 40 11.4071 40H33.5929C34.1598 40 34.5 39.5702 34.5 39.0623V38.5153C34.5 38.0073 34.0465 37.6166 33.5173 37.6166Z" fill="white"/>
            <path fill-rule="evenodd" clip-rule="evenodd" d="M14.5174 7.51976H19.333V9.90315H19.5442V7.51976H25.5692V9.90315H25.7804V7.51976H30.5582V14.8923C30.7478 14.9704 30.9187 15.0594 31.0603 15.1627C31.2763 15.3204 31.5031 15.5729 31.5031 15.9316C31.5031 16.4681 31.1196 16.8068 30.7679 17.003C30.4059 17.2049 29.945 17.3364 29.5043 17.4276C28.8874 17.5551 28.2114 17.6203 27.7621 17.6596C27.7698 19.6551 27.8386 21.9879 28.2359 24.2287C28.6636 26.6414 29.4629 28.8918 30.9242 30.4945L30.925 30.4955C33.0746 32.8658 34.299 34.7671 34.0532 37.2339C34.5725 37.4279 34.9802 37.8972 34.9802 38.5153V39.0623C34.9802 39.4219 34.8595 39.7759 34.6139 40.0452C34.3633 40.3199 34.0059 40.4802 33.5929 40.4802H11.4071C10.9941 40.4802 10.6367 40.3199 10.3861 40.0452C10.1405 39.7759 10.0198 39.4219 10.0198 39.0623V38.5153C10.0198 38.1556 10.1405 37.8016 10.3861 37.5323C10.5525 37.3499 10.766 37.2179 11.0116 37.1498C10.7577 34.7007 12.0207 32.805 14.1506 30.4564L14.1533 30.4534C15.6129 28.8709 16.412 26.6317 16.8398 24.2237C17.237 21.9875 17.3059 19.6551 17.3135 17.6596C16.8642 17.6203 16.1883 17.5551 15.5713 17.4276C15.1306 17.3364 14.6697 17.2049 14.3078 17.003C13.956 16.8068 13.5725 16.4681 13.5725 15.9316C13.5725 15.5729 13.7993 15.3204 14.0154 15.1627C14.1569 15.0594 14.3278 14.9704 14.5174 14.8923V7.51976ZM33.0799 37.2931C33.3479 35.1856 32.3842 33.5344 30.214 31.1411C28.5763 29.3446 27.7317 26.887 27.2901 24.3964C26.8476 21.9 26.8009 19.3144 26.8009 17.221V16.7928L27.2263 16.7439C27.3228 16.7328 27.4498 16.7219 27.5989 16.709C28.0462 16.6704 28.6923 16.6146 29.3099 16.487C29.7196 16.4023 30.0666 16.2944 30.2999 16.1643C30.4585 16.0758 30.5135 16.0083 30.5325 15.9691C30.5231 15.9608 30.5106 15.9507 30.4941 15.9386C30.3933 15.865 30.2125 15.7765 29.9303 15.6853L29.5977 15.5779V8.48023H26.7409V10.8636H24.6088V8.48023H20.5047V10.8636H18.3725V8.48023H15.4779V15.5779L15.1453 15.6853C14.8631 15.7765 14.6823 15.865 14.5815 15.9386C14.565 15.9507 14.5525 15.9608 14.5431 15.9691C14.5621 16.0083 14.6171 16.0758 14.7757 16.1643C15.0091 16.2944 15.356 16.4023 15.7658 16.487C16.3833 16.6146 17.0294 16.6704 17.4767 16.709C17.6258 16.7219 17.7528 16.7328 17.8493 16.7439L18.2747 16.7928V17.221C18.2747 19.3143 18.228 21.9001 17.7854 24.3917C17.344 26.8768 16.4994 29.3255 14.8607 31.1031C12.6029 33.593 11.6219 35.2725 12.0306 37.4905L12.1351 38.0578H11.4071C11.2532 38.0578 11.157 38.1124 11.0958 38.1795C11.0296 38.2521 10.9802 38.367 10.9802 38.5153V39.0623C10.9802 39.2106 11.0296 39.3254 11.0958 39.398C11.157 39.4652 11.2532 39.5198 11.4071 39.5198H33.5929C33.7469 39.5198 33.843 39.4652 33.9042 39.398C33.9705 39.3254 34.0198 39.2106 34.0198 39.0623V38.5153C34.0198 38.32 33.8313 38.0968 33.5173 38.0968H32.9604L33.0799 37.2931Z" fill="#2D2E37"/>
        </g>
        <g id="wp" transform="translate(225.000000, 0)" fill="#FFFFFF" stroke-linecap="round" stroke-width="1.5">
            <path fill-rule="evenodd" clip-rule="evenodd" d="M24.5077 19.8396C26.2838 19.9947 27.5193 20.3436 27.5193 20.7313C27.5193 21.119 26.361 21.4291 24.6622 21.5842C24.778 22.2821 24.9324 23.0187 25.1641 24.0267C25.473 25.2286 26.5541 28.4078 26.9788 29.2607C27.751 30.6952 28.7934 31.238 29.6815 32.1685C32.3456 34.9987 31.6506 37.131 31.4961 37.5963H31.612C32.0753 37.5963 32.5 38.0227 32.5 38.5267V39.0695C32.5 39.5735 32.1139 40 31.612 40H13.388C12.9247 40 12.5 39.5735 12.5 39.0695V38.5267C12.5 38.0227 12.8861 37.5963 13.388 37.5963H13.5039C13.3108 37.131 12.6544 34.9987 15.3185 32.1685C16.2066 31.238 17.249 30.734 18.0212 29.2607C18.4459 28.4078 19.527 25.2286 19.8359 24.0267C20.0676 23.0187 20.222 22.2821 20.3378 21.5842C18.639 21.4291 17.4807 21.0802 17.4807 20.7313C17.4807 20.3436 18.7162 19.9947 20.4923 19.8396C20.4923 19.5682 20.4923 19.2968 20.4923 19.0254C19.1409 18.3275 18.2143 16.893 18.2143 15.2647C18.2143 12.8997 20.1062 11 22.4614 11C24.8166 11 26.7085 12.8997 26.7085 15.2647C26.7085 16.893 25.7819 18.3275 24.4305 19.0254C24.5077 19.2968 24.5077 19.5682 24.5077 19.8396Z" fill="white"/>
            <path fill-rule="evenodd" clip-rule="evenodd" d="M22.4614 11.4802C20.3733 11.4802 18.6945 13.1631 18.6945 15.2647C18.6945 16.7092 19.5171 17.9813 20.7126 18.5987L20.9725 18.7329V20.2797L20.5341 20.318C19.6623 20.3941 18.9439 20.5164 18.4551 20.6592C18.3825 20.6804 18.3172 20.7014 18.259 20.7219C18.3049 20.7378 18.3552 20.754 18.4099 20.7704C18.8701 20.9081 19.5498 21.0301 20.3815 21.106L20.8962 21.153L20.8116 21.6629C20.6934 22.375 20.5364 23.1227 20.304 24.1343L20.3012 24.1463C20.1417 24.7667 19.7889 25.877 19.4261 26.9309C19.0662 27.9765 18.68 29.0152 18.4511 29.4748L18.4467 29.4837C18.0266 30.2851 17.5314 30.8225 17.0367 31.2731C16.8591 31.435 16.6765 31.5899 16.5024 31.7376C16.4401 31.7904 16.3789 31.8424 16.3194 31.8934C16.0887 32.0911 15.8719 32.2843 15.667 32.4989C14.3931 33.8526 13.9425 35.0061 13.8145 35.8419C13.6859 36.6814 13.8765 37.2412 13.9474 37.4122L14.2231 38.0765H13.388C13.1794 38.0765 12.9802 38.259 12.9802 38.5267V39.0695C12.9802 39.3234 13.2048 39.5198 13.388 39.5198H31.612C31.8206 39.5198 32.0198 39.3372 32.0198 39.0695V38.5267C32.0198 38.2728 31.7952 38.0765 31.612 38.0765H30.8307L31.0404 37.445C31.1075 37.2428 31.2947 36.6769 31.1707 35.8396C31.0469 35.0038 30.6056 33.8513 29.333 32.4989C29.0649 32.2181 28.8021 31.9921 28.5192 31.7488C28.3431 31.5973 28.1592 31.4391 27.9613 31.2568C27.4691 30.8033 26.9755 30.2678 26.5559 29.4883L26.5523 29.4816L26.5489 29.4748C26.3201 29.0152 25.9338 27.9765 25.5739 26.9309C25.2112 25.877 24.8584 24.7667 24.699 24.1463L24.6959 24.1343C24.4634 23.1227 24.3066 22.375 24.1884 21.6629L24.1038 21.153L24.6185 21.106C25.4548 21.0296 26.1346 20.9168 26.5942 20.7837C26.6568 20.7656 26.7133 20.7476 26.7639 20.7301C26.7001 20.707 26.6272 20.6832 26.5449 20.6592C26.0561 20.5164 25.3378 20.3941 24.466 20.318L24.0275 20.2797V19.8396C24.0275 19.5584 24.0246 19.3536 23.9686 19.1568L23.8611 18.779L24.2102 18.5987C25.4057 17.9813 26.2283 16.7092 26.2283 15.2647C26.2283 13.1631 24.5495 11.4802 22.4614 11.4802ZM27.0961 20.896C27.0957 20.8961 27.0925 20.8934 27.0878 20.888C27.0942 20.8933 27.0965 20.896 27.0961 20.896ZM27.0884 20.5768C27.0923 20.5725 27.0949 20.5704 27.0952 20.5704C27.0955 20.5705 27.0936 20.5726 27.0884 20.5768ZM17.894 20.5468C17.8946 20.5468 17.8985 20.5499 17.9042 20.5563C17.8963 20.5501 17.8935 20.5469 17.894 20.5468ZM17.9122 20.888C17.9075 20.8934 17.9044 20.8961 17.9039 20.896C17.9035 20.896 17.9058 20.8933 17.9122 20.888ZM17.7341 15.2647C17.7341 12.6364 19.8391 10.5198 22.4614 10.5198C25.0837 10.5198 27.1887 12.6364 27.1887 15.2647C27.1887 16.9478 26.2997 18.4451 24.9656 19.2735C24.9706 19.3174 24.9744 19.3607 24.9775 19.4033C25.7022 19.4829 26.3336 19.5968 26.8142 19.7372C27.0972 19.8199 27.3552 19.9194 27.5529 20.0429C27.7202 20.1473 27.9996 20.3667 27.9996 20.7313C27.9996 21.0863 27.739 21.3036 27.5697 21.4114C27.3782 21.5333 27.13 21.6285 26.8614 21.7063C26.4295 21.8314 25.8689 21.9326 25.2249 22.0085C25.3266 22.5522 25.456 23.1527 25.6307 23.9131C25.781 24.4959 26.1221 25.5724 26.4821 26.6183C26.8441 27.6699 27.2086 28.6422 27.4053 29.0399C27.7571 29.6912 28.1695 30.1426 28.6121 30.5504C28.7592 30.6859 28.9214 30.826 29.0896 30.9713C29.4019 31.2411 29.7347 31.5286 30.0289 31.8369L30.0312 31.8393C31.4217 33.3166 31.9647 34.6449 32.1208 35.6989C32.214 36.3279 32.1667 36.8427 32.0949 37.2114C32.6073 37.4198 32.9802 37.9441 32.9802 38.5267V39.0695C32.9802 39.8098 32.4072 40.4802 31.612 40.4802H13.388C12.6446 40.4802 12.0198 39.8236 12.0198 39.0695V38.5267C12.0198 37.9526 12.3644 37.4205 12.8901 37.2106C12.8132 36.8344 12.7695 36.3204 12.8651 35.6965C13.0266 34.6425 13.5796 33.3152 14.9689 31.8393L14.9711 31.8369C15.21 31.5866 15.4561 31.3683 15.6944 31.1641C15.7617 31.1064 15.8276 31.0505 15.8926 30.9953C16.0625 30.8512 16.2258 30.7127 16.3899 30.5631C16.8306 30.1617 17.2419 29.7116 17.5935 29.0422C17.79 28.646 18.1552 27.672 18.5179 26.6183C18.8779 25.5724 19.2191 24.4959 19.3693 23.9131C19.5441 23.1522 19.6736 22.5514 19.7754 22.0074C19.1279 21.9285 18.5665 21.8198 18.1345 21.6905C17.8661 21.6102 17.6218 21.5144 17.4343 21.3975C17.2826 21.303 17.0005 21.091 17.0005 20.7313C17.0005 20.3667 17.2798 20.1473 17.4472 20.0429C17.6448 19.9194 17.9029 19.8199 18.1858 19.7372C18.6641 19.5975 19.2918 19.484 20.0121 19.4044V19.307C18.6475 18.4859 17.7341 16.9707 17.7341 15.2647Z" fill="#2D2E37"/>
        </g>
        <g id="bk" fill="none" stroke-linecap="round" stroke-linejoin="round" transform="translate(0, 45.000000)" stroke-width="1.5">
            <path fill-rule="evenodd" clip-rule="evenodd" d="M22.4809 12.6168H21.0839V8.7718H19.3471V6.14505H21.1972L20.6686 3.82284C21.1972 3.59443 21.8013 3.48022 22.4809 3.48022C23.1605 3.48022 23.7268 3.59443 24.2932 3.82284L23.7646 6.14505H25.6146V8.73373H23.8779V12.5787H22.4809V12.6168Z" fill="#2D2E37"/>
            <path fill-rule="evenodd" clip-rule="evenodd" d="M31.5043 38.4655C31.8441 35.1916 32.8258 32.07 34.4871 29.1006C37.5076 27.0449 38.9045 23.7709 39.0178 19.5834C37.6586 10.1042 29.8056 8.39111 22.4809 12.6168C15.194 8.39111 7.34042 10.1042 5.9812 19.5834C6.09447 23.7709 7.45369 27.0449 10.5119 29.1006C12.1732 32.07 13.1549 35.1916 13.4947 38.4655C19.3469 41.2065 25.6521 41.2065 31.5043 38.4655Z" fill="#2D2E37"/>
            <path fill-rule="evenodd" clip-rule="evenodd" d="M31.2399 14.5963L28.6348 26.1312C33.6186 24.913 35.3931 18.7839 31.2399 14.5963Z" fill="#2D2E37"/>
            <path fill-rule="evenodd" clip-rule="evenodd" d="M13.7591 14.5963L16.3643 26.1312C11.3804 24.913 9.60591 18.7839 13.7591 14.5963Z" fill="#2D2E37"/>
            <path fill-rule="evenodd" clip-rule="evenodd" d="M22.4809 26.8545C19.8002 23.7329 19.6492 17.147 22.4809 14.0634C25.3126 17.147 25.1993 23.7329 22.4809 26.8545Z" fill="#2D2E37"/>
            <path fill-rule="evenodd" clip-rule="evenodd" d="M21.2319 4.12977L21.8002 6.62636H19.8284V8.29158H21.5652V12.1365H22.0006V12.0985H23.3976V8.25351H25.1344V6.62636H23.1626L23.7299 4.13424C23.3449 4.01921 22.9452 3.96154 22.4814 3.96154C22.0177 3.96154 21.6025 4.01924 21.2319 4.12977ZM22.9622 13.06V13.0981H20.6036V9.25312H18.8669V5.66482H20.5952L20.1116 3.54054L20.4784 3.38206C21.077 3.12337 21.7478 3 22.4814 3C23.2214 3 23.8488 3.12558 24.4735 3.37752L24.8534 3.53072L24.3676 5.66482H26.0959V9.21505H24.3591V13.06H22.9622Z" fill="white"/>
            <path fill-rule="evenodd" clip-rule="evenodd" d="M22.4817 12.0641C26.1496 10.0149 29.9939 9.38593 33.1479 10.5084C36.4021 11.6664 38.7954 14.6422 39.4942 19.5157L39.5 19.5561L39.4989 19.5969C39.384 23.8455 37.9717 27.2621 34.8529 29.4333C33.2562 32.3168 32.3123 35.343 31.983 38.5157L31.955 38.7862L31.7088 38.9015C25.7273 41.703 19.2727 41.703 13.2912 38.9015L13.045 38.7862L13.017 38.5157C12.6877 35.3435 11.744 32.3176 10.1478 29.4346C6.98922 27.2618 5.61593 23.8419 5.5011 19.5969L5.5 19.5561L5.5058 19.5157C6.2046 14.6423 8.59777 11.6666 11.8471 10.5084C14.9965 9.38594 18.8316 10.0147 22.4817 12.0641ZM6.46344 19.6118C6.58166 23.6788 7.90087 26.7664 10.7806 28.7021L10.8759 28.7662L10.932 28.8664C12.5788 31.8099 13.5716 34.9034 13.9435 38.1435C19.5155 40.6736 25.4845 40.6736 31.0565 38.1435C31.4284 34.9034 32.4212 31.8099 34.068 28.8664L34.1233 28.7675L34.2171 28.7037C37.0635 26.7665 38.4182 23.6754 38.5366 19.6117C37.869 15.0312 35.6607 12.4232 32.8256 11.4143C29.9512 10.3914 26.3061 10.9657 22.7214 13.0337L22.4805 13.1727L22.2399 13.0332C18.6746 10.9657 15.0394 10.3914 12.1699 11.4142C9.3394 12.423 7.13098 15.0311 6.46344 19.6118Z" fill="white"/>
            <path fill-rule="evenodd" clip-rule="evenodd" d="M13.2548 38.0302C19.2733 35.2294 25.6893 35.2294 31.7079 38.0302L31.3022 38.902C25.5409 36.2209 19.4218 36.2209 13.6605 38.902L13.2548 38.0302Z" fill="white"/>
            <path fill-rule="evenodd" clip-rule="evenodd" d="M12.1585 32.7012C18.7822 29.5948 26.1806 29.5953 32.8408 32.7007L32.4345 33.5722C26.0311 30.5865 18.9311 30.587 12.5667 33.5717L12.1585 32.7012Z" fill="white"/>
            <path fill-rule="evenodd" clip-rule="evenodd" d="M30.9646 13.636L31.5818 14.2583C35.9688 18.6817 34.1364 25.282 28.7494 26.5988L27.9953 26.7831L30.9646 13.636ZM29.2876 25.4258L31.5038 15.6129C34.4266 19.2666 33.0447 23.9862 29.2876 25.4258Z" fill="white"/>
            <path fill-rule="evenodd" clip-rule="evenodd" d="M14.0354 13.636L17.0047 26.7831L16.2506 26.5988C10.8636 25.282 9.0312 18.6817 13.4182 14.2583L14.0354 13.636ZM13.4962 15.6129L15.7124 25.4258C11.9553 23.9862 10.5734 19.2666 13.4962 15.6129Z" fill="white"/>
            <path fill-rule="evenodd" clip-rule="evenodd" d="M22.4814 13.3531L22.8355 13.7387C24.361 15.3999 25.0581 17.9525 25.0435 20.448C25.0289 22.9446 24.3018 25.4968 22.844 27.1708L22.4789 27.5901L22.1167 27.1683C20.6799 25.4952 19.953 22.9449 19.9335 20.449C19.9141 17.9543 20.601 15.4008 22.1273 13.7387L22.4814 13.3531ZM22.484 26.0743C23.512 24.6253 24.0696 22.5525 24.0819 20.4424C24.0944 18.3164 23.553 16.245 22.4815 14.8163C21.4122 16.2442 20.8784 18.3148 20.895 20.4415C20.9115 22.551 21.469 24.6244 22.484 26.0743Z" fill="white"/>
        </g>
        <g id="bq" fill="none" stroke-linecap="round" stroke-linejoin="round" transform="translate(45.000000, 45.000000)">
            <path fill-rule="evenodd" clip-rule="evenodd" d="M31.8523 38.1719C30.6341 33.1828 33.2276 23.7378 37 12.9597C32.9133 13.988 29.9268 15.5495 27.8442 17.5299C26.1152 14.5212 24.3469 11.9695 22.5 10.2176C20.6531 11.9695 18.8848 14.5212 17.1558 17.5299C15.0732 15.5495 12.0867 13.988 8 12.9597C11.7724 23.7378 14.3659 33.1828 13.1477 38.1719C19.8672 40.6094 25.0149 40.6094 31.8523 38.1719Z" fill="#2D2E37"/>
            <path fill-rule="evenodd" clip-rule="evenodd" d="M22.4609 10.1795C23.9542 10.1795 25.133 8.99891 25.133 7.58977C25.133 6.14255 23.9149 5 22.4609 5C20.9677 5 19.7888 6.18063 19.7888 7.58977C19.7495 9.037 20.9677 10.1795 22.4609 10.1795Z" fill="#2D2E37"/>
            <path fill-rule="evenodd" clip-rule="evenodd" d="M22.4609 9.78127L22.8305 9.86922C24.619 11.5658 26.3172 13.9727 27.9608 16.7744C30.0891 14.9177 33.0187 13.4663 36.8828 12.494L37.748 12.2763L37.4532 13.1184C35.569 18.5017 33.9849 23.5367 33.0233 27.8414C32.0576 32.1652 31.738 35.6793 32.3188 38.058L32.4215 38.4788L32.0135 38.6243C28.5581 39.8561 25.5062 40.4803 22.4557 40.4803C19.4049 40.4803 16.3818 39.856 12.9839 38.6234L12.5789 38.4765L12.6811 38.058C13.2619 35.6793 12.9423 32.1652 11.9766 27.8414C11.015 23.5367 9.43087 18.5017 7.54668 13.1184L7.25195 12.2763L8.11714 12.494C11.9812 13.4663 14.9109 14.9177 17.0391 16.7744C18.6827 13.9727 20.3809 11.5658 22.1695 9.86922L22.4609 9.78127ZM22.5 10.8891C20.8203 12.5795 19.1877 14.958 17.5722 17.7692L17.2677 18.299L16.8249 17.8779C14.9652 16.1096 12.3348 14.6661 8.75119 13.6568C10.5092 18.7323 11.9918 23.5036 12.9139 27.632C13.8321 31.7425 14.2108 35.2813 13.7071 37.8618C16.8652 38.9718 19.6597 39.5198 22.4557 39.5198C25.2534 39.5198 28.0769 38.9712 31.2924 37.8596C30.7893 35.2793 31.1681 31.7413 32.086 27.632C33.0081 23.5036 34.4907 18.7323 36.2487 13.6568C32.6651 14.6661 30.0347 16.1096 28.1751 17.8779L27.7322 18.299L27.4277 17.7692C25.8122 14.958 24.1796 12.5795 22.5 10.8891Z" fill="white"/>
            <path fill-rule="evenodd" clip-rule="evenodd" d="M31.6564 38.6103C25.6511 35.924 19.2707 35.924 13.2654 38.6103L12.8732 37.7336C19.1281 34.9356 25.7937 34.9356 32.0486 37.7336L31.6564 38.6103Z" fill="white"/>
            <path fill-rule="evenodd" clip-rule="evenodd" d="M31.4582 33.1253C25.6901 30.5164 19.2322 30.5159 13.4234 33.1258L13.0297 32.2497C19.0881 29.5277 25.8335 29.5271 31.854 32.2502L31.4582 33.1253Z" fill="white"/>
            <path fill-rule="evenodd" clip-rule="evenodd" d="M19.3086 7.58326C19.3122 5.90232 20.7143 4.51978 22.4609 4.51978C24.1611 4.51978 25.6132 5.85877 25.6132 7.58978C25.6132 9.27367 24.2097 10.6598 22.4609 10.6598C20.7315 10.6598 19.2649 9.32846 19.3086 7.58326ZM22.4609 5.48025C21.2233 5.48025 20.269 6.45539 20.269 7.58978V7.60282C20.2379 8.74888 21.206 9.69932 22.4609 9.69932C23.6985 9.69932 24.6527 8.72418 24.6527 7.58978C24.6527 6.42635 23.6685 5.48025 22.4609 5.48025Z" fill="white"/>
        </g>
        <g id="bb" fill="none" stroke-linecap="round" stroke-linejoin="round" transform="translate(90.000000, 45)" stroke-width="1.5">
            <path fill-rule="evenodd" clip-rule="evenodd" d="M20.3661 33.2597H24.5759C27.221 37.2398 31.6917 33.2597 35.3054 34.0408C36.4231 35.9379 37.3545 37.6117 38.5094 39.546C36.0505 38.9136 33.5917 38.8392 31.3564 39.7319C28.2269 40.9594 25.2465 40.885 22.4896 38.6532C19.6955 40.885 16.7523 40.9594 13.6229 39.7319C11.3875 38.8392 8.9287 38.9508 6.46985 39.546C7.58751 37.6489 8.51889 35.9751 9.6738 34.0408C13.2503 33.2597 17.7209 37.2026 20.3661 33.2597Z" fill="#2D2E37"/>
            <path fill-rule="evenodd" clip-rule="evenodd" d="M29.0091 33.1481C29.3816 31.2511 28.7483 29.3541 27.8169 27.4198C32.213 22.1379 32.1013 16.1493 28.8601 12.4296L24.0169 19.7945L22.3777 18.7158L27.3699 11.0905C26.4012 10.3838 25.2836 9.78862 23.9796 9.41666C24.0914 8.52394 24.2032 7.63122 24.3149 6.7385L22.4522 6.47812L20.5894 6.7385C20.7012 7.63122 20.8129 8.52394 20.9247 9.41666C13.4736 11.5741 11.0893 20.1665 17.0874 27.4198C16.156 29.3169 15.4854 31.2511 15.8952 33.1481C20.3659 34.4872 24.5757 34.4872 29.0091 33.1481Z" fill="#2D2E37"/>
            <path d="M18.5623 34.2742C18.3714 34.3625 18.1764 34.4275 17.9778 34.4737C17.2307 34.6475 16.3924 34.5657 15.4637 34.372C15.0089 34.2772 14.5454 34.1586 14.0679 34.0365L14.0458 34.0308C13.5643 33.9077 13.0688 33.7812 12.5746 33.6796C11.5901 33.477 10.5642 33.3619 9.57524 33.5779L9.37796 33.621L9.27355 33.7958C8.62761 34.8776 8.04499 35.8894 7.46262 36.9008C7.00767 37.6908 6.55287 38.4806 6.06817 39.3033L5.5 40.2677L6.57871 40.0066C8.98822 39.4234 11.3396 39.3292 13.4513 40.1725L13.454 40.1736C15.0665 40.8061 16.6592 41.1143 18.227 40.9613C19.6955 40.8179 21.1163 40.2721 22.488 39.2501C25.3244 41.3874 28.3878 41.4043 31.5255 40.1736L31.5281 40.1725C33.643 39.3279 35.9949 39.388 38.3943 40.005L39.5 40.2894L38.9098 39.3009C38.2618 38.2156 37.6906 37.2235 37.1155 36.2246C36.662 35.4368 36.2055 34.6438 35.7073 33.7982L35.6027 33.6208L35.4032 33.5777C34.4051 33.3619 33.3725 33.4794 32.3825 33.685C31.8856 33.7881 31.3879 33.9162 30.9045 34.0409L30.881 34.0469C30.4021 34.1705 29.9378 34.2903 29.4823 34.3862C28.5513 34.5821 27.7125 34.6647 26.9658 34.4896C26.7577 34.4408 26.5535 34.3712 26.3539 34.2754C25.899 34.357 25.4454 34.4244 24.9925 34.4776C25.5285 34.9679 26.1208 35.2638 26.7546 35.4124C27.703 35.6348 28.7038 35.5175 29.6727 35.3136C30.1489 35.2134 30.6307 35.0891 31.1029 34.9672L31.1355 34.9588C31.6219 34.8333 32.0986 34.7109 32.5704 34.6129C33.4417 34.432 34.2571 34.3439 35.0117 34.4669C35.4563 35.2239 35.8771 35.9548 36.2982 36.686C36.708 37.3978 37.118 38.1098 37.5501 38.8462C35.3827 38.4349 33.2071 38.484 31.1861 39.2908C28.1727 40.4724 25.378 40.385 22.7818 38.2833L22.4917 38.0484L22.2 38.2814C20.8674 39.3457 19.5168 39.8837 18.1372 40.0184C16.7528 40.1535 15.3097 39.8854 13.7933 39.2908C11.7641 38.4808 9.58153 38.4632 7.41454 38.8606C7.71036 38.3516 7.99545 37.8564 8.27955 37.3629C8.8227 36.4194 9.36227 35.4822 9.96644 34.4667C10.7126 34.3436 11.5216 34.4296 12.3883 34.6079C12.8575 34.7044 13.332 34.8253 13.8167 34.9492L13.8478 34.9572C14.3187 35.0777 14.7995 35.2007 15.2749 35.2998C16.2415 35.5014 17.2404 35.6172 18.1873 35.3969C18.8169 35.2504 19.4062 34.9597 19.9401 34.4781C19.4822 34.4246 19.023 34.3567 18.5623 34.2742Z" fill="white"/>
            <path fill-rule="evenodd" clip-rule="evenodd" d="M22.4521 6L24.8371 6.33338L24.4934 9.07903C25.6923 9.4701 26.7331 10.0422 27.6433 10.7063L28.0083 10.9725L23.0283 18.5792L23.8838 19.1421L28.808 11.654L29.2108 12.1163C32.5853 15.9889 32.687 22.1196 28.3683 27.4883C29.24 29.3539 29.853 31.2792 29.4679 33.2405L29.4129 33.5204L29.1428 33.602C24.6218 34.9675 20.3194 34.9672 15.7625 33.6023L15.4973 33.5229L15.4382 33.2493C15.0132 31.282 15.662 29.3181 16.5348 27.4854C13.6111 23.8275 12.7076 19.817 13.5074 16.3981C14.2984 13.0165 16.7439 10.274 20.4109 9.07969L20.0671 6.33338L22.4521 6ZM21.1116 7.14362L21.4392 9.76029L21.0533 9.87203C17.483 10.9058 15.1547 13.4662 14.4178 16.6164C13.6796 19.772 14.5254 23.5839 17.446 27.1158L17.6424 27.3533L17.5063 27.6307C16.6302 29.415 16.0432 31.1297 16.3014 32.7743C20.4904 33.9797 24.4439 33.9801 28.5972 32.7766C28.8289 31.1294 28.27 29.4417 27.3964 27.6274L27.263 27.3503L27.4591 27.1146C31.5466 22.2036 31.5737 16.7602 28.8998 13.2238L24.1498 20.4469L21.7269 18.8525L26.7265 11.2159C25.885 10.6517 24.9353 10.1814 23.8527 9.87254L23.4648 9.76189L23.7926 7.14362L22.4521 6.95625L21.1116 7.14362Z" fill="white"/>
            <path fill-rule="evenodd" clip-rule="evenodd" d="M22.4709 31.2238C24.6416 31.2238 26.7978 31.7256 29.1856 32.7094L28.8329 33.5868C26.5265 32.6365 24.4915 32.1711 22.4709 32.1711C20.4504 32.1711 18.4154 32.6365 16.109 33.5868L15.7563 32.7094C18.144 31.7256 20.3003 31.2238 22.4709 31.2238Z" fill="white"/>
            <path fill-rule="evenodd" clip-rule="evenodd" d="M17.0362 26.9636C21.0676 25.8245 23.9114 25.8245 27.9428 26.9636L27.6912 27.876C23.8244 26.7834 21.1545 26.7834 17.2877 27.876L17.0362 26.9636Z" fill="white"/>
        </g>
        <g id="bn" fill="none" stroke-linecap="round" stroke-linejoin="round" transform="translate(135.000000, 45)" >
            <path fill-rule="evenodd" clip-rule="evenodd" d="M34.5643 37.6101H34.3693C34.7982 35.3359 34.5643 32.9846 34.4863 30.5947C36.5527 21.4978 34.7202 9.50991 28.0922 8.39207C27.0395 7.12004 25.207 5.19273 23.8034 5C23.9204 5.84802 24.5052 6.96586 24.6612 7.92952C24.7002 8.16079 24.7002 8.12225 24.5832 7.92952C23.8034 6.38767 22.4388 5.11564 21.1522 5C21.2692 5.88656 21.698 6.61894 21.815 7.73678C20.4114 7.73678 18.54 8.04515 17.1364 9.04736C16.8245 9.43282 16.8635 10.3194 17.2144 10.6663C15.6158 12.7863 14.2902 15.022 12.6917 17.1806C11.9119 17.8745 10.8982 18.1443 10.3914 19.1079C9.45564 21.1123 9.37766 22.8084 9.6116 24.8128C11.2881 26.1234 13.0426 26.8557 15.187 25.9306C16.1617 24.5815 17.3703 23.5793 18.8519 22.924C19.5537 23.1167 20.3335 23.1553 21.1912 23.0396C19.5537 26.7401 17.3703 28.5132 14.7971 30.0936C12.5747 31.4042 11.756 34.4108 11.756 37.6101H11.678C11.0932 37.6101 10.7423 38.0341 10.7423 38.5352V39.0749C10.7423 39.576 11.1321 40 11.678 40H34.5643C35.1491 40 35.5 39.576 35.5 39.0749V38.5352C35.461 38.0341 35.1491 37.6101 34.5643 37.6101Z" fill="#2D2E37"/>
            <path fill-rule="evenodd" clip-rule="evenodd" d="M23.2411 4.43805L23.3277 5.06562C23.3531 5.24986 23.3973 5.44271 23.4519 5.63802C23.4262 5.61462 23.4003 5.59152 23.3742 5.56872C22.7296 5.00392 21.9745 4.59174 21.1952 4.52169L20.5976 4.46798L20.6761 5.06282C20.735 5.50961 20.8654 5.92069 20.9871 6.30446C21 6.34521 21.0129 6.38567 21.0255 6.42582C21.1122 6.70147 21.1945 6.97562 21.2564 7.27174C19.8801 7.34591 18.1887 7.70587 16.8573 8.65653L16.8041 8.69449L16.763 8.74527C16.5029 9.0668 16.4297 9.52191 16.4471 9.89368C16.4583 10.1339 16.5105 10.4074 16.627 10.6502C15.8973 11.6358 15.2223 12.6419 14.5537 13.6421L14.4721 13.7643C13.7767 14.8049 13.0861 15.8383 12.3362 16.8536C12.0978 17.0595 11.8483 17.2156 11.5697 17.39C11.4442 17.4685 11.3128 17.5507 11.1738 17.6428C10.7363 17.9329 10.2759 18.2958 9.96632 18.8844L9.96102 18.8945L9.9562 18.9048C8.97115 21.0148 8.89406 22.8076 9.13458 24.8685L9.15783 25.0676L9.31581 25.1911C10.1796 25.8664 11.0985 26.4213 12.1063 26.6757C13.127 26.9334 14.2098 26.8752 15.3772 26.3716L15.4987 26.3191L15.5762 26.2119C16.4707 24.9737 17.5651 24.0504 18.8964 23.4311C19.3737 23.545 19.8773 23.5947 20.4053 23.5834C18.8665 26.6683 16.8909 28.2437 14.5493 29.6822C12.2023 31.0691 11.3516 34.0983 11.2806 37.1802C11.0321 37.2458 10.8145 37.3738 10.6433 37.5533C10.3896 37.8194 10.262 38.1729 10.262 38.5352V39.0749C10.262 39.8332 10.859 40.4802 11.678 40.4802H34.5643C34.979 40.4802 35.3415 40.3268 35.599 40.0568C35.8527 39.7908 35.9802 39.4373 35.9802 39.0749V38.5166L35.9788 38.498C35.9527 38.1633 35.8333 37.8224 35.5894 37.5587C35.4145 37.3696 35.1901 37.2364 34.9292 37.1726C35.1823 35.4426 35.1015 33.6705 35.022 31.9281C35.0023 31.4967 34.9827 31.0671 34.9683 30.6404C36.0028 26.0421 36.0595 20.7234 35.0166 16.3889C33.9956 12.1458 31.8616 8.64573 28.3497 7.95106C27.8257 7.32762 27.1328 6.57053 26.3944 5.92881C25.6226 5.25811 24.7211 4.64128 23.8687 4.52423L23.2411 4.43805ZM22.7413 6.29115C23.2905 6.77234 23.79 7.42533 24.1546 8.14625L24.163 8.16281L24.1726 8.17867C24.1922 8.21082 24.2068 8.23614 24.2207 8.26014C24.2257 8.26873 24.2306 8.27715 24.2356 8.28566C24.2431 8.29852 24.2556 8.31992 24.2689 8.34C24.2753 8.3496 24.2883 8.36897 24.3062 8.39053L24.307 8.39155C24.3156 8.40216 24.3717 8.47153 24.4679 8.51903C24.526 8.54776 24.6483 8.59284 24.8003 8.55431C24.9621 8.51329 25.055 8.40434 25.0988 8.32892C25.1638 8.21682 25.1645 8.10752 25.1645 8.09582C25.1658 8.04694 25.1594 8.00132 25.1576 7.98868L25.1574 7.98708C25.1538 7.96125 25.1474 7.92412 25.141 7.88665C25.139 7.87475 25.1369 7.86282 25.135 7.8512C25.0496 7.32498 24.8516 6.76941 24.6767 6.27883L24.67 6.26016C24.6051 6.07797 24.5439 5.9057 24.4897 5.7431C24.883 5.95052 25.3164 6.26449 25.7644 6.65379C26.5021 7.29489 27.2047 8.0729 27.7222 8.69825L27.8361 8.83591L28.0123 8.86562C31.0226 9.37332 33.0641 12.3801 34.0827 16.6136C35.0919 20.8077 35.0367 26.0036 34.018 30.4883L34.0043 30.5486L34.0063 30.6104C34.0218 31.0865 34.043 31.5563 34.064 32.0204C34.1502 33.9307 34.2321 35.7462 33.8974 37.5211L33.7901 38.0904H34.5643C34.7304 38.0904 34.8242 38.146 34.8842 38.2108C34.95 38.2819 35.0045 38.398 35.0198 38.5559V39.0749C35.0198 39.2136 34.9719 39.3227 34.9039 39.3939C34.8397 39.4612 34.7343 39.5198 34.5643 39.5198H11.678C11.4053 39.5198 11.2225 39.3188 11.2225 39.0749V38.5352C11.2225 38.3965 11.2704 38.2875 11.3383 38.2162C11.4025 38.1489 11.5079 38.0904 11.678 38.0904H12.2362V37.6101C12.2362 34.4399 13.0554 31.6783 15.041 30.5073L15.0484 30.5029C17.6719 28.8916 19.9403 27.053 21.6303 23.234L21.9777 22.449L21.127 22.5637C20.3214 22.6723 19.608 22.6336 18.979 22.4609L18.8141 22.4156L18.6576 22.4848C17.1346 23.1584 15.8862 24.1802 14.8784 25.539C13.9496 25.9138 13.1202 25.9411 12.3414 25.7445C11.5704 25.5498 10.8241 25.1295 10.0661 24.5565C9.86804 22.702 9.9703 21.1504 10.8214 19.3219C11.0188 18.9521 11.3169 18.7003 11.7045 18.4434C11.799 18.3808 11.9035 18.3153 12.014 18.2461C12.3311 18.0477 12.6969 17.8188 13.0109 17.5394L13.048 17.5064L13.0776 17.4664C13.8535 16.4188 14.5649 15.3541 15.2665 14.3042C15.2951 14.2614 15.3237 14.2186 15.3523 14.1759C16.084 13.0811 16.8079 12.003 17.5978 10.9554L17.8507 10.6201L17.552 10.3248C17.4986 10.272 17.4185 10.1047 17.4065 9.84889C17.3966 9.63628 17.4391 9.47506 17.4835 9.39044C18.7658 8.50735 20.4849 8.21702 21.815 8.21702H22.3481L22.2926 7.68681C22.2289 7.07753 22.0799 6.57682 21.9417 6.13751C21.9295 6.09868 21.9174 6.06051 21.9055 6.02295C21.8662 5.89864 21.829 5.78083 21.7949 5.66665C22.1059 5.80498 22.4262 6.01511 22.7413 6.29115Z" fill="white"/>
            <path fill-rule="evenodd" clip-rule="evenodd" d="M24.8445 19.0687C24.8445 20.9664 23.4136 22.4181 21.1234 22.5596L21.1826 23.5182C23.8829 23.3514 25.805 21.5652 25.805 19.0687H24.8445Z" fill="white"/>
            <path fill-rule="evenodd" clip-rule="evenodd" d="M33.9853 30.1294C33.9941 30.3684 34.0004 30.54 34.0083 30.6343L34.9654 30.5537C34.9596 30.485 34.9547 30.3453 34.9475 30.1436C34.9117 29.139 34.8212 26.5954 34.302 23.6166C33.6781 20.0367 32.4222 15.7209 29.8323 12.4855L29.0824 13.0857C31.5221 16.1334 32.7419 20.2593 33.3558 23.7815C33.8576 26.6604 33.9461 29.0644 33.9853 30.1294Z" fill="white"/>
            <path fill-rule="evenodd" clip-rule="evenodd" d="M20.3027 12.3136C20.1184 12.5282 19.8834 12.7326 19.612 12.9064C19.3259 13.0898 19.0248 13.2228 18.7355 13.2978C18.918 13.0771 19.1577 12.868 19.4392 12.6913C19.7193 12.5155 20.0161 12.3873 20.3027 12.3136ZM18.9286 11.8778C18.2525 12.3022 17.6495 12.9491 17.4521 13.7051L17.3178 14.2198L17.8435 14.301C18.6206 14.421 19.4601 14.1444 20.1302 13.7152C20.7995 13.2864 21.3932 12.6454 21.6124 11.9229L21.7731 11.3933L21.2262 11.3088C20.4541 11.1895 19.6066 11.4522 18.9286 11.8778Z" fill="white"/>
        </g>
        <g id="br" fill="none" stroke-linecap="round" stroke-linejoin="round" transform="translate(180.000000, 45)">
            <path fill-rule="evenodd" clip-rule="evenodd" d="M33.5173 37.6166C33.9331 35.1551 32.837 33.3187 30.5693 30.8181C27.4701 27.4188 27.2811 21.4017 27.2811 17.221C27.9614 17.1429 31.0228 17.0256 31.0228 15.9316C31.0228 15.6581 30.6827 15.4237 30.078 15.2283V8H26.2606V10.3834H25.089V8H22.5567H20.0244V10.3834H18.8528V8H14.9976V15.2283C14.3929 15.4237 14.0528 15.6581 14.0528 15.9316C14.0528 17.0256 17.1142 17.1429 17.7945 17.221C17.7945 21.4017 17.6055 27.4188 14.5063 30.779C12.2386 33.2796 11.1047 35.116 11.5583 37.5775H11.4071C10.8402 37.5775 10.5 38.0073 10.5 38.5153V39.0623C10.5 39.5702 10.8402 40 11.4071 40H33.5929C34.1598 40 34.5 39.5702 34.5 39.0623V38.5153C34.5 38.0073 34.0465 37.6166 33.5173 37.6166Z" fill="#2D2E37"/>
            <path fill-rule="evenodd" clip-rule="evenodd" d="M14.5174 7.51978H19.333V9.90317H19.5442V7.51978H25.5692V9.90317H25.7804V7.51978H30.5582V14.8923C30.7478 14.9704 30.9187 15.0595 31.0603 15.1628C31.2763 15.3204 31.5031 15.5729 31.5031 15.9316C31.5031 16.4681 31.1196 16.8068 30.7679 17.003C30.4059 17.205 29.945 17.3365 29.5043 17.4276C28.8874 17.5551 28.2114 17.6203 27.7621 17.6596C27.7698 19.6551 27.8386 21.9879 28.2359 24.2288C28.6636 26.6414 29.4629 28.8918 30.9242 30.4945L30.925 30.4955C33.0746 32.8658 34.299 34.7671 34.0532 37.2339C34.5725 37.4279 34.9802 37.8972 34.9802 38.5153V39.0623C34.9802 39.4219 34.8595 39.776 34.6139 40.0452C34.3633 40.32 34.0059 40.4803 33.5929 40.4803H11.4071C10.9941 40.4803 10.6367 40.32 10.3861 40.0452C10.1405 39.776 10.0198 39.4219 10.0198 39.0623V38.5153C10.0198 38.1557 10.1405 37.8016 10.3861 37.5323C10.5525 37.3499 10.766 37.2179 11.0116 37.1498C10.7577 34.7007 12.0207 32.805 14.1506 30.4564L14.1533 30.4534C15.6129 28.8709 16.412 26.6317 16.8398 24.2237C17.237 21.9875 17.3059 19.6552 17.3135 17.6596C16.8642 17.6203 16.1883 17.5551 15.5713 17.4276C15.1306 17.3365 14.6697 17.205 14.3078 17.003C13.956 16.8068 13.5725 16.4681 13.5725 15.9316C13.5725 15.5729 13.7993 15.3204 14.0154 15.1628C14.1569 15.0595 14.3278 14.9704 14.5174 14.8923V7.51978ZM33.0799 37.2932C33.3479 35.1856 32.3842 33.5344 30.214 31.1412C28.5763 29.3446 27.7317 26.8871 27.2901 24.3964C26.8476 21.9001 26.8009 19.3144 26.8009 17.221V16.7928L27.2263 16.7439C27.3228 16.7328 27.4498 16.7219 27.5989 16.709C28.0462 16.6704 28.6923 16.6147 29.3099 16.487C29.7196 16.4023 30.0666 16.2944 30.2999 16.1643C30.4585 16.0758 30.5135 16.0083 30.5325 15.9692C30.5231 15.9609 30.5106 15.9507 30.4941 15.9386C30.3933 15.8651 30.2125 15.7765 29.9303 15.6853L29.5977 15.5779V8.48025H26.7409V10.8636H24.6088V8.48025H20.5047V10.8636H18.3725V8.48025H15.4779V15.5779L15.1453 15.6853C14.8631 15.7765 14.6823 15.8651 14.5815 15.9386C14.565 15.9507 14.5525 15.9609 14.5431 15.9692C14.5621 16.0083 14.6171 16.0758 14.7757 16.1643C15.0091 16.2944 15.356 16.4023 15.7658 16.487C16.3833 16.6147 17.0294 16.6704 17.4767 16.709C17.6258 16.7219 17.7528 16.7328 17.8493 16.7439L18.2747 16.7928V17.221C18.2747 19.3143 18.228 21.9001 17.7854 24.3917C17.344 26.8768 16.4994 29.3255 14.8607 31.1031C12.6029 33.593 11.6219 35.2725 12.0306 37.4905L12.1351 38.0578H11.4071C11.2532 38.0578 11.157 38.1124 11.0958 38.1796C11.0296 38.2522 10.9802 38.367 10.9802 38.5153V39.0623C10.9802 39.2106 11.0296 39.3254 11.0958 39.398C11.157 39.4652 11.2532 39.5198 11.4071 39.5198H33.5929C33.7469 39.5198 33.843 39.4652 33.9042 39.398C33.9705 39.3254 34.0198 39.2106 34.0198 39.0623V38.5153C34.0198 38.32 33.8313 38.0969 33.5173 38.0969H32.9604L33.0799 37.2932Z" fill="white"/>
        </g>
        <g id="bp" transform="translate(225.000000, 45)" fill="#000000"  stroke-linecap="round" stroke-width="1.5">
            <path fill-rule="evenodd" clip-rule="evenodd" d="M24.5077 19.8396C26.2838 19.9947 27.5193 20.3436 27.5193 20.7313C27.5193 21.119 26.361 21.4291 24.6622 21.5842C24.778 22.2821 24.9324 23.0187 25.1641 24.0267C25.473 25.2286 26.5541 28.4078 26.9788 29.2607C27.751 30.6952 28.7934 31.238 29.6815 32.1685C32.3456 34.9987 31.6506 37.131 31.4961 37.5963H31.612C32.0753 37.5963 32.5 38.0227 32.5 38.5267V39.0695C32.5 39.5735 32.1139 40 31.612 40H13.388C12.9247 40 12.5 39.5735 12.5 39.0695V38.5267C12.5 38.0227 12.8861 37.5963 13.388 37.5963H13.5039C13.3108 37.131 12.6544 34.9987 15.3185 32.1685C16.2066 31.238 17.249 30.734 18.0212 29.2607C18.4459 28.4078 19.527 25.2286 19.8359 24.0267C20.0676 23.0187 20.222 22.2821 20.3378 21.5842C18.639 21.4291 17.4807 21.0802 17.4807 20.7313C17.4807 20.3436 18.7162 19.9947 20.4923 19.8396C20.4923 19.5682 20.4923 19.2968 20.4923 19.0254C19.1409 18.3275 18.2143 16.893 18.2143 15.2647C18.2143 12.8997 20.1062 11 22.4614 11C24.8166 11 26.7085 12.8997 26.7085 15.2647C26.7085 16.893 25.7819 18.3275 24.4305 19.0254C24.5077 19.2968 24.5077 19.5682 24.5077 19.8396Z" fill="#2D2E37"/>
            <path fill-rule="evenodd" clip-rule="evenodd" d="M22.4614 11.4802C20.3733 11.4802 18.6945 13.1631 18.6945 15.2647C18.6945 16.7092 19.5171 17.9813 20.7126 18.5987L20.9725 18.7329V20.2797L20.5341 20.318C19.6623 20.3941 18.9439 20.5164 18.4551 20.6592C18.3825 20.6804 18.3172 20.7014 18.259 20.7219C18.3049 20.7378 18.3552 20.754 18.4099 20.7704C18.8701 20.9081 19.5498 21.0301 20.3815 21.106L20.8962 21.153L20.8116 21.6629C20.6934 22.375 20.5364 23.1227 20.304 24.1343L20.3012 24.1463C20.1417 24.7668 19.7889 25.877 19.4261 26.9309C19.0662 27.9765 18.68 29.0152 18.4511 29.4748L18.4467 29.4837C18.0266 30.2851 17.5314 30.8225 17.0367 31.2731C16.8591 31.435 16.6765 31.5899 16.5024 31.7376C16.4401 31.7905 16.3789 31.8424 16.3194 31.8934C16.0887 32.0911 15.8719 32.2844 15.667 32.4989C14.3931 33.8526 13.9425 35.0061 13.8145 35.842C13.6859 36.6814 13.8765 37.2412 13.9474 37.4122L14.2231 38.0765H13.388C13.1794 38.0765 12.9802 38.259 12.9802 38.5268V39.0695C12.9802 39.3234 13.2048 39.5198 13.388 39.5198H31.612C31.8206 39.5198 32.0198 39.3373 32.0198 39.0695V38.5268C32.0198 38.2729 31.7952 38.0765 31.612 38.0765H30.8307L31.0404 37.445C31.1075 37.2428 31.2947 36.6769 31.1707 35.8396C31.0469 35.0038 30.6056 33.8513 29.333 32.4989C29.0649 32.2181 28.8021 31.9921 28.5192 31.7488C28.3431 31.5973 28.1592 31.4391 27.9613 31.2568C27.4691 30.8033 26.9755 30.2678 26.5559 29.4883L26.5523 29.4816L26.5489 29.4748C26.3201 29.0152 25.9338 27.9765 25.5739 26.9309C25.2112 25.877 24.8584 24.7667 24.699 24.1463L24.6959 24.1343C24.4634 23.1227 24.3066 22.375 24.1884 21.6629L24.1038 21.153L24.6185 21.106C25.4548 21.0296 26.1346 20.9168 26.5942 20.7837C26.6568 20.7656 26.7133 20.7476 26.7639 20.7301C26.7001 20.707 26.6272 20.6832 26.5449 20.6592C26.0561 20.5164 25.3378 20.3941 24.466 20.318L24.0275 20.2797V19.8396C24.0275 19.5584 24.0246 19.3537 23.9686 19.1568L23.8611 18.779L24.2102 18.5987C25.4057 17.9813 26.2283 16.7092 26.2283 15.2647C26.2283 13.1631 24.5495 11.4802 22.4614 11.4802ZM27.0961 20.896C27.0957 20.8961 27.0925 20.8934 27.0878 20.888C27.0942 20.8933 27.0965 20.896 27.0961 20.896ZM27.0884 20.5769C27.0923 20.5725 27.0949 20.5704 27.0952 20.5704C27.0955 20.5705 27.0936 20.5726 27.0884 20.5769ZM17.894 20.5469C17.8946 20.5468 17.8985 20.5499 17.9042 20.5563C17.8963 20.5501 17.8935 20.5469 17.894 20.5469ZM17.9122 20.888C17.9075 20.8934 17.9044 20.8961 17.9039 20.896C17.9035 20.896 17.9058 20.8933 17.9122 20.888ZM17.7341 15.2647C17.7341 12.6364 19.8391 10.5198 22.4614 10.5198C25.0837 10.5198 27.1887 12.6364 27.1887 15.2647C27.1887 16.9478 26.2997 18.4451 24.9656 19.2735C24.9706 19.3174 24.9744 19.3607 24.9775 19.4033C25.7022 19.4829 26.3336 19.5968 26.8142 19.7372C27.0972 19.8199 27.3552 19.9194 27.5529 20.0429C27.7202 20.1473 27.9996 20.3667 27.9996 20.7313C27.9996 21.0863 27.739 21.3037 27.5697 21.4114C27.3782 21.5333 27.13 21.6285 26.8614 21.7063C26.4295 21.8314 25.8689 21.9326 25.2249 22.0085C25.3266 22.5522 25.456 23.1527 25.6307 23.9131C25.781 24.4959 26.1221 25.5724 26.4821 26.6183C26.8441 27.6699 27.2086 28.6422 27.4053 29.0399C27.7571 29.6912 28.1695 30.1427 28.6121 30.5504C28.7592 30.6859 28.9214 30.8261 29.0896 30.9713C29.4019 31.2411 29.7347 31.5286 30.0289 31.8369L30.0312 31.8393C31.4217 33.3166 31.9647 34.6449 32.1208 35.6989C32.214 36.3279 32.1667 36.8427 32.0949 37.2114C32.6073 37.4198 32.9802 37.9442 32.9802 38.5268V39.0695C32.9802 39.8098 32.4072 40.4803 31.612 40.4803H13.388C12.6446 40.4803 12.0198 39.8237 12.0198 39.0695V38.5268C12.0198 37.9526 12.3644 37.4206 12.8901 37.2106C12.8132 36.8344 12.7695 36.3204 12.8651 35.6965C13.0266 34.6425 13.5796 33.3152 14.9689 31.8393L14.9711 31.8369C15.21 31.5867 15.4561 31.3683 15.6944 31.1641C15.7617 31.1064 15.8276 31.0505 15.8926 30.9954C16.0625 30.8512 16.2258 30.7127 16.3899 30.5631C16.8306 30.1617 17.2419 29.7116 17.5935 29.0423C17.79 28.646 18.1552 27.672 18.5179 26.6183C18.8779 25.5725 19.2191 24.4959 19.3693 23.9131C19.5441 23.1522 19.6736 22.5514 19.7754 22.0074C19.1279 21.9285 18.5665 21.8198 18.1345 21.6905C17.8661 21.6102 17.6218 21.5144 17.4343 21.3976C17.2826 21.303 17.0005 21.091 17.0005 20.7313C17.0005 20.3667 17.2798 20.1473 17.4472 20.0429C17.6448 19.9194 17.9029 19.8199 18.1858 19.7372C18.6641 19.5975 19.2918 19.484 20.0121 19.4044V19.307C18.6475 18.4859 17.7341 16.9708 17.7341 15.2647Z" fill="white"/>
        </g>
        <g id="pointer" transform="translate(0, 45)" fill="#000000" stroke-linecap="round" stroke-width="1.5">
            <path d="M23.1628 19.7828C23.1628 20.3006 22.743 20.7203 22.2253 20.7203C21.7075 20.7203 21.2878 20.3006 21.2878 19.7828V15.7662C21.2878 14.9032 20.5882 14.2037 19.7253 14.2037C18.8623 14.2037 18.1628 14.9033 18.1628 15.7662V20.7203C18.1628 21.2381 17.743 21.6578 17.2253 21.6578C16.7075 21.6578 16.2878 21.2381 16.2878 20.7203V17.7399C16.2878 16.8769 15.5882 16.1774 14.7253 16.1774C13.8623 16.1774 13.1628 16.8769 13.1628 17.7399V21.6578C13.1628 22.1756 12.743 22.5953 12.2253 22.5953C11.7075 22.5953 11.2878 22.1756 11.2878 21.6578V20.8026C11.2878 19.9396 10.5882 19.2401 9.72528 19.2401C8.86233 19.2401 8.16278 19.9396 8.16278 20.8026V29.2245C8.16278 32.5246 8.7636 35.7971 9.93585 38.8819L10.7686 41.0734C10.9525 41.5574 10.7093 42.0989 10.2253 42.2828C9.74128 42.4667 9.19982 42.2235 9.0159 41.7395L8.18313 39.548C6.93003 36.2504 6.28778 32.7521 6.28778 29.2245V20.8026C6.28778 18.9041 7.8268 17.3651 9.72528 17.3651C10.2879 17.3651 10.819 17.5002 11.2878 17.7399C11.2878 15.8414 12.8268 14.3024 14.7253 14.3024C15.3488 14.3024 15.9336 14.4684 16.4378 14.7587C16.8684 13.3518 18.1774 12.3287 19.7253 12.3287C21.6238 12.3287 23.1628 13.8677 23.1628 15.7662V19.7828Z" fill="#161622"/>
            <path d="M37.2067 23.8119C37.9064 22.3158 37.1412 20.5446 35.5723 20.0285C34.5912 19.7058 33.5121 19.959 32.7769 20.6845L28.1628 25.2379L28.1628 7.48019C28.1628 5.58172 26.6238 4.04269 24.7253 4.04269C22.8268 4.04269 21.3125 5.58176 21.3125 7.48024V12.7163C22.4121 13.2897 23.1628 14.4403 23.1628 15.7662L23.1875 7.48024C23.1875 6.61729 23.8623 5.91769 24.7253 5.91769C25.5882 5.91769 26.2878 6.61725 26.2878 7.48019V25.2379C26.2878 26.9024 28.2951 27.7416 29.4798 26.5725L34.0939 22.019C34.3287 21.7874 34.6732 21.7066 34.9864 21.8096C35.4873 21.9744 35.7316 22.5399 35.5082 23.0175L32.1543 30.1888C31.0003 32.6562 29.5873 34.994 27.9391 37.1627L25.0461 40.9692C24.7328 41.3814 24.8131 41.9695 25.2253 42.2828C25.6375 42.5961 26.2257 42.5159 26.5389 42.1037L29.4319 38.2972C31.1605 36.0227 32.6424 33.5709 33.8527 30.9831L37.2067 23.8119Z" fill="#161622"/>
        </g>
        <g id="trash" transform="translate(0, 45)" fill="#000000" stroke-linecap="round" stroke-width="1.5">
            <path fill-rule="evenodd" clip-rule="evenodd" d="M22.0625 6.125C21.3166 6.125 20.6012 6.42132 20.0738 6.94876C19.5463 7.47621 19.25 8.19158 19.25 8.9375V9.875H26.75V8.9375C26.75 8.19158 26.4537 7.47621 25.9262 6.94876C25.3988 6.42132 24.6834 6.125 23.9375 6.125H22.0625ZM28.625 9.875V8.9375C28.625 7.6943 28.1311 6.50201 27.2521 5.62294C26.373 4.74386 25.1807 4.25 23.9375 4.25H22.0625C20.8193 4.25 19.627 4.74386 18.7479 5.62294C17.8689 6.50201 17.375 7.6943 17.375 8.9375V9.875H8.9375C8.41973 9.875 8 10.2947 8 10.8125C8 11.3303 8.41973 11.75 8.9375 11.75H9.95878L12.5122 38.0681C12.6116 39.0931 13.4731 39.875 14.5028 39.875H31.3403C32.3656 39.875 33.2248 39.0997 33.3298 38.0799L36.0412 11.75H37.0625C37.5803 11.75 38 11.3303 38 10.8125C38 10.2947 37.5803 9.875 37.0625 9.875H28.625ZM34.158 11.75H11.842L14.3071 37.0968C14.3569 37.6092 14.7876 38 15.3024 38H30.5358C31.0482 38 31.4776 37.6127 31.5305 37.1031L34.158 11.75Z" fill="#161622"/>
        </g>
        <g id="marker1" transform="translate(0, 90)" >
        </g>
        <g id="marker2" transform="translate(0, 90)" fill="none" stroke-width="2">
            <rect x="2.5" y="2.5" width="40" height="40" rx="2" />
        </g>
    </g>
</svg>