<?xml version="1.0" encoding="UTF-8"?>

<svg width="260px" height="120px" viewBox="0 0 260 120" version="1.1" xmlns="http://www.w3.org/2000/svg" >
    <title>chessbord pieces and markers sprite</title>
    <g id="Sprite" stroke="none" stroke-width="1" fill="none">
        <g id="wk" fill="none" stroke-width="1.5" stroke-linecap="round" transform="translate(0, 0)" stroke-linejoin="round">
            <g clip-path="url(#clip0)">
                <path fill-rule="evenodd" clip-rule="evenodd" d="M32.5 33C32.5 33 38.4999 26.8311 38.4999 22C38.4999 19.8383 37.6371 18.0281 36 17C34.0711 15.7881 30.9086 15.8818 28.5 17.4285C26.9891 18.3988 25.6382 19.6948 24.5 21.5C23.0839 23.7414 22.5 25.8857 22.5 28C22.5 25.8857 21.9142 23.7414 20.5 21.5C19.3619 19.6951 18.0105 18.3988 16.5 17.4285C14.0914 15.8813 10.9297 15.788 9 17C7.36383 18.0281 6.5 20 6.5 22C6.5 26.8308 12.5 33 12.5 33" fill="white"/>
                <path d="M28.5 17.4285C26.9891 18.3988 25.6382 19.6948 24.5 21.5C23.0839 23.7414 22.5 25.8857 22.5 28C22.5 25.8857 21.9142 23.7414 20.5 21.5C19.3619 19.6951 18.0105 18.3988 16.5 17.4285C17.4573 14.1978 19.673 12 22.5 12C25.325 12 27.5427 14.1981 28.5 17.4285Z" fill="white"/>
                <path fill-rule="evenodd" clip-rule="evenodd" d="M23.5668 12.1083V8.5H26.5V6.5H23.5V3.5H21.5V6.5H18.5V8.5H21.5V12.1083" fill="white"/>
                <path fill-rule="evenodd" clip-rule="evenodd" d="M953.5 -390C953.5 -392.5 952 -396 949.5 -396C941.885 -396 941.115 -396 933.5 -396C931 -396 929.5 -392.5 929.5 -390H953.5Z" fill="white"/>
                <path d="M-908 333H-808V433H-908V333Z" fill="white"/>
                <path d="M-908 333H-808V433H-908V333Z" fill="white"/>
                <path fill-rule="evenodd" clip-rule="evenodd" d="M34.5 39C34.5 36.5 33.5 33 32.5 33C24.8848 33 20.1152 33 12.5 33C11.5 33 10.5 36.5 10.5 39H34.5Z" fill="white"/>
                <path fill-rule="evenodd" clip-rule="evenodd" d="M930.13 -394.188C930.857 -395.444 931.99 -396.5 933.5 -396.5H949.5C951.01 -396.5 952.143 -395.444 952.87 -394.188C953.603 -392.922 954 -391.335 954 -390V-389.5H929V-390C929 -391.335 929.397 -392.922 930.13 -394.188ZM949.5 -395.5H933.5C932.51 -395.5 931.643 -394.806 930.995 -393.687C930.443 -392.733 930.104 -391.553 930.02 -390.5H952.98C952.896 -391.553 952.557 -392.733 952.005 -393.687C951.357 -394.806 950.49 -395.5 949.5 -395.5ZM21 3H24V6H27V9H24.0668V11.7151C26.2377 12.33 27.8978 14.2119 28.7823 16.6832C31.2435 15.3644 34.295 15.3383 36.266 16.5766C38.0773 17.7141 38.9999 19.7032 38.9999 22C38.9999 24.5838 37.4138 27.4462 35.9098 29.5981C35.1478 30.6884 34.3867 31.6239 33.8165 32.2867C33.6204 32.5146 33.4467 32.7107 33.3027 32.87C33.4343 32.9992 33.5514 33.1533 33.6558 33.3169C33.9233 33.736 34.1578 34.2977 34.3518 34.9119C34.7408 36.1438 35 37.6945 35 39V39.5H10V39C10 37.6945 10.2592 36.1438 10.6482 34.9119C10.8422 34.2977 11.0767 33.736 11.3442 33.3169C11.4487 33.1533 11.5657 32.9992 11.6973 32.87C11.5534 32.7106 11.3796 32.5146 11.1835 32.2867C10.6132 31.6238 9.85223 30.6883 9.09015 29.598C7.58612 27.446 6 24.5836 6 22C6 19.8723 6.91833 17.7175 8.73407 16.5766C10.7057 15.3382 13.7566 15.364 16.2177 16.6831C17.1111 14.1862 18.7952 12.2911 21 11.6964V9H18V6H21V3ZM22 11.521C22.1644 11.5071 22.3311 11.5 22.5 11.5C22.6919 11.5 22.8809 11.5092 23.0668 11.5271V8H26V7H23V4H22V7H19V8H22V11.521ZM17.0899 17.2195C18.5317 18.2034 19.8254 19.4927 20.9229 21.2333C21.6465 22.3801 22.1628 23.5073 22.4996 24.6221C22.8362 23.5073 23.3525 22.3801 24.0771 21.2333C25.1748 19.4924 26.468 18.2034 27.91 17.2195C26.9398 14.3145 24.925 12.5 22.5 12.5C20.0731 12.5 18.0599 14.3141 17.0899 17.2195ZM23 28H22C22 25.9864 21.4444 23.9339 20.0771 21.7667C18.979 20.0252 17.6802 18.7809 16.2298 17.8492C13.9541 16.3874 11.0032 16.3322 9.26593 17.4234C7.80939 18.3387 7 20.1277 7 22C7 24.2472 8.41388 26.8847 9.90985 29.0251C10.6478 30.081 11.3868 30.9896 11.9415 31.6345C12.2187 31.9567 12.4493 32.2123 12.61 32.3867C12.6494 32.4294 12.6844 32.4673 12.715 32.5H32.285C32.3156 32.4673 32.3507 32.4294 32.39 32.3867C32.5507 32.2123 32.7813 31.9567 33.0585 31.6346C33.6132 30.9897 34.3522 30.0811 35.0901 29.0252C36.5861 26.8849 37.9999 24.2473 37.9999 22C37.9999 19.9736 37.1969 18.342 35.734 17.4234C33.9976 16.3324 31.0459 16.3878 28.7702 17.8492C27.3193 18.7809 26.0212 20.0249 24.9229 21.7667C23.554 23.9334 23 25.9861 23 28ZM12.5086 33.5C12.5005 33.5031 12.4791 33.5132 12.4434 33.5424C12.3759 33.5976 12.2879 33.697 12.1871 33.8549C11.9858 34.1703 11.7828 34.6398 11.6018 35.2131C11.2899 36.2008 11.0677 37.417 11.0131 38.5H33.9869C33.9323 37.417 33.7101 36.2008 33.3982 35.2131C33.2172 34.6398 33.0142 34.1703 32.8129 33.8549C32.7121 33.697 32.6241 33.5976 32.5566 33.5424C32.5209 33.5132 32.4995 33.5031 32.4914 33.5H12.5086ZM-908.5 332.5H-807.5V433.5H-908.5V332.5ZM-907.5 333.5V432.5H-808.5V333.5H-907.5Z" fill="#2D2E37"/>
            </g>
            <defs>
                <clipPath id="clip0">
                    <rect width="45" height="45" fill="white"/>
                </clipPath>
            </defs>
        </g>
        <g id="wq" fill="none" stroke-linecap="round" stroke-linejoin="round" transform="translate(45.000000, 0)" >
            <path fill-rule="evenodd" clip-rule="evenodd" d="M32.5 33L37.0659 14.24C38.0292 14.3981 38.9992 13.8612 39.3623 12.9079C39.7742 11.8157 39.2305 10.5935 38.1496 10.1761C37.0659 9.75869 35.8531 10.3081 35.4393 11.4003C35.079 12.3536 35.4489 13.4053 36.2717 13.9345L30.2338 23.5V11.0475C31.2076 11.0214 32.0639 10.3178 32.2474 9.31238C32.4538 8.16144 31.6979 7.06255 30.5588 6.84952C29.4167 6.64227 28.3273 7.40378 28.1199 8.55569C27.9383 9.56108 28.4926 10.5269 29.3957 10.8952L25.5 22.5L22.9708 9.68543C23.9264 9.48975 24.6422 8.63473 24.6422 7.61296C24.6422 6.4437 23.7038 5.5 22.5455 5.5C21.3882 5.5 20.4478 6.4437 20.4478 7.61296C20.4478 8.63473 21.1655 9.48975 22.1202 9.68543L19.5 22.5L15.6026 10.8952C16.5066 10.5269 17.0619 9.56108 16.8813 8.55569C16.6729 7.40378 15.5797 6.64227 14.4424 6.84952C13.3004 7.06255 12.5464 8.16144 12.7518 9.31238C12.9325 10.3178 13.7887 11.0214 14.7654 11.0475L14.4424 23.5L8.72753 13.9345C9.54941 13.4053 9.91734 12.3536 9.55801 11.4003C9.14516 10.3081 7.93337 9.75869 6.85252 10.1761C5.76784 10.5935 5.22598 11.8157 5.63787 12.9079C6.00102 13.8612 6.97006 14.3981 7.93242 14.24L12.5 33" fill="white"/>
            <path fill-rule="evenodd" clip-rule="evenodd" d="M34.5 38.5C34.5 36 33.5 32.5 32.5 32.5C24.8847 32.5 20.1152 32.5 12.5 32.5C11.5 32.5 10.5 36 10.5 38.5H34.5Z" fill="white"/>
            <path fill-rule="evenodd" clip-rule="evenodd" d="M19.9478 7.61296C19.9478 6.17043 21.1092 5 22.5455 5C23.9832 5 25.1422 6.17088 25.1422 7.61296C25.1422 8.69672 24.4882 9.633 23.548 10.0279L25.6257 20.5545L28.7862 11.1396C27.9224 10.5846 27.4335 9.5431 27.6278 8.46683C27.8837 7.04651 29.2307 6.10034 30.648 6.35755L30.6507 6.35803C32.0623 6.62203 32.994 7.98185 32.7396 9.40065L32.7393 9.40215C32.5438 10.4733 31.7288 11.2689 30.7338 11.4878V21.7711L35.6098 14.0463C34.8736 13.3411 34.5885 12.2373 34.9716 11.2235C35.4823 9.8758 36.9833 9.19107 38.3293 9.70948C39.6688 10.2267 40.338 11.7377 39.8302 13.0843L39.8296 13.0859C39.4397 14.1093 38.4816 14.7468 37.4522 14.767L33.1922 32.2704C33.3696 32.4161 33.5229 32.6088 33.6558 32.8169C33.9233 33.236 34.1578 33.7977 34.3518 34.4119C34.7408 35.6438 35 37.1946 35 38.5V39H10V38.5C10 37.1946 10.2592 35.6438 10.6482 34.4119C10.8422 33.7977 11.0767 33.236 11.3441 32.8169C11.477 32.6088 11.6304 32.4161 11.8078 32.2704L7.5461 14.767C6.51745 14.7466 5.56032 14.1089 5.17062 13.0859L5.17003 13.0843C4.6623 11.7381 5.32874 10.2268 6.67269 9.70953C8.01653 9.19077 9.51634 9.87602 10.0257 11.2235C10.4089 12.2401 10.1226 13.3486 9.38123 14.0538L13.9873 21.7633L14.2539 11.4855C13.2622 11.2633 12.4517 10.4696 12.2597 9.40079C12.0065 7.9826 12.9356 6.62196 14.3507 6.35799L14.3528 6.35762C15.7656 6.10014 17.1164 7.04653 17.3733 8.4667C17.5667 9.54311 17.0768 10.585 16.2122 11.1398L19.3824 20.5793L21.5401 10.0265C20.6021 9.63104 19.9478 8.69596 19.9478 7.61296ZM12.5086 33C12.5005 33.0031 12.4791 33.0132 12.4434 33.0424C12.3758 33.0976 12.2879 33.197 12.1871 33.355C11.9858 33.6703 11.7828 34.1398 11.6018 34.7131C11.2899 35.7008 11.0677 36.917 11.0131 38H33.9869C33.9323 36.917 33.7101 35.7008 33.3982 34.7131C33.2172 34.1398 33.0142 33.6703 32.8129 33.355C32.7121 33.197 32.6241 33.0976 32.5566 33.0424C32.5209 33.0132 32.4995 33.0031 32.4913 33H12.5086ZM12.7711 32L8.52913 14.5773L14.8975 25.2367L15.2556 11.4325L19.6176 24.4207L22.5443 10.1071L25.3743 24.4455L29.7338 11.4591V25.2289L36.4767 14.5465L32.2288 32H12.7711ZM36.8208 13.6931L37.1468 13.7466C37.8774 13.8665 38.6166 13.4596 38.8947 12.7308C39.2102 11.8934 38.7916 10.96 37.9696 10.6425C37.1484 10.3265 36.2241 10.7408 35.907 11.577M36.8208 13.6931L36.5422 13.5139C35.9146 13.1103 35.6318 12.3059 35.907 11.577M29.8894 10.5565L30.2205 10.5477C30.9611 10.5279 31.6146 9.99234 31.7554 9.22361C31.9133 8.34115 31.3339 7.50387 30.4681 7.34124C29.602 7.18481 28.7709 7.76138 28.612 8.64428C28.4729 9.41449 28.8976 10.1521 29.5845 10.4322L29.8894 10.5565ZM22.5453 9.26217L22.8705 9.19559C23.5932 9.0476 24.1422 8.39753 24.1422 7.61296C24.1422 6.71651 23.4243 6 22.5455 6C21.6672 6 20.9478 6.71696 20.9478 7.61296C20.9478 8.39697 21.4982 9.04754 22.2206 9.19561L22.5453 9.26217ZM15.1087 10.5564L15.414 10.4321C16.102 10.1519 16.5274 9.41429 16.3892 8.64429C16.2293 7.76122 15.3942 7.18489 14.5331 7.34122C13.6647 7.50376 13.0864 8.34105 13.244 9.22436C13.3821 9.99164 14.0344 10.5278 14.7787 10.5477L15.1087 10.5564ZM8.17931 13.6928L8.45684 13.5141C9.08295 13.1109 9.36526 12.3069 9.09023 11.5769C8.77386 10.7403 7.85036 10.3267 7.03263 10.6425C6.20765 10.96 5.78993 11.8929 6.10541 12.7307C6.38362 13.4599 7.12215 13.8664 7.85137 13.7467L8.17931 13.6928Z" fill="#2D2E37"/>
        </g>
        <g id="wb" fill="none" stroke-linecap="round" stroke-linejoin="round" transform="translate(90.000000, 0)" stroke-width="1.5">
            <path fill-rule="evenodd" clip-rule="evenodd" d="M28.9999 27.5C31.02 25.5914 32.9999 23.5733 32.9999 21C32.9999 14.6977 22.4999 8.5 22.4999 8.5C22.4999 8.5 11.9999 14.6977 11.9999 21C11.9999 23.5733 13.9798 25.5914 15.9999 27.5" fill="white"/>
            <path fill-rule="evenodd" clip-rule="evenodd" d="M25.4999 18.4417H23.4736V16.4417H21.4999V18.4417H19.4999V20.4417H21.4999V22.4417H23.4999V20.4417H25.4999V18.4417Z" fill="white"/>
            <path fill-rule="evenodd" clip-rule="evenodd" d="M30.4999 32.5H14.4999L15.9999 27.5H28.9999L30.4999 32.5Z" fill="white"/>
            <path fill-rule="evenodd" clip-rule="evenodd" d="M24.9999 5.9995C24.9999 4.61864 23.8807 3.5 22.4984 3.5C21.1171 3.5 19.9999 4.61864 19.9999 5.9995C19.9999 7.37936 21.1171 8.5 22.4984 8.5C23.8807 8.5 24.9999 7.37936 24.9999 5.9995Z" fill="white"/>
            <path fill-rule="evenodd" clip-rule="evenodd" d="M34.4999 38.5C34.4999 36 32.9999 32.5 30.4999 32.5C22.8847 32.5 22.1152 32.5 14.4999 32.5C12 32.5 10.4999 36 10.4999 38.5H34.4999Z" fill="white"/>
            <path fill-rule="evenodd" clip-rule="evenodd" d="M19.4999 5.9995C19.4999 4.34282 20.8407 3 22.4984 3C24.1566 3 25.4999 4.34217 25.4999 5.9995C25.4999 7.19977 24.7944 8.23645 23.7745 8.7161C23.9696 8.84504 24.1878 8.9919 24.4246 9.15538C25.4203 9.8427 26.7502 10.8271 28.0824 12.0132C29.4126 13.1975 30.7582 14.5947 31.7745 16.1095C32.7884 17.6209 33.4999 19.2874 33.4999 21C33.4999 22.4226 32.9508 23.6696 32.1667 24.7865C31.4444 25.8154 30.5037 26.7601 29.5673 27.6511L30.8787 32.0226C32.2004 32.182 33.2054 33.1638 33.8701 34.312C34.6031 35.578 34.9999 37.1648 34.9999 38.5V39H9.99994V38.5C9.99994 37.1648 10.3968 35.578 11.1298 34.312C11.7945 33.1638 12.7995 32.182 14.1211 32.0226L15.4326 27.6511C14.4962 26.7601 13.5555 25.8154 12.8332 24.7865C12.0491 23.6696 11.4999 22.4226 11.4999 21C11.4999 19.2874 12.2114 17.6209 13.2253 16.1095C14.2416 14.5947 15.5873 13.1975 16.9174 12.0132C18.2496 10.8271 19.5796 9.8427 20.5753 9.15538C20.8117 8.99213 21.0296 8.84547 21.2245 8.71666C20.2048 8.23715 19.4999 7.19986 19.4999 5.9995ZM22.6294 7.99579L22.4999 7.9194L22.3702 7.99595C21.3256 7.92979 20.4999 7.06086 20.4999 5.9995C20.4999 4.89447 21.3936 4 22.4984 4C23.6049 4 24.4999 4.89512 24.4999 5.9995C24.4999 7.05939 23.6743 7.92836 22.6294 7.99579ZM22.4999 9.08578C22.4464 9.11909 22.3849 9.15757 22.3162 9.20106C22.034 9.37976 21.6294 9.64282 21.1434 9.97834C20.1703 10.65 18.8752 11.609 17.5824 12.7601C16.2876 13.9129 15.0082 15.2469 14.0558 16.6666C13.1009 18.0899 12.4999 19.5615 12.4999 21C12.4999 22.1506 12.9407 23.1993 13.6516 24.212C14.3326 25.182 15.2406 26.0903 16.1991 27H28.8008C29.7593 26.0903 30.6673 25.182 31.3483 24.212C32.0591 23.1993 32.4999 22.1506 32.4999 21C32.4999 19.5615 31.8989 18.0899 30.9441 16.6666C29.9916 15.2469 28.7123 13.9129 27.4174 12.7601C26.1246 11.609 24.8296 10.65 23.8565 9.97835C23.3705 9.64282 22.9659 9.37976 22.6836 9.20106C22.6149 9.15757 22.5535 9.11909 22.4999 9.08578ZM28.6279 28H16.372L15.172 32H29.8279L28.6279 28ZM20.9999 15.9417H23.9736V17.9417H25.9999V20.9417H23.9999V22.9417H20.9999V20.9417H18.9999V17.9417H20.9999V15.9417ZM21.9999 16.9417V18.9417H19.9999V19.9417H21.9999V21.9417H22.9999V19.9417H24.9999V18.9417H22.9736V16.9417H21.9999ZM11.0203 38H33.9795C33.8959 36.9472 33.5573 35.7675 33.0047 34.813C32.3566 33.6935 31.4902 33 30.4999 33H14.4999C13.5097 33 12.6433 33.6935 11.9952 34.813C11.4426 35.7675 11.104 36.9472 11.0203 38Z" fill="#2D2E37"/>
        </g>
        <g id="wn" fill="none" stroke-linecap="round" stroke-linejoin="round" transform="translate(135.000000, 0)" >
            <path fill-rule="evenodd" clip-rule="evenodd" d="M37.5 38.5C37.4325 36.617 36.4004 32.5 34.5 32.5C27.4705 32.5 24.5294 32.5 17.5 32.5C15.5995 32.5 14.5684 36.617 14.5 38.5H37.5Z" fill="white"/>
            <path fill-rule="evenodd" clip-rule="evenodd" d="M23.3387 18.3967C23.3387 18.3967 23.9352 21.6649 21.3537 23.9452C19.231 25.8187 17.3838 25.796 17.3838 25.796L12.5 31.5L11.279 30.7674L7.49997 28.5L12.6198 17.3376L13.1479 14.5643L16 12.6153L17.9793 11.2628L18.5 9.5L19 6.5L21.4535 11.1642C21.4535 11.1642 26.8054 12.3522 31.1733 19.5847C33.7519 23.8551 34 28 34.5 32.5" fill="white"/>
            <path d="M17.5 32.5C24.5294 32.5 27.4705 32.5 34.5 32.5C34 28 33.7519 23.8551 31.1733 19.5847C26.8054 12.3522 21.4535 11.1642 21.4535 11.1642L19 6.5L18.5 9.5L17.9793 11.2628L16 12.6153L13.1479 14.5643L12.6198 17.3376L7.49997 28.5L11.279 30.7674L12.5 31.5L17.3838 25.796C17.3838 25.796 19.231 25.8187 21.3537 23.9452C21.4772 23.8361 21.5934 23.7248 21.7027 23.6117C23 28 18 28 17.5 32.5Z" fill="white"/>
            <path d="M16 12.6153L17.9793 11.2628L18.5 9.5L16.5 7.5L16 12.6153Z" fill="white"/>
            <path fill-rule="evenodd" clip-rule="evenodd" d="M17.0831 16.8381C17.0831 16.8381 17.3585 18.1712 16.6956 19.1099C16.0327 20.0504 14.6831 20.242 14.6831 20.242C14.6831 20.242 14.4086 18.9079 15.0725 17.9702C15.7354 17.0287 17.0831 16.8381 17.0831 16.8381Z" fill="white"/>
            <path fill-rule="evenodd" clip-rule="evenodd" d="M11.096 26.116C11.4293 26.3085 11.4512 26.885 11.1482 27.4074C10.8471 27.926 10.3324 28.1944 9.99997 28C9.66851 27.8085 9.64476 27.2339 9.94678 26.7096C10.2488 26.189 10.7636 25.9226 11.096 26.116Z" fill="white"/>
            <path fill-rule="evenodd" clip-rule="evenodd" d="M18.751 4.95264L21.7943 10.7382C21.8077 10.7421 21.8216 10.7463 21.836 10.7506C22.0034 10.801 22.2426 10.8801 22.5411 10.9976C23.1381 11.2326 23.9727 11.6213 24.9442 12.2407C26.8892 13.4807 29.3752 15.6403 31.6013 19.3262C34.0218 23.3349 34.4398 27.2465 34.8733 31.3035C34.9001 31.5543 34.927 31.8058 34.9544 32.0578C35.4228 32.1791 35.8172 32.4793 36.1365 32.8426C36.5542 33.3178 36.889 33.9494 37.1518 34.6088C37.6775 35.9277 37.9639 37.4844 37.9996 38.4821L38.0182 39H13.9815L14.0003 38.4819C14.0365 37.4843 14.3229 35.9277 14.8484 34.6088C15.1112 33.9495 15.4459 33.3179 15.8635 32.8427C16.1857 32.476 16.5844 32.1737 17.0584 32.0545C17.407 30.0478 18.6203 28.8967 19.634 27.9349C19.7343 27.8397 19.8326 27.7464 19.9279 27.6543C20.5013 27.1006 20.953 26.6088 21.2039 26.0223C21.374 25.6249 21.4614 25.1592 21.3941 24.5668C20.385 25.3911 19.4427 25.8239 18.7226 26.0502C18.329 26.1739 18.0032 26.2354 17.7708 26.266C17.7173 26.2731 17.6687 26.2784 17.6254 26.2826L12.605 32.1461L6.85886 28.6985L12.14 17.1844L12.6953 14.2679L15.525 12.3343L16.1053 6.39822L18.1665 8.45944L18.751 4.95264ZM17.9362 9.64341L16.8946 8.60181L16.6017 11.5985L17.5502 10.9505L17.9362 9.64341ZM21.0227 23.5705C20.0179 24.4573 19.0883 24.8871 18.4228 25.0962C18.0893 25.201 17.8206 25.2508 17.6404 25.2746C17.5502 25.2864 17.4823 25.2917 17.4395 25.2941C17.4182 25.2953 17.4031 25.2957 17.3947 25.2959L17.3874 25.296L17.1561 25.2932L12.3949 30.8539L11.9899 30.6109L13.9135 27.7811L13.0864 27.2189L11.1311 30.0956L8.14106 28.3016L13.0996 17.4908L13.6004 14.8606L18.4083 11.5752L18.9881 9.61235L19.249 8.04739L21.1188 11.6021L21.3439 11.6521L21.3451 11.6523L21.352 11.654C21.3593 11.6557 21.3717 11.6588 21.3888 11.6632C21.4231 11.6722 21.4766 11.6868 21.5478 11.7082C21.6902 11.751 21.9033 11.8212 22.1748 11.9281C22.7177 12.1418 23.4942 12.5022 24.4066 13.0839C26.2295 14.246 28.6034 16.2967 30.7453 19.8431C33.0462 23.6537 33.443 27.3509 33.8809 31.4308C33.9012 31.6197 33.9215 31.8094 33.9422 32H18.0877C18.4223 30.4736 19.3635 29.5758 20.3358 28.6484C20.4313 28.5573 20.5271 28.4659 20.6227 28.3736C21.1997 27.8163 21.786 27.204 22.1233 26.4157C22.443 25.6685 22.5221 24.8083 22.2579 23.7477C23.2385 22.6384 23.6498 21.399 23.8082 20.3936C23.9012 19.8028 23.9078 19.2886 23.891 18.9202C23.8826 18.7357 23.8683 18.5868 23.8557 18.4819C23.8494 18.4295 23.8435 18.388 23.839 18.3585C23.8379 18.3513 23.8369 18.3448 23.836 18.339C23.835 18.333 23.8342 18.3278 23.8334 18.3233L23.8316 18.3127L23.831 18.3092L23.8308 18.3079C23.8307 18.3077 23.8306 18.3069 23.3387 18.3967C22.8468 18.4864 22.8468 18.4862 22.8467 18.4861L22.8472 18.4889L22.8505 18.5094C22.8535 18.5289 22.8579 18.5598 22.8628 18.6012C22.8728 18.684 22.8849 18.8082 22.8921 18.9657C22.9065 19.2814 22.9009 19.7267 22.8203 20.2381C22.669 21.1991 22.2563 22.378 21.2254 23.3825C21.1603 23.4458 21.0927 23.5086 21.0227 23.5705ZM17.5728 16.737L17.0831 16.8381L17.0131 16.3431L17.4778 16.2774L17.5728 16.737ZM17.1042 19.398C16.6929 19.9816 16.0874 20.3114 15.6239 20.4939C15.3874 20.587 15.1748 20.6469 15.0203 20.6837C14.9428 20.7022 14.8791 20.7151 14.8334 20.7236C14.8105 20.7278 14.7921 20.7309 14.7786 20.7331L14.7621 20.7357L14.7567 20.7365L14.7548 20.7368L14.7536 20.737C14.7535 20.737 14.7533 20.737 14.6831 20.242C14.1933 20.3428 14.1933 20.3426 14.1933 20.3424L14.193 20.3413L14.1927 20.3394L14.1916 20.3341L14.1885 20.3177C14.186 20.3042 14.1827 20.2858 14.179 20.2628C14.1716 20.2169 14.1623 20.1527 14.1536 20.0735C14.1362 19.9158 14.121 19.6957 14.1291 19.4418C14.1449 18.9445 14.252 18.2638 14.6644 17.6813C15.0756 17.0979 15.6802 16.7682 16.1432 16.5859C16.3795 16.4928 16.592 16.433 16.7463 16.3963C16.8237 16.3778 16.8873 16.3649 16.933 16.3565C16.9559 16.3523 16.9743 16.3491 16.9878 16.347L17.0043 16.3444L17.0097 16.3436L17.0116 16.3433L17.0131 16.3431C17.0133 16.343 17.0131 16.3431 17.0831 16.8381C17.5728 16.737 17.5727 16.7368 17.5728 16.737L17.5734 16.7403L17.5745 16.7457L17.5776 16.7621C17.5801 16.7755 17.5834 16.7939 17.5871 16.8169C17.5946 16.8627 17.604 16.927 17.6127 17.0061C17.6302 17.1637 17.6456 17.3838 17.6377 17.6376C17.6223 18.1347 17.5157 18.8151 17.1042 19.398ZM14.6831 20.242L14.1933 20.3424L14.288 20.8031L14.7536 20.737L14.6831 20.242ZM15.127 19.6118C15.1266 19.5674 15.1271 19.5213 15.1286 19.4737C15.1415 19.0695 15.2291 18.6143 15.4806 18.2591L15.4813 18.2581C15.733 17.9007 16.1332 17.6646 16.5096 17.5163C16.5541 17.4988 16.5976 17.4828 16.6397 17.4681C16.6401 17.5126 16.6397 17.5588 16.6382 17.6065C16.6256 18.0105 16.5384 18.4658 16.2872 18.8215C16.0356 19.1784 15.6346 19.415 15.2576 19.5634C15.2129 19.581 15.1692 19.5971 15.127 19.6118ZM10.7395 26.5893C10.6284 26.6467 10.4901 26.7698 10.3796 26.9599C10.2684 27.1533 10.2303 27.335 10.2354 27.459C10.2377 27.5154 10.247 27.5469 10.2542 27.5629C10.2718 27.5612 10.3045 27.5537 10.356 27.5271C10.4672 27.4695 10.6056 27.3461 10.7157 27.1566M10.7395 26.5893C10.7916 26.5624 10.8246 26.555 10.8423 26.5534L10.7395 26.5893ZM10.8423 26.5534C10.8494 26.5694 10.8589 26.601 10.8611 26.6578C10.866 26.7821 10.8273 26.9641 10.7157 27.1566M11.3474 25.6839C10.9824 25.4715 10.5791 25.5465 10.2804 25.7009C9.97563 25.8584 9.70581 26.1286 9.5143 26.4587L9.51351 26.46C9.32306 26.7907 9.22212 27.1581 9.23623 27.5002C9.25007 27.8356 9.3846 28.2213 9.74864 28.4323C10.1141 28.6453 10.5177 28.5694 10.8157 28.4151C11.1201 28.2575 11.3896 27.9875 11.5806 27.6584C11.7719 27.3286 11.8739 26.9608 11.8603 26.6182C11.847 26.2822 11.7126 25.8955 11.3474 25.6839ZM15.0384 38H36.9618C36.8685 37.1292 36.6199 35.9752 36.2229 34.979C35.9816 34.3737 35.6979 33.8584 35.3854 33.5028C35.0731 33.1475 34.7778 33 34.5 33H17.5C17.2221 33 16.9269 33.1474 16.6147 33.5027C16.3022 33.8583 16.0186 34.3737 15.7774 34.979C15.3805 35.9751 15.1319 37.1291 15.0384 38Z" fill="#2D2E37"/>
        </g>
        <g id="wr" fill="none" stroke-linecap="round" stroke-linejoin="round" transform="translate(180.000000, 0)" stroke-width="1.5">
            <path fill-rule="evenodd" clip-rule="evenodd" d="M34.5 38.5C34.5 36 33 32.5 31.5 32.5C23.8848 32.5 21.1153 32.5 13.5 32.5C12 32.5 10.5 36 10.5 38.5H34.5Z" fill="white"/>
            <path fill-rule="evenodd" clip-rule="evenodd" d="M27.5 8.5V12.5H24.5V8.5H20.5V12.5H17.5V8.5H13.5V15.5L17 18H28L31.5 15.5V8.5H27.5Z" fill="white"/>
            <path d="M13.5 32.5H31.5L28 18H17L13.5 32.5Z" fill="white"/>
            <path fill-rule="evenodd" clip-rule="evenodd" d="M13 8H18V12H20V8H25V12H27V8H32V15.7573L28.5653 18.2107L31.9072 32.0558C32.3102 32.1666 32.6663 32.4305 32.9627 32.7401C33.3636 33.1589 33.7192 33.7253 34.0144 34.3485C34.6038 35.5929 35 37.1656 35 38.5V39H10V38.5C10 37.1656 10.3962 35.5929 10.9857 34.3485C11.2808 33.7253 11.6364 33.1589 12.0373 32.7401C12.3338 32.4305 12.6898 32.1666 13.0929 32.0558L16.4348 18.2107L13 15.7573V8ZM17.3937 18.5L14.1351 32H30.865L27.6064 18.5H17.3937ZM27.8398 17.5L31 15.2427V9H28V13H24V9H21V13H17V9H14V15.2427L17.1603 17.5H27.8398ZM13.5 33C13.3227 33 13.07 33.1076 12.7596 33.4317C12.4574 33.7474 12.1567 34.2122 11.8894 34.7765C11.4283 35.7499 11.102 36.9431 11.0201 38H33.98C33.8981 36.9431 33.5717 35.7499 33.1107 34.7765C32.8433 34.2122 32.5427 33.7474 32.2404 33.4317C31.9301 33.1076 31.6773 33 31.5 33H13.5Z" fill="#2D2E37"/>
        </g>
        <g id="wp" transform="translate(225.000000, 0)" fill="#FFFFFF" stroke-linecap="round" stroke-width="1.5">
            <path fill-rule="evenodd" clip-rule="evenodd" d="M34.5 36.5C34.5 34 33 30.5 30.5 30.5C22.8848 30.5 22.1151 30.5 14.4999 30.5C12 30.5 10.5 34 10.5 36.5H34.5Z" fill="white"/>
            <path d="M28 13.5C28 15.5594 26.8681 17.3544 25.1926 18.297C24.3967 18.7446 23.4782 19 22.5 19C21.5552 19 20.6661 18.7618 19.8894 18.3421C19.8325 18.3114 19.747 18.2624 19.6913 18.2298C18.0637 17.2747 17 15.5236 17 13.5C17 10.4624 19.4624 8 22.5 8C25.5376 8 28 10.4624 28 13.5Z" fill="white"/>
            <path d="M19.6913 18.2298C19.6913 18.2298 20 21.5 18 25.5C16.7896 27.744 16.7005 28.1293 14.4999 30.5H30.5C28.3013 28.1293 28.2113 27.744 27 25.5C25 22 25.1926 18.6641 25.1926 18.6641V18.297C24.3967 18.7446 23.4782 19 22.5 19C21.5552 19 20.6661 18.7618 19.8894 18.3421C19.8325 18.3114 19.747 18.2624 19.6913 18.2298Z" fill="white"/>
            <path fill-rule="evenodd" clip-rule="evenodd" d="M22.5 8.5C19.7386 8.5 17.5 10.7386 17.5 13.5C17.5 15.3411 18.465 16.929 19.9413 17.7967L20.1315 17.9046C20.836 18.2843 21.6421 18.5 22.5 18.5C23.3901 18.5 24.2245 18.2679 24.9474 17.8612C26.472 17.0036 27.5 15.3715 27.5 13.5C27.5 10.7386 25.2614 8.5 22.5 8.5ZM19.2055 18.5172C17.5603 17.4478 16.5 15.607 16.5 13.5C16.5 10.1863 19.1863 7.5 22.5 7.5C25.8137 7.5 28.5 10.1863 28.5 13.5C28.5 15.6411 27.3783 17.5196 25.6926 18.581V18.6785L25.6918 18.6922L25.6915 18.6973L25.6906 18.7206C25.6898 18.7422 25.6888 18.776 25.6882 18.8212C25.6869 18.9115 25.6871 19.0471 25.6934 19.222C25.706 19.572 25.7428 20.078 25.8401 20.6911C26.035 21.9187 26.4712 23.5667 27.4341 25.2519L27.4401 25.2624C27.5779 25.5177 27.7001 25.7471 27.8119 25.9565C28.2001 26.6842 28.4605 27.1723 28.7957 27.6751C29.203 28.286 29.7237 28.9212 30.726 30.008C32.1233 30.1073 33.1801 31.1199 33.8702 32.312C34.6031 33.5779 35 35.1648 35 36.5V37H10V36.5C10 35.1648 10.3969 33.5779 11.1298 32.312C11.8199 31.1199 12.8768 30.1072 14.274 30.008C15.2772 28.9211 15.7981 28.286 16.2052 27.6752C16.5401 27.1727 16.8001 26.6851 17.1875 25.9583C17.2984 25.7503 17.4197 25.5227 17.5562 25.2695C18.5247 23.3304 18.9332 21.5708 19.0999 20.2998C19.1834 19.6637 19.2061 19.1507 19.2083 18.8001C19.209 18.689 19.2077 18.5943 19.2055 18.5172ZM20.2042 19.045C20.194 19.4091 20.1638 19.8779 20.0914 20.4299C19.9127 21.7925 19.4763 23.6654 18.4472 25.7236L18.4437 25.7305L18.4401 25.7373C18.3108 25.9769 18.1935 26.1971 18.0843 26.4021C17.6909 27.1404 17.4018 27.6829 17.0374 28.2298C16.6885 28.7533 16.2721 29.2796 15.6318 30H29.3688C28.7288 29.2796 28.3126 28.7533 27.9637 28.2298C27.5989 27.6826 27.3095 27.1399 26.9153 26.4009C26.807 26.1977 26.6907 25.9797 26.5628 25.7428C25.528 23.9298 25.0611 22.162 24.8525 20.8479C24.748 20.1896 24.7079 19.6428 24.6941 19.2579C24.6919 19.1972 24.6904 19.1404 24.6893 19.0879C24.0107 19.354 23.272 19.5 22.5 19.5C21.6875 19.5 20.9118 19.3382 20.2042 19.045ZM14.4999 31C13.5097 31 12.6433 31.6935 11.9952 32.813C11.4426 33.7675 11.1041 34.9472 11.0204 36H33.9796C33.8959 34.9472 33.5574 33.7675 33.0048 32.813C32.3567 31.6935 31.4903 31 30.5 31H14.4999Z" fill="#2D2E37"/>
        </g>
        <g id="bk" fill="none" stroke-linecap="round" stroke-linejoin="round" transform="translate(0, 45.000000)" stroke-width="1.5">
            <g clip-path="url(#clip0)">
                <path fill-rule="evenodd" clip-rule="evenodd" d="M32.5 33C32.5 33 38.4999 26.8311 38.4999 22C38.4999 19.8383 37.6371 18.0281 36 17C34.0711 15.7881 30.9086 15.8818 28.5 17.4285C26.9891 18.3988 25.6382 19.6948 24.5 21.5C23.0839 23.7414 22.5 25.8857 22.5 28C22.5 25.8857 21.9142 23.7414 20.5 21.5C19.3619 19.6951 18.0105 18.3988 16.5 17.4285C14.0914 15.8813 10.9297 15.788 9 17C7.36383 18.0281 6.5 20 6.5 22C6.5 26.8308 12.5 33 12.5 33" fill="#2C2F37"/>
                <path d="M28.5 17.4285C26.9891 18.3988 25.6382 19.6948 24.5 21.5C23.0839 23.7414 22.5 25.8857 22.5 28C22.5 25.8857 21.9142 23.7414 20.5 21.5C19.3619 19.6951 18.0105 18.3988 16.5 17.4285C17.4573 14.1978 19.673 12 22.5 12C25.325 12 27.5427 14.1981 28.5 17.4285Z" fill="#2C2F37"/>
                <path fill-rule="evenodd" clip-rule="evenodd" d="M23.5668 12.1083V8.5H26.5V6.5H23.5V3.5H21.5V6.5H18.5V8.5H21.5V12.1083" fill="#2C2F37"/>
                <path fill-rule="evenodd" clip-rule="evenodd" d="M953.5 -390C953.5 -392.5 952 -396 949.5 -396C941.885 -396 941.115 -396 933.5 -396C931 -396 929.5 -392.5 929.5 -390H953.5Z" fill="#2C2F37"/>
                <path d="M-908 333H-808V433H-908V333Z" fill="#2C2F37"/>
                <path d="M-908 333H-808V433H-908V333Z" fill="#2C2F37"/>
                <path fill-rule="evenodd" clip-rule="evenodd" d="M34.5 39C34.5 36.5 33.5 33 32.5 33C24.8848 33 20.1152 33 12.5 33C11.5 33 10.5 36.5 10.5 39H34.5Z" fill="#2C2F37"/>
                <path fill-rule="evenodd" clip-rule="evenodd" d="M930.13 -394.188C930.857 -395.444 931.99 -396.5 933.5 -396.5H949.5C951.01 -396.5 952.143 -395.444 952.87 -394.188C953.603 -392.922 954 -391.335 954 -390V-389.5H929V-390C929 -391.335 929.397 -392.922 930.13 -394.188ZM949.5 -395.5H933.5C932.51 -395.5 931.643 -394.806 930.995 -393.687C930.443 -392.733 930.104 -391.553 930.02 -390.5H952.98C952.896 -391.553 952.557 -392.733 952.005 -393.687C951.357 -394.806 950.49 -395.5 949.5 -395.5ZM21 3H24V6H27V9H24.0668V11.7151C26.2377 12.33 27.8978 14.2119 28.7823 16.6832C31.2435 15.3644 34.295 15.3383 36.266 16.5766C38.0773 17.7141 38.9999 19.7032 38.9999 22C38.9999 24.5838 37.4138 27.4462 35.9098 29.5981C35.1478 30.6884 34.3867 31.6239 33.8165 32.2867C33.6204 32.5146 33.4467 32.7107 33.3027 32.87C33.4343 32.9992 33.5514 33.1533 33.6558 33.3169C33.9233 33.736 34.1578 34.2977 34.3518 34.9119C34.7408 36.1438 35 37.6945 35 39V39.5H10V39C10 37.6945 10.2592 36.1438 10.6482 34.9119C10.8422 34.2977 11.0767 33.736 11.3442 33.3169C11.4487 33.1533 11.5657 32.9992 11.6973 32.87C11.5534 32.7106 11.3796 32.5146 11.1835 32.2867C10.6132 31.6238 9.85223 30.6883 9.09015 29.598C7.58612 27.446 6 24.5836 6 22C6 19.8723 6.91833 17.7175 8.73407 16.5766C10.7057 15.3382 13.7566 15.364 16.2177 16.6831C17.1111 14.1862 18.7952 12.2911 21 11.6964V9H18V6H21V3ZM22 11.521C22.1644 11.5071 22.3311 11.5 22.5 11.5C22.6919 11.5 22.8809 11.5092 23.0668 11.5271V8H26V7H23V4H22V7H19V8H22V11.521ZM17.0899 17.2195C18.5317 18.2034 19.8254 19.4927 20.9229 21.2333C21.6465 22.3801 22.1628 23.5073 22.4996 24.6221C22.8362 23.5073 23.3525 22.3801 24.0771 21.2333C25.1748 19.4924 26.468 18.2034 27.91 17.2195C26.9398 14.3145 24.925 12.5 22.5 12.5C20.0731 12.5 18.0599 14.3141 17.0899 17.2195ZM23 28H22C22 25.9864 21.4444 23.9339 20.0771 21.7667C18.979 20.0252 17.6802 18.7809 16.2298 17.8492C13.9541 16.3874 11.0032 16.3322 9.26593 17.4234C7.80939 18.3387 7 20.1277 7 22C7 24.2472 8.41388 26.8847 9.90985 29.0251C10.6478 30.081 11.3868 30.9896 11.9415 31.6345C12.2187 31.9567 12.4493 32.2123 12.61 32.3867C12.6494 32.4294 12.6844 32.4673 12.715 32.5H32.285C32.3156 32.4673 32.3507 32.4294 32.39 32.3867C32.5507 32.2123 32.7813 31.9567 33.0585 31.6346C33.6132 30.9897 34.3522 30.0811 35.0901 29.0252C36.5861 26.8849 37.9999 24.2473 37.9999 22C37.9999 19.9736 37.1969 18.342 35.734 17.4234C33.9976 16.3324 31.0459 16.3878 28.7702 17.8492C27.3193 18.7809 26.0212 20.0249 24.9229 21.7667C23.554 23.9334 23 25.9861 23 28ZM12.5086 33.5C12.5005 33.5031 12.4791 33.5132 12.4434 33.5424C12.3759 33.5976 12.2879 33.697 12.1871 33.8549C11.9858 34.1703 11.7828 34.6398 11.6018 35.2131C11.2899 36.2008 11.0677 37.417 11.0131 38.5H33.9869C33.9323 37.417 33.7101 36.2008 33.3982 35.2131C33.2172 34.6398 33.0142 34.1703 32.8129 33.8549C32.7121 33.697 32.6241 33.5976 32.5566 33.5424C32.5209 33.5132 32.4995 33.5031 32.4914 33.5H12.5086ZM-908.5 332.5H-807.5V433.5H-908.5V332.5ZM-907.5 333.5V432.5H-808.5V333.5H-907.5Z" fill="white"/>
            </g>
            <defs>
                <clipPath id="clip0">
                    <rect width="45" height="45" fill="white"/>
                </clipPath>
            </defs>
        </g>
        <g id="bq" fill="none" stroke-linecap="round" stroke-linejoin="round" transform="translate(45.000000, 45.000000)">
            <path fill-rule="evenodd" clip-rule="evenodd" d="M32.5 33L37.0659 14.24C38.0292 14.3981 38.9992 13.8612 39.3623 12.9079C39.7742 11.8157 39.2305 10.5935 38.1496 10.1761C37.0659 9.75869 35.8531 10.3081 35.4393 11.4003C35.079 12.3536 35.4489 13.4053 36.2717 13.9345L30.2338 23.5V11.0475C31.2076 11.0214 32.0639 10.3178 32.2474 9.31238C32.4538 8.16144 31.6979 7.06255 30.5588 6.84952C29.4167 6.64227 28.3273 7.40378 28.1199 8.55569C27.9383 9.56108 28.4926 10.5269 29.3957 10.8952L25.5 22.5L22.9708 9.68543C23.9264 9.48975 24.6422 8.63473 24.6422 7.61296C24.6422 6.4437 23.7038 5.5 22.5455 5.5C21.3882 5.5 20.4478 6.4437 20.4478 7.61296C20.4478 8.63473 21.1655 9.48975 22.1202 9.68543L19.5 22.5L15.6026 10.8952C16.5066 10.5269 17.0619 9.56108 16.8813 8.55569C16.6729 7.40378 15.5797 6.64227 14.4424 6.84952C13.3004 7.06255 12.5464 8.16144 12.7518 9.31238C12.9325 10.3178 13.7887 11.0214 14.7654 11.0475L14.4424 23.5L8.72753 13.9345C9.54941 13.4053 9.91734 12.3536 9.55801 11.4003C9.14516 10.3081 7.93337 9.75869 6.85252 10.1761C5.76784 10.5935 5.22598 11.8157 5.63787 12.9079C6.00102 13.8612 6.97006 14.3981 7.93242 14.24L12.5 33" fill="#2C2F37"/>
            <path fill-rule="evenodd" clip-rule="evenodd" d="M34.5 38.5C34.5 36 33.5 32.5 32.5 32.5C24.8847 32.5 20.1152 32.5 12.5 32.5C11.5 32.5 10.5 36 10.5 38.5H34.5Z" fill="#2C2F37"/>
            <path fill-rule="evenodd" clip-rule="evenodd" d="M19.9478 7.61296C19.9478 6.17043 21.1092 5 22.5455 5C23.9832 5 25.1422 6.17088 25.1422 7.61296C25.1422 8.69672 24.4882 9.633 23.548 10.0279L25.6257 20.5545L28.7862 11.1396C27.9224 10.5846 27.4335 9.5431 27.6278 8.46683C27.8837 7.04651 29.2307 6.10034 30.648 6.35755L30.6507 6.35803C32.0623 6.62203 32.994 7.98185 32.7396 9.40065L32.7393 9.40215C32.5438 10.4733 31.7288 11.2689 30.7338 11.4878V21.7711L35.6098 14.0463C34.8736 13.3411 34.5885 12.2373 34.9716 11.2235C35.4823 9.8758 36.9833 9.19107 38.3293 9.70948C39.6688 10.2267 40.338 11.7377 39.8302 13.0843L39.8296 13.0859C39.4397 14.1093 38.4816 14.7468 37.4522 14.767L33.1922 32.2704C33.3696 32.4161 33.5229 32.6088 33.6558 32.8169C33.9233 33.236 34.1578 33.7977 34.3518 34.4119C34.7408 35.6438 35 37.1946 35 38.5V39H10V38.5C10 37.1946 10.2592 35.6438 10.6482 34.4119C10.8422 33.7977 11.0767 33.236 11.3441 32.8169C11.477 32.6088 11.6304 32.4161 11.8078 32.2704L7.5461 14.767C6.51745 14.7466 5.56032 14.1089 5.17062 13.0859L5.17003 13.0843C4.6623 11.7381 5.32874 10.2268 6.67269 9.70953C8.01653 9.19077 9.51634 9.87602 10.0257 11.2235C10.4089 12.2401 10.1226 13.3486 9.38123 14.0538L13.9873 21.7633L14.2539 11.4855C13.2622 11.2633 12.4517 10.4696 12.2597 9.40079C12.0065 7.9826 12.9356 6.62196 14.3507 6.35799L14.3528 6.35762C15.7656 6.10014 17.1164 7.04653 17.3733 8.4667C17.5667 9.54311 17.0768 10.585 16.2122 11.1398L19.3824 20.5793L21.5401 10.0265C20.6021 9.63104 19.9478 8.69596 19.9478 7.61296ZM12.5086 33C12.5005 33.0031 12.4791 33.0132 12.4434 33.0424C12.3758 33.0976 12.2879 33.197 12.1871 33.355C11.9858 33.6703 11.7828 34.1398 11.6018 34.7131C11.2899 35.7008 11.0677 36.917 11.0131 38H33.9869C33.9323 36.917 33.7101 35.7008 33.3982 34.7131C33.2172 34.1398 33.0142 33.6703 32.8129 33.355C32.7121 33.197 32.6241 33.0976 32.5566 33.0424C32.5209 33.0132 32.4995 33.0031 32.4913 33H12.5086ZM12.7711 32L8.52913 14.5773L14.8975 25.2367L15.2556 11.4325L19.6176 24.4207L22.5443 10.1071L25.3743 24.4455L29.7338 11.4591V25.2289L36.4767 14.5465L32.2288 32H12.7711ZM36.8208 13.6931L37.1468 13.7466C37.8774 13.8665 38.6166 13.4596 38.8947 12.7308C39.2102 11.8934 38.7916 10.96 37.9696 10.6425C37.1484 10.3265 36.2241 10.7408 35.907 11.577M36.8208 13.6931L36.5422 13.5139C35.9146 13.1103 35.6318 12.3059 35.907 11.577M29.8894 10.5565L30.2205 10.5477C30.9611 10.5279 31.6146 9.99234 31.7554 9.22361C31.9133 8.34115 31.3339 7.50387 30.4681 7.34124C29.602 7.18481 28.7709 7.76138 28.612 8.64428C28.4729 9.41449 28.8976 10.1521 29.5845 10.4322L29.8894 10.5565ZM22.5453 9.26217L22.8705 9.19559C23.5932 9.0476 24.1422 8.39753 24.1422 7.61296C24.1422 6.71651 23.4243 6 22.5455 6C21.6672 6 20.9478 6.71696 20.9478 7.61296C20.9478 8.39697 21.4982 9.04754 22.2206 9.19561L22.5453 9.26217ZM15.1087 10.5564L15.414 10.4321C16.102 10.1519 16.5274 9.41429 16.3892 8.64429C16.2293 7.76122 15.3942 7.18489 14.5331 7.34122C13.6647 7.50376 13.0864 8.34105 13.244 9.22436C13.3821 9.99164 14.0344 10.5278 14.7787 10.5477L15.1087 10.5564ZM8.17931 13.6928L8.45684 13.5141C9.08295 13.1109 9.36526 12.3069 9.09023 11.5769C8.77386 10.7403 7.85036 10.3267 7.03263 10.6425C6.20765 10.96 5.78993 11.8929 6.10541 12.7307C6.38362 13.4599 7.12215 13.8664 7.85137 13.7467L8.17931 13.6928Z" fill="white"/>
        </g>
        <g id="bb" fill="none" stroke-linecap="round" stroke-linejoin="round" transform="translate(90.000000, 45)" stroke-width="1.5">
            <path fill-rule="evenodd" clip-rule="evenodd" d="M28.9999 27.5C31.02 25.5914 32.9999 23.5732 32.9999 21C32.9999 14.6977 22.4999 8.49998 22.4999 8.49998C22.4999 8.49998 11.9999 14.6977 11.9999 21C11.9999 23.5732 13.9798 25.5914 15.9999 27.5" fill="#2C2F37"/>
            <path fill-rule="evenodd" clip-rule="evenodd" d="M25.4999 18.4417H23.4736V16.4417H21.4999V18.4417H19.4999V20.4417H21.4999V22.4417H23.4999V20.4417H25.4999V18.4417Z" fill="#2C2F37"/>
            <path fill-rule="evenodd" clip-rule="evenodd" d="M30.4999 32.5H14.4999L15.9999 27.5H28.9999L30.4999 32.5Z" fill="#2C2F37"/>
            <path fill-rule="evenodd" clip-rule="evenodd" d="M24.9999 5.99949C24.9999 4.61863 23.8807 3.49998 22.4984 3.49998C21.1171 3.49998 19.9999 4.61863 19.9999 5.99949C19.9999 7.37935 21.1171 8.49998 22.4984 8.49998C23.8807 8.49998 24.9999 7.37935 24.9999 5.99949Z" fill="#2C2F37"/>
            <path fill-rule="evenodd" clip-rule="evenodd" d="M34.4999 38.5C34.4999 36 32.9999 32.5 30.4999 32.5C22.8847 32.5 22.1152 32.5 14.4999 32.5C12 32.5 10.4999 36 10.4999 38.5H34.4999Z" fill="#2C2F37"/>
            <path fill-rule="evenodd" clip-rule="evenodd" d="M19.4999 5.99949C19.4999 4.3428 20.8407 2.99998 22.4984 2.99998C24.1566 2.99998 25.4999 4.34215 25.4999 5.99949C25.4999 7.19976 24.7944 8.23643 23.7745 8.71608C23.9696 8.84503 24.1878 8.99188 24.4246 9.15536C25.4203 9.84269 26.7502 10.827 28.0824 12.0132C29.4126 13.1975 30.7582 14.5946 31.7745 16.1095C32.7884 17.6208 33.4999 19.2873 33.4999 21C33.4999 22.4226 32.9508 23.6696 32.1667 24.7865C31.4444 25.8154 30.5037 26.76 29.5673 27.6511L30.8787 32.0226C32.2004 32.182 33.2054 33.1638 33.8701 34.312C34.6031 35.5779 34.9999 37.1648 34.9999 38.5V39H9.99994V38.5C9.99994 37.1648 10.3968 35.5779 11.1298 34.312C11.7945 33.1638 12.7995 32.182 14.1211 32.0226L15.4326 27.6511C14.4962 26.76 13.5555 25.8154 12.8332 24.7865C12.0491 23.6696 11.4999 22.4226 11.4999 21C11.4999 19.2873 12.2114 17.6208 13.2253 16.1095C14.2416 14.5946 15.5873 13.1975 16.9174 12.0132C18.2496 10.827 19.5796 9.84269 20.5753 9.15536C20.8117 8.99212 21.0296 8.84546 21.2245 8.71664C20.2048 8.23714 19.4999 7.19984 19.4999 5.99949ZM22.6294 7.99577L22.4999 7.91938L22.3702 7.99594C21.3256 7.92978 20.4999 7.06084 20.4999 5.99949C20.4999 4.89445 21.3936 3.99998 22.4984 3.99998C23.6049 3.99998 24.4999 4.8951 24.4999 5.99949C24.4999 7.05937 23.6743 7.92834 22.6294 7.99577ZM22.4999 9.08577C22.4464 9.11907 22.3849 9.15756 22.3162 9.20105C22.034 9.37975 21.6294 9.64281 21.1434 9.97833C20.1703 10.65 18.8752 11.609 17.5824 12.76C16.2876 13.9129 15.0082 15.2469 14.0558 16.6666C13.1009 18.0899 12.4999 19.5615 12.4999 21C12.4999 22.1506 12.9407 23.1993 13.6516 24.2119C14.3326 25.1819 15.2406 26.0903 16.1991 27H28.8008C29.7593 26.0903 30.6673 25.1819 31.3483 24.2119C32.0591 23.1993 32.4999 22.1506 32.4999 21C32.4999 19.5615 31.8989 18.0899 30.9441 16.6666C29.9916 15.2469 28.7123 13.9129 27.4174 12.76C26.1246 11.609 24.8296 10.65 23.8565 9.97833C23.3705 9.64281 22.9659 9.37975 22.6836 9.20105C22.6149 9.15756 22.5535 9.11907 22.4999 9.08577ZM28.6279 28H16.372L15.172 32H29.8279L28.6279 28ZM20.9999 15.9417H23.9736V17.9417H25.9999V20.9417H23.9999V22.9417H20.9999V20.9417H18.9999V17.9417H20.9999V15.9417ZM21.9999 16.9417V18.9417H19.9999V19.9417H21.9999V21.9417H22.9999V19.9417H24.9999V18.9417H22.9736V16.9417H21.9999ZM11.0203 38H33.9795C33.8959 36.9472 33.5573 35.7675 33.0047 34.813C32.3566 33.6935 31.4902 33 30.4999 33H14.4999C13.5097 33 12.6433 33.6935 11.9952 34.813C11.4426 35.7675 11.104 36.9472 11.0203 38Z" fill="white"/>
        </g>
        <g id="bn" fill="none" stroke-linecap="round" stroke-linejoin="round" transform="translate(135.000000, 45)" >
            <path fill-rule="evenodd" clip-rule="evenodd" d="M37.5 38.5C37.4325 36.617 36.4004 32.5 34.5 32.5C27.4705 32.5 24.5294 32.5 17.5 32.5C15.5995 32.5 14.5684 36.617 14.5 38.5H37.5Z" fill="#2C2F37"/>
            <path fill-rule="evenodd" clip-rule="evenodd" d="M23.3387 18.3967C23.3387 18.3967 23.9352 21.6649 21.3537 23.9452C19.231 25.8187 17.3838 25.796 17.3838 25.796L12.5 31.5L11.279 30.7674L7.49997 28.5L12.6198 17.3376L13.1479 14.5643L16 12.6153L17.9793 11.2628L18.5 9.5L19 6.5L21.4535 11.1642C21.4535 11.1642 26.8054 12.3522 31.1733 19.5847C33.7519 23.8551 34 28 34.5 32.5" fill="#2C2F37"/>
            <path d="M17.5 32.5C24.5294 32.5 27.4705 32.5 34.5 32.5C34 28 33.7519 23.8551 31.1733 19.5847C26.8054 12.3522 21.4535 11.1642 21.4535 11.1642L19 6.5L18.5 9.5L17.9793 11.2628L16 12.6153L13.1479 14.5643L12.6198 17.3376L7.49997 28.5L11.279 30.7674L12.5 31.5L17.3838 25.796C17.3838 25.796 19.231 25.8187 21.3537 23.9452C21.4772 23.8361 21.5934 23.7248 21.7027 23.6117C23 28 18 28 17.5 32.5Z" fill="#2C2F37"/>
            <path d="M16 12.6153L17.9793 11.2628L18.5 9.5L16.5 7.5L16 12.6153Z" fill="#2C2F37"/>
            <path fill-rule="evenodd" clip-rule="evenodd" d="M17.0831 16.8381C17.0831 16.8381 17.3585 18.1712 16.6956 19.1099C16.0327 20.0504 14.6831 20.242 14.6831 20.242C14.6831 20.242 14.4086 18.9079 15.0725 17.9702C15.7354 17.0287 17.0831 16.8381 17.0831 16.8381Z" fill="#2C2F37"/>
            <path fill-rule="evenodd" clip-rule="evenodd" d="M11.096 26.116C11.4293 26.3085 11.4512 26.885 11.1482 27.4074C10.8471 27.926 10.3324 28.1944 9.99997 28C9.66851 27.8085 9.64476 27.2339 9.94678 26.7096C10.2488 26.189 10.7636 25.9226 11.096 26.116Z" fill="#2C2F37"/>
            <path fill-rule="evenodd" clip-rule="evenodd" d="M18.751 4.95262L21.7943 10.7382C21.8077 10.7421 21.8216 10.7462 21.836 10.7506C22.0034 10.801 22.2426 10.8801 22.5411 10.9976C23.1381 11.2326 23.9727 11.6213 24.9442 12.2407C26.8892 13.4807 29.3752 15.6403 31.6013 19.3262C34.0218 23.3349 34.4398 27.2465 34.8733 31.3034C34.9001 31.5543 34.927 31.8058 34.9544 32.0578C35.4228 32.1791 35.8172 32.4793 36.1365 32.8426C36.5542 33.3178 36.889 33.9494 37.1518 34.6088C37.6775 35.9277 37.9639 37.4843 37.9996 38.4821L38.0182 39H13.9815L14.0003 38.4819C14.0365 37.4843 14.3229 35.9277 14.8484 34.6088C15.1112 33.9495 15.4459 33.3179 15.8635 32.8427C16.1857 32.4759 16.5844 32.1736 17.0584 32.0545C17.407 30.0478 18.6203 28.8966 19.634 27.9348C19.7343 27.8397 19.8326 27.7464 19.9279 27.6543C20.5013 27.1006 20.953 26.6088 21.2039 26.0223C21.374 25.6249 21.4614 25.1591 21.3941 24.5668C20.385 25.3911 19.4427 25.8239 18.7226 26.0502C18.329 26.1739 18.0032 26.2354 17.7708 26.266C17.7173 26.273 17.6687 26.2784 17.6254 26.2826L12.605 32.1461L6.85886 28.6984L12.14 17.1844L12.6953 14.2679L15.525 12.3343L16.1053 6.3982L18.1665 8.45942L18.751 4.95262ZM17.9362 9.64339L16.8946 8.60179L16.6017 11.5985L17.5502 10.9504L17.9362 9.64339ZM21.0227 23.5705C20.0179 24.4573 19.0883 24.887 18.4228 25.0962C18.0893 25.201 17.8206 25.2508 17.6404 25.2745C17.5502 25.2864 17.4823 25.2917 17.4395 25.2941C17.4182 25.2953 17.4031 25.2957 17.3947 25.2959L17.3874 25.296L17.1561 25.2931L12.3949 30.8539L11.9899 30.6109L13.9135 27.7811L13.0864 27.2189L11.1311 30.0956L8.14106 28.3016L13.0996 17.4908L13.6004 14.8606L18.4083 11.5752L18.9881 9.61234L19.249 8.04738L21.1188 11.6021L21.3439 11.6521L21.3451 11.6523L21.352 11.654C21.3593 11.6557 21.3717 11.6588 21.3888 11.6632C21.4231 11.6722 21.4766 11.6867 21.5478 11.7082C21.6902 11.751 21.9033 11.8212 22.1748 11.9281C22.7177 12.1418 23.4942 12.5022 24.4066 13.0839C26.2295 14.246 28.6034 16.2966 30.7453 19.8431C33.0462 23.6537 33.443 27.3509 33.8809 31.4308C33.9012 31.6197 33.9215 31.8094 33.9422 32H18.0877C18.4223 30.4736 19.3635 29.5758 20.3358 28.6484C20.4313 28.5573 20.5271 28.4659 20.6227 28.3736C21.1997 27.8163 21.786 27.204 22.1233 26.4157C22.443 25.6685 22.5221 24.8083 22.2579 23.7476C23.2385 22.6384 23.6498 21.399 23.8082 20.3936C23.9012 19.8028 23.9078 19.2886 23.891 18.9202C23.8826 18.7357 23.8683 18.5868 23.8557 18.4819C23.8494 18.4295 23.8435 18.388 23.839 18.3585C23.8379 18.3513 23.8369 18.3447 23.836 18.339C23.835 18.333 23.8342 18.3277 23.8334 18.3233L23.8316 18.3127L23.831 18.3092L23.8308 18.3079C23.8307 18.3077 23.8306 18.3069 23.3387 18.3967C22.8468 18.4864 22.8468 18.4862 22.8467 18.486L22.8472 18.4889L22.8505 18.5094C22.8535 18.5288 22.8579 18.5598 22.8628 18.6012C22.8728 18.684 22.8849 18.8082 22.8921 18.9657C22.9065 19.2814 22.9009 19.7267 22.8203 20.238C22.669 21.1991 22.2563 22.378 21.2254 23.3825C21.1603 23.4458 21.0927 23.5086 21.0227 23.5705ZM17.5728 16.737L17.0831 16.8381L17.0131 16.3431L17.4778 16.2773L17.5728 16.737ZM17.1042 19.398C16.6929 19.9816 16.0874 20.3114 15.6239 20.4939C15.3874 20.587 15.1748 20.6469 15.0203 20.6837C14.9428 20.7022 14.8791 20.7151 14.8334 20.7235C14.8105 20.7278 14.7921 20.7309 14.7786 20.7331L14.7621 20.7357L14.7567 20.7365L14.7548 20.7368L14.7536 20.737C14.7535 20.737 14.7533 20.737 14.6831 20.242C14.1933 20.3427 14.1933 20.3426 14.1933 20.3424L14.193 20.3413L14.1927 20.3394L14.1916 20.3341L14.1885 20.3176C14.186 20.3042 14.1827 20.2858 14.179 20.2628C14.1716 20.2169 14.1623 20.1527 14.1536 20.0735C14.1362 19.9158 14.121 19.6956 14.1291 19.4418C14.1449 18.9445 14.252 18.2638 14.6644 17.6813C15.0756 17.0979 15.6802 16.7682 16.1432 16.5859C16.3795 16.4928 16.592 16.433 16.7463 16.3962C16.8237 16.3778 16.8873 16.3649 16.933 16.3565C16.9559 16.3523 16.9743 16.3491 16.9878 16.3469L17.0043 16.3443L17.0097 16.3435L17.0116 16.3433L17.0131 16.3431C17.0133 16.343 17.0131 16.3431 17.0831 16.8381C17.5728 16.737 17.5727 16.7368 17.5728 16.737L17.5734 16.7403L17.5745 16.7456L17.5776 16.7621C17.5801 16.7755 17.5834 16.7939 17.5871 16.8169C17.5946 16.8627 17.604 16.9269 17.6127 17.0061C17.6302 17.1637 17.6456 17.3838 17.6377 17.6375C17.6223 18.1347 17.5157 18.8151 17.1042 19.398ZM14.6831 20.242L14.1933 20.3424L14.288 20.803L14.7536 20.737L14.6831 20.242ZM15.127 19.6118C15.1266 19.5674 15.1271 19.5213 15.1286 19.4737C15.1415 19.0695 15.2291 18.6143 15.4806 18.2591L15.4813 18.2581C15.733 17.9007 16.1332 17.6646 16.5096 17.5163C16.5541 17.4988 16.5976 17.4828 16.6397 17.4681C16.6401 17.5125 16.6397 17.5588 16.6382 17.6065C16.6256 18.0105 16.5384 18.4658 16.2872 18.8214C16.0356 19.1784 15.6346 19.415 15.2576 19.5634C15.2129 19.581 15.1692 19.5971 15.127 19.6118ZM10.7395 26.5893C10.6284 26.6467 10.4901 26.7698 10.3796 26.9599C10.2684 27.1533 10.2303 27.335 10.2354 27.459C10.2377 27.5154 10.247 27.5469 10.2542 27.5628C10.2718 27.5612 10.3045 27.5537 10.356 27.5271C10.4672 27.4694 10.6056 27.3461 10.7157 27.1566M10.7395 26.5893C10.7916 26.5623 10.8246 26.555 10.8423 26.5534L10.7395 26.5893ZM10.8423 26.5534C10.8494 26.5694 10.8589 26.6009 10.8611 26.6578C10.866 26.7821 10.8273 26.964 10.7157 27.1566M11.3474 25.6839C10.9824 25.4715 10.5791 25.5465 10.2804 25.7009C9.97563 25.8584 9.70581 26.1286 9.5143 26.4586L9.51351 26.46C9.32306 26.7906 9.22212 27.1581 9.23623 27.5002C9.25007 27.8356 9.3846 28.2213 9.74864 28.4323C10.1141 28.6453 10.5177 28.5694 10.8157 28.4151C11.1201 28.2575 11.3896 27.9875 11.5806 27.6584C11.7719 27.3286 11.8739 26.9608 11.8603 26.6182C11.847 26.2822 11.7126 25.8955 11.3474 25.6839ZM15.0384 38H36.9618C36.8685 37.1292 36.6199 35.9752 36.2229 34.979C35.9816 34.3737 35.6979 33.8584 35.3854 33.5028C35.0731 33.1474 34.7778 33 34.5 33H17.5C17.2221 33 16.9269 33.1474 16.6147 33.5027C16.3022 33.8583 16.0186 34.3737 15.7774 34.9789C15.3805 35.9751 15.1319 37.1291 15.0384 38Z" fill="white"/>
        </g>
        <g id="br" fill="none" stroke-linecap="round" stroke-linejoin="round" transform="translate(180.000000, 45)">
            <path fill-rule="evenodd" clip-rule="evenodd" d="M34.5 38.5C34.5 36 33 32.5 31.5 32.5C23.8848 32.5 21.1153 32.5 13.5 32.5C12 32.5 10.5 36 10.5 38.5H34.5Z" fill="#2C2F37"/>
            <path fill-rule="evenodd" clip-rule="evenodd" d="M27.5 8.50002V12.5H24.5V8.50002H20.5V12.5H17.5V8.50002H13.5V15.5L17 18H28L31.5 15.5V8.50002H27.5Z" fill="#2C2F37"/>
            <path d="M13.5 32.5H31.5L28 18H17L13.5 32.5Z" fill="#2C2F37"/>
            <path fill-rule="evenodd" clip-rule="evenodd" d="M13 8.00002H18V12H20V8.00002H25V12H27V8.00002H32V15.7573L28.5653 18.2107L31.9072 32.0558C32.3102 32.1666 32.6663 32.4305 32.9627 32.7402C33.3636 33.1589 33.7192 33.7253 34.0144 34.3485C34.6038 35.5929 35 37.1657 35 38.5V39H10V38.5C10 37.1657 10.3962 35.5929 10.9857 34.3485C11.2808 33.7253 11.6364 33.1589 12.0373 32.7402C12.3338 32.4305 12.6898 32.1666 13.0929 32.0558L16.4348 18.2107L13 15.7573V8.00002ZM17.3937 18.5L14.1351 32H30.865L27.6064 18.5H17.3937ZM27.8398 17.5L31 15.2427V9.00002H28V13H24V9.00002H21V13H17V9.00002H14V15.2427L17.1603 17.5H27.8398ZM13.5 33C13.3227 33 13.07 33.1076 12.7596 33.4317C12.4574 33.7474 12.1567 34.2122 11.8894 34.7766C11.4283 35.7499 11.102 36.9431 11.0201 38H33.98C33.8981 36.9431 33.5717 35.7499 33.1107 34.7766C32.8433 34.2122 32.5427 33.7474 32.2404 33.4317C31.9301 33.1076 31.6773 33 31.5 33H13.5Z" fill="white"/>
        </g>
        <g id="bp" transform="translate(225.000000, 45)" fill="#000000" stroke-linecap="round" stroke-width="1.5">
            <path fill-rule="evenodd" clip-rule="evenodd" d="M34.5 36.5C34.5 34 33 30.5 30.5 30.5C22.8848 30.5 22.1151 30.5 14.4999 30.5C12 30.5 10.5 34 10.5 36.5H34.5Z" fill="#2C2F37"/>
            <path d="M28 13.5C28 15.5594 26.8681 17.3544 25.1926 18.297C24.3967 18.7447 23.4782 19 22.5 19C21.5552 19 20.6661 18.7618 19.8894 18.3422C19.8325 18.3114 19.747 18.2625 19.6913 18.2298C18.0637 17.2747 17 15.5236 17 13.5C17 10.4624 19.4624 8.00002 22.5 8.00002C25.5376 8.00002 28 10.4624 28 13.5Z" fill="#2C2F37"/>
            <path d="M19.6913 18.2298C19.6913 18.2298 20 21.5 18 25.5C16.7896 27.744 16.7005 28.1293 14.4999 30.5H30.5C28.3013 28.1293 28.2113 27.744 27 25.5C25 22 25.1926 18.6641 25.1926 18.6641V18.297C24.3967 18.7447 23.4782 19 22.5 19C21.5552 19 20.6661 18.7618 19.8894 18.3422C19.8325 18.3114 19.747 18.2625 19.6913 18.2298Z" fill="#2C2F37"/>
            <path fill-rule="evenodd" clip-rule="evenodd" d="M22.5 8.50002C19.7386 8.50002 17.5 10.7386 17.5 13.5C17.5 15.3411 18.465 16.929 19.9413 17.7967L20.1315 17.9047C20.836 18.2843 21.6421 18.5 22.5 18.5C23.3901 18.5 24.2245 18.2679 24.9474 17.8612C26.472 17.0036 27.5 15.3715 27.5 13.5C27.5 10.7386 25.2614 8.50002 22.5 8.50002ZM19.2055 18.5172C17.5603 17.4478 16.5 15.607 16.5 13.5C16.5 10.1863 19.1863 7.50002 22.5 7.50002C25.8137 7.50002 28.5 10.1863 28.5 13.5C28.5 15.6411 27.3783 17.5196 25.6926 18.581V18.6785L25.6918 18.6922L25.6915 18.6973L25.6906 18.7206C25.6898 18.7423 25.6888 18.776 25.6882 18.8212C25.6869 18.9115 25.6871 19.0472 25.6934 19.2221C25.706 19.572 25.7428 20.078 25.8401 20.6911C26.035 21.9187 26.4712 23.5667 27.4341 25.2519L27.4401 25.2624C27.5779 25.5177 27.7001 25.7471 27.8119 25.9565C28.2001 26.6842 28.4605 27.1723 28.7957 27.6751C29.203 28.2861 29.7237 28.9212 30.726 30.008C32.1233 30.1073 33.1801 31.1199 33.8702 32.312C34.6031 33.578 35 35.1648 35 36.5V37H10V36.5C10 35.1648 10.3969 33.578 11.1298 32.312C11.8199 31.1199 12.8768 30.1072 14.274 30.008C15.2772 28.9211 15.7981 28.286 16.2052 27.6752C16.5401 27.1728 16.8001 26.6851 17.1875 25.9583C17.2984 25.7503 17.4197 25.5227 17.5562 25.2695C18.5247 23.3304 18.9332 21.5709 19.0999 20.2999C19.1834 19.6637 19.2061 19.1508 19.2083 18.8001C19.209 18.689 19.2077 18.5943 19.2055 18.5172ZM20.2042 19.045C20.194 19.4091 20.1638 19.8779 20.0914 20.4299C19.9127 21.7925 19.4763 23.6654 18.4472 25.7236L18.4437 25.7305L18.4401 25.7374C18.3108 25.9769 18.1935 26.1971 18.0843 26.4021C17.6909 27.1404 17.4018 27.6829 17.0374 28.2298C16.6885 28.7533 16.2721 29.2796 15.6318 30H29.3688C28.7288 29.2796 28.3126 28.7533 27.9637 28.2298C27.5989 27.6826 27.3095 27.1399 26.9153 26.4009C26.807 26.1977 26.6907 25.9798 26.5628 25.7428C25.528 23.9298 25.0611 22.162 24.8525 20.8479C24.748 20.1896 24.7079 19.6428 24.6941 19.258C24.6919 19.1972 24.6904 19.1405 24.6893 19.0879C24.0107 19.354 23.272 19.5 22.5 19.5C21.6875 19.5 20.9118 19.3382 20.2042 19.045ZM14.4999 31C13.5097 31 12.6433 31.6935 11.9952 32.813C11.4426 33.7675 11.1041 34.9472 11.0204 36H33.9796C33.8959 34.9472 33.5574 33.7675 33.0048 32.813C32.3567 31.6935 31.4903 31 30.5 31H14.4999Z" fill="white"/>
        </g>
        <g id="pointer" transform="translate(0, 45)" fill="#000000" stroke-linecap="round" stroke-width="1.5">
            <path d="M23.1628 19.7828C23.1628 20.3006 22.743 20.7203 22.2253 20.7203C21.7075 20.7203 21.2878 20.3006 21.2878 19.7828V15.7662C21.2878 14.9032 20.5882 14.2037 19.7253 14.2037C18.8623 14.2037 18.1628 14.9033 18.1628 15.7662V20.7203C18.1628 21.2381 17.743 21.6578 17.2253 21.6578C16.7075 21.6578 16.2878 21.2381 16.2878 20.7203V17.7399C16.2878 16.8769 15.5882 16.1774 14.7253 16.1774C13.8623 16.1774 13.1628 16.8769 13.1628 17.7399V21.6578C13.1628 22.1756 12.743 22.5953 12.2253 22.5953C11.7075 22.5953 11.2878 22.1756 11.2878 21.6578V20.8026C11.2878 19.9396 10.5882 19.2401 9.72528 19.2401C8.86233 19.2401 8.16278 19.9396 8.16278 20.8026V29.2245C8.16278 32.5246 8.7636 35.7971 9.93585 38.8819L10.7686 41.0734C10.9525 41.5574 10.7093 42.0989 10.2253 42.2828C9.74128 42.4667 9.19982 42.2235 9.0159 41.7395L8.18313 39.548C6.93003 36.2504 6.28778 32.7521 6.28778 29.2245V20.8026C6.28778 18.9041 7.8268 17.3651 9.72528 17.3651C10.2879 17.3651 10.819 17.5002 11.2878 17.7399C11.2878 15.8414 12.8268 14.3024 14.7253 14.3024C15.3488 14.3024 15.9336 14.4684 16.4378 14.7587C16.8684 13.3518 18.1774 12.3287 19.7253 12.3287C21.6238 12.3287 23.1628 13.8677 23.1628 15.7662V19.7828Z" fill="#161622"/>
            <path d="M37.2067 23.8119C37.9064 22.3158 37.1412 20.5446 35.5723 20.0285C34.5912 19.7058 33.5121 19.959 32.7769 20.6845L28.1628 25.2379L28.1628 7.48019C28.1628 5.58172 26.6238 4.04269 24.7253 4.04269C22.8268 4.04269 21.3125 5.58176 21.3125 7.48024V12.7163C22.4121 13.2897 23.1628 14.4403 23.1628 15.7662L23.1875 7.48024C23.1875 6.61729 23.8623 5.91769 24.7253 5.91769C25.5882 5.91769 26.2878 6.61725 26.2878 7.48019V25.2379C26.2878 26.9024 28.2951 27.7416 29.4798 26.5725L34.0939 22.019C34.3287 21.7874 34.6732 21.7066 34.9864 21.8096C35.4873 21.9744 35.7316 22.5399 35.5082 23.0175L32.1543 30.1888C31.0003 32.6562 29.5873 34.994 27.9391 37.1627L25.0461 40.9692C24.7328 41.3814 24.8131 41.9695 25.2253 42.2828C25.6375 42.5961 26.2257 42.5159 26.5389 42.1037L29.4319 38.2972C31.1605 36.0227 32.6424 33.5709 33.8527 30.9831L37.2067 23.8119Z" fill="#161622"/>
        </g>
        <g id="trash" transform="translate(0, 45)" fill="#000000" stroke-linecap="round" stroke-width="1.5">
            <path fill-rule="evenodd" clip-rule="evenodd" d="M22.0625 6.125C21.3166 6.125 20.6012 6.42132 20.0738 6.94876C19.5463 7.47621 19.25 8.19158 19.25 8.9375V9.875H26.75V8.9375C26.75 8.19158 26.4537 7.47621 25.9262 6.94876C25.3988 6.42132 24.6834 6.125 23.9375 6.125H22.0625ZM28.625 9.875V8.9375C28.625 7.6943 28.1311 6.50201 27.2521 5.62294C26.373 4.74386 25.1807 4.25 23.9375 4.25H22.0625C20.8193 4.25 19.627 4.74386 18.7479 5.62294C17.8689 6.50201 17.375 7.6943 17.375 8.9375V9.875H8.9375C8.41973 9.875 8 10.2947 8 10.8125C8 11.3303 8.41973 11.75 8.9375 11.75H9.95878L12.5122 38.0681C12.6116 39.0931 13.4731 39.875 14.5028 39.875H31.3403C32.3656 39.875 33.2248 39.0997 33.3298 38.0799L36.0412 11.75H37.0625C37.5803 11.75 38 11.3303 38 10.8125C38 10.2947 37.5803 9.875 37.0625 9.875H28.625ZM34.158 11.75H11.842L14.3071 37.0968C14.3569 37.6092 14.7876 38 15.3024 38H30.5358C31.0482 38 31.4776 37.6127 31.5305 37.1031L34.158 11.75Z" fill="#161622"/>
        </g>
        <g id="marker1" transform="translate(0, 90)" >
        </g>
        <g id="marker2" transform="translate(0, 90)" fill="none" stroke-width="2">
            <rect x="2.5" y="2.5" width="40" height="40" rx="2" />
        </g>
    </g>
</svg>