<?xml version="1.0" encoding="UTF-8"?>

<svg width="260px" height="120px" viewBox="0 0 260 120" version="1.1" xmlns="http://www.w3.org/2000/svg" >
    <title>chessbord pieces and markers sprite</title>
    <g id="Sprite" stroke="none" stroke-width="1" fill="none">
        <g id="wk" fill="none" stroke-width="1.5" stroke-linecap="round" transform="translate(0, 0)" stroke-linejoin="round">
            <path fill-rule="evenodd" clip-rule="evenodd" d="M23.1089 13.3118H21.7863C20.3941 13.872 19.4195 14.9923 19.0714 16.8129C21.299 19.1936 22.4824 22.4146 22.552 27.1761C22.552 23.535 23.1785 19.6838 25.8934 16.8829C25.4757 15.0623 24.5012 13.872 23.1089 13.3118Z" fill="white"/>
            <path fill-rule="evenodd" clip-rule="evenodd" d="M22.4824 28.0864C22.4824 25.2855 22.6912 22.2046 23.8746 19.8238C25.6149 15.9026 29.2348 13.4518 34.1772 14.6422C38.4235 15.7626 40.8599 21.2243 39.3285 25.0055C37.797 28.7866 34.3164 29.7669 33.2026 30.6072C32.9242 32.7079 33.133 34.6685 34.1076 36.6991C32.7154 37.7494 25.8934 38.8698 22.4824 38.8698C19.0714 38.8698 12.2495 37.7494 10.8572 36.6991C11.8318 34.6685 11.971 32.7079 11.7622 30.6072C10.6484 29.7669 7.2374 28.7166 5.63633 25.0055C4.17448 21.2243 6.54128 15.7626 10.8572 14.6422C15.7301 13.4518 19.2803 15.9726 21.0902 19.8238C22.204 22.2746 22.552 25.2155 22.4824 28.0864Z" fill="white"/>
            <path fill-rule="evenodd" clip-rule="evenodd" d="M33.2026 30.9573C29.6524 29.2768 26.1022 28.3665 22.4824 28.4365C18.9322 28.3665 15.3124 29.2768 11.7622 30.9573H33.2026Z" fill="white"/>
            <path fill-rule="evenodd" clip-rule="evenodd" d="M33.2026 33.9682C29.6524 32.2877 26.1022 31.3774 22.4824 31.4475C18.9322 31.3774 15.3124 32.2877 11.7622 33.9682H33.2026Z" fill="white"/>
            <path fill-rule="evenodd" clip-rule="evenodd" d="M10.9268 37.1192C14.8947 35.2987 18.7234 34.3884 22.552 34.3884C26.3111 34.3884 30.2093 35.2987 34.1772 37.1192H10.9268Z" fill="white"/>
            <path fill-rule="evenodd" clip-rule="evenodd" d="M23.1088 10.721H24.7795V9.46061H23.1088V7.5H21.8558V9.46061H20.1155V10.721H21.8558C21.8558 11.5613 21.8558 12.3315 21.8558 13.1718H23.1088C23.1088 12.3315 23.1088 11.4912 23.1088 10.721Z" fill="#131312"/>
            <path fill-rule="evenodd" clip-rule="evenodd" d="M21.5077 12.6816C21.647 12.6816 21.7166 12.6816 21.7862 12.6816H23.1088C23.1784 12.6816 23.3176 12.6816 23.3873 12.6816C25.0579 13.3818 26.1021 14.7122 26.5894 16.7429C26.5894 16.9529 26.5198 17.163 26.3806 17.3031C23.8745 19.9639 23.248 23.605 23.248 27.1761C23.248 27.5963 22.9 27.8764 22.5519 27.8764C22.1342 27.8764 21.8558 27.5963 21.8558 27.1761C21.7862 22.5547 20.6724 19.4737 18.5144 17.233C18.3752 17.093 18.3056 16.8829 18.3752 16.6729C18.7929 14.6422 19.8371 13.3118 21.5077 12.6816ZM21.9254 13.942C20.9508 14.3621 20.1851 15.2024 19.837 16.6028C21.0205 18.0033 21.9254 19.6138 22.4823 21.5744C22.9696 19.8238 23.8049 18.1433 25.1276 16.6729C24.7099 15.2724 23.9442 14.4322 22.9696 13.942C22.6215 13.872 22.2735 13.872 21.9254 13.942Z" fill="#131312"/>
            <path fill-rule="evenodd" clip-rule="evenodd" d="M28.1905 15.9026C26.5894 16.7429 25.3364 18.2133 24.5011 20.1039C23.5265 22.1346 23.248 25.0755 23.1784 27.5963C23.1784 27.8764 23.1784 28.1565 23.1784 28.5066C23.1784 28.8567 22.9 29.1368 22.4823 29.1368C22.1342 29.1368 21.7862 28.8567 21.7862 28.5066C21.7862 28.1565 21.7862 27.8764 21.7862 27.5963C21.7862 25.0755 21.3685 22.2046 20.3939 20.1039C19.5586 18.2834 18.3056 16.8129 16.7741 15.9026C15.2427 15.0624 13.2935 14.7122 11.066 15.3424C9.18643 15.7626 7.58536 17.233 6.68041 19.1236C5.84506 20.9442 5.63623 23.465 6.26273 25.1455C7.37652 27.8063 9.46488 28.9267 10.9267 29.6969C11.414 29.977 11.8317 30.1871 12.1797 30.4672C12.319 30.5372 12.3886 30.6772 12.4582 30.8873C12.667 32.9179 12.5278 35.0186 11.6925 36.9792C14.2681 38.0996 18.584 38.2396 22.8304 38.2396C26.7982 38.1696 30.7661 38.0295 33.2025 36.9792C32.3672 35.0186 32.2976 32.9179 32.5064 30.8873C32.5064 30.6772 32.6456 30.5372 32.7849 30.3972C33.0633 30.1871 33.481 29.977 33.8987 29.767C35.4301 28.9267 37.5185 27.8764 38.6323 25.1455H38.7019C39.3284 23.465 39.1892 20.9442 38.2842 19.1236C37.3793 17.233 35.8478 15.7626 33.9683 15.3424C31.6711 14.7122 29.7219 15.0624 28.1905 15.9026ZM22.4823 21.6444C22.6215 20.8742 22.9 20.174 23.1784 19.5438C24.153 17.5131 25.6148 15.7626 27.4944 14.7823C29.3739 13.7319 31.7407 13.3818 34.3163 14.012C36.7527 14.6422 38.5627 16.4628 39.5372 18.5634C40.5814 20.6641 40.8598 23.535 39.9549 25.5656C38.6323 28.8567 35.8478 30.2571 34.3859 31.0274C34.1771 31.1674 34.0379 31.2374 33.829 31.3074C33.6898 33.2681 33.8987 35.1586 34.734 36.9792C34.8732 37.2593 34.8036 37.6094 34.5252 37.8195C32.7153 39.1499 27.8424 39.43 22.8304 39.5C17.6095 39.5 12.319 39.2199 10.3698 37.8195C10.161 37.6094 10.0218 37.2593 10.161 36.9792C11.066 35.1586 11.2748 33.2681 11.066 31.3074C10.9267 31.2374 10.7179 31.0974 10.5091 31.0274C9.04721 30.2571 6.33235 28.7866 4.94011 25.5656C4.17438 23.535 4.45282 20.6641 5.42739 18.5634C6.47157 16.4628 8.28148 14.6422 10.6483 14.012C13.2935 13.3818 15.5907 13.7319 17.4703 14.7823C19.3498 15.8326 20.742 17.5831 21.7166 19.6138C21.995 20.244 22.2735 20.9442 22.4823 21.6444Z" fill="#131312"/>
            <path fill-rule="evenodd" clip-rule="evenodd" d="M11.4836 30.3972C11.1356 30.5372 10.9963 30.8873 11.1356 31.2374C11.3444 31.5875 11.7621 31.7276 12.1101 31.5175C17.6791 28.9267 27.3551 28.9267 32.9241 31.5175C33.2722 31.7276 33.6898 31.5875 33.8291 31.2374C34.0379 30.8873 33.8987 30.5372 33.5506 30.3972C27.4944 27.5263 17.4703 27.5263 11.4836 30.3972Z" fill="#131312"/>
            <path fill-rule="evenodd" clip-rule="evenodd" d="M11.6228 33.8282C11.414 33.8983 11.3444 34.1083 11.4836 34.2484C11.5532 34.4584 11.7621 34.5285 11.9013 34.3884C17.1222 32.0077 27.912 32.0077 33.0633 34.3884C33.2721 34.5285 33.481 34.4584 33.5506 34.2484C33.6202 34.1083 33.5506 33.8983 33.4114 33.8282C27.912 31.3074 17.0526 31.3074 11.6228 33.8282Z" fill="#131312"/>
            <path fill-rule="evenodd" clip-rule="evenodd" d="M11.6925 37.8895C11.3444 38.0295 10.9267 37.8895 10.7179 37.6094C10.5787 37.2593 10.7179 36.8392 11.066 36.6991C16.2868 34.2484 29.0258 34.3184 34.2467 36.7691C34.5948 36.9792 34.734 37.3293 34.5948 37.6794C34.3859 38.0295 33.9683 38.0996 33.6202 37.9595C28.817 35.7188 16.4957 35.5788 11.6925 37.8895Z" fill="#131312"/>
        </g>
        <g id="wq" fill="none" stroke-linecap="round" stroke-linejoin="round" transform="translate(45.000000, 0)" >
            <path fill-rule="evenodd" clip-rule="evenodd" d="M37.6055 13.1987L30.352 24.6218L30.5632 10.7307L25.2111 23.9872L22.6055 10.5192L19.9998 23.9872L14.6477 10.7307L14.859 24.6218L7.60547 13.1987C9.78857 23.8461 12.9576 28.782 10.4928 38.0897C17.6759 39.0064 27.7463 38.8654 34.9294 37.9487C34.9294 37.9487 33.521 35.1987 33.8731 30.9679C34.2252 25.609 36.4083 18.2051 37.6055 13.1987Z" fill="white"/>
            <path fill-rule="evenodd" clip-rule="evenodd" d="M22.6056 9.81409C22.6056 10.3077 22.6056 10.0961 22.6056 9.81409C22.2535 9.81409 21.9718 10.0961 21.9013 10.3782L19.7887 21.4487L15.352 10.4487C15.2112 10.1667 14.8591 9.95511 14.507 10.0256C14.1549 10.0961 13.9436 10.3782 13.9436 10.7308L14.1549 22.1538L8.23937 12.8461C8.0281 12.5641 7.67599 12.4936 7.32388 12.5641C7.04219 12.7051 6.83092 13.0577 6.90134 13.4102C7.53515 16.0192 9.43656 23.4936 10.352 28.5C11.0563 32.0962 10.7042 34.5641 9.29571 38.0897C10.0704 38.5833 12.0422 38.7949 12.5351 38.8654C15.4225 39.218 17.9577 39.4295 21.4788 39.5C22.2535 39.5 22.8873 39.5 23.7323 39.5C27.2535 39.4295 29.7182 39.218 32.676 38.8654C33.169 38.7949 35.1408 38.5833 35.9859 38.0897C34.507 34.5641 34.1549 32.0962 34.8591 28.5C35.7746 23.4936 37.676 16.0192 38.3098 13.4102C38.3802 13.0577 38.2394 12.7051 37.8873 12.5641C37.5351 12.4936 37.183 12.5641 37.0422 12.8461L31.1267 22.1538L31.2675 10.7308C31.2675 10.3782 31.0563 10.0961 30.7042 10.0256C30.3521 9.95511 29.9999 10.1667 29.9295 10.4487L25.4225 21.4487L23.3098 10.3782C23.2394 10.0961 22.9577 9.81409 22.6056 9.81409ZM22.6056 14.3974L24.507 24.0577C24.5774 24.4103 24.7887 24.6218 25.1408 24.6218C25.4225 24.6923 25.7746 24.4808 25.845 24.1987L29.7887 14.5384L29.6478 24.6218C29.6478 24.9744 29.8591 25.1859 30.1408 25.3269C30.4929 25.3974 30.7746 25.2564 30.9859 24.9744L35.9859 17.1474C35.0704 20.9551 34.0844 24.5513 33.3098 28.2885C32.4647 32.8718 33.3098 36.2564 33.8732 37.2436C33.9436 37.3141 27.8873 37.8782 23.6619 37.9487C22.3239 37.9487 22.8168 37.9487 21.338 37.9487C17.0422 37.8077 11.338 37.3141 11.338 37.2436C11.9013 36.2564 12.8168 32.8718 11.9013 28.2885C11.1267 24.5513 10.1408 20.9551 9.22529 17.1474L14.2957 24.9744C14.4366 25.2564 14.7887 25.3974 15.0704 25.3269C15.352 25.1859 15.5633 24.9744 15.5633 24.6218L15.4225 14.5384L19.3661 24.1987C19.507 24.4808 19.7887 24.6923 20.0704 24.6218C20.4225 24.6218 20.7042 24.4103 20.7042 24.0577L22.6056 14.3974C22.6056 14.2564 22.6056 14.2564 22.6056 14.3974Z" fill="#131312"/>
            <path fill-rule="evenodd" clip-rule="evenodd" d="M33.3097 33.3654C33.5209 33.4359 33.5914 33.6474 33.5209 33.7885C33.4505 34 33.2392 34.0705 33.0984 34C27.6759 31.8846 17.3942 31.9551 11.9716 34.0705C11.8308 34.141 11.6195 34.0705 11.5491 33.859C11.4787 33.718 11.5491 33.5064 11.7604 33.4359C17.3238 31.25 27.7463 31.1795 33.3097 33.3654Z" fill="#131312"/>
            <path fill-rule="evenodd" clip-rule="evenodd" d="M11.2675 29.9103C14.9999 28.9936 18.3802 28.218 22.6055 28.218C26.8309 28.218 29.9295 28.7821 33.6618 29.6987C34.014 29.7692 34.2957 30.1218 34.1548 30.5449C34.0844 30.8974 33.6618 31.109 33.3097 31.0385C29.6478 30.1923 26.69 29.5577 22.6055 29.5577C18.521 29.5577 15.2111 30.3333 11.5492 31.1795C11.1971 31.3205 10.8449 31.0385 10.7041 30.6859C10.6337 30.3333 10.8449 29.9808 11.2675 29.9103Z" fill="#131312"/>
            <path fill-rule="evenodd" clip-rule="evenodd" d="M10.9154 36.3974C14.7182 35.4808 18.3802 34.8462 22.6055 34.8462C26.8309 34.8462 30.4224 35.5513 34.2252 36.3974C34.5774 36.468 34.7886 36.8205 34.7182 37.2436C34.6478 37.5962 34.2252 37.8077 33.8731 37.7372C30.2112 36.891 26.69 36.2564 22.6055 36.1859C18.521 36.2564 14.859 36.891 11.2675 37.7372C10.9154 37.8077 10.4928 37.5962 10.4224 37.1731C10.2816 36.8205 10.5633 36.468 10.9154 36.3974Z" fill="#131312"/>
            <path d="M24.5069 9.03844C24.5069 10.0256 23.6618 10.8013 22.6055 10.8013C21.5492 10.8013 20.7041 10.0256 20.7041 9.03844C20.7041 7.98075 21.5492 7.20511 22.6055 7.20511C23.6618 7.20511 24.5069 7.98075 24.5069 9.03844Z" fill="white"/>
            <path d="M39.2253 13.6218C39.2253 14.609 38.3802 15.4551 37.3239 15.4551C36.338 15.4551 35.4929 14.609 35.4929 13.6218C35.4929 12.6346 36.338 11.7884 37.3239 11.7884C38.3802 11.7884 39.2253 12.6346 39.2253 13.6218Z" fill="white"/>
            <path d="M14.507 12.282C15.5633 12.282 16.4084 11.4359 16.4084 10.4487C16.4084 9.39101 15.5633 8.61537 14.507 8.61537C13.4506 8.61537 12.6056 9.46152 12.6056 10.4487C12.6056 11.4359 13.4506 12.282 14.507 12.282Z" fill="white"/>
            <path d="M32.5351 10.4487C32.5351 11.4359 31.69 12.282 30.6337 12.282C29.6478 12.282 28.7323 11.4359 28.7323 10.4487C28.7323 9.46152 29.6478 8.61537 30.6337 8.61537C31.69 8.61537 32.5351 9.39101 32.5351 10.4487Z" fill="white"/>
            <path d="M7.60551 15.1731C8.66185 15.1731 9.50692 14.3974 9.50692 13.3397C9.50692 12.3526 8.66185 11.5064 7.60551 11.5769C6.54917 11.5769 5.7041 12.3526 5.7041 13.3397C5.7041 14.3974 6.54917 15.1731 7.60551 15.1731Z" fill="white"/>
            <path fill-rule="evenodd" clip-rule="evenodd" d="M20 9.03846C20 7.62821 21.1268 6.5 22.6056 6.5C24.0141 6.5 25.2113 7.62821 25.2113 9.03846C25.2113 10.3782 24.0141 11.5064 22.6056 11.5064C21.1972 11.5064 20 10.3782 20 9.03846ZM22.6056 7.83974C21.9014 7.83974 21.4084 8.40385 21.4084 9.03846C21.4084 9.60257 21.9718 10.1667 22.6056 10.1667C23.2394 10.1667 23.8028 9.60257 23.8028 9.03846C23.8028 8.40385 23.2394 7.83974 22.6056 7.83974Z" fill="#131312"/>
            <path fill-rule="evenodd" clip-rule="evenodd" d="M34.7183 13.6218C34.7183 12.2115 35.9155 11.0833 37.3239 11.0833C38.8028 11.0833 40 12.2115 40 13.6218C40 14.9615 38.8028 16.0898 37.3239 16.0898C35.9155 16.0898 34.7183 14.9615 34.7183 13.6218ZM37.3239 12.4936C36.6901 12.4936 36.1972 12.9872 36.1972 13.6218C36.1972 14.2564 36.6901 14.75 37.3239 14.75C38.0282 14.75 38.5211 14.2564 38.5211 13.6218C38.5211 12.9872 38.0282 12.4936 37.3239 12.4936Z" fill="#131312"/>
            <path fill-rule="evenodd" clip-rule="evenodd" d="M14.507 7.91025C13.0985 7.91025 11.9013 9.03846 11.9013 10.4487C11.9013 11.7885 13.0985 12.9872 14.507 12.9872C15.9154 12.9872 17.1126 11.7885 17.1126 10.4487C17.1126 9.03846 15.9154 7.91025 14.507 7.91025ZM13.3098 10.4487C13.3098 9.8141 13.8732 9.32051 14.507 9.32051C15.1408 9.32051 15.7041 9.8141 15.7041 10.4487C15.7041 11.0833 15.1408 11.5769 14.507 11.5769C13.8732 11.5769 13.3098 11.0833 13.3098 10.4487Z" fill="#131312"/>
            <path fill-rule="evenodd" clip-rule="evenodd" d="M28.0282 10.4487C28.0282 9.03846 29.2253 7.91025 30.6338 7.91025C32.1127 7.91025 33.2394 9.03846 33.2394 10.4487C33.2394 11.7885 32.1127 12.9872 30.6338 12.9872C29.2253 12.9872 28.0282 11.7885 28.0282 10.4487ZM30.6338 9.32051C30 9.32051 29.507 9.8141 29.507 10.4487C29.507 11.0833 30 11.5769 30.6338 11.5769C31.338 11.5769 31.831 11.0833 31.831 10.4487C31.831 9.8141 31.338 9.32051 30.6338 9.32051Z" fill="#131312"/>
            <path fill-rule="evenodd" clip-rule="evenodd" d="M10.2113 13.3397C10.2113 12 9.08451 10.8013 7.60563 10.8718C6.19718 10.8718 5 12 5 13.3397C5 14.75 6.19718 15.8782 7.60563 15.8782C9.01409 15.8782 10.2113 14.75 10.2113 13.3397ZM7.60563 12.2115C8.23944 12.2115 8.80282 12.7051 8.80282 13.3397C8.80282 13.9744 8.23944 14.5385 7.60563 14.5385C6.97183 14.5385 6.40845 13.9744 6.40845 13.3397C6.40845 12.7756 6.97183 12.2115 7.60563 12.2115Z" fill="#131312"/>
        </g>
        <g id="wb" fill="none" stroke-linecap="round" stroke-linejoin="round" transform="translate(90.000000, 0)" stroke-width="1.5">
            <path fill-rule="evenodd" clip-rule="evenodd" d="M16.1052 31.9065C16.5291 32.2605 17.8011 32.4729 20.0622 32.6145C20.3449 32.6145 20.0622 33.5348 18.9316 34.5259C18.7197 34.6675 14.1973 34.2428 11.9362 34.3843C8.54441 34.5967 6.91919 35.3755 6.63655 35.6587C5.92993 36.2958 9.25102 38.7736 9.463 38.7736C9.81631 38.7736 9.95763 39.1276 13.42 37.7117C14.268 37.3577 19.7796 38.5612 22.394 35.871C22.606 35.6587 24.1606 38.1365 26.0684 38.0657C27.835 38.0657 28.5416 38.0657 30.5908 37.7117C32.0747 37.4285 34.1945 38.986 35.6077 38.7736C37.3743 38.4905 38.3635 35.871 38.4342 35.6587C38.5755 35.3755 35.3251 34.2428 33.2052 33.818C32.004 33.5348 28.7536 34.3843 27.623 34.2428C24.9379 33.818 24.9379 32.6853 24.9379 32.6853C27.199 32.6145 29.1069 32.3313 29.6015 31.9065C30.2375 30.0659 29.6722 27.8004 27.9763 26.8093C33.8412 25.181 34.3358 15.0573 22.6767 10.7388C11.0176 15.0573 11.5828 25.181 17.3771 26.8093C15.6812 27.8712 15.4692 29.9951 16.1052 31.9065Z" fill="white"/>
            <path fill-rule="evenodd" clip-rule="evenodd" d="M22.6767 10.668C24.0193 10.668 25.0792 9.6769 25.0792 8.47339C25.0792 7.19908 24.0193 6.20795 22.6767 6.20795C21.3342 6.20795 20.2742 7.19908 20.2742 8.40259C20.2036 9.6769 21.3342 10.668 22.6767 10.668Z" fill="white"/>
            <path d="M23.1006 32.4729C23.1713 34.7383 22.7473 36.1542 22.1114 37.0746C21.3341 38.0657 20.3448 38.4197 19.1436 38.4197C18.013 38.4905 16.5998 38.4905 15.1865 38.4905L12.996 38.5612H12.784C12.3601 38.5612 11.4415 38.4905 10.7349 38.7028C10.2402 38.8444 9.81627 39.0568 9.53362 39.1984C9.18031 39.4108 8.96833 39.5524 8.68568 39.4816C8.40304 39.4816 8.12039 39.1984 7.76709 38.7736C7.48444 38.4197 7.20179 37.9949 6.91915 37.5701L6.6365 37.1453C6.14187 36.4374 5.85923 36.0126 6.07121 35.5171C6.14187 35.3755 6.49518 35.0923 6.91915 34.8091C7.27246 34.6675 7.69642 34.4551 8.19105 34.2428C10.0989 33.464 12.3601 33.5348 14.5506 33.6056C15.4692 33.6056 16.4584 33.6056 17.377 33.5348C18.013 33.5348 18.5783 33.464 18.8609 33.3224C19.1436 33.1808 19.2849 32.9684 19.3556 32.5437L20.6275 32.8976C20.4155 33.6764 20.0622 34.172 19.4262 34.4551C18.9316 34.7383 18.2956 34.8091 17.4477 34.8799C16.5291 34.9507 15.5398 34.8799 14.4799 34.8799C12.4307 34.8091 10.3109 34.8091 8.68568 35.4463C8.26172 35.6587 7.90841 35.8002 7.62576 35.9418C7.41378 36.0834 7.62576 36.2958 7.69642 36.3666L7.97907 36.7914C8.26172 37.2161 8.54436 37.5701 8.75635 37.8533C8.89767 38.0657 8.82701 38.1365 9.03899 37.9949C9.32164 37.7825 9.81627 37.5701 10.4522 37.4285C11.3002 37.2161 12.3601 37.2161 12.784 37.2161H15.1865C16.5291 37.2161 17.9423 37.1453 19.1436 37.1453C19.9209 37.0746 20.5568 36.8622 21.0514 36.2958C21.5461 35.5879 21.8287 34.3843 21.8287 32.4729H23.1006Z" fill="#131312"/>
            <path d="M23.1713 32.4729C23.1006 34.3843 23.3833 35.5879 23.9486 36.2958C24.3725 36.8622 25.0791 37.0746 25.8564 37.1453C26.987 37.1453 28.4002 37.2161 29.8135 37.2161H32.1453C32.5693 37.2161 33.6292 37.2161 34.5478 37.4285C35.1837 37.5701 35.6784 37.8533 35.961 37.9949C36.0317 38.0657 36.0317 38.1365 36.2437 37.8533C36.4556 37.5701 36.7383 37.1453 36.9503 36.8622L37.2329 36.4374C37.4449 36.1542 37.6569 36.1542 37.3742 36.0126C37.0916 35.8002 36.6676 35.6587 36.2437 35.4463C34.6184 34.8091 32.4986 34.8091 30.4494 34.8799C29.4602 34.8799 28.4709 34.9507 27.4816 34.8799C26.7044 34.8091 26.0684 34.7383 25.5031 34.4551C24.8672 34.172 24.5139 33.6764 24.3019 32.8976L25.5738 32.5437C25.7151 32.9684 25.8564 33.1808 26.0684 33.3224C26.4217 33.464 26.9163 33.5348 27.623 33.5348C28.4709 33.6056 29.4602 33.6056 30.4494 33.6056C32.6399 33.5348 34.8304 33.464 36.7383 34.2428C37.2329 34.4551 37.6569 34.6675 38.0102 34.8091C38.5048 35.0923 38.7875 35.3755 38.9288 35.5171C39.1408 36.0126 38.8581 36.4374 38.3635 37.1453L38.0809 37.5701C37.7982 37.9949 37.4449 38.4197 37.1623 38.7736C36.8796 39.1984 36.5263 39.4816 36.2437 39.4816C35.961 39.5524 35.749 39.4108 35.3957 39.1984C35.1131 39.0568 34.7598 38.8444 34.1945 38.7028C33.4879 38.4905 32.5693 38.5612 32.216 38.5612H32.004L29.8135 38.4905C28.4002 38.4905 26.9163 38.4905 25.7858 38.4197C24.6552 38.4197 23.5953 38.0657 22.8886 37.0746C22.182 36.1542 21.758 34.7383 21.8287 32.4729H23.1713Z" fill="#131312"/>
            <path fill-rule="evenodd" clip-rule="evenodd" d="M23.5953 21.8536V19.5174H25.2205V18.0307H23.5953V16.1192H21.7581V18.0307H20.1329V19.5174H21.7581V21.8536H23.5953Z" fill="#131312"/>
            <path fill-rule="evenodd" clip-rule="evenodd" d="M19.4969 8.40259C19.4969 6.8451 20.9101 5.5 22.6766 5.5C24.4432 5.5 25.8564 6.8451 25.8564 8.47339C25.8564 10.1017 24.3725 11.376 22.6766 11.376C20.9101 11.376 19.4969 10.1017 19.4969 8.40259ZM22.6766 6.9159C21.758 6.9159 20.9808 7.62385 20.9808 8.40259V8.47339C20.9808 9.32293 21.758 10.0309 22.6766 10.0309C23.5952 10.0309 24.3018 9.32293 24.3018 8.47339C24.3018 7.55305 23.5952 6.9159 22.6766 6.9159Z" fill="#131312"/>
            <path d="M15.328 32.3313C14.9747 32.1897 14.7627 31.8357 14.904 31.4818C14.9747 31.1278 15.328 30.9154 15.6813 31.057C16.1053 31.1986 17.4478 31.411 19.1437 31.6233C20.2743 31.6941 21.5462 31.8357 22.8181 31.8357C24.0193 31.8357 25.2912 31.7649 26.3512 31.6233C27.9057 31.411 29.1776 31.1986 29.6016 31.057C29.9549 30.9862 30.3082 31.1986 30.4495 31.5525C30.5202 31.9065 30.3082 32.2605 29.9549 32.3313C29.5309 32.4729 28.1884 32.7561 26.4925 32.8976C25.3619 33.0392 24.09 33.11 22.8181 33.11C21.4755 33.11 20.133 33.0392 19.0024 32.8976C17.2358 32.7561 15.7519 32.4729 15.328 32.3313Z" fill="#131312"/>
            <path fill-rule="evenodd" clip-rule="evenodd" d="M22.394 10.1017C22.4647 10.0309 22.606 10.0309 22.6766 10.0309L22.6767 11.5176C17.2357 13.5706 14.7626 16.3316 14.1973 19.5174C13.7027 22.42 14.9746 24.827 16.9531 25.8182C18.649 26.5969 18.5783 26.1721 17.589 27.6588C16.8118 28.7915 16.1758 30.2074 16.1051 31.057C16.3171 31.2694 17.6597 32.7561 17.2357 32.6853C16.3878 32.4729 15.2572 32.4021 14.6919 32.1897C13.7733 31.7649 15.1866 28.7207 15.4692 28.0128C15.6812 27.7296 15.8932 27.3756 16.1758 26.9509C13.5613 25.6058 12.1481 22.4908 12.7134 19.305C13.3494 15.5529 16.3171 12.2963 22.394 10.1017Z" fill="#131312"/>
            <path fill-rule="evenodd" clip-rule="evenodd" d="M22.9593 10.1017C22.8887 10.0309 22.7473 10.0309 22.6766 10.0309L22.6767 11.5176C28.1176 13.5706 30.5908 16.3316 31.1561 19.5174C31.6507 22.42 30.3788 24.827 28.4003 25.8182C26.7044 26.5969 26.7044 26.1721 27.6936 27.6588C28.4709 28.7915 29.1775 30.2074 29.1775 31.057C28.9655 31.2694 27.6936 32.7561 28.1176 32.6853C28.9655 32.4729 30.0961 32.4021 30.6614 32.1897C31.58 31.7649 30.1668 28.7207 29.8135 28.0128C29.6722 27.7296 29.4602 27.3756 29.1775 26.9509C31.792 25.6058 33.2052 22.4908 32.6399 19.305C32.004 15.5529 28.9655 12.2963 22.9593 10.1017Z" fill="#131312"/>
            <path fill-rule="evenodd" clip-rule="evenodd" d="M15.3279 30.4198C15.3279 30.0659 15.7518 29.7119 16.2465 29.7119C21.1221 28.8623 24.5845 28.9331 29.1068 29.7119C29.6015 29.7119 30.0254 30.0659 30.0254 30.4198C30.0254 30.8446 29.6015 31.1278 29.1068 31.1278C24.0192 30.2074 21.2634 30.5614 16.2465 31.1278C15.7518 31.1278 15.3279 30.8446 15.3279 30.4198Z" fill="#131312"/>
        </g>
        <g id="wn" fill="none" stroke-linecap="round" stroke-linejoin="round" transform="translate(135.000000, 0)" >
            <path fill-rule="evenodd" clip-rule="evenodd" d="M23.2649 23.3763C23.4761 25.5495 22.3499 26.6711 21.8571 27.2319C20.1678 29.2649 17.0708 32.7 16.1558 38.3783H38.7501C39.1725 29.8258 36.005 13.8423 26.5027 11.1082C25.7285 10.8979 22.8426 10.4072 22.7722 10.4072C22.7018 10.3371 22.3499 8.234 22.1387 8.02369C19.6751 5.21957 19.2528 8.02369 19.3232 8.234C19.3232 8.44431 19.2528 10.0567 19.3936 10.1969C19.3936 10.1969 18.0562 10.4072 17.8451 10.4773C17.7043 10.267 17.1412 9.56596 16.7892 9.14534C16.5077 8.86493 14.6776 7.39277 14.3257 7.32266C14.2553 8.234 13.6922 9.70617 13.9737 10.6175C15.9446 12.1598 14.6072 11.5289 12.4956 14.1928C12.1437 15.3845 10.2432 17.4175 9.60973 18.6093C8.27236 21.133 5.59764 23.4464 5.94958 26.8113C6.01997 28.0031 6.30151 28.634 6.72384 29.1247C7.07578 29.5453 8.13159 31.0175 8.76508 31.2278C9.1874 31.368 9.96166 31.368 10.4544 31.1577C10.4544 31.2979 11.4398 31.2979 12.7772 30.5969C14.6776 29.5453 14.2553 28.7742 15.4519 27.302C16.015 26.601 18.4785 26.4608 19.3232 26.3206C20.5198 26.1103 22.4906 24.4278 23.2649 23.3763Z" fill="white"/>
            <path d="M14.2556 17.768C14.1148 18.1186 13.6925 18.2588 13.4109 18.0484C13.059 17.9082 12.9182 17.4876 13.1294 17.2072C13.4109 16.6464 13.9037 15.9454 14.6779 15.3845C15.3114 14.9639 16.0153 14.5433 16.8599 14.4031C17.2119 14.333 17.5638 14.5433 17.6342 14.8938C17.7046 15.2443 17.4934 15.5948 17.1415 15.6649C16.508 15.8051 15.9449 16.0856 15.5226 16.4361C14.8891 16.8567 14.4668 17.4175 14.2556 17.768Z" fill="#131312"/>
            <path fill-rule="evenodd" clip-rule="evenodd" d="M23.8283 21.0629C24.2506 21.133 24.5322 21.4835 24.4618 21.834C24.3914 22.1845 23.5467 25.4794 23.406 25.6196C23.1244 25.8299 22.4205 25.6897 22.2094 25.4093C21.9982 25.1289 22.2094 24.6381 22.3501 24.2175C22.4205 24.0072 23.054 21.4134 23.054 21.3433C23.1948 21.2031 23.6171 21.0629 23.8283 21.0629Z" fill="#131312"/>
            <path fill-rule="evenodd" clip-rule="evenodd" d="M15.6634 16.0155C16.2265 16.0155 16.7192 16.5062 16.7192 17.067C16.7192 17.6278 16.2265 18.1186 15.6634 18.1186C15.1003 18.1186 14.6075 17.6278 14.6075 17.067C14.6075 16.5062 15.1003 16.0155 15.6634 16.0155Z" fill="#131312"/>
            <path fill-rule="evenodd" clip-rule="evenodd" d="M24.1802 12.9309C24.2506 12.5804 24.6025 12.3701 24.9545 12.4402C29.8112 13.7021 33.1194 18.0485 34.7383 22.3247C36.6388 27.3021 36.3572 31.8588 36.6388 36.6258C36.6388 36.9763 36.3572 37.3268 36.0053 37.3268C35.583 37.3268 35.3014 37.0464 35.231 36.6959C35.0199 32.1392 35.3014 27.5124 33.401 22.6052C31.9228 18.8196 28.8962 14.8237 24.6729 13.7722C24.2506 13.7021 24.0394 13.2814 24.1802 12.9309Z" fill="#131312"/>
            <path d="M9.39887 27.3722C9.04694 27.7227 8.48384 27.6526 8.20229 27.3021C7.92074 26.9515 7.92074 26.3907 8.27268 26.1103C8.55422 25.9 8.76539 25.6897 8.97655 25.4794C9.32849 25.199 9.89159 25.199 10.1731 25.5495C10.5251 25.9 10.4547 26.4608 10.1027 26.7412C9.89159 26.9515 9.68042 27.1619 9.39887 27.3722Z" fill="#131312"/>
            <path d="M9.18772 31.0876C8.97656 31.2979 8.55424 31.2979 8.27269 31.0175C8.06152 30.7371 8.13191 30.3165 8.34307 30.1062L8.55424 29.966C9.11734 29.4753 9.68043 28.9845 10.1028 28.7742C10.3843 28.5639 10.8066 28.634 11.0178 28.9845C11.1586 29.2649 11.0882 29.6856 10.8066 29.8258C10.5251 30.0361 9.96198 30.5268 9.39889 30.9474L9.18772 31.0876Z" fill="#131312"/>
            <path d="M17.6343 11.5289C17.4231 11.7392 17.0008 11.7392 16.7896 11.4588C16.5784 11.2485 16.5784 10.8979 16.7896 10.6175H16.86C16.5784 9.84639 16.0857 9.07526 15.4522 8.58454C15.1707 8.37423 14.8891 8.23402 14.7484 8.51443C14.6076 8.65464 14.678 9.07526 14.678 9.28557C14.7484 10.0567 15.1003 10.3371 15.593 10.968V11.0381C15.7338 11.1082 15.8042 11.2485 15.8746 11.3887C15.945 11.7392 15.8746 11.8794 15.593 12.1598C14.9595 12.6505 14.3964 13.2113 13.8333 13.7722C13.3406 14.4031 12.8479 15.034 12.3552 15.7351C11.7217 16.7165 11.1586 17.6979 10.5251 18.7495C9.75086 20.0814 8.9766 21.4835 7.92079 23.0258C7.56885 23.5165 7.35769 24.0072 7.21691 24.568C7.07614 25.1289 7.07614 25.7598 7.14653 26.3907C7.14653 26.6711 7.21691 26.8814 7.21691 27.0918C7.2873 27.3021 7.2873 27.4423 7.35769 27.5825C7.49846 28.0031 8.13195 29.0546 8.76544 29.966C9.11737 30.4567 9.39892 30.8072 9.61009 30.8773H9.68047C10.3843 31.1577 11.2994 30.5969 12.0736 30.2464L12.2144 30.1062C13.1295 29.6155 13.3406 29.0546 13.5518 28.4938C13.7629 27.933 13.9741 27.3021 14.5372 26.6711C14.678 26.4608 14.9595 26.3206 15.1707 26.3907C16.3673 26.4608 17.6343 26.2505 18.7605 25.7598C20.0978 25.2691 21.2944 24.4979 22.3502 23.5866V23.5165C22.5614 23.3062 22.7022 23.166 23.0541 23.166C24.0395 23.166 23.9691 23.5165 23.758 24.2876L23.6876 24.4979C23.6172 24.9186 23.5468 25.4093 23.3356 25.8299C22.6318 27.4423 21.8575 28.4938 20.9425 29.6856C20.5905 30.1763 20.1682 30.7371 19.7459 31.368C19.2532 32.0691 18.6901 32.9103 18.127 34.1021C17.7046 35.0835 17.2119 36.3454 16.7192 37.8876H37.9058C38.0466 34.2423 37.8355 30.1062 36.9204 25.9701C36.1462 22.5351 34.8792 19.3103 32.9083 16.6464C31.7118 15.034 29.8817 13.5619 27.9108 12.5103C26.0104 11.4588 24.1099 10.6876 22.1391 10.6876C21.7167 10.6876 21.3648 10.5474 21.3648 10.0567C21.3648 9.9866 21.3648 9.91649 21.4352 9.84639C21.5056 9.42577 21.5056 8.65464 21.4352 8.37423C21.3648 7.95361 21.0832 7.46289 20.7313 7.18247C20.5201 6.97216 20.4498 6.90206 20.3794 7.04227C20.2386 7.25258 19.957 7.6732 19.957 7.95361C19.8867 8.30412 19.957 9.00515 20.0274 9.42577C20.1682 9.84639 20.5201 10.6175 19.7459 10.7577C19.7459 10.7577 18.127 10.968 17.6343 11.5289ZM18.2677 9.84639H18.5493C18.4789 9.07526 18.4085 8.44433 18.4789 7.88351C18.6197 7.11237 19.3939 5.5 20.2386 5.5C20.5201 5.5 21.0832 5.5701 21.6463 5.99072C22.2094 6.41134 22.8429 7.25258 22.9837 7.88351C23.0541 8.16392 23.0541 8.79485 23.0541 9.14536C25.0249 9.28557 26.7846 10.1268 28.6147 11.1082C30.8671 12.3 32.838 13.9124 34.1753 15.7351C36.2869 18.5392 37.6243 22.0443 38.3986 25.6196C39.4544 30.1763 39.5951 34.733 39.4544 38.6588C39.4544 39.1495 39.1024 39.5 38.6097 39.5H15.7338C15.6634 39.5 15.593 39.4299 15.5226 39.4299C15.1003 39.3598 14.8188 38.9392 14.9595 38.5186C15.5226 36.3454 16.1561 34.733 16.7192 33.401C17.3527 32.1392 17.9158 31.2278 18.4085 30.4567C18.9012 29.8258 19.3236 29.2649 19.6755 28.7041C20.3794 27.8629 20.9425 27.1619 21.4352 26.1804C20.7313 26.601 20.0274 26.9515 19.3236 27.232C18.127 27.7227 16.7896 28.0031 15.5226 27.933C15.3115 28.2835 15.1707 28.634 15.0299 28.9845C14.678 29.8959 14.3964 30.7371 12.9887 31.5082L12.8479 31.5784C11.7921 32.1392 10.4547 32.9103 9.11737 32.3495C8.55427 32.2093 7.99117 31.5784 7.42808 30.8773C6.7242 29.8959 6.09071 28.634 5.87955 28.1433C5.80916 27.933 5.73878 27.7227 5.66839 27.4423C5.66839 27.1619 5.598 26.8814 5.52761 26.5309C5.45723 25.6897 5.52761 24.9186 5.66839 24.2175C5.87955 23.4464 6.1611 22.7454 6.58343 22.1144C7.56885 20.7124 8.4135 19.3103 9.18776 17.9784C9.82125 16.8567 10.4547 15.8052 11.0882 14.8938C11.5809 14.1227 12.0736 13.4216 12.7071 12.7907C13.1295 12.3 13.5518 12.0196 14.0445 11.5289C13.5518 10.8278 13.1998 10.3371 13.1295 9.42577C13.0591 9.00515 13.1295 8.44433 13.2702 7.95361C13.4814 7.46289 13.6926 7.11237 13.9741 6.83196C14.1853 6.62165 14.4668 6.55155 14.7484 6.62165C16.0857 6.90206 17.8454 8.51443 18.2677 9.84639Z" fill="#131312"/>
        </g>
        <g id="wr" fill="none" stroke-linecap="round" stroke-linejoin="round" transform="translate(180.000000, 0)" stroke-width="1.5">
            <path fill-rule="evenodd" clip-rule="evenodd" d="M34.5351 37.0546H10.5351V32.024L14.1842 28.4607V17.4913L11.728 14.4869V9.03711H16.1491V10.6441H20.0789V9.03711H24.9912V10.6441H28.921V9.03711H33.3421V14.4869L30.8158 17.4913V28.4607L34.5351 32.024V37.0546Z" fill="white"/>
            <path fill-rule="evenodd" clip-rule="evenodd" d="M36.3596 35.6572H8.71045V38.7314H36.3596V35.6572Z" fill="white"/>
            <path fill-rule="evenodd" clip-rule="evenodd" d="M16.4299 14.2773C20.9913 14.2773 24.079 14.2773 28.6404 14.2773C29.0614 14.2773 29.4825 14.2773 29.693 14.2773C30.0439 14.2773 29.9737 14.4869 29.8334 14.6266C29.693 14.7664 29.4825 15.0458 29.2018 15.3253C28.7807 15.6747 28.7807 15.8144 28.5702 15.8144C28.4299 15.8144 28.2895 15.8144 28.0088 15.8144C23.8685 15.8144 21.2018 15.8144 17.0614 15.8144C16.7807 15.8144 16.6404 15.8144 16.5 15.8144C16.2895 15.8144 16.2895 15.6747 15.9386 15.3253C15.5878 15.0458 15.3772 14.7664 15.3071 14.6266C15.0965 14.4869 15.0264 14.2773 15.3772 14.2773C15.5878 14.2773 16.0088 14.2773 16.4299 14.2773Z" fill="#131312"/>
            <path fill-rule="evenodd" clip-rule="evenodd" d="M13.3421 33.9803C19.9386 33.9803 25.1316 33.9803 31.7281 33.9803C31.7281 33.7707 31.7281 33.4912 31.7281 33.1419C31.7281 32.7926 31.5877 32.4432 31.0263 32.4432C24.8509 32.4432 20.2193 32.4432 14.0439 32.4432C13.4825 32.4432 13.3421 32.7926 13.3421 33.1419C13.3421 33.4912 13.3421 33.7707 13.3421 33.9803Z" fill="#131312"/>
            <path fill-rule="evenodd" clip-rule="evenodd" d="M17.2018 28.321C17.2018 28.1113 17.3421 27.9716 17.5527 27.9716H27.5176C27.7281 27.9716 27.8685 28.1113 27.8685 28.321C27.8685 28.5306 27.7281 28.7402 27.5176 28.7402H17.5527C17.3421 28.7402 17.2018 28.5306 17.2018 28.321Z" fill="#131312"/>
            <path fill-rule="evenodd" clip-rule="evenodd" d="M10.7456 7.5H16.7105V9.87555H19.307V7.5H25.7632V9.87555H28.3596V7.5H34.3246V14.2773L31.0263 17.2817V28.1812L34.7456 31.7445V34.19H36.5V39.5H8.5V34.19H10.3947V31.7445L14.0439 28.1812V17.2817L10.7456 14.2773V7.5ZM33.2018 35.7271V32.3734L29.5526 28.81V16.6528L32.7807 13.5786V9.03712H29.8333V11.3428H24.2895V9.03712H20.7807V11.3428H15.1667V9.03712H12.2895V13.5786L15.5175 16.6528V28.81L11.8684 32.3734V35.7271H10.0439V37.9629H35.0263V35.7271H33.2018Z" fill="#131312"/>
        </g>
        <g id="wp" transform="translate(225.000000, 0)" fill="#FFFFFF" stroke-linecap="round" stroke-width="1.5">
            <path fill-rule="evenodd" clip-rule="evenodd" d="M22.4998 8.27536C24.3796 8.27536 25.9808 9.82602 25.9808 11.7996C25.9808 12.8569 25.4239 13.8436 24.658 14.478C27.0251 15.3943 28.696 17.6498 28.696 20.3282C28.696 22.3723 27.7213 24.1344 26.2593 25.2621C30.0188 26.9538 32.6644 30.9714 32.6644 35.6939C32.6644 36.7511 32.5947 37.7379 32.3163 38.7247H12.6833C12.4049 37.7379 12.2656 36.7511 12.2656 35.6939C12.2656 30.9714 14.9808 26.9538 18.7403 25.2621C17.2783 24.1344 16.3036 22.3723 16.3036 20.3282C16.3036 17.6498 17.9745 15.3943 20.3416 14.478C19.5061 13.8436 19.0188 12.8569 19.0188 11.7996C19.0188 9.82602 20.5504 8.27536 22.4998 8.27536Z" fill="white"/>
            <path d="M22.5 7.5C23.6835 7.5 24.7278 7.99339 25.4937 8.76872C26.2595 9.54405 26.7468 10.6013 26.7468 11.7996C26.7468 12.4339 26.6076 13.0683 26.3291 13.6322C26.1899 13.8436 26.1203 14.0551 25.981 14.2665C26.8861 14.7599 27.6519 15.4648 28.2089 16.3811C28.9747 17.5088 29.462 18.848 29.462 20.3282C29.462 21.4559 29.1835 22.5132 28.6962 23.4295C28.4177 24.0639 28.0696 24.6278 27.5823 25.1211C29.2532 26.0374 30.5759 27.3767 31.6203 28.9978C32.8038 30.9009 33.5 33.2269 33.5 35.6938C33.5 36.2577 33.4304 36.8216 33.3608 37.315C33.2911 37.8789 33.2215 38.3722 33.0823 38.8656C33.0127 39.2181 32.6646 39.5 32.3165 39.5H12.6835C12.2658 39.5 11.9873 39.2181 11.9177 38.8656C11.7785 38.3722 11.7089 37.8084 11.6392 37.315C11.5696 36.8216 11.5 36.2577 11.5 35.6938C11.5 33.2269 12.1962 30.9009 13.3797 28.9978C14.4241 27.3767 15.7468 26.0374 17.3481 25.1211C16.9304 24.6278 16.5823 24.0639 16.2342 23.4295C15.8165 22.4427 15.538 21.4559 15.538 20.3282C15.538 18.848 16.0253 17.5088 16.7911 16.3811C17.3481 15.4648 18.1139 14.7599 19.019 14.2665C18.8797 14.0551 18.7405 13.8436 18.6709 13.6322V13.5617C18.3924 12.9978 18.2532 12.4339 18.2532 11.7996C18.2532 10.6013 18.7405 9.54405 19.5063 8.76872C20.2722 7.99339 21.3165 7.5 22.5 7.5ZM24.3797 9.89648C23.8924 9.40308 23.2658 9.05066 22.5 9.05066C21.7342 9.05066 21.1076 9.40308 20.6203 9.82599V9.89648C20.1329 10.3194 19.7848 11.0242 19.7848 11.7996C19.7848 12.152 19.9241 12.5749 20.0633 12.9273C20.2722 13.2797 20.481 13.6322 20.7595 13.8436C20.8987 13.9846 20.9684 14.0551 21.038 14.196C21.1772 14.6189 20.9684 15.1123 20.6203 15.2533C19.5759 15.6057 18.6709 16.3106 18.0443 17.2269C17.4873 18.1432 17.1392 19.2004 17.1392 20.3282C17.1392 21.174 17.2785 22.0198 17.6266 22.7247C18.0443 23.5 18.5316 24.1344 19.1582 24.6278C19.2975 24.6982 19.3671 24.8392 19.4367 24.9802C19.6456 25.4031 19.4367 25.826 19.019 26.0374C17.2785 26.8128 15.7468 28.152 14.7025 29.8436C13.6582 31.5352 13.1013 33.5088 13.1013 35.6938C13.1013 36.1872 13.1013 36.6806 13.1709 37.1035C13.1709 37.3855 13.2405 37.6674 13.3101 37.8789H31.6899C31.7595 37.6674 31.8291 37.3855 31.8291 37.1035C31.8987 36.6806 31.8987 36.1872 31.8987 35.6938C31.8987 33.5088 31.3418 31.5352 30.2975 29.8436C29.2532 28.152 27.7215 26.8128 25.981 26.0374C25.8418 25.967 25.7025 25.8965 25.6329 25.7555C25.3544 25.4031 25.4241 24.9097 25.7722 24.6982C26.4684 24.1344 26.9557 23.5 27.3038 22.7247C27.6519 22.0198 27.8608 21.174 27.8608 20.3282C27.8608 19.2004 27.5127 18.1432 26.9557 17.2269C26.3291 16.3106 25.4241 15.6057 24.3797 15.2533C24.3101 15.1828 24.1709 15.1123 24.1013 14.9714C23.8228 14.6894 23.8228 14.1256 24.1709 13.9141C24.519 13.6322 24.7278 13.2797 24.9367 12.9273C25.0759 12.5749 25.1456 12.2225 25.1456 11.7996C25.1456 11.0242 24.8671 10.3194 24.3797 9.89648Z" fill="#131312"/>
        </g>
        <g id="bk" fill="none" stroke-linecap="round" stroke-linejoin="round" transform="translate(0, 45.000000)" stroke-width="1.5">
            <path fill-rule="evenodd" clip-rule="evenodd" d="M23.1088 9.73516H24.7795V8.53956H23.1088V6.5H21.8558V8.53956H20.1155V9.73516H21.8558C21.8558 10.5791 21.8558 11.3527 21.8558 12.1967H23.1088C23.1088 11.3527 23.1088 10.5791 23.1088 9.73516Z" fill="#131312"/>
            <path fill-rule="evenodd" clip-rule="evenodd" d="M23.1088 12.1967L21.7862 12.1967C20.3939 12.689 19.4194 13.8143 19.0713 15.7132C21.2989 18.1044 22.4823 21.3396 22.5519 26.122C22.5519 22.4648 23.1784 18.5967 25.8933 15.7132C25.4756 13.8846 24.5011 12.7593 23.1088 12.1967Z" fill="#131312"/>
            <path fill-rule="evenodd" clip-rule="evenodd" d="M21.5077 11.5637C21.647 11.5637 21.7166 11.4934 21.7862 11.4934H23.1088C23.1784 11.4934 23.3176 11.5637 23.3873 11.5637C25.0579 12.267 26.1021 13.6033 26.5894 15.5725C26.5894 15.7835 26.5198 15.9945 26.3806 16.2055C23.8745 18.878 23.248 22.4648 23.248 26.122C23.248 26.4736 22.9 26.8253 22.5519 26.8253C22.1342 26.8253 21.8558 26.4736 21.8558 26.122C21.7862 21.4099 20.6724 18.3857 18.5144 16.1352C18.3752 15.9945 18.3056 15.7835 18.3752 15.5725C18.7929 13.533 19.8371 12.1967 21.5077 11.5637ZM21.9254 12.8297C20.9508 13.2517 20.1851 14.0956 19.837 15.5022C21.0205 16.9088 21.9254 18.5264 22.4823 20.4956C22.9696 18.7374 23.8049 17.0495 25.1276 15.5725C24.7099 14.1659 23.9442 13.322 22.9696 12.8297H21.9254Z" fill="#131312"/>
            <path fill-rule="evenodd" clip-rule="evenodd" d="M22.4823 27.0363C22.4823 24.2231 22.6911 21.1286 23.8745 18.7374C25.6148 14.7989 29.2347 12.3374 34.1771 13.533C38.4234 14.6582 40.8598 20.144 39.3284 23.8714C37.7969 27.6692 34.3163 28.7242 33.2025 29.4978C32.9241 31.678 33.1329 33.6473 34.1075 35.6868C32.7153 36.7418 25.8933 37.867 22.4823 37.867C19.0713 37.867 12.2494 36.7418 10.8571 35.6868C11.8317 33.6473 11.9709 31.678 11.7621 29.4978C10.6483 28.7242 7.2373 27.6692 5.63622 23.8714C4.17437 20.144 6.54118 14.6582 10.8571 13.533C15.7299 12.3374 19.2802 14.8692 21.0901 18.7374C22.2039 21.1989 22.5519 24.1528 22.4823 27.0363Z" fill="#131312"/>
            <path fill-rule="evenodd" clip-rule="evenodd" d="M28.1905 14.7989C26.5894 15.6429 25.3364 17.1198 24.5011 18.9484C23.5265 21.0582 23.248 24.0121 23.1784 26.544C23.1784 26.8253 23.1784 27.1066 23.1784 27.3879C23.1784 27.7396 22.9 28.0912 22.4823 28.0912C22.1342 28.0912 21.7862 27.8099 21.7862 27.3879C21.7862 27.1066 21.7862 26.8253 21.7862 26.544C21.7862 24.0121 21.3685 21.0582 20.3939 19.0187C19.5586 17.1198 18.3056 15.6429 16.7741 14.7989C15.2427 13.9549 13.2935 13.6033 11.066 14.1659C9.18643 14.6582 7.58536 16.1352 6.68041 18.0341C5.84506 19.8626 5.63623 22.3242 6.26273 24.0121C7.37652 26.7549 9.46488 27.8099 10.9267 28.6538C11.414 28.9352 11.8317 29.1462 12.1797 29.3571C12.319 29.4978 12.3886 29.6385 12.4582 29.8495C12.667 31.889 12.5278 33.9989 11.6925 35.9681C14.2681 37.0934 18.584 37.2341 22.8304 37.1637C26.7982 37.1637 30.7661 37.0231 33.2025 35.9681C32.3672 33.9989 32.2976 31.889 32.5064 29.8495C32.5064 29.6385 32.6456 29.4978 32.7849 29.3571C33.0633 29.1462 33.481 28.9352 33.8987 28.7242C35.4301 27.8802 37.5185 26.7549 38.6323 24.0121H38.7019C39.3284 22.3242 39.1892 19.8626 38.2842 18.0341C37.3793 16.1352 35.8478 14.6582 33.9683 14.1659C31.6711 13.6033 29.7219 13.8846 28.1905 14.7989ZM22.4823 20.5659C22.6215 19.7923 22.9 19.089 23.1784 18.456C24.153 16.4165 25.6148 14.6582 27.4944 13.6033C29.3739 12.5484 31.7407 12.267 34.3163 12.9C36.7527 13.533 38.5627 15.3615 39.5372 17.4714C40.5814 19.5813 40.8598 22.4648 39.9549 24.5044C38.6323 27.8099 35.8478 29.2165 34.3859 29.9901C34.1771 30.1308 34.0379 30.2011 33.829 30.2714C33.6898 32.2407 33.8987 34.1396 34.734 35.9681C34.8732 36.2495 34.8036 36.6011 34.5252 36.7418C32.7153 38.1484 27.8424 38.4297 22.8304 38.5C17.6095 38.5 12.319 38.2187 10.3698 36.7418C10.161 36.6011 10.0218 36.2495 10.161 35.9681C11.066 34.1396 11.2748 32.1703 11.066 30.2714C10.9267 30.2011 10.7179 30.0604 10.5091 29.9198C9.04721 29.1462 6.33235 27.7396 4.94011 24.5044C4.17438 22.3945 4.45282 19.5813 5.42739 17.4714C6.47157 15.3615 8.28148 13.533 10.6483 12.9C13.2935 12.267 15.5907 12.6187 17.4703 13.6736C19.3498 14.7286 20.742 16.4165 21.7166 18.456C21.995 19.1593 22.2735 19.7923 22.4823 20.5659Z" fill="#131312"/>
            <path fill-rule="evenodd" clip-rule="evenodd" d="M12.3886 28.7242C12.0406 28.8648 11.9014 29.2165 12.0406 29.5681C12.2494 29.8494 12.5975 29.9901 12.9455 29.8494C18.236 27.3176 26.7983 27.3176 32.0888 29.8494C32.4369 29.9901 32.7849 29.8494 32.9938 29.5681C33.133 29.2165 32.9938 28.8648 32.6457 28.7242C26.9375 25.9813 18.0968 25.9813 12.3886 28.7242Z" fill="white"/>
            <path fill-rule="evenodd" clip-rule="evenodd" d="M12.319 32.5923C12.1798 32.6626 12.1102 32.8033 12.1798 33.0143C12.2494 33.1549 12.4583 33.2253 12.5975 33.1549C17.5399 30.8341 27.4944 30.8341 32.4369 33.1549C32.5761 33.2253 32.7849 33.1549 32.8546 33.0143C32.9242 32.8033 32.8546 32.6626 32.7153 32.5923C27.4944 30.1308 17.5399 30.1308 12.319 32.5923Z" fill="white"/>
            <path fill-rule="evenodd" clip-rule="evenodd" d="M12.1798 36.4604C11.9014 36.6011 11.4837 36.4604 11.2749 36.1791C11.1356 35.8275 11.2749 35.4758 11.6229 35.3352C16.5654 33.0143 28.7475 33.0846 33.6899 35.4055C34.038 35.5461 34.1772 35.9681 34.038 36.2494C33.8291 36.5308 33.4115 36.6714 33.133 36.5308C28.469 34.3505 16.8438 34.2802 12.1798 36.4604Z" fill="white"/>
            <path fill-rule="evenodd" clip-rule="evenodd" d="M24.71 19.4407C23.9442 20.9176 23.457 22.8165 23.3177 24.9967C23.3177 25.4187 23.3177 26.2626 23.3177 26.6846C23.2481 27.0363 22.9697 27.3176 22.6216 27.3176C22.2039 27.3176 21.9255 27.0363 21.9255 26.6846C21.9255 26.2626 21.9255 25.3483 21.9951 24.9264C22.1343 22.6055 22.6216 20.4956 23.5266 18.878C24.5707 16.9791 26.7983 13.9549 31.2535 13.9549C32.0192 13.9549 32.7849 14.0253 33.6899 14.2363C35.4302 14.5879 37.1009 15.7835 38.0755 17.5418C41.0688 22.3945 37.1009 27.1769 33.0634 29.7791C32.7153 29.9901 32.2977 29.9198 32.0888 29.5681C31.88 29.2868 31.9496 28.8648 32.2977 28.7242C35.9175 26.4033 39.6069 22.6055 36.892 18.1747C36.0567 16.6978 34.7341 15.7835 33.3418 15.4319C32.5761 15.2912 31.9496 15.2209 31.2535 15.2209C27.6337 15.2209 25.6845 17.6824 24.71 19.4407Z" fill="white"/>
            <path fill-rule="evenodd" clip-rule="evenodd" d="M20.394 19.4407C21.2294 20.9879 21.7166 23.0275 21.8559 25.489C21.8559 25.7 21.8559 26.4736 21.8559 26.6846C21.8559 27.0363 22.1343 27.3176 22.552 27.3176C22.9 27.3176 23.1785 27.0363 23.1785 26.6846C23.1785 26.4033 23.1785 25.6297 23.1785 25.278C23.0393 22.8165 22.552 20.5659 21.647 18.878C20.6028 16.9791 18.3056 13.9549 13.8505 13.9549C13.1544 13.9549 12.319 14.0253 11.4837 14.2363C9.67377 14.5879 8.0727 15.7835 7.02852 17.5418C4.10482 22.3945 8.00309 27.1769 12.1102 29.7791C12.3886 29.9901 12.8759 29.9198 13.0848 29.5681C13.2936 29.2868 13.1544 28.8648 12.8759 28.7242C9.2561 26.4033 5.49706 22.6055 8.21192 18.1747C9.04727 16.6978 10.3699 15.7835 11.7621 15.4319C12.5279 15.2912 13.224 15.2209 13.8505 15.2209C17.5399 15.2209 19.4194 17.6824 20.394 19.4407Z" fill="white"/>
        </g>
        <g id="bq" fill="none" stroke-linecap="round" stroke-linejoin="round" transform="translate(45.000000, 45.000000)">
            <path fill-rule="evenodd" clip-rule="evenodd" d="M33.5916 29.4744L37.6057 12.1987L30.3522 23.6218L30.5635 9.73076L25.2114 22.9167L22.6057 9.51922L20.0001 22.9167L14.648 9.73076L14.8592 23.6218L7.60572 12.1987L11.6198 29.4744C10.986 32.0128 11.7606 35.1859 10.7043 36.5962C17.8874 37.5128 27.2536 37.5833 34.3663 36.5962C34.3663 36.6667 34.3663 32.3654 33.5916 29.4744Z" fill="#131312"/>
            <path fill-rule="evenodd" clip-rule="evenodd" d="M22.6057 8.8141C22.6057 9.02564 22.6057 9.16666 22.6057 9.3782V13.3269L24.5071 23.0577C24.5775 23.3397 24.7888 23.6218 25.1409 23.6218C25.4226 23.6218 25.7747 23.4808 25.8451 23.1987L29.7888 13.4679L29.648 23.6218C29.648 23.9038 29.8592 24.1859 30.1409 24.2564C30.493 24.3974 30.7747 24.2564 30.986 23.9744L35.986 16.0769C35.0705 19.8846 34.0846 23.5513 33.3099 27.2885C32.4649 31.8718 33.3099 35.2564 33.8733 36.2436C33.9437 36.3141 26.9015 36.9487 22.6057 36.9487C18.3804 36.9487 11.2677 36.3141 11.3381 36.2436C11.9015 35.2564 12.817 31.8718 11.9015 27.2885C11.1268 23.5513 10.1409 19.8846 9.22543 16.0769L14.2958 23.9744C14.4367 24.2564 14.7888 24.3974 15.0705 24.2564C15.3522 24.1859 15.5635 23.9038 15.5635 23.6218L15.4226 13.4679L19.3663 23.1987C19.5071 23.4808 19.7888 23.6218 20.0705 23.6218C20.4226 23.6218 20.7043 23.3397 20.7043 23.0577L22.6057 13.3269V9.3782C22.6057 9.16666 22.6057 9.02564 22.6057 8.8141C22.2536 8.8141 21.9719 9.02563 21.9015 9.3782L19.7888 20.4487L15.3522 9.44871C15.2113 9.16666 14.8592 8.95512 14.5071 9.02563C14.155 9.09615 13.9437 9.3782 13.9437 9.73076L14.155 21.1538L8.23951 11.8461C8.02824 11.5641 7.67613 11.4231 7.32402 11.5641C7.04233 11.7051 6.83106 12.0577 6.90148 12.3397C7.53528 15.0192 9.43669 22.4936 10.3522 27.4295C11.0564 31.0962 10.7043 33.5641 9.29585 37.0897C10.0705 37.5833 12.0423 37.7949 12.5353 37.8654C15.7747 38.2179 18.4508 38.5 22.6057 38.5C26.7606 38.5 29.4367 38.2179 32.6761 37.8654C33.1691 37.7949 35.1409 37.5833 35.986 37.0897C34.5071 33.5641 34.155 31.0962 34.8592 27.4295C35.7747 22.4936 37.6761 15.0192 38.3099 12.3397C38.3804 12.0577 38.2395 11.7051 37.8874 11.5641C37.5353 11.4231 37.1832 11.5641 37.0423 11.8461L31.1268 21.1538L31.2677 9.73076C31.2677 9.3782 31.0564 9.09615 30.7043 9.02563C30.3522 8.95512 30.0001 9.16666 29.9297 9.44871L25.4226 20.4487L23.3099 9.3782C23.2395 9.02563 22.9578 8.8141 22.6057 8.8141Z" fill="#131312"/>
            <path fill-rule="evenodd" clip-rule="evenodd" d="M24.507 7.96794C24.507 8.95512 23.6619 9.80128 22.6056 9.80128C21.5492 9.80128 20.7042 8.95512 20.7042 7.96794C20.7042 6.98076 21.5492 6.13461 22.6056 6.13461C23.6619 6.13461 24.507 6.98076 24.507 7.96794Z" fill="#131312"/>
            <path fill-rule="evenodd" clip-rule="evenodd" d="M22.6056 6.83974C21.9014 6.83974 21.4084 7.33333 21.4084 7.96795C21.4084 8.60256 21.9718 9.09615 22.6056 9.09615C23.2394 9.09615 23.8028 8.60256 23.8028 7.96795C23.8028 7.40385 23.2394 6.83974 22.6056 6.83974ZM20 7.96795C20 6.62821 21.1268 5.5 22.6056 5.5C24.0141 5.5 25.2113 6.62821 25.2113 7.96795C25.2113 9.37821 24.0141 10.5064 22.6056 10.5064C21.1972 10.5064 20 9.37821 20 7.96795Z" fill="#131312"/>
            <path fill-rule="evenodd" clip-rule="evenodd" d="M39.2254 12.6218C39.2254 13.609 38.3803 14.3846 37.324 14.3846C36.3381 14.3846 35.493 13.609 35.493 12.6218C35.493 11.5641 36.3381 10.7885 37.324 10.7885C38.3803 10.7885 39.2254 11.5641 39.2254 12.6218Z" fill="#131312"/>
            <path fill-rule="evenodd" clip-rule="evenodd" d="M37.3239 11.4231C36.6901 11.4231 36.1972 11.9872 36.1972 12.6218C36.1972 13.1859 36.6901 13.75 37.3239 13.75C38.0282 13.75 38.5211 13.1859 38.5211 12.6218C38.5211 11.9872 38.0282 11.4231 37.3239 11.4231ZM34.7183 12.6218C34.7183 11.2115 35.9155 10.0833 37.3239 10.0833C38.8028 10.0833 40 11.2115 40 12.6218C40 13.9615 38.8028 15.0897 37.3239 15.0897C35.9155 15.0897 34.7183 13.9615 34.7183 12.6218Z" fill="#131312"/>
            <path fill-rule="evenodd" clip-rule="evenodd" d="M16.4085 9.44871C16.4085 10.4359 15.5634 11.282 14.5071 11.282C13.4507 11.282 12.6057 10.4359 12.6057 9.44871C12.6057 8.46153 13.4507 7.61538 14.5071 7.61538C15.5634 7.61538 16.4085 8.39102 16.4085 9.44871Z" fill="#131312"/>
            <path fill-rule="evenodd" clip-rule="evenodd" d="M14.507 8.3205C13.8732 8.3205 13.3098 8.81409 13.3098 9.44871C13.3098 10.0833 13.8732 10.5769 14.507 10.5769C15.1408 10.5769 15.7041 10.0833 15.7041 9.44871C15.7041 8.81409 15.1408 8.3205 14.507 8.3205ZM11.9013 9.44871C11.9013 8.03845 13.0985 6.91025 14.507 6.91025C15.9154 6.91025 17.1126 8.03845 17.1126 9.44871C17.1126 10.7885 15.9154 11.9167 14.507 11.9167C13.0985 11.9167 11.9013 10.7885 11.9013 9.44871Z" fill="#131312"/>
            <path fill-rule="evenodd" clip-rule="evenodd" d="M32.5352 9.44871C32.5352 10.4359 31.6901 11.282 30.6338 11.282C29.6478 11.282 28.7323 10.4359 28.7323 9.44871C28.7323 8.46153 29.6478 7.61538 30.6338 7.61538C31.6901 7.61538 32.5352 8.39102 32.5352 9.44871Z" fill="#131312"/>
            <path fill-rule="evenodd" clip-rule="evenodd" d="M30.6338 8.3205C30 8.3205 29.507 8.81409 29.507 9.44871C29.507 10.0833 30 10.5769 30.6338 10.5769C31.338 10.5769 31.831 10.0833 31.831 9.44871C31.831 8.81409 31.338 8.3205 30.6338 8.3205ZM28.0282 9.44871C28.0282 8.03845 29.2253 6.91025 30.6338 6.91025C32.1127 6.91025 33.2394 8.03845 33.2394 9.44871C33.2394 10.7885 32.1127 11.9167 30.6338 11.9167C29.2253 11.9167 28.0282 10.7885 28.0282 9.44871Z" fill="#131312"/>
            <path fill-rule="evenodd" clip-rule="evenodd" d="M9.507 12.3397C9.507 13.3269 8.66193 14.1731 7.60559 14.1731C6.54926 14.1731 5.70419 13.3269 5.70419 12.3397C5.70419 11.3526 6.54926 10.5064 7.60559 10.5064C8.66193 10.5064 9.507 11.3526 9.507 12.3397Z" fill="#131312"/>
            <path fill-rule="evenodd" clip-rule="evenodd" d="M8.80282 12.3397C8.80282 11.7051 8.23944 11.2115 7.60563 11.2115C6.97183 11.2115 6.40845 11.7051 6.40845 12.3397C6.40845 12.9744 6.97183 13.4679 7.60563 13.4679C8.23944 13.4679 8.80282 12.9744 8.80282 12.3397ZM7.60563 9.87179C9.08451 9.80128 10.2113 10.9295 10.2113 12.3397C10.2113 13.75 9.01409 14.8782 7.60563 14.8782C6.19718 14.8782 5 13.75 5 12.3397C5 11 6.19718 9.87179 7.60563 9.87179Z" fill="#131312"/>
            <path fill-rule="evenodd" clip-rule="evenodd" d="M32.817 32.2949C32.9579 32.3654 33.0283 32.5769 32.9579 32.718C32.8875 32.9295 32.6762 33 32.5354 32.9295C27.3241 30.9551 17.7466 30.9551 12.5353 33C12.3945 33.0705 12.1832 33 12.1128 32.7885C12.0424 32.6474 12.1128 32.4359 12.2537 32.3654C17.6762 30.3205 27.3945 30.25 32.817 32.2949Z" fill="white"/>
            <path fill-rule="evenodd" clip-rule="evenodd" d="M11.9719 28.6282C15.6339 27.7821 18.5212 27.0064 22.6058 26.9359C26.6903 27.0064 29.2959 27.5705 32.8875 28.4167C33.31 28.4872 33.5213 28.8397 33.4508 29.1923C33.31 29.5449 32.9579 29.8269 32.5353 29.7564C29.0846 28.9103 26.5494 28.3462 22.6058 28.2756C18.6621 28.3462 15.8452 29.0513 12.3241 29.8974C11.972 29.968 11.5494 29.7564 11.479 29.4038C11.4086 29.0513 11.6198 28.6987 11.9719 28.6282Z" fill="white"/>
            <path fill-rule="evenodd" clip-rule="evenodd" d="M11.3381 35.2564C14.9297 34.4103 18.5212 33.7756 22.6057 33.7756C26.6902 33.7756 30.1409 34.4103 33.8029 35.2564C34.155 35.3269 34.3663 35.6795 34.2959 36.0321C34.2254 36.3846 33.8733 36.6667 33.4508 36.5256C30.0001 35.75 26.5494 35.1154 22.6057 35.0449C18.662 35.1154 15.1409 35.75 11.6198 36.5256C11.2677 36.5962 10.9156 36.3846 10.8451 36.0321C10.7043 35.6795 10.986 35.3269 11.3381 35.2564Z" fill="white"/>
        </g>
        <g id="bb" fill="none" stroke-linecap="round" stroke-linejoin="round" transform="translate(90.000000, 45)" stroke-width="1.5">
            <path fill-rule="evenodd" clip-rule="evenodd" d="M16.1205 31.9208C16.5439 32.275 17.8142 32.4875 20.0725 32.6292C20.3548 32.6292 20.0725 33.55 18.9434 34.4708C18.7316 34.6833 14.215 34.1875 11.9567 34.3292C8.56922 34.5417 6.94606 35.3917 6.66377 35.6042C5.95804 36.2417 9.27494 38.7208 9.48666 38.7208C9.48666 38.7208 10.3335 38.225 11.4627 37.9417C12.239 37.7292 13.3681 37.7292 13.4387 37.7292C14.2856 37.375 19.7902 38.65 22.4014 35.9583C22.6131 35.7458 23.8834 37.6583 25.7889 37.5875C27.6238 37.5167 28.5412 38.0833 30.5878 37.6583C32.0698 37.4458 34.8927 38.7208 36.3042 38.5083C38.0685 38.225 38.3508 35.8167 38.4213 35.6042C38.5625 35.3208 36.5159 34.5417 34.3987 34.1167C33.2695 33.8333 28.7529 34.3292 27.6238 34.1875C24.942 33.8333 24.942 32.6292 24.942 32.6292C27.2003 32.5583 29.1058 32.3458 29.5998 31.85C30.2349 30.0083 29.6704 27.8125 27.9766 26.8208C33.8341 25.1208 34.3281 15.0625 22.6837 10.7417C11.0393 14.9917 11.6038 25.1208 17.3908 26.75C15.697 27.8125 15.4853 29.9375 16.1205 31.9208Z" fill="#131312"/>
            <path d="M23.1777 32.4875C23.1071 34.4 23.3894 35.5333 23.8834 36.1708C24.3774 36.7375 25.0831 36.8792 25.8594 36.95C26.9886 36.95 28.4706 37.0208 29.8115 37.0208H32.1404C32.5638 37.0208 33.6224 37.0208 34.5398 37.2333C35.2455 37.375 35.7396 37.7292 36.0924 38.0125C36.0924 38.0125 36.0924 37.9417 36.163 37.9417C36.3747 37.6583 36.657 37.2333 36.9393 36.8083C37.151 36.5958 37.2921 36.3833 37.4333 36.1708H37.3627C37.0804 36.0292 36.7276 35.8167 36.2336 35.675C34.6104 34.9667 32.4932 35.0375 30.4466 35.0375C29.4586 35.1083 28.4706 35.1083 27.4826 35.0375C26.6357 34.9667 26.0006 34.825 25.436 34.5417C24.8714 34.1875 24.5186 33.6917 24.3068 32.9125L25.5771 32.5583C25.7183 32.9833 25.8594 33.2667 26.1417 33.4083C26.424 33.6208 26.918 33.6917 27.6237 33.7625C28.4706 33.7625 29.4586 33.7625 30.4466 33.7625C32.6344 33.6917 34.8221 33.6208 36.7276 34.4C37.2216 34.6125 37.645 34.825 37.9979 35.0375C38.4919 35.25 38.7742 35.5333 38.9153 35.7458C39.127 36.1708 38.9153 36.4542 38.5625 36.8792C38.4213 37.0208 38.2802 37.2333 38.0684 37.5875C37.7862 37.9417 37.4333 38.4375 37.151 38.7917C36.8687 39.1458 36.5159 39.4292 36.2336 39.5C35.9513 39.5 35.669 39.3583 35.3867 39.1458C35.1044 38.9333 34.681 38.65 34.187 38.5083C33.4812 38.2958 32.5638 38.3667 32.2109 38.3667H31.9992L29.8115 38.2958C28.4 38.2958 26.918 38.2958 25.7889 38.225C24.6597 38.225 23.6717 37.9417 22.8954 36.95C22.1897 36.1 21.7662 34.7542 21.8368 32.4875H23.1777ZM36.0924 38.1542C36.163 38.1542 36.163 38.1542 36.163 38.1542H36.0924ZM37.7156 36.2417C37.7156 36.3833 37.7862 36.4542 37.7156 36.3125V36.2417Z" fill="#131312"/>
            <path fill-rule="evenodd" clip-rule="evenodd" d="M14.9918 31.2125C14.7095 29.3708 22.6136 29.7958 24.1662 29.7958C25.0836 29.7958 29.6708 29.6542 29.5297 31.425C29.5297 31.7083 26.8479 32.3458 23.7427 32.4875C19.9318 32.6292 14.9918 31.7083 14.9918 31.2125Z" fill="white"/>
            <path fill-rule="evenodd" clip-rule="evenodd" d="M22.6839 10.6708C24.0248 10.6708 25.0834 9.67916 25.0834 8.47499C25.0834 7.19999 24.0248 6.13749 22.6839 6.13749C21.3431 6.13749 20.2845 7.19999 20.2845 8.40416C20.2139 9.67916 21.3431 10.6708 22.6839 10.6708Z" fill="#131312"/>
            <path fill-rule="evenodd" clip-rule="evenodd" d="M19.5081 8.40417C19.5081 6.775 20.9195 5.5 22.6838 5.5C24.4481 5.5 25.8596 6.775 25.8596 8.475C25.8596 10.0333 24.3776 11.3792 22.6838 11.3792C20.9195 11.3792 19.5081 10.0333 19.5081 8.40417ZM22.6838 6.84583C21.7664 6.84583 20.9901 7.55417 20.9901 8.40417C20.9901 9.25417 21.7664 9.9625 22.6838 9.9625C23.6013 9.9625 24.307 9.25417 24.307 8.475C24.307 7.55417 23.6013 6.84583 22.6838 6.84583Z" fill="#131312"/>
            <path d="M15.3444 32.3458C14.9915 32.2042 14.7798 31.85 14.8504 31.4958C14.9915 31.1417 15.3444 30.9292 15.6972 31.0708C16.1207 31.1417 17.4615 31.425 19.1553 31.5667C20.2844 31.7083 21.5547 31.7792 22.825 31.7792C24.0248 31.7792 25.2951 31.7083 26.3537 31.5667C27.9063 31.425 29.1766 31.1417 29.6 31.0708C29.9529 30.9292 30.3763 31.1417 30.4469 31.4958C30.5174 31.85 30.3057 32.2042 29.9529 32.3458C29.5294 32.4875 28.1885 32.7708 26.4948 32.9125C25.3656 33.0542 24.0953 33.125 22.825 33.125C21.4842 33.125 20.1433 33.0542 19.0141 32.9125C17.2498 32.7 15.7678 32.4167 15.3444 32.3458Z" fill="#131312"/>
            <path fill-rule="evenodd" clip-rule="evenodd" d="M22.4016 10.0333C22.4721 10.0333 22.6133 10.0333 22.6839 10.0333V11.45C17.2498 13.575 14.7798 16.3375 14.2152 19.4542C13.7212 22.3583 14.9915 24.8375 16.9675 25.8292C18.6612 26.6083 18.5907 26.1833 17.6027 27.6708C16.8264 28.8042 16.1912 30.15 16.1206 31.0708C16.3324 31.2833 17.6732 32.7708 17.2498 32.6292C16.4029 32.4875 15.2738 32.3458 14.7092 32.1333C13.7917 31.7792 15.2032 28.6625 15.4855 28.025C15.6972 27.6708 15.9089 27.3875 16.1912 26.9625C13.58 25.6167 12.1686 22.5 12.7332 19.2417C13.3683 15.5583 16.3324 12.3 22.4016 10.0333Z" fill="#131312"/>
            <path fill-rule="evenodd" clip-rule="evenodd" d="M22.9662 10.0333C22.8956 10.0333 22.7544 10.0333 22.6839 10.0333V11.45C28.1179 13.575 30.588 16.3375 31.1526 19.4542C31.6466 22.3583 30.3763 24.8375 28.4002 25.8292C26.7065 26.6083 26.7065 26.1833 27.6945 27.6708C28.4708 28.8042 29.1765 30.15 29.1765 31.0708C28.9648 31.2833 27.6945 32.7708 28.118 32.6292C28.9648 32.4875 30.094 32.3458 30.6586 32.1333C31.576 31.7792 30.1646 28.6625 29.8117 28.025C29.6705 27.6708 29.4588 27.3875 29.1765 26.9625C31.7877 25.6167 33.1992 22.5 32.6346 19.2417C31.9994 15.5583 28.9648 12.3 22.9662 10.0333Z" fill="#131312"/>
            <path fill-rule="evenodd" clip-rule="evenodd" d="M15.3443 30.4333C15.3443 30.0083 15.7678 29.725 16.2618 29.725C21.1313 28.875 24.5893 28.875 29.1059 29.725C29.5999 29.725 30.0234 30.0083 30.0234 30.4333C30.0234 30.7875 29.5999 31.1417 29.1059 31.1417C24.0247 30.2208 21.2724 30.5042 16.2618 31.1417C15.7678 31.1417 15.3443 30.7875 15.3443 30.4333Z" fill="#131312"/>
            <path d="M23.1074 32.4875C23.178 34.7542 22.7545 36.1 22.0488 36.95C21.3431 37.9417 20.2845 38.225 19.1554 38.225C18.0262 38.2958 16.5442 38.2958 15.1327 38.2958L13.0156 38.3667H12.8038C12.3804 38.3667 11.463 38.2958 10.7572 38.5083C10.2632 38.65 9.83981 38.9333 9.55752 39.1458C9.27523 39.3583 9.06351 39.5 8.71065 39.5C8.42836 39.4292 8.14607 39.1458 7.79321 38.7917C7.51092 38.4375 7.22863 37.9417 6.94634 37.5875C6.73463 37.2333 6.52291 37.0208 6.38176 36.8792C6.0289 36.4542 5.88776 36.1708 6.09947 35.7458C6.17005 35.5333 6.52291 35.25 6.94634 35.0375C7.2992 34.825 7.72264 34.6125 8.21665 34.4C10.1221 33.6208 12.3804 33.6917 14.5682 33.7625C15.4856 33.7625 16.4736 33.7625 17.3911 33.7625C18.0262 33.6917 18.5202 33.6208 18.8025 33.4083C19.0848 33.2667 19.2965 32.9833 19.3671 32.5583L20.6374 32.9125C20.4962 33.6917 20.0728 34.1875 19.5082 34.5417C19.0142 34.825 18.3085 35.0375 17.4616 35.0375C16.5442 35.1083 15.5562 35.1083 14.4976 35.0375C12.451 35.0375 10.3338 34.9667 8.71065 35.675C8.28722 35.8167 7.86378 36.0292 7.58149 36.1708H7.51092C7.65207 36.3833 7.86378 36.525 8.00493 36.8083C8.28722 37.2333 8.56951 37.6583 8.8518 37.9417V38.0125C9.20466 37.7292 9.76924 37.375 10.475 37.2333C11.3218 37.0208 12.3804 37.0208 12.8038 37.0208H15.1327C16.5442 37.0208 17.9556 36.95 19.1554 36.95C19.9317 36.8792 20.5668 36.7375 21.0608 36.1708C21.5548 35.5333 21.8371 34.4 21.8371 32.4875H23.1074ZM8.8518 38.1542C8.78122 38.1542 8.78122 38.1542 8.8518 38.1542V38.1542ZM8.92237 38.1542C8.92237 38.1542 8.92237 38.1542 8.8518 38.1542H8.92237ZM7.22863 36.3125C7.22863 36.4542 7.22863 36.3833 7.2992 36.2417C7.2992 36.2417 7.2992 36.2417 7.22863 36.3125Z" fill="#131312"/>
            <path fill-rule="evenodd" clip-rule="evenodd" d="M23.6011 21.8625V19.525H25.2243V17.9667H23.6011V16.125H21.7662V17.9667H20.1431V19.525H21.7662V21.8625H23.6011Z" fill="white"/>
        </g>
        <g id="bn" fill="none" stroke-linecap="round" stroke-linejoin="round" transform="translate(135.000000, 45)" >
            <path fill-rule="evenodd" clip-rule="evenodd" d="M22.9952 24.5911C22.8472 25.0881 22.7732 25.585 22.6252 26.011C21.5893 28.2828 20.4053 28.7798 18.9254 30.9096C17.8895 32.3295 16.3356 35.2403 15.1517 39.5H39.422C39.792 32.5425 38.978 22.1063 34.0944 15.7878C31.5046 12.38 26.3989 9.61122 21.9592 9.61122C21.9592 8.90127 22.4032 8.40431 21.5153 6.91342C21.3673 6.62944 21.2193 6.41646 20.9973 6.27447C20.1094 5.28054 19.8874 5.28054 19.2954 6.06149C18.2595 7.41039 18.4815 8.04934 18.6295 9.75321C18.6295 9.75321 17.6675 9.75321 17.5195 9.82421C17.5195 9.11426 16.6316 8.04934 16.0396 7.55237C15.6697 7.2684 15.1517 6.91342 14.7077 6.62944C13.6718 5.99049 13.8938 7.2684 13.8938 8.12033C13.9678 9.11426 14.2638 9.75321 14.8557 10.5342C14.9297 10.6051 15.0037 10.7471 14.9297 10.8181C13.2278 12.096 10.0461 16.8527 9.38012 18.0596C8.56618 19.5505 7.30827 20.8994 6.42033 22.4613C5.75438 23.6682 5.3844 24.9461 5.53239 26.366C5.53239 27.0049 5.68038 27.4309 5.82837 27.8569C6.05035 28.4958 7.75223 31.4776 8.64017 31.8326C9.82409 32.2585 11.082 31.5486 12.0439 30.9806C14.1158 29.9867 13.5238 28.7798 14.7077 27.2889C17.6675 27.5019 20.6273 26.508 22.8472 24.5911C23.0691 24.4491 23.0691 24.3071 22.9952 24.5911Z" fill="#131312"/>
            <path d="M14.2637 17.6336C14.0417 17.9176 13.6718 18.0596 13.3018 17.9176C12.9318 17.7046 12.8578 17.3496 13.0058 16.9947C13.3018 16.4977 13.8937 15.7878 14.7077 15.1488C15.2996 14.7228 16.0396 14.3679 16.9275 14.1549C17.2975 14.0839 17.6675 14.2969 17.7415 14.6518C17.8155 15.0068 17.5935 15.3618 17.2235 15.4328C16.5575 15.5748 15.9656 15.8588 15.5216 16.2137C14.8557 16.7107 14.4117 17.2077 14.2637 17.6336Z" fill="white"/>
            <path d="M15.6696 17.9176C16.2826 17.9176 16.7795 17.4408 16.7795 16.8527C16.7795 16.2645 16.2826 15.7878 15.6696 15.7878C15.0566 15.7878 14.5597 16.2645 14.5597 16.8527C14.5597 17.4408 15.0566 17.9176 15.6696 17.9176Z" fill="white"/>
            <path fill-rule="evenodd" clip-rule="evenodd" d="M24.623 12.522C24.697 12.167 25.067 11.9541 25.5109 12.025C30.5426 13.303 34.0203 17.7046 35.7222 21.9643C37.7201 27.0759 37.4241 32.6135 37.7201 37.4412C37.7201 37.7961 37.4241 38.1511 37.0541 38.1511C36.6102 38.1511 36.3142 37.8671 36.2402 37.5122C36.0182 32.8975 36.3882 27.2889 34.3163 22.3193C32.7624 18.4856 29.5807 14.4389 25.141 13.3739C24.771 13.232 24.549 12.877 24.623 12.522Z" fill="white"/>
            <path d="M8.71404 27.3599C8.34407 27.6439 7.75211 27.5729 7.45613 27.2179C7.08616 26.8629 7.16015 26.295 7.53012 26.011C7.8261 25.798 8.04809 25.656 8.27007 25.4431C8.64005 25.0881 9.232 25.1591 9.52798 25.4431C9.89796 25.798 9.82396 26.366 9.45399 26.721C9.232 26.9339 9.01002 27.1469 8.71404 27.3599Z" fill="white"/>
            <path d="M9.38008 30.6257C9.0841 30.8386 8.64013 30.8386 8.41815 30.5547C8.19617 30.2707 8.19617 29.8447 8.49214 29.6317L8.64013 29.4897C9.30609 28.9928 9.89805 28.4958 10.268 28.2118C10.638 28.0698 11.082 28.1408 11.23 28.4248C11.4519 28.7798 11.3779 29.1348 11.008 29.3478C10.712 29.5607 10.12 29.9867 9.52807 30.4837L9.38008 30.6257Z" fill="white"/>
        </g>
        <g id="br" fill="none" stroke-linecap="round" stroke-linejoin="round" transform="translate(180.000000, 45)">
            <path fill-rule="evenodd" clip-rule="evenodd" d="M36.3596 35.6572H8.71051V38.7314H36.3596V35.6572Z" fill="#131312"/>
            <path fill-rule="evenodd" clip-rule="evenodd" d="M34.5351 37.0546H10.5351V32.0939L14.1842 28.4607V17.5611L11.7281 14.4869V8.61791H16.1492V10.2249H20.079V8.61791H24.9913V10.2249H28.9211V8.61791H33.3421V14.4869L30.8158 17.5611V28.4607L34.5351 32.0939V37.0546Z" fill="#131312"/>
            <path fill-rule="evenodd" clip-rule="evenodd" d="M10.7457 7.5H16.7106V9.87555H19.3071V7.5H25.7632V9.87555H28.3597V7.5H34.3246V14.2773L31.0264 17.2817V28.1812L34.7457 31.7445V37.8231H10.3948V31.7445L14.0439 28.1812V17.2817L10.7457 14.2773V7.5ZM12.2895 9.03712V13.5786L15.5176 16.6528V28.81L11.8685 32.3734V36.286H33.2018V32.3734L29.5527 28.81V16.6528L32.7808 13.5786V9.03712H29.8334V11.3428H24.2895V9.03712H20.7807V11.3428H15.1667V9.03712H12.2895Z" fill="#131312"/>
            <path fill-rule="evenodd" clip-rule="evenodd" d="M36.3596 35.6572H8.71051V38.7314H36.3596V35.6572Z" fill="#131312"/>
            <path fill-rule="evenodd" clip-rule="evenodd" d="M8.5 34.19H11.307V35.7271H10.0439V37.9629H35.0263V35.7271H33.7632V34.19H36.5V39.5H8.5V34.19Z" fill="#131312"/>
            <path fill-rule="evenodd" clip-rule="evenodd" d="M16.43 14.2773C20.9914 14.2773 24.0791 14.2773 28.6405 14.2773C29.0616 14.2773 29.4827 14.2773 29.6932 14.2773C30.0441 14.2773 29.9739 14.4869 29.8335 14.6266C29.6932 14.7664 29.4827 15.0458 29.2019 15.3253C28.7809 15.6747 28.7809 15.8144 28.5704 15.8144C28.43 15.8144 28.2897 15.8144 28.009 15.8144C23.8686 15.8144 21.2019 15.8144 17.0616 15.8144C16.7809 15.8144 16.6405 15.8144 16.5002 15.8144C16.2897 15.8144 16.2897 15.6747 15.9388 15.3253C15.5879 15.0458 15.3774 14.7664 15.3072 14.6266C15.0967 14.4869 15.0265 14.2773 15.3774 14.2773C15.5879 14.2773 16.009 14.2773 16.43 14.2773Z" fill="white"/>
            <path fill-rule="evenodd" clip-rule="evenodd" d="M13.3423 33.9803C19.9388 33.9803 25.1318 33.9803 31.7283 33.9803C31.7283 33.7707 31.7283 33.4913 31.7283 33.1419C31.7283 32.7926 31.5879 32.4432 31.0265 32.4432C24.8511 32.4432 20.2195 32.4432 14.044 32.4432C13.4826 32.4432 13.3423 32.7926 13.3423 33.1419C13.3423 33.4913 13.3423 33.7707 13.3423 33.9803Z" fill="white"/>
            <path fill-rule="evenodd" clip-rule="evenodd" d="M16.7808 27.9716C16.7808 27.762 16.9914 27.6223 17.2019 27.6223H27.8686C28.0791 27.6223 28.2896 27.762 28.2896 27.9716C28.2896 28.1812 28.0791 28.3908 27.8686 28.3908H17.2019C16.9914 28.3908 16.7808 28.1812 16.7808 27.9716Z" fill="white"/>
        </g>
        <g id="bp" transform="translate(225.000000, 45)" fill="#000000" stroke-linecap="round" stroke-width="1.5">
            <path fill-rule="evenodd" clip-rule="evenodd" d="M22.5004 8.40758C24.3683 8.40758 25.9595 9.94469 25.9595 11.901C25.9595 12.9491 25.406 13.9272 24.645 14.556C26.9972 15.4643 28.6576 17.7002 28.6576 20.3552C28.6576 22.3814 27.6891 24.1281 26.2362 25.246C29.9721 26.9229 32.601 30.9054 32.601 35.6565C32.601 36.6346 32.5318 37.6827 32.2551 38.6608H12.7457C12.4689 37.6827 12.3306 36.6346 12.3306 35.6565C12.3306 30.9054 15.0287 26.9229 18.7645 25.246C17.3117 24.1281 16.3431 22.3814 16.3431 20.3552C16.3431 17.7002 18.0035 15.4643 20.3557 14.556C19.5255 13.9272 19.0413 12.9491 19.0413 11.901C19.0413 9.94469 20.5633 8.40758 22.5004 8.40758Z" fill="#131312"/>
            <path d="M22.5 7.5C23.6761 7.5 24.783 7.98908 25.544 8.82751C26.305 9.59607 26.7893 10.714 26.7893 11.9017C26.7893 12.5306 26.6509 13.1594 26.3742 13.7882C26.305 13.9279 26.2358 14.1376 26.0975 14.2773C26.9277 14.8362 27.6887 15.5349 28.2421 16.3734C29.0723 17.4913 29.4874 18.8886 29.4874 20.3559C29.4874 21.4738 29.2107 22.5218 28.7956 23.5C28.5189 24.059 28.173 24.6179 27.7579 25.0371C29.2799 26.0153 30.6635 27.3428 31.6321 28.8799C32.8082 30.8362 33.5 33.1419 33.5 35.6572C33.5 36.1463 33.5 36.7052 33.4308 37.2642C33.3616 37.8231 33.2233 38.3122 33.0849 38.8712L32.9465 39.5H12.0535L11.9151 38.8712C11.7767 38.3122 11.6384 37.8231 11.5692 37.2642C11.5 36.7052 11.5 36.1463 11.5 35.6572C11.5 33.1419 12.1918 30.8362 13.3679 28.8799C14.3365 27.3428 15.6509 26.0153 17.2421 25.0371C16.827 24.6179 16.4811 24.059 16.2044 23.5C15.7201 22.5218 15.5126 21.4738 15.5126 20.3559C15.5126 18.8886 15.9277 17.4913 16.7579 16.3734C17.3113 15.5349 18.0723 14.8362 18.9025 14.2773C18.7642 14.1376 18.695 13.9279 18.6258 13.7882C18.3491 13.1594 18.2107 12.5306 18.2107 11.9017C18.2107 10.714 18.695 9.59607 19.456 8.82751C20.217 7.98908 21.3239 7.5 22.5 7.5ZM24.2987 10.0852C23.8145 9.59607 23.1918 9.31659 22.5 9.31659C21.8082 9.31659 21.1164 9.59607 20.7013 10.0852C20.217 10.5044 19.9403 11.2031 19.9403 11.9017C19.9403 12.321 20.0094 12.6703 20.217 13.0197C20.3553 13.369 20.5629 13.6485 20.9088 13.8581L22.0849 14.8362L20.6321 15.3952C19.6635 15.8144 18.7642 16.5131 18.1415 17.3515C17.5881 18.19 17.2421 19.238 17.2421 20.3559C17.2421 21.1943 17.4497 22.0328 17.7956 22.7314C18.1415 23.4301 18.6258 24.059 19.3176 24.548L20.4937 25.5262L19.1101 26.0852C17.3805 26.8537 15.8585 28.1812 14.8208 29.8581C13.8522 31.4651 13.2296 33.4913 13.2296 35.6572C13.2296 36.0764 13.2987 36.5655 13.2987 37.0546C13.3679 37.2642 13.3679 37.5437 13.4371 37.7533H31.5629C31.6321 37.5437 31.6321 37.2642 31.7013 37.0546C31.7013 36.5655 31.7704 36.0764 31.7704 35.6572C31.7704 33.4913 31.1478 31.4651 30.1101 29.8581C29.0723 28.1812 27.6195 26.8537 25.8899 26.0852L24.5063 25.5262L25.6824 24.548C26.305 24.059 26.8585 23.4301 27.2044 22.7314C27.5503 22.0328 27.7579 21.1943 27.7579 20.3559C27.7579 19.238 27.4119 18.19 26.7893 17.3515C26.2358 16.5131 25.3365 15.8144 24.3679 15.3952L22.9151 14.8362L24.0912 13.8581C24.3679 13.6485 24.6447 13.369 24.783 13.0197C24.9906 12.6703 25.0597 12.321 25.0597 11.9017C25.0597 11.2031 24.783 10.5044 24.2987 10.0852Z" fill="#131312"/>
        </g>
        <g id="pointer" transform="translate(0, 45)" fill="#000000" stroke-linecap="round" stroke-width="1.5">
            <path d="M23.1628 19.7828C23.1628 20.3006 22.743 20.7203 22.2253 20.7203C21.7075 20.7203 21.2878 20.3006 21.2878 19.7828V15.7662C21.2878 14.9032 20.5882 14.2037 19.7253 14.2037C18.8623 14.2037 18.1628 14.9033 18.1628 15.7662V20.7203C18.1628 21.2381 17.743 21.6578 17.2253 21.6578C16.7075 21.6578 16.2878 21.2381 16.2878 20.7203V17.7399C16.2878 16.8769 15.5882 16.1774 14.7253 16.1774C13.8623 16.1774 13.1628 16.8769 13.1628 17.7399V21.6578C13.1628 22.1756 12.743 22.5953 12.2253 22.5953C11.7075 22.5953 11.2878 22.1756 11.2878 21.6578V20.8026C11.2878 19.9396 10.5882 19.2401 9.72528 19.2401C8.86233 19.2401 8.16278 19.9396 8.16278 20.8026V29.2245C8.16278 32.5246 8.7636 35.7971 9.93585 38.8819L10.7686 41.0734C10.9525 41.5574 10.7093 42.0989 10.2253 42.2828C9.74128 42.4667 9.19982 42.2235 9.0159 41.7395L8.18313 39.548C6.93003 36.2504 6.28778 32.7521 6.28778 29.2245V20.8026C6.28778 18.9041 7.8268 17.3651 9.72528 17.3651C10.2879 17.3651 10.819 17.5002 11.2878 17.7399C11.2878 15.8414 12.8268 14.3024 14.7253 14.3024C15.3488 14.3024 15.9336 14.4684 16.4378 14.7587C16.8684 13.3518 18.1774 12.3287 19.7253 12.3287C21.6238 12.3287 23.1628 13.8677 23.1628 15.7662V19.7828Z" fill="#161622"/>
            <path d="M37.2067 23.8119C37.9064 22.3158 37.1412 20.5446 35.5723 20.0285C34.5912 19.7058 33.5121 19.959 32.7769 20.6845L28.1628 25.2379L28.1628 7.48019C28.1628 5.58172 26.6238 4.04269 24.7253 4.04269C22.8268 4.04269 21.3125 5.58176 21.3125 7.48024V12.7163C22.4121 13.2897 23.1628 14.4403 23.1628 15.7662L23.1875 7.48024C23.1875 6.61729 23.8623 5.91769 24.7253 5.91769C25.5882 5.91769 26.2878 6.61725 26.2878 7.48019V25.2379C26.2878 26.9024 28.2951 27.7416 29.4798 26.5725L34.0939 22.019C34.3287 21.7874 34.6732 21.7066 34.9864 21.8096C35.4873 21.9744 35.7316 22.5399 35.5082 23.0175L32.1543 30.1888C31.0003 32.6562 29.5873 34.994 27.9391 37.1627L25.0461 40.9692C24.7328 41.3814 24.8131 41.9695 25.2253 42.2828C25.6375 42.5961 26.2257 42.5159 26.5389 42.1037L29.4319 38.2972C31.1605 36.0227 32.6424 33.5709 33.8527 30.9831L37.2067 23.8119Z" fill="#161622"/>
        </g>
        <g id="trash" transform="translate(0, 45)" fill="#000000" stroke-linecap="round" stroke-width="1.5">
            <path fill-rule="evenodd" clip-rule="evenodd" d="M22.0625 6.125C21.3166 6.125 20.6012 6.42132 20.0738 6.94876C19.5463 7.47621 19.25 8.19158 19.25 8.9375V9.875H26.75V8.9375C26.75 8.19158 26.4537 7.47621 25.9262 6.94876C25.3988 6.42132 24.6834 6.125 23.9375 6.125H22.0625ZM28.625 9.875V8.9375C28.625 7.6943 28.1311 6.50201 27.2521 5.62294C26.373 4.74386 25.1807 4.25 23.9375 4.25H22.0625C20.8193 4.25 19.627 4.74386 18.7479 5.62294C17.8689 6.50201 17.375 7.6943 17.375 8.9375V9.875H8.9375C8.41973 9.875 8 10.2947 8 10.8125C8 11.3303 8.41973 11.75 8.9375 11.75H9.95878L12.5122 38.0681C12.6116 39.0931 13.4731 39.875 14.5028 39.875H31.3403C32.3656 39.875 33.2248 39.0997 33.3298 38.0799L36.0412 11.75H37.0625C37.5803 11.75 38 11.3303 38 10.8125C38 10.2947 37.5803 9.875 37.0625 9.875H28.625ZM34.158 11.75H11.842L14.3071 37.0968C14.3569 37.6092 14.7876 38 15.3024 38H30.5358C31.0482 38 31.4776 37.6127 31.5305 37.1031L34.158 11.75Z" fill="#161622"/>
        </g>
        <g id="marker1" transform="translate(0, 90)" >
        </g>
        <g id="marker2" transform="translate(0, 90)" fill="none" stroke-width="2">
            <rect x="2.5" y="2.5" width="40" height="40" rx="2" />
        </g>
    </g>
</svg>